<svg width="81.001" height="72.8" viewBox="0 0 81.001 72.8" xmlns="http://www.w3.org/2000/svg"><g id="svgGroup" stroke-linecap="round" fill-rule="evenodd" font-size="9pt" stroke="#000" stroke-width="0.25mm" fill="#000" style="stroke:#000;stroke-width:0.25mm;fill:#000"><path d="M 71.9 12.1 L 62 11.4 A 53.441 53.441 0 0 0 59.066 11.474 Q 52.631 11.83 52.3 13.9 A 89.224 89.224 0 0 0 51.319 19.295 Q 50.94 21.842 50.782 24.115 A 48.729 48.729 0 0 0 50.7 25.6 A 2.115 2.115 0 0 0 50.727 25.953 Q 50.833 26.578 51.362 26.599 A 0.941 0.941 0 0 0 51.4 26.6 Q 51.554 26.6 51.825 26.482 A 3.598 3.598 0 0 0 52 26.4 A 16.348 16.348 0 0 1 57.47 24.686 A 20.946 20.946 0 0 1 60.3 24.5 A 27.117 27.117 0 0 1 64.96 24.884 A 21.248 21.248 0 0 1 68.75 25.9 A 17.737 17.737 0 0 1 71.525 27.203 Q 73.353 28.275 74.6 29.7 A 34.628 34.628 0 0 1 77.077 32.872 A 29.247 29.247 0 0 1 78.15 34.55 A 17.004 17.004 0 0 1 80.037 39.259 A 19.448 19.448 0 0 1 80.2 40 Q 81 44.8 81 48 A 32.194 32.194 0 0 1 79.977 56.312 A 24.616 24.616 0 0 1 75.25 65.65 A 18.691 18.691 0 0 1 63.306 72.363 A 27.595 27.595 0 0 1 58.9 72.7 L 58.6 72.7 Q 49.3 72.7 43.55 69.1 A 11.592 11.592 0 0 1 38.002 60.808 A 16.18 16.18 0 0 1 37.8 58.2 Q 37.8 54.7 38.85 52.1 A 13.608 13.608 0 0 1 39.606 50.511 Q 40.049 49.727 40.552 49.132 A 6.15 6.15 0 0 1 41.4 48.3 Q 44.5 45.8 47 45.6 L 48 45.5 Q 50.3 45.5 52.4 46.55 A 4.539 4.539 0 0 1 53.485 47.287 A 3.166 3.166 0 0 1 54.5 49.7 A 1.361 1.361 0 0 1 54.326 50.346 Q 54.09 50.786 53.538 51.24 A 5.73 5.73 0 0 1 53.4 51.35 Q 52.3 52.2 51.5 53.85 Q 50.723 55.453 50.606 56.537 A 3.859 3.859 0 0 0 50.6 56.6 L 50.4 57.8 A 13.446 13.446 0 0 0 50.543 59.817 Q 50.759 61.237 51.3 62.35 Q 51.964 63.715 52.9 64.399 A 3.558 3.558 0 0 0 53.6 64.8 A 15.293 15.293 0 0 0 54.969 65.38 Q 56.4 65.9 57.5 65.9 Q 61 65.9 63.35 63.55 Q 65.7 61.2 66.6 57.6 Q 67.9 52 67.9 48.9 Q 67.9 31.8 58.3 31.8 Q 52.4 31.8 48.8 37.2 Q 48.384 38.615 45.684 38.852 A 13.555 13.555 0 0 1 44.5 38.9 A 13.619 13.619 0 0 1 43.257 38.848 Q 40.7 38.613 40.7 37.3 L 40.7 36.9 Q 42.8 24.589 44.171 4.081 A 682.298 682.298 0 0 0 44.3 2.1 Q 44.6 1.2 45.7 1 A 161.348 161.348 0 0 1 50.014 0.851 Q 52.33 0.8 54.9 0.8 L 66.4 1 Q 75.522 1 77.468 0.214 A 2.479 2.479 0 0 0 77.5 0.2 A 1.904 1.904 0 0 1 78.171 0.011 A 2.337 2.337 0 0 1 78.4 0 Q 79.194 0 79.358 0.63 A 1.473 1.473 0 0 1 79.4 1 A 8.712 8.712 0 0 1 79.123 3.085 Q 78.636 5.049 77.299 7.502 A 31.674 31.674 0 0 1 77.05 7.95 A 14.467 14.467 0 0 1 75.924 9.667 Q 74.044 12.1 71.9 12.1 Z M 10.5 0.5 L 25.7 1 Q 30.9 1 34.2 0.6 L 35.3 0.4 A 1.296 1.296 0 0 1 36.477 1.154 Q 36.833 1.792 36.947 2.97 A 12.866 12.866 0 0 1 37 4.2 A 18.945 18.945 0 0 1 36.715 7.565 A 14.348 14.348 0 0 1 35.7 10.9 A 144.222 144.222 0 0 0 25.566 29.986 Q 20.895 40.792 19.07 50.91 A 71.426 71.426 0 0 0 17.9 63.6 A 45.947 45.947 0 0 0 17.936 65.494 Q 18.046 68.14 18.491 69.265 A 2.548 2.548 0 0 0 18.65 69.6 A 75.048 75.048 0 0 1 18.826 69.906 Q 19.4 70.913 19.4 71 A 1.186 1.186 0 0 1 18.758 72.02 Q 17.52 72.8 13.9 72.8 A 39.651 39.651 0 0 1 10.821 72.691 Q 4.1 72.164 4.1 69.1 Q 4.1 55.3 15.05 34.5 Q 26 13.7 26 12.1 A 1.194 1.194 0 0 0 25.937 11.698 Q 25.775 11.244 25.2 11.1 A 128.233 128.233 0 0 0 22.369 10.963 Q 21.073 10.916 19.91 10.904 A 74.495 74.495 0 0 0 19.15 10.9 A 25.662 25.662 0 0 0 16.523 11.043 Q 15.15 11.185 13.636 11.467 A 43.188 43.188 0 0 0 13.2 11.55 Q 11.035 11.977 9.472 12.554 A 12.367 12.367 0 0 0 8 13.2 Q 5.221 14.59 3.94 15.765 A 4.699 4.699 0 0 0 3.2 16.6 L 2.7 17.3 A 4.328 4.328 0 0 1 2.367 17.797 Q 1.813 18.5 1.2 18.5 A 1.099 1.099 0 0 1 0.571 18.327 Q 0.141 18.036 0.035 17.261 A 4.155 4.155 0 0 1 0 16.7 A 102.296 102.296 0 0 1 0.101 11.966 Q 0.585 1.58 3.4 1 Q 5.4 0.5 10.5 0.5 Z" vector-effect="non-scaling-stroke"/></g></svg>