M48
; DRILL file {KiCad (6.0.4)} date Sat Oct 29 20:57:45 2022
; FORMAT={-:-/ absolute / inch / decimal}
; #@! TF.CreationDate,2022-10-29T20:57:45+01:00
; #@! TF.GenerationSoftware,Kicad,Pcbnew,(6.0.4)
; #@! TF.FileFunction,Plated,1,2,PTH
FMAT,2
INCH
; #@! TA.AperFunction,Plated,PTH,ViaDrill
T1C0.0118
; #@! TA.AperFunction,Plated,PTH,ViaDrill
T2C0.0157
; #@! TA.AperFunction,Plated,PTH,ComponentDrill
T3C0.0197
; #@! TA.AperFunction,Plated,PTH,ComponentDrill
T4C0.0236
; #@! TA.AperFunction,Plated,PTH,ComponentDrill
T5C0.0276
; #@! TA.AperFunction,Plated,PTH,ComponentDrill
T6C0.0866
%
G90
G05
T1
X1.2992Y-2.7953
X1.2992Y-3.1496
X1.2992Y-3.248
X1.3349Y-3.5817
X1.4567Y-3.5817
X1.5157Y-4.2126
X1.5357Y-2.9927
X1.582Y-2.9927
X1.5945Y-3.1977
X1.5957Y-3.2585
X1.6083Y-3.3565
X1.6152Y-2.9927
X1.6556Y-3.5013
X1.6732Y-4.311
X1.6971Y-2.9036
X1.6971Y-2.9584
X1.7207Y-3.7727
X1.7207Y-3.5026
X1.7216Y-3.1618
X1.7257Y-2.4427
X1.73Y-3.285
X1.7308Y-3.4464
X1.745Y-3.06
X1.7457Y-3.3576
X1.7507Y-3.5576
X1.7513Y-3.5281
X1.7707Y-3.8477
X1.775Y-3.125
X1.7913Y-2.9134
X1.795Y-3.215
X1.8095Y-2.3334
X1.8192Y-2.7025
X1.8266Y-3.4586
X1.845Y-3.16
X1.8453Y-3.4767
X1.8657Y-4.7677
X1.8716Y-3.4232
X1.8757Y-2.9077
X1.8757Y-2.9375
X1.8898Y-3.6811
X1.9048Y-3.4521
X1.9066Y-3.3882
X1.9352Y-3.3188
X1.9357Y-2.4477
X1.9363Y-3.4207
X1.9366Y-3.3582
X1.9366Y-3.4832
X1.9366Y-3.5582
X1.9667Y-3.3913
X1.97Y-2.3577
X1.9714Y-3.4542
X1.9721Y-4.8481
X1.9721Y-4.9409
X1.9957Y-2.8677
X2.0007Y-3.4222
X2.0772Y-3.297
X2.0907Y-4.0377
X2.0907Y-4.2227
X2.1107Y-3.6711
X2.1143Y-3.5877
X2.1157Y-3.1366
X2.126Y-2.7756
X2.126Y-3.937
X2.1375Y-3.2725
X2.1557Y-2.9677
X2.1749Y-3.6786
X2.1857Y-2.9269
X2.1944Y-3.5822
X2.2052Y-3.6611
X2.215Y-3.455
X2.2343Y-3.6405
X2.2457Y-3.4878
X2.2457Y-3.5173
X2.2457Y-3.5468
X2.2638Y-2.5394
X2.2657Y-3.6239
X2.2857Y-2.7777
X2.3307Y-3.4576
X2.3622Y-3.937
X2.4107Y-3.3776
X2.4485Y-2.6473
X2.5057Y-2.5727
X2.55Y-2.78
X2.5607Y-4.1627
X2.5787Y-3.4252
X2.5907Y-3.7177
X2.5957Y-3.8177
X2.6007Y-4.0477
X2.6207Y-3.7177
X2.6307Y-3.5427
X2.6307Y-3.5727
X2.6307Y-3.6148
X2.6407Y-4.2227
X2.6414Y-3.7615
X2.6957Y-2.5477
X2.6957Y-2.6477
X2.6957Y-3.1977
X2.6957Y-3.2977
X2.7607Y-4.0977
X2.7607Y-4.1732
X2.7657Y-4.8477
X2.7657Y-4.9377
X2.7707Y-3.3858
X3.2907Y-4.2227
X3.3698Y-3.8521
X3.4457Y-2.5477
X3.4457Y-2.6477
X3.4457Y-3.2977
X3.4457Y-3.3824
X3.4457Y-4.0977
X3.4457Y-4.1732
X3.4457Y-4.8477
X3.4457Y-4.9409
X3.6407Y-3.5727
X4.0357Y-4.2227
X4.0807Y-3.5727
X4.165Y-3.7103
X4.1957Y-2.5477
X4.1957Y-2.6477
X4.1957Y-3.2977
X4.1957Y-3.3824
X4.1957Y-4.0977
X4.1957Y-4.1732
X4.1957Y-4.8477
X4.1957Y-4.9409
X4.4007Y-3.5727
X4.7857Y-4.2227
X4.8307Y-3.5727
X4.9131Y-3.7103
X4.9457Y-2.5477
X4.9457Y-2.6477
X4.9457Y-3.2977
X4.9457Y-3.3824
X4.9457Y-4.0977
X4.9457Y-4.1732
X4.9457Y-4.8477
X5.1007Y-3.5727
X5.2457Y-5.2827
X5.5707Y-4.2227
X5.6157Y-3.5727
X5.669Y-3.7103
X5.6957Y-2.5477
X5.6957Y-2.6477
X5.6957Y-3.2977
X5.6957Y-3.3824
X5.6957Y-4.0977
X5.6957Y-4.1732
X5.8807Y-3.5727
X6.0957Y-4.8477
X6.2107Y-5.3027
X6.3207Y-4.2227
X6.3657Y-3.5727
X6.417Y-3.7103
X6.4407Y-4.9927
X6.4457Y-2.5477
X6.4457Y-2.6477
X6.4457Y-3.2977
X6.4457Y-3.3824
X6.4457Y-4.0977
X6.4457Y-4.1732
X6.4457Y-4.8477
X6.5945Y-5.0984
X6.6457Y-3.5727
X7.1007Y-4.2227
X7.1611Y-3.7103
X7.1957Y-2.5477
X7.1957Y-2.6477
X7.1957Y-3.2077
X7.1957Y-3.2677
X7.1957Y-4.0977
X7.1957Y-4.1732
X7.2207Y-4.8477
X7.3557Y-3.5727
X7.3707Y-5.3927
X7.7657Y-4.2227
X7.8307Y-3.5727
X7.8707Y-5.0827
X7.9131Y-3.7103
X7.9457Y-2.5477
X7.9457Y-2.6477
X7.9457Y-3.2977
X7.9457Y-3.3824
X7.9457Y-4.0977
X7.9457Y-4.1732
X7.9457Y-4.8477
X8.1407Y-3.5727
X8.1407Y-5.3027
X8.1957Y-5.2027
X8.6207Y-4.2227
X8.665Y-3.7064
X8.6657Y-3.5727
X8.6957Y-2.5477
X8.6957Y-2.6477
X8.6957Y-3.2977
X8.6957Y-3.3824
X8.6957Y-4.0977
X8.6957Y-4.1732
X8.6957Y-4.8477
X8.6957Y-4.9409
X8.9057Y-3.5727
X9.3107Y-4.2227
X9.3557Y-3.5727
X9.4131Y-3.7103
X9.4457Y-2.5477
X9.4457Y-2.6477
X9.4457Y-3.2977
X9.4457Y-3.3824
X9.4457Y-4.0977
X9.4457Y-4.1732
X9.4457Y-4.8477
X9.4488Y-4.9409
X9.6357Y-3.5727
X10.0607Y-4.2227
X10.1057Y-3.5727
X10.165Y-3.7064
X10.1957Y-2.5477
X10.1957Y-2.6477
X10.1957Y-3.2977
X10.1957Y-3.3824
X10.1957Y-4.0977
X10.1957Y-4.1732
X10.1957Y-4.8477
X10.1969Y-4.9409
X10.3807Y-3.5727
X10.8557Y-4.2227
X10.9007Y-3.5727
X10.9249Y-3.6985
X10.9457Y-2.5477
X10.9457Y-2.6477
X10.9457Y-3.2977
X10.9457Y-3.3824
X10.9457Y-4.0977
X10.9457Y-4.1732
X10.9457Y-4.8477
X10.9457Y-4.9409
X11.5807Y-4.2227
X11.6453Y-3.1237
X11.6957Y-2.5477
X11.6957Y-2.6477
X11.6957Y-3.2977
X11.6957Y-3.3977
X11.6957Y-4.0977
X11.6957Y-4.1732
X11.6957Y-4.8477
X11.6957Y-4.9409
T2
X1.6357Y-2.3327
X1.6507Y-2.8227
X1.7257Y-2.3627
X1.829Y-2.5515
X1.8757Y-2.5677
X1.9357Y-3.1577
X1.946Y-2.3177
X1.9957Y-3.1677
T3
X1.5257Y-2.6577
X1.7417Y-2.5461
X1.8357Y-3.0177
T4
X1.8757Y-2.7427
X1.8757Y-2.7927
T5
X1.2161Y-3.4156
X1.2161Y-3.5164
X1.2161Y-3.6172
T4
G00X1.6823Y-2.0625
M15
G01X1.6823Y-2.0862
M16
G05
G00X1.6823Y-2.2173
M15
G01X1.6823Y-2.2606
M16
G05
G00X2.0224Y-2.0625
M15
G01X2.0224Y-2.0862
M16
G05
G00X2.0224Y-2.2173
M15
G01X2.0224Y-2.2606
M16
G05
T6
G00X2.605Y-5.0064
M15
G01X2.6365Y-5.0064
M16
G05
G00X3.3549Y-2.7566
M15
G01X3.3864Y-2.7566
M16
G05
G00X7.1051Y-3.5068
M15
G01X7.1366Y-3.5068
M16
G05
G00X8.6059Y-5.1495
M15
G01X8.6374Y-5.1495
M16
G05
G00X10.105Y-2.7553
M15
G01X10.1365Y-2.7553
M16
G05
T0
M30
