%TF.GenerationSoftware,KiCad,Pcbnew,(6.0.4)*%
%TF.CreationDate,2022-09-08T11:42:32+01:00*%
%TF.ProjectId,nova75,6e6f7661-3735-42e6-9b69-6361645f7063,rev?*%
%TF.SameCoordinates,Original*%
%TF.FileFunction,Other,Comment*%
%FSLAX46Y46*%
G04 Gerber Fmt 4.6, Leading zero omitted, Abs format (unit mm)*
G04 Created by KiCad (PCBNEW (6.0.4)) date 2022-09-08 11:42:32*
%MOMM*%
%LPD*%
G01*
G04 APERTURE LIST*
%ADD10C,0.304800*%
%ADD11C,0.200000*%
%ADD12C,0.150000*%
G04 APERTURE END LIST*
D10*
X1834900Y-85983192D02*
X1834900Y-86708907D01*
X2802519Y-86781478D01*
X2705757Y-86708907D01*
X2608995Y-86563764D01*
X2608995Y-86200907D01*
X2705757Y-86055764D01*
X2802519Y-85983192D01*
X2996042Y-85910621D01*
X3479852Y-85910621D01*
X3673376Y-85983192D01*
X3770138Y-86055764D01*
X3866900Y-86200907D01*
X3866900Y-86563764D01*
X3770138Y-86708907D01*
X3673376Y-86781478D01*
X1834900Y-84604335D02*
X1834900Y-84894621D01*
X1931661Y-85039764D01*
X2028423Y-85112335D01*
X2318709Y-85257478D01*
X2705757Y-85330050D01*
X3479852Y-85330050D01*
X3673376Y-85257478D01*
X3770138Y-85184907D01*
X3866900Y-85039764D01*
X3866900Y-84749478D01*
X3770138Y-84604335D01*
X3673376Y-84531764D01*
X3479852Y-84459192D01*
X2996042Y-84459192D01*
X2802519Y-84531764D01*
X2705757Y-84604335D01*
X2608995Y-84749478D01*
X2608995Y-85039764D01*
X2705757Y-85184907D01*
X2802519Y-85257478D01*
X2996042Y-85330050D01*
X3673376Y-83806050D02*
X3770138Y-83733478D01*
X3866900Y-83806050D01*
X3770138Y-83878621D01*
X3673376Y-83806050D01*
X3866900Y-83806050D01*
X1834900Y-82354621D02*
X1834900Y-83080335D01*
X2802519Y-83152907D01*
X2705757Y-83080335D01*
X2608995Y-82935192D01*
X2608995Y-82572335D01*
X2705757Y-82427192D01*
X2802519Y-82354621D01*
X2996042Y-82282050D01*
X3479852Y-82282050D01*
X3673376Y-82354621D01*
X3770138Y-82427192D01*
X3866900Y-82572335D01*
X3866900Y-82935192D01*
X3770138Y-83080335D01*
X3673376Y-83152907D01*
X1834900Y-81338621D02*
X1834900Y-81193478D01*
X1931662Y-81048335D01*
X2028423Y-80975764D01*
X2221947Y-80903192D01*
X2608995Y-80830621D01*
X3092804Y-80830621D01*
X3479852Y-80903192D01*
X3673376Y-80975764D01*
X3770138Y-81048335D01*
X3866900Y-81193478D01*
X3866900Y-81338621D01*
X3770138Y-81483764D01*
X3673376Y-81556335D01*
X3479852Y-81628907D01*
X3092804Y-81701478D01*
X2608995Y-81701478D01*
X2221947Y-81628907D01*
X2028423Y-81556335D01*
X1931662Y-81483764D01*
X1834900Y-81338621D01*
X1834900Y-79887192D02*
X1834900Y-79742050D01*
X1931662Y-79596907D01*
X2028423Y-79524335D01*
X2221947Y-79451764D01*
X2608995Y-79379192D01*
X3092804Y-79379192D01*
X3479852Y-79451764D01*
X3673376Y-79524335D01*
X3770138Y-79596907D01*
X3866900Y-79742050D01*
X3866900Y-79887192D01*
X3770138Y-80032335D01*
X3673376Y-80104907D01*
X3479852Y-80177478D01*
X3092804Y-80250050D01*
X2608995Y-80250050D01*
X2221947Y-80177478D01*
X2028423Y-80104907D01*
X1931662Y-80032335D01*
X1834900Y-79887192D01*
X1834900Y-78435764D02*
X1834900Y-78290621D01*
X1931662Y-78145478D01*
X2028423Y-78072907D01*
X2221947Y-78000335D01*
X2608995Y-77927764D01*
X3092804Y-77927764D01*
X3479852Y-78000335D01*
X3673376Y-78072907D01*
X3770138Y-78145478D01*
X3866900Y-78290621D01*
X3866900Y-78435764D01*
X3770138Y-78580907D01*
X3673376Y-78653478D01*
X3479852Y-78726050D01*
X3092804Y-78798621D01*
X2608995Y-78798621D01*
X2221947Y-78726050D01*
X2028423Y-78653478D01*
X1931662Y-78580907D01*
X1834900Y-78435764D01*
X3866900Y-76113478D02*
X2512233Y-76113478D01*
X2705757Y-76113478D02*
X2608995Y-76040907D01*
X2512233Y-75895764D01*
X2512233Y-75678050D01*
X2608995Y-75532907D01*
X2802519Y-75460335D01*
X3866900Y-75460335D01*
X2802519Y-75460335D02*
X2608995Y-75387764D01*
X2512233Y-75242621D01*
X2512233Y-75024907D01*
X2608995Y-74879764D01*
X2802519Y-74807192D01*
X3866900Y-74807192D01*
X3866900Y-74081478D02*
X2512233Y-74081478D01*
X2705757Y-74081478D02*
X2608995Y-74008907D01*
X2512233Y-73863764D01*
X2512233Y-73646050D01*
X2608995Y-73500907D01*
X2802519Y-73428335D01*
X3866900Y-73428335D01*
X2802519Y-73428335D02*
X2608995Y-73355764D01*
X2512233Y-73210621D01*
X2512233Y-72992907D01*
X2608995Y-72847764D01*
X2802519Y-72775192D01*
X3866900Y-72775192D01*
D11*
X30434462Y-51492050D02*
X4698042Y-51492050D01*
X30434462Y-107992050D02*
X4698042Y-107992050D01*
X5284462Y-51492050D02*
X5284462Y-107992050D01*
X5284462Y-51492050D02*
X5284462Y-107992050D01*
X5284462Y-51492050D02*
X4698041Y-52618554D01*
X5284462Y-51492050D02*
X5870883Y-52618554D01*
X5284462Y-107992050D02*
X5870883Y-106865546D01*
X5284462Y-107992050D02*
X4698041Y-106865546D01*
D10*
X347366900Y-105686335D02*
X347366900Y-105396050D01*
X347270138Y-105250907D01*
X347173376Y-105178335D01*
X346883090Y-105033192D01*
X346496042Y-104960621D01*
X345721947Y-104960621D01*
X345528423Y-105033192D01*
X345431662Y-105105764D01*
X345334900Y-105250907D01*
X345334900Y-105541192D01*
X345431662Y-105686335D01*
X345528423Y-105758907D01*
X345721947Y-105831478D01*
X346205757Y-105831478D01*
X346399281Y-105758907D01*
X346496042Y-105686335D01*
X346592804Y-105541192D01*
X346592804Y-105250907D01*
X346496042Y-105105764D01*
X346399281Y-105033192D01*
X346205757Y-104960621D01*
X346012233Y-103654335D02*
X347366900Y-103654335D01*
X345238138Y-104017192D02*
X346689566Y-104380050D01*
X346689566Y-103436621D01*
X347173376Y-102856050D02*
X347270138Y-102783478D01*
X347366900Y-102856050D01*
X347270138Y-102928621D01*
X347173376Y-102856050D01*
X347366900Y-102856050D01*
X345334900Y-101477192D02*
X345334900Y-101767478D01*
X345431662Y-101912621D01*
X345528423Y-101985192D01*
X345818709Y-102130335D01*
X346205757Y-102202907D01*
X346979852Y-102202907D01*
X347173376Y-102130335D01*
X347270138Y-102057764D01*
X347366900Y-101912621D01*
X347366900Y-101622335D01*
X347270138Y-101477192D01*
X347173376Y-101404621D01*
X346979852Y-101332050D01*
X346496042Y-101332050D01*
X346302519Y-101404621D01*
X346205757Y-101477192D01*
X346108995Y-101622335D01*
X346108995Y-101912621D01*
X346205757Y-102057764D01*
X346302519Y-102130335D01*
X346496042Y-102202907D01*
X345334900Y-100388621D02*
X345334900Y-100243478D01*
X345431662Y-100098335D01*
X345528423Y-100025764D01*
X345721947Y-99953192D01*
X346108995Y-99880621D01*
X346592804Y-99880621D01*
X346979852Y-99953192D01*
X347173376Y-100025764D01*
X347270138Y-100098335D01*
X347366900Y-100243478D01*
X347366900Y-100388621D01*
X347270138Y-100533764D01*
X347173376Y-100606335D01*
X346979852Y-100678907D01*
X346592804Y-100751478D01*
X346108995Y-100751478D01*
X345721947Y-100678907D01*
X345528423Y-100606335D01*
X345431662Y-100533764D01*
X345334900Y-100388621D01*
X345334900Y-98937192D02*
X345334900Y-98792050D01*
X345431662Y-98646907D01*
X345528423Y-98574335D01*
X345721947Y-98501764D01*
X346108995Y-98429192D01*
X346592804Y-98429192D01*
X346979852Y-98501764D01*
X347173376Y-98574335D01*
X347270138Y-98646907D01*
X347366900Y-98792050D01*
X347366900Y-98937192D01*
X347270138Y-99082335D01*
X347173376Y-99154907D01*
X346979852Y-99227478D01*
X346592804Y-99300050D01*
X346108995Y-99300050D01*
X345721947Y-99227478D01*
X345528423Y-99154907D01*
X345431662Y-99082335D01*
X345334900Y-98937192D01*
X345334900Y-97485764D02*
X345334900Y-97340621D01*
X345431662Y-97195478D01*
X345528423Y-97122907D01*
X345721947Y-97050335D01*
X346108995Y-96977764D01*
X346592804Y-96977764D01*
X346979852Y-97050335D01*
X347173376Y-97122907D01*
X347270138Y-97195478D01*
X347366900Y-97340621D01*
X347366900Y-97485764D01*
X347270138Y-97630907D01*
X347173376Y-97703478D01*
X346979852Y-97776050D01*
X346592804Y-97848621D01*
X346108995Y-97848621D01*
X345721947Y-97776050D01*
X345528423Y-97703478D01*
X345431662Y-97630907D01*
X345334900Y-97485764D01*
X347366900Y-95163478D02*
X346012233Y-95163478D01*
X346205757Y-95163478D02*
X346108995Y-95090907D01*
X346012233Y-94945764D01*
X346012233Y-94728050D01*
X346108995Y-94582907D01*
X346302519Y-94510335D01*
X347366900Y-94510335D01*
X346302519Y-94510335D02*
X346108995Y-94437764D01*
X346012233Y-94292621D01*
X346012233Y-94074907D01*
X346108995Y-93929764D01*
X346302519Y-93857192D01*
X347366900Y-93857192D01*
X347366900Y-93131478D02*
X346012233Y-93131478D01*
X346205757Y-93131478D02*
X346108995Y-93058907D01*
X346012233Y-92913764D01*
X346012233Y-92696050D01*
X346108995Y-92550907D01*
X346302519Y-92478335D01*
X347366900Y-92478335D01*
X346302519Y-92478335D02*
X346108995Y-92405764D01*
X346012233Y-92260621D01*
X346012233Y-92042907D01*
X346108995Y-91897764D01*
X346302519Y-91825192D01*
X347366900Y-91825192D01*
D11*
X311784462Y-51492050D02*
X349370882Y-51492050D01*
X311784462Y-146092050D02*
X349370882Y-146092050D01*
X348784462Y-51492050D02*
X348784462Y-146092050D01*
X348784462Y-51492050D02*
X348784462Y-146092050D01*
X348784462Y-51492050D02*
X348198041Y-52618554D01*
X348784462Y-51492050D02*
X349370883Y-52618554D01*
X348784462Y-146092050D02*
X349370883Y-144965546D01*
X348784462Y-146092050D02*
X348198041Y-144965546D01*
D10*
X86180176Y-24654489D02*
X85309319Y-24654489D01*
X85744747Y-24654489D02*
X85744747Y-22622489D01*
X85599604Y-22912774D01*
X85454462Y-23106298D01*
X85309319Y-23203060D01*
X86760747Y-22816012D02*
X86833319Y-22719251D01*
X86978462Y-22622489D01*
X87341319Y-22622489D01*
X87486462Y-22719251D01*
X87559033Y-22816012D01*
X87631604Y-23009536D01*
X87631604Y-23203060D01*
X87559033Y-23493346D01*
X86688176Y-24654489D01*
X87631604Y-24654489D01*
X88502462Y-23493346D02*
X88357319Y-23396584D01*
X88284747Y-23299822D01*
X88212176Y-23106298D01*
X88212176Y-23009536D01*
X88284747Y-22816012D01*
X88357319Y-22719251D01*
X88502462Y-22622489D01*
X88792747Y-22622489D01*
X88937890Y-22719251D01*
X89010462Y-22816012D01*
X89083033Y-23009536D01*
X89083033Y-23106298D01*
X89010462Y-23299822D01*
X88937890Y-23396584D01*
X88792747Y-23493346D01*
X88502462Y-23493346D01*
X88357319Y-23590108D01*
X88284747Y-23686870D01*
X88212176Y-23880393D01*
X88212176Y-24267441D01*
X88284747Y-24460965D01*
X88357319Y-24557727D01*
X88502462Y-24654489D01*
X88792747Y-24654489D01*
X88937890Y-24557727D01*
X89010462Y-24460965D01*
X89083033Y-24267441D01*
X89083033Y-23880393D01*
X89010462Y-23686870D01*
X88937890Y-23590108D01*
X88792747Y-23493346D01*
X89736176Y-24460965D02*
X89808747Y-24557727D01*
X89736176Y-24654489D01*
X89663604Y-24557727D01*
X89736176Y-24460965D01*
X89736176Y-24654489D01*
X90389319Y-22816012D02*
X90461890Y-22719251D01*
X90607033Y-22622489D01*
X90969890Y-22622489D01*
X91115033Y-22719251D01*
X91187604Y-22816012D01*
X91260176Y-23009536D01*
X91260176Y-23203060D01*
X91187604Y-23493346D01*
X90316747Y-24654489D01*
X91260176Y-24654489D01*
X92203604Y-22622489D02*
X92348747Y-22622489D01*
X92493890Y-22719251D01*
X92566462Y-22816012D01*
X92639033Y-23009536D01*
X92711604Y-23396584D01*
X92711604Y-23880393D01*
X92639033Y-24267441D01*
X92566462Y-24460965D01*
X92493890Y-24557727D01*
X92348747Y-24654489D01*
X92203604Y-24654489D01*
X92058462Y-24557727D01*
X91985890Y-24460965D01*
X91913319Y-24267441D01*
X91840747Y-23880393D01*
X91840747Y-23396584D01*
X91913319Y-23009536D01*
X91985890Y-22816012D01*
X92058462Y-22719251D01*
X92203604Y-22622489D01*
X93655033Y-22622489D02*
X93800176Y-22622489D01*
X93945319Y-22719251D01*
X94017890Y-22816012D01*
X94090462Y-23009536D01*
X94163033Y-23396584D01*
X94163033Y-23880393D01*
X94090462Y-24267441D01*
X94017890Y-24460965D01*
X93945319Y-24557727D01*
X93800176Y-24654489D01*
X93655033Y-24654489D01*
X93509890Y-24557727D01*
X93437319Y-24460965D01*
X93364747Y-24267441D01*
X93292176Y-23880393D01*
X93292176Y-23396584D01*
X93364747Y-23009536D01*
X93437319Y-22816012D01*
X93509890Y-22719251D01*
X93655033Y-22622489D01*
X95106462Y-22622489D02*
X95251604Y-22622489D01*
X95396747Y-22719251D01*
X95469319Y-22816012D01*
X95541890Y-23009536D01*
X95614462Y-23396584D01*
X95614462Y-23880393D01*
X95541890Y-24267441D01*
X95469319Y-24460965D01*
X95396747Y-24557727D01*
X95251604Y-24654489D01*
X95106462Y-24654489D01*
X94961319Y-24557727D01*
X94888747Y-24460965D01*
X94816176Y-24267441D01*
X94743604Y-23880393D01*
X94743604Y-23396584D01*
X94816176Y-23009536D01*
X94888747Y-22816012D01*
X94961319Y-22719251D01*
X95106462Y-22622489D01*
X97428747Y-24654489D02*
X97428747Y-23299822D01*
X97428747Y-23493346D02*
X97501319Y-23396584D01*
X97646462Y-23299822D01*
X97864176Y-23299822D01*
X98009319Y-23396584D01*
X98081890Y-23590108D01*
X98081890Y-24654489D01*
X98081890Y-23590108D02*
X98154462Y-23396584D01*
X98299604Y-23299822D01*
X98517319Y-23299822D01*
X98662462Y-23396584D01*
X98735033Y-23590108D01*
X98735033Y-24654489D01*
X99460747Y-24654489D02*
X99460747Y-23299822D01*
X99460747Y-23493346D02*
X99533319Y-23396584D01*
X99678462Y-23299822D01*
X99896176Y-23299822D01*
X100041319Y-23396584D01*
X100113890Y-23590108D01*
X100113890Y-24654489D01*
X100113890Y-23590108D02*
X100186462Y-23396584D01*
X100331604Y-23299822D01*
X100549319Y-23299822D01*
X100694462Y-23396584D01*
X100767033Y-23590108D01*
X100767033Y-24654489D01*
D11*
X28974462Y-98492050D02*
X28974462Y-25485631D01*
X157174462Y-98492050D02*
X157174462Y-25485631D01*
X28974462Y-26072051D02*
X157174462Y-26072051D01*
X28974462Y-26072051D02*
X157174462Y-26072051D01*
X28974462Y-26072051D02*
X30100966Y-26658472D01*
X28974462Y-26072051D02*
X30100966Y-25485630D01*
X157174462Y-26072051D02*
X156047958Y-25485630D01*
X157174462Y-26072051D02*
X156047958Y-26658472D01*
D10*
X49763176Y-29322488D02*
X50706604Y-29322488D01*
X50198604Y-30096583D01*
X50416319Y-30096583D01*
X50561462Y-30193345D01*
X50634033Y-30290107D01*
X50706604Y-30483630D01*
X50706604Y-30967440D01*
X50634033Y-31160964D01*
X50561462Y-31257726D01*
X50416319Y-31354488D01*
X49980890Y-31354488D01*
X49835747Y-31257726D01*
X49763176Y-31160964D01*
X51359747Y-31160964D02*
X51432319Y-31257726D01*
X51359747Y-31354488D01*
X51287176Y-31257726D01*
X51359747Y-31160964D01*
X51359747Y-31354488D01*
X52158033Y-31354488D02*
X52448319Y-31354488D01*
X52593462Y-31257726D01*
X52666033Y-31160964D01*
X52811176Y-30870678D01*
X52883747Y-30483630D01*
X52883747Y-29709535D01*
X52811176Y-29516011D01*
X52738604Y-29419250D01*
X52593462Y-29322488D01*
X52303176Y-29322488D01*
X52158033Y-29419250D01*
X52085462Y-29516011D01*
X52012890Y-29709535D01*
X52012890Y-30193345D01*
X52085462Y-30386869D01*
X52158033Y-30483630D01*
X52303176Y-30580392D01*
X52593462Y-30580392D01*
X52738604Y-30483630D01*
X52811176Y-30386869D01*
X52883747Y-30193345D01*
X54262604Y-29322488D02*
X53536890Y-29322488D01*
X53464319Y-30290107D01*
X53536890Y-30193345D01*
X53682033Y-30096583D01*
X54044890Y-30096583D01*
X54190033Y-30193345D01*
X54262604Y-30290107D01*
X54335176Y-30483630D01*
X54335176Y-30967440D01*
X54262604Y-31160964D01*
X54190033Y-31257726D01*
X54044890Y-31354488D01*
X53682033Y-31354488D01*
X53536890Y-31257726D01*
X53464319Y-31160964D01*
X55278604Y-29322488D02*
X55423747Y-29322488D01*
X55568890Y-29419250D01*
X55641462Y-29516011D01*
X55714033Y-29709535D01*
X55786604Y-30096583D01*
X55786604Y-30580392D01*
X55714033Y-30967440D01*
X55641462Y-31160964D01*
X55568890Y-31257726D01*
X55423747Y-31354488D01*
X55278604Y-31354488D01*
X55133462Y-31257726D01*
X55060890Y-31160964D01*
X54988319Y-30967440D01*
X54915747Y-30580392D01*
X54915747Y-30096583D01*
X54988319Y-29709535D01*
X55060890Y-29516011D01*
X55133462Y-29419250D01*
X55278604Y-29322488D01*
X56730033Y-29322488D02*
X56875176Y-29322488D01*
X57020319Y-29419250D01*
X57092890Y-29516011D01*
X57165462Y-29709535D01*
X57238033Y-30096583D01*
X57238033Y-30580392D01*
X57165462Y-30967440D01*
X57092890Y-31160964D01*
X57020319Y-31257726D01*
X56875176Y-31354488D01*
X56730033Y-31354488D01*
X56584890Y-31257726D01*
X56512319Y-31160964D01*
X56439747Y-30967440D01*
X56367176Y-30580392D01*
X56367176Y-30096583D01*
X56439747Y-29709535D01*
X56512319Y-29516011D01*
X56584890Y-29419250D01*
X56730033Y-29322488D01*
X59052319Y-31354488D02*
X59052319Y-29999821D01*
X59052319Y-30193345D02*
X59124890Y-30096583D01*
X59270033Y-29999821D01*
X59487747Y-29999821D01*
X59632890Y-30096583D01*
X59705462Y-30290107D01*
X59705462Y-31354488D01*
X59705462Y-30290107D02*
X59778033Y-30096583D01*
X59923176Y-29999821D01*
X60140890Y-29999821D01*
X60286033Y-30096583D01*
X60358604Y-30290107D01*
X60358604Y-31354488D01*
X61084319Y-31354488D02*
X61084319Y-29999821D01*
X61084319Y-30193345D02*
X61156890Y-30096583D01*
X61302033Y-29999821D01*
X61519747Y-29999821D01*
X61664890Y-30096583D01*
X61737462Y-30290107D01*
X61737462Y-31354488D01*
X61737462Y-30290107D02*
X61810033Y-30096583D01*
X61955176Y-29999821D01*
X62172890Y-29999821D01*
X62318033Y-30096583D01*
X62390604Y-30290107D01*
X62390604Y-31354488D01*
D11*
X54174462Y-79392050D02*
X54174462Y-32185630D01*
X58124462Y-79392050D02*
X58124462Y-32185630D01*
X54174462Y-32772050D02*
X58124462Y-32772050D01*
X54174462Y-32772050D02*
X58124462Y-32772050D01*
X54174462Y-32772050D02*
X55300966Y-33358471D01*
X54174462Y-32772050D02*
X55300966Y-32185629D01*
X58124462Y-32772050D02*
X56997958Y-32185629D01*
X58124462Y-32772050D02*
X56997958Y-33358471D01*
D10*
X117330176Y-158854488D02*
X116459319Y-158854488D01*
X116894747Y-158854488D02*
X116894747Y-156822488D01*
X116749604Y-157112773D01*
X116604462Y-157306297D01*
X116459319Y-157403059D01*
X118055890Y-158854488D02*
X118346176Y-158854488D01*
X118491319Y-158757726D01*
X118563890Y-158660964D01*
X118709033Y-158370678D01*
X118781604Y-157983630D01*
X118781604Y-157209535D01*
X118709033Y-157016011D01*
X118636462Y-156919250D01*
X118491319Y-156822488D01*
X118201033Y-156822488D01*
X118055890Y-156919250D01*
X117983319Y-157016011D01*
X117910747Y-157209535D01*
X117910747Y-157693345D01*
X117983319Y-157886869D01*
X118055890Y-157983630D01*
X118201033Y-158080392D01*
X118491319Y-158080392D01*
X118636462Y-157983630D01*
X118709033Y-157886869D01*
X118781604Y-157693345D01*
X119725033Y-156822488D02*
X119870176Y-156822488D01*
X120015319Y-156919250D01*
X120087890Y-157016011D01*
X120160462Y-157209535D01*
X120233033Y-157596583D01*
X120233033Y-158080392D01*
X120160462Y-158467440D01*
X120087890Y-158660964D01*
X120015319Y-158757726D01*
X119870176Y-158854488D01*
X119725033Y-158854488D01*
X119579890Y-158757726D01*
X119507319Y-158660964D01*
X119434747Y-158467440D01*
X119362176Y-158080392D01*
X119362176Y-157596583D01*
X119434747Y-157209535D01*
X119507319Y-157016011D01*
X119579890Y-156919250D01*
X119725033Y-156822488D01*
X120886176Y-158660964D02*
X120958747Y-158757726D01*
X120886176Y-158854488D01*
X120813604Y-158757726D01*
X120886176Y-158660964D01*
X120886176Y-158854488D01*
X122337604Y-156822488D02*
X121611890Y-156822488D01*
X121539319Y-157790107D01*
X121611890Y-157693345D01*
X121757033Y-157596583D01*
X122119890Y-157596583D01*
X122265033Y-157693345D01*
X122337604Y-157790107D01*
X122410176Y-157983630D01*
X122410176Y-158467440D01*
X122337604Y-158660964D01*
X122265033Y-158757726D01*
X122119890Y-158854488D01*
X121757033Y-158854488D01*
X121611890Y-158757726D01*
X121539319Y-158660964D01*
X123353604Y-156822488D02*
X123498747Y-156822488D01*
X123643890Y-156919250D01*
X123716462Y-157016011D01*
X123789033Y-157209535D01*
X123861604Y-157596583D01*
X123861604Y-158080392D01*
X123789033Y-158467440D01*
X123716462Y-158660964D01*
X123643890Y-158757726D01*
X123498747Y-158854488D01*
X123353604Y-158854488D01*
X123208462Y-158757726D01*
X123135890Y-158660964D01*
X123063319Y-158467440D01*
X122990747Y-158080392D01*
X122990747Y-157596583D01*
X123063319Y-157209535D01*
X123135890Y-157016011D01*
X123208462Y-156919250D01*
X123353604Y-156822488D01*
X124805033Y-156822488D02*
X124950176Y-156822488D01*
X125095319Y-156919250D01*
X125167890Y-157016011D01*
X125240462Y-157209535D01*
X125313033Y-157596583D01*
X125313033Y-158080392D01*
X125240462Y-158467440D01*
X125167890Y-158660964D01*
X125095319Y-158757726D01*
X124950176Y-158854488D01*
X124805033Y-158854488D01*
X124659890Y-158757726D01*
X124587319Y-158660964D01*
X124514747Y-158467440D01*
X124442176Y-158080392D01*
X124442176Y-157596583D01*
X124514747Y-157209535D01*
X124587319Y-157016011D01*
X124659890Y-156919250D01*
X124805033Y-156822488D01*
X126256462Y-156822488D02*
X126401604Y-156822488D01*
X126546747Y-156919250D01*
X126619319Y-157016011D01*
X126691890Y-157209535D01*
X126764462Y-157596583D01*
X126764462Y-158080392D01*
X126691890Y-158467440D01*
X126619319Y-158660964D01*
X126546747Y-158757726D01*
X126401604Y-158854488D01*
X126256462Y-158854488D01*
X126111319Y-158757726D01*
X126038747Y-158660964D01*
X125966176Y-158467440D01*
X125893604Y-158080392D01*
X125893604Y-157596583D01*
X125966176Y-157209535D01*
X126038747Y-157016011D01*
X126111319Y-156919250D01*
X126256462Y-156822488D01*
X128578747Y-158854488D02*
X128578747Y-157499821D01*
X128578747Y-157693345D02*
X128651319Y-157596583D01*
X128796462Y-157499821D01*
X129014176Y-157499821D01*
X129159319Y-157596583D01*
X129231890Y-157790107D01*
X129231890Y-158854488D01*
X129231890Y-157790107D02*
X129304462Y-157596583D01*
X129449604Y-157499821D01*
X129667319Y-157499821D01*
X129812462Y-157596583D01*
X129885033Y-157790107D01*
X129885033Y-158854488D01*
X130610747Y-158854488D02*
X130610747Y-157499821D01*
X130610747Y-157693345D02*
X130683319Y-157596583D01*
X130828462Y-157499821D01*
X131046176Y-157499821D01*
X131191319Y-157596583D01*
X131263890Y-157790107D01*
X131263890Y-158854488D01*
X131263890Y-157790107D02*
X131336462Y-157596583D01*
X131481604Y-157499821D01*
X131699319Y-157499821D01*
X131844462Y-157596583D01*
X131917033Y-157790107D01*
X131917033Y-158854488D01*
D11*
X28974462Y-136692050D02*
X28974462Y-160858470D01*
X219474462Y-136692050D02*
X219474462Y-160858470D01*
X28974462Y-160272050D02*
X219474462Y-160272050D01*
X28974462Y-160272050D02*
X219474462Y-160272050D01*
X28974462Y-160272050D02*
X30100966Y-160858471D01*
X28974462Y-160272050D02*
X30100966Y-159685629D01*
X219474462Y-160272050D02*
X218347958Y-159685629D01*
X219474462Y-160272050D02*
X218347958Y-160858471D01*
D10*
X13228423Y-96581478D02*
X13131662Y-96508907D01*
X13034900Y-96363764D01*
X13034900Y-96000907D01*
X13131662Y-95855764D01*
X13228423Y-95783192D01*
X13421947Y-95710621D01*
X13615471Y-95710621D01*
X13905757Y-95783192D01*
X15066900Y-96654050D01*
X15066900Y-95710621D01*
X13034900Y-94767192D02*
X13034900Y-94622050D01*
X13131662Y-94476907D01*
X13228423Y-94404335D01*
X13421947Y-94331764D01*
X13808995Y-94259192D01*
X14292804Y-94259192D01*
X14679852Y-94331764D01*
X14873376Y-94404335D01*
X14970138Y-94476907D01*
X15066900Y-94622050D01*
X15066900Y-94767192D01*
X14970138Y-94912335D01*
X14873376Y-94984907D01*
X14679852Y-95057478D01*
X14292804Y-95130050D01*
X13808995Y-95130050D01*
X13421947Y-95057478D01*
X13228423Y-94984907D01*
X13131662Y-94912335D01*
X13034900Y-94767192D01*
X14873376Y-93606050D02*
X14970138Y-93533478D01*
X15066900Y-93606050D01*
X14970138Y-93678621D01*
X14873376Y-93606050D01*
X15066900Y-93606050D01*
X13034900Y-93025478D02*
X13034900Y-92082050D01*
X13808995Y-92590050D01*
X13808995Y-92372335D01*
X13905757Y-92227192D01*
X14002519Y-92154621D01*
X14196042Y-92082050D01*
X14679852Y-92082050D01*
X14873376Y-92154621D01*
X14970138Y-92227192D01*
X15066900Y-92372335D01*
X15066900Y-92807764D01*
X14970138Y-92952907D01*
X14873376Y-93025478D01*
X13034900Y-91138621D02*
X13034900Y-90993478D01*
X13131662Y-90848335D01*
X13228423Y-90775764D01*
X13421947Y-90703192D01*
X13808995Y-90630621D01*
X14292804Y-90630621D01*
X14679852Y-90703192D01*
X14873376Y-90775764D01*
X14970138Y-90848335D01*
X15066900Y-90993478D01*
X15066900Y-91138621D01*
X14970138Y-91283764D01*
X14873376Y-91356335D01*
X14679852Y-91428907D01*
X14292804Y-91501478D01*
X13808995Y-91501478D01*
X13421947Y-91428907D01*
X13228423Y-91356335D01*
X13131662Y-91283764D01*
X13034900Y-91138621D01*
X13034900Y-89687192D02*
X13034900Y-89542050D01*
X13131662Y-89396907D01*
X13228423Y-89324335D01*
X13421947Y-89251764D01*
X13808995Y-89179192D01*
X14292804Y-89179192D01*
X14679852Y-89251764D01*
X14873376Y-89324335D01*
X14970138Y-89396907D01*
X15066900Y-89542050D01*
X15066900Y-89687192D01*
X14970138Y-89832335D01*
X14873376Y-89904907D01*
X14679852Y-89977478D01*
X14292804Y-90050050D01*
X13808995Y-90050050D01*
X13421947Y-89977478D01*
X13228423Y-89904907D01*
X13131662Y-89832335D01*
X13034900Y-89687192D01*
X13034900Y-88235764D02*
X13034900Y-88090621D01*
X13131662Y-87945478D01*
X13228423Y-87872907D01*
X13421947Y-87800335D01*
X13808995Y-87727764D01*
X14292804Y-87727764D01*
X14679852Y-87800335D01*
X14873376Y-87872907D01*
X14970138Y-87945478D01*
X15066900Y-88090621D01*
X15066900Y-88235764D01*
X14970138Y-88380907D01*
X14873376Y-88453478D01*
X14679852Y-88526050D01*
X14292804Y-88598621D01*
X13808995Y-88598621D01*
X13421947Y-88526050D01*
X13228423Y-88453478D01*
X13131662Y-88380907D01*
X13034900Y-88235764D01*
X15066900Y-85913478D02*
X13712233Y-85913478D01*
X13905757Y-85913478D02*
X13808995Y-85840907D01*
X13712233Y-85695764D01*
X13712233Y-85478050D01*
X13808995Y-85332907D01*
X14002519Y-85260335D01*
X15066900Y-85260335D01*
X14002519Y-85260335D02*
X13808995Y-85187764D01*
X13712233Y-85042621D01*
X13712233Y-84824907D01*
X13808995Y-84679764D01*
X14002519Y-84607192D01*
X15066900Y-84607192D01*
X15066900Y-83881478D02*
X13712233Y-83881478D01*
X13905757Y-83881478D02*
X13808995Y-83808907D01*
X13712233Y-83663764D01*
X13712233Y-83446050D01*
X13808995Y-83300907D01*
X14002519Y-83228335D01*
X15066900Y-83228335D01*
X14002519Y-83228335D02*
X13808995Y-83155764D01*
X13712233Y-83010621D01*
X13712233Y-82792907D01*
X13808995Y-82647764D01*
X14002519Y-82575192D01*
X15066900Y-82575192D01*
D11*
X54174462Y-79392050D02*
X15898042Y-79392050D01*
X54174462Y-99692050D02*
X15898042Y-99692050D01*
X16484462Y-79392050D02*
X16484462Y-99692050D01*
X16484462Y-79392050D02*
X16484462Y-99692050D01*
X16484462Y-79392050D02*
X15898041Y-80518554D01*
X16484462Y-79392050D02*
X17070883Y-80518554D01*
X16484462Y-99692050D02*
X17070883Y-98565546D01*
X16484462Y-99692050D02*
X15898041Y-98565546D01*
D10*
X294460033Y-22916012D02*
X294532604Y-22819251D01*
X294677747Y-22722489D01*
X295040604Y-22722489D01*
X295185747Y-22819251D01*
X295258319Y-22916012D01*
X295330890Y-23109536D01*
X295330890Y-23303060D01*
X295258319Y-23593346D01*
X294387462Y-24754489D01*
X295330890Y-24754489D01*
X296637176Y-23399822D02*
X296637176Y-24754489D01*
X296274319Y-22625727D02*
X295911462Y-24077155D01*
X296854890Y-24077155D01*
X297435462Y-24560965D02*
X297508033Y-24657727D01*
X297435462Y-24754489D01*
X297362890Y-24657727D01*
X297435462Y-24560965D01*
X297435462Y-24754489D01*
X298233747Y-24754489D02*
X298524033Y-24754489D01*
X298669176Y-24657727D01*
X298741747Y-24560965D01*
X298886890Y-24270679D01*
X298959462Y-23883631D01*
X298959462Y-23109536D01*
X298886890Y-22916012D01*
X298814319Y-22819251D01*
X298669176Y-22722489D01*
X298378890Y-22722489D01*
X298233747Y-22819251D01*
X298161176Y-22916012D01*
X298088604Y-23109536D01*
X298088604Y-23593346D01*
X298161176Y-23786870D01*
X298233747Y-23883631D01*
X298378890Y-23980393D01*
X298669176Y-23980393D01*
X298814319Y-23883631D01*
X298886890Y-23786870D01*
X298959462Y-23593346D01*
X300338319Y-22722489D02*
X299612604Y-22722489D01*
X299540033Y-23690108D01*
X299612604Y-23593346D01*
X299757747Y-23496584D01*
X300120604Y-23496584D01*
X300265747Y-23593346D01*
X300338319Y-23690108D01*
X300410890Y-23883631D01*
X300410890Y-24367441D01*
X300338319Y-24560965D01*
X300265747Y-24657727D01*
X300120604Y-24754489D01*
X299757747Y-24754489D01*
X299612604Y-24657727D01*
X299540033Y-24560965D01*
X301354319Y-22722489D02*
X301499462Y-22722489D01*
X301644604Y-22819251D01*
X301717176Y-22916012D01*
X301789747Y-23109536D01*
X301862319Y-23496584D01*
X301862319Y-23980393D01*
X301789747Y-24367441D01*
X301717176Y-24560965D01*
X301644604Y-24657727D01*
X301499462Y-24754489D01*
X301354319Y-24754489D01*
X301209176Y-24657727D01*
X301136604Y-24560965D01*
X301064033Y-24367441D01*
X300991462Y-23980393D01*
X300991462Y-23496584D01*
X301064033Y-23109536D01*
X301136604Y-22916012D01*
X301209176Y-22819251D01*
X301354319Y-22722489D01*
X302805747Y-22722489D02*
X302950890Y-22722489D01*
X303096033Y-22819251D01*
X303168604Y-22916012D01*
X303241176Y-23109536D01*
X303313747Y-23496584D01*
X303313747Y-23980393D01*
X303241176Y-24367441D01*
X303168604Y-24560965D01*
X303096033Y-24657727D01*
X302950890Y-24754489D01*
X302805747Y-24754489D01*
X302660604Y-24657727D01*
X302588033Y-24560965D01*
X302515462Y-24367441D01*
X302442890Y-23980393D01*
X302442890Y-23496584D01*
X302515462Y-23109536D01*
X302588033Y-22916012D01*
X302660604Y-22819251D01*
X302805747Y-22722489D01*
X305128033Y-24754489D02*
X305128033Y-23399822D01*
X305128033Y-23593346D02*
X305200604Y-23496584D01*
X305345747Y-23399822D01*
X305563462Y-23399822D01*
X305708604Y-23496584D01*
X305781176Y-23690108D01*
X305781176Y-24754489D01*
X305781176Y-23690108D02*
X305853747Y-23496584D01*
X305998890Y-23399822D01*
X306216604Y-23399822D01*
X306361747Y-23496584D01*
X306434319Y-23690108D01*
X306434319Y-24754489D01*
X307160033Y-24754489D02*
X307160033Y-23399822D01*
X307160033Y-23593346D02*
X307232604Y-23496584D01*
X307377747Y-23399822D01*
X307595462Y-23399822D01*
X307740604Y-23496584D01*
X307813176Y-23690108D01*
X307813176Y-24754489D01*
X307813176Y-23690108D02*
X307885747Y-23496584D01*
X308030890Y-23399822D01*
X308248604Y-23399822D01*
X308393747Y-23496584D01*
X308466319Y-23690108D01*
X308466319Y-24754489D01*
D11*
X313974462Y-79392050D02*
X313974462Y-25585631D01*
X289024462Y-79392050D02*
X289024462Y-25585631D01*
X313974462Y-26172051D02*
X289024462Y-26172051D01*
X313974462Y-26172051D02*
X289024462Y-26172051D01*
X313974462Y-26172051D02*
X312847958Y-25585630D01*
X313974462Y-26172051D02*
X312847958Y-26758472D01*
X289024462Y-26172051D02*
X290150966Y-26758472D01*
X289024462Y-26172051D02*
X290150966Y-25585630D01*
D10*
X34535033Y-29516011D02*
X34607604Y-29419250D01*
X34752747Y-29322488D01*
X35115604Y-29322488D01*
X35260747Y-29419250D01*
X35333319Y-29516011D01*
X35405890Y-29709535D01*
X35405890Y-29903059D01*
X35333319Y-30193345D01*
X34462462Y-31354488D01*
X35405890Y-31354488D01*
X36784747Y-29322488D02*
X36059033Y-29322488D01*
X35986462Y-30290107D01*
X36059033Y-30193345D01*
X36204176Y-30096583D01*
X36567033Y-30096583D01*
X36712176Y-30193345D01*
X36784747Y-30290107D01*
X36857319Y-30483630D01*
X36857319Y-30967440D01*
X36784747Y-31160964D01*
X36712176Y-31257726D01*
X36567033Y-31354488D01*
X36204176Y-31354488D01*
X36059033Y-31257726D01*
X35986462Y-31160964D01*
X37510462Y-31160964D02*
X37583033Y-31257726D01*
X37510462Y-31354488D01*
X37437890Y-31257726D01*
X37510462Y-31160964D01*
X37510462Y-31354488D01*
X38163604Y-29516011D02*
X38236176Y-29419250D01*
X38381319Y-29322488D01*
X38744176Y-29322488D01*
X38889319Y-29419250D01*
X38961890Y-29516011D01*
X39034462Y-29709535D01*
X39034462Y-29903059D01*
X38961890Y-30193345D01*
X38091033Y-31354488D01*
X39034462Y-31354488D01*
X39977890Y-29322488D02*
X40123033Y-29322488D01*
X40268176Y-29419250D01*
X40340747Y-29516011D01*
X40413319Y-29709535D01*
X40485890Y-30096583D01*
X40485890Y-30580392D01*
X40413319Y-30967440D01*
X40340747Y-31160964D01*
X40268176Y-31257726D01*
X40123033Y-31354488D01*
X39977890Y-31354488D01*
X39832747Y-31257726D01*
X39760176Y-31160964D01*
X39687604Y-30967440D01*
X39615033Y-30580392D01*
X39615033Y-30096583D01*
X39687604Y-29709535D01*
X39760176Y-29516011D01*
X39832747Y-29419250D01*
X39977890Y-29322488D01*
X41429319Y-29322488D02*
X41574462Y-29322488D01*
X41719604Y-29419250D01*
X41792176Y-29516011D01*
X41864747Y-29709535D01*
X41937319Y-30096583D01*
X41937319Y-30580392D01*
X41864747Y-30967440D01*
X41792176Y-31160964D01*
X41719604Y-31257726D01*
X41574462Y-31354488D01*
X41429319Y-31354488D01*
X41284176Y-31257726D01*
X41211604Y-31160964D01*
X41139033Y-30967440D01*
X41066462Y-30580392D01*
X41066462Y-30096583D01*
X41139033Y-29709535D01*
X41211604Y-29516011D01*
X41284176Y-29419250D01*
X41429319Y-29322488D01*
X42880747Y-29322488D02*
X43025890Y-29322488D01*
X43171033Y-29419250D01*
X43243604Y-29516011D01*
X43316176Y-29709535D01*
X43388747Y-30096583D01*
X43388747Y-30580392D01*
X43316176Y-30967440D01*
X43243604Y-31160964D01*
X43171033Y-31257726D01*
X43025890Y-31354488D01*
X42880747Y-31354488D01*
X42735604Y-31257726D01*
X42663033Y-31160964D01*
X42590462Y-30967440D01*
X42517890Y-30580392D01*
X42517890Y-30096583D01*
X42590462Y-29709535D01*
X42663033Y-29516011D01*
X42735604Y-29419250D01*
X42880747Y-29322488D01*
X45203033Y-31354488D02*
X45203033Y-29999821D01*
X45203033Y-30193345D02*
X45275604Y-30096583D01*
X45420747Y-29999821D01*
X45638462Y-29999821D01*
X45783604Y-30096583D01*
X45856176Y-30290107D01*
X45856176Y-31354488D01*
X45856176Y-30290107D02*
X45928747Y-30096583D01*
X46073890Y-29999821D01*
X46291604Y-29999821D01*
X46436747Y-30096583D01*
X46509319Y-30290107D01*
X46509319Y-31354488D01*
X47235033Y-31354488D02*
X47235033Y-29999821D01*
X47235033Y-30193345D02*
X47307604Y-30096583D01*
X47452747Y-29999821D01*
X47670462Y-29999821D01*
X47815604Y-30096583D01*
X47888176Y-30290107D01*
X47888176Y-31354488D01*
X47888176Y-30290107D02*
X47960747Y-30096583D01*
X48105890Y-29999821D01*
X48323604Y-29999821D01*
X48468747Y-30096583D01*
X48541319Y-30290107D01*
X48541319Y-31354488D01*
D11*
X28974462Y-79392050D02*
X28974462Y-32185630D01*
X54174462Y-79392050D02*
X54174462Y-32185630D01*
X28974462Y-32772050D02*
X54174462Y-32772050D01*
X28974462Y-32772050D02*
X54174462Y-32772050D01*
X28974462Y-32772050D02*
X30100966Y-33358471D01*
X28974462Y-32772050D02*
X30100966Y-32185629D01*
X54174462Y-32772050D02*
X53047958Y-32185629D01*
X54174462Y-32772050D02*
X53047958Y-33358471D01*
D10*
X163709319Y-165416010D02*
X163781890Y-165319249D01*
X163927033Y-165222487D01*
X164289890Y-165222487D01*
X164435033Y-165319249D01*
X164507604Y-165416010D01*
X164580176Y-165609534D01*
X164580176Y-165803058D01*
X164507604Y-166093344D01*
X163636747Y-167254487D01*
X164580176Y-167254487D01*
X165451033Y-166093344D02*
X165305890Y-165996582D01*
X165233319Y-165899820D01*
X165160747Y-165706296D01*
X165160747Y-165609534D01*
X165233319Y-165416010D01*
X165305890Y-165319249D01*
X165451033Y-165222487D01*
X165741319Y-165222487D01*
X165886462Y-165319249D01*
X165959033Y-165416010D01*
X166031604Y-165609534D01*
X166031604Y-165706296D01*
X165959033Y-165899820D01*
X165886462Y-165996582D01*
X165741319Y-166093344D01*
X165451033Y-166093344D01*
X165305890Y-166190106D01*
X165233319Y-166286868D01*
X165160747Y-166480391D01*
X165160747Y-166867439D01*
X165233319Y-167060963D01*
X165305890Y-167157725D01*
X165451033Y-167254487D01*
X165741319Y-167254487D01*
X165886462Y-167157725D01*
X165959033Y-167060963D01*
X166031604Y-166867439D01*
X166031604Y-166480391D01*
X165959033Y-166286868D01*
X165886462Y-166190106D01*
X165741319Y-166093344D01*
X167410462Y-165222487D02*
X166684747Y-165222487D01*
X166612176Y-166190106D01*
X166684747Y-166093344D01*
X166829890Y-165996582D01*
X167192747Y-165996582D01*
X167337890Y-166093344D01*
X167410462Y-166190106D01*
X167483033Y-166383629D01*
X167483033Y-166867439D01*
X167410462Y-167060963D01*
X167337890Y-167157725D01*
X167192747Y-167254487D01*
X166829890Y-167254487D01*
X166684747Y-167157725D01*
X166612176Y-167060963D01*
X168136176Y-167060963D02*
X168208747Y-167157725D01*
X168136176Y-167254487D01*
X168063604Y-167157725D01*
X168136176Y-167060963D01*
X168136176Y-167254487D01*
X169152176Y-165222487D02*
X169297319Y-165222487D01*
X169442462Y-165319249D01*
X169515033Y-165416010D01*
X169587604Y-165609534D01*
X169660176Y-165996582D01*
X169660176Y-166480391D01*
X169587604Y-166867439D01*
X169515033Y-167060963D01*
X169442462Y-167157725D01*
X169297319Y-167254487D01*
X169152176Y-167254487D01*
X169007033Y-167157725D01*
X168934462Y-167060963D01*
X168861890Y-166867439D01*
X168789319Y-166480391D01*
X168789319Y-165996582D01*
X168861890Y-165609534D01*
X168934462Y-165416010D01*
X169007033Y-165319249D01*
X169152176Y-165222487D01*
X170603604Y-165222487D02*
X170748747Y-165222487D01*
X170893890Y-165319249D01*
X170966462Y-165416010D01*
X171039033Y-165609534D01*
X171111604Y-165996582D01*
X171111604Y-166480391D01*
X171039033Y-166867439D01*
X170966462Y-167060963D01*
X170893890Y-167157725D01*
X170748747Y-167254487D01*
X170603604Y-167254487D01*
X170458462Y-167157725D01*
X170385890Y-167060963D01*
X170313319Y-166867439D01*
X170240747Y-166480391D01*
X170240747Y-165996582D01*
X170313319Y-165609534D01*
X170385890Y-165416010D01*
X170458462Y-165319249D01*
X170603604Y-165222487D01*
X172055033Y-165222487D02*
X172200176Y-165222487D01*
X172345319Y-165319249D01*
X172417890Y-165416010D01*
X172490462Y-165609534D01*
X172563033Y-165996582D01*
X172563033Y-166480391D01*
X172490462Y-166867439D01*
X172417890Y-167060963D01*
X172345319Y-167157725D01*
X172200176Y-167254487D01*
X172055033Y-167254487D01*
X171909890Y-167157725D01*
X171837319Y-167060963D01*
X171764747Y-166867439D01*
X171692176Y-166480391D01*
X171692176Y-165996582D01*
X171764747Y-165609534D01*
X171837319Y-165416010D01*
X171909890Y-165319249D01*
X172055033Y-165222487D01*
X173506462Y-165222487D02*
X173651604Y-165222487D01*
X173796747Y-165319249D01*
X173869319Y-165416010D01*
X173941890Y-165609534D01*
X174014462Y-165996582D01*
X174014462Y-166480391D01*
X173941890Y-166867439D01*
X173869319Y-167060963D01*
X173796747Y-167157725D01*
X173651604Y-167254487D01*
X173506462Y-167254487D01*
X173361319Y-167157725D01*
X173288747Y-167060963D01*
X173216176Y-166867439D01*
X173143604Y-166480391D01*
X173143604Y-165996582D01*
X173216176Y-165609534D01*
X173288747Y-165416010D01*
X173361319Y-165319249D01*
X173506462Y-165222487D01*
X175828747Y-167254487D02*
X175828747Y-165899820D01*
X175828747Y-166093344D02*
X175901319Y-165996582D01*
X176046462Y-165899820D01*
X176264176Y-165899820D01*
X176409319Y-165996582D01*
X176481890Y-166190106D01*
X176481890Y-167254487D01*
X176481890Y-166190106D02*
X176554462Y-165996582D01*
X176699604Y-165899820D01*
X176917319Y-165899820D01*
X177062462Y-165996582D01*
X177135033Y-166190106D01*
X177135033Y-167254487D01*
X177860747Y-167254487D02*
X177860747Y-165899820D01*
X177860747Y-166093344D02*
X177933319Y-165996582D01*
X178078462Y-165899820D01*
X178296176Y-165899820D01*
X178441319Y-165996582D01*
X178513890Y-166190106D01*
X178513890Y-167254487D01*
X178513890Y-166190106D02*
X178586462Y-165996582D01*
X178731604Y-165899820D01*
X178949319Y-165899820D01*
X179094462Y-165996582D01*
X179167033Y-166190106D01*
X179167033Y-167254487D01*
D11*
X313974462Y-144012050D02*
X313974462Y-169258469D01*
X28974462Y-144012050D02*
X28974462Y-169258469D01*
X313974462Y-168672049D02*
X28974462Y-168672049D01*
X313974462Y-168672049D02*
X28974462Y-168672049D01*
X313974462Y-168672049D02*
X312847958Y-168085628D01*
X313974462Y-168672049D02*
X312847958Y-169258470D01*
X28974462Y-168672049D02*
X30100966Y-169258470D01*
X28974462Y-168672049D02*
X30100966Y-168085628D01*
D10*
X336705757Y-100841192D02*
X336608995Y-100986335D01*
X336512233Y-101058907D01*
X336318709Y-101131478D01*
X336221947Y-101131478D01*
X336028423Y-101058907D01*
X335931662Y-100986335D01*
X335834900Y-100841192D01*
X335834900Y-100550907D01*
X335931662Y-100405764D01*
X336028423Y-100333192D01*
X336221947Y-100260621D01*
X336318709Y-100260621D01*
X336512233Y-100333192D01*
X336608995Y-100405764D01*
X336705757Y-100550907D01*
X336705757Y-100841192D01*
X336802519Y-100986335D01*
X336899281Y-101058907D01*
X337092804Y-101131478D01*
X337479852Y-101131478D01*
X337673376Y-101058907D01*
X337770138Y-100986335D01*
X337866900Y-100841192D01*
X337866900Y-100550907D01*
X337770138Y-100405764D01*
X337673376Y-100333192D01*
X337479852Y-100260621D01*
X337092804Y-100260621D01*
X336899281Y-100333192D01*
X336802519Y-100405764D01*
X336705757Y-100550907D01*
X335834900Y-98881764D02*
X335834900Y-99607478D01*
X336802519Y-99680050D01*
X336705757Y-99607478D01*
X336608995Y-99462335D01*
X336608995Y-99099478D01*
X336705757Y-98954335D01*
X336802519Y-98881764D01*
X336996042Y-98809192D01*
X337479852Y-98809192D01*
X337673376Y-98881764D01*
X337770138Y-98954335D01*
X337866900Y-99099478D01*
X337866900Y-99462335D01*
X337770138Y-99607478D01*
X337673376Y-99680050D01*
X337673376Y-98156050D02*
X337770138Y-98083478D01*
X337866900Y-98156050D01*
X337770138Y-98228621D01*
X337673376Y-98156050D01*
X337866900Y-98156050D01*
X336028423Y-97502907D02*
X335931662Y-97430335D01*
X335834900Y-97285192D01*
X335834900Y-96922335D01*
X335931662Y-96777192D01*
X336028423Y-96704621D01*
X336221947Y-96632050D01*
X336415471Y-96632050D01*
X336705757Y-96704621D01*
X337866900Y-97575478D01*
X337866900Y-96632050D01*
X335834900Y-95688621D02*
X335834900Y-95543478D01*
X335931662Y-95398335D01*
X336028423Y-95325764D01*
X336221947Y-95253192D01*
X336608995Y-95180621D01*
X337092804Y-95180621D01*
X337479852Y-95253192D01*
X337673376Y-95325764D01*
X337770138Y-95398335D01*
X337866900Y-95543478D01*
X337866900Y-95688621D01*
X337770138Y-95833764D01*
X337673376Y-95906335D01*
X337479852Y-95978907D01*
X337092804Y-96051478D01*
X336608995Y-96051478D01*
X336221947Y-95978907D01*
X336028423Y-95906335D01*
X335931662Y-95833764D01*
X335834900Y-95688621D01*
X335834900Y-94237192D02*
X335834900Y-94092050D01*
X335931662Y-93946907D01*
X336028423Y-93874335D01*
X336221947Y-93801764D01*
X336608995Y-93729192D01*
X337092804Y-93729192D01*
X337479852Y-93801764D01*
X337673376Y-93874335D01*
X337770138Y-93946907D01*
X337866900Y-94092050D01*
X337866900Y-94237192D01*
X337770138Y-94382335D01*
X337673376Y-94454907D01*
X337479852Y-94527478D01*
X337092804Y-94600050D01*
X336608995Y-94600050D01*
X336221947Y-94527478D01*
X336028423Y-94454907D01*
X335931662Y-94382335D01*
X335834900Y-94237192D01*
X335834900Y-92785764D02*
X335834900Y-92640621D01*
X335931662Y-92495478D01*
X336028423Y-92422907D01*
X336221947Y-92350335D01*
X336608995Y-92277764D01*
X337092804Y-92277764D01*
X337479852Y-92350335D01*
X337673376Y-92422907D01*
X337770138Y-92495478D01*
X337866900Y-92640621D01*
X337866900Y-92785764D01*
X337770138Y-92930907D01*
X337673376Y-93003478D01*
X337479852Y-93076050D01*
X337092804Y-93148621D01*
X336608995Y-93148621D01*
X336221947Y-93076050D01*
X336028423Y-93003478D01*
X335931662Y-92930907D01*
X335834900Y-92785764D01*
X337866900Y-90463478D02*
X336512233Y-90463478D01*
X336705757Y-90463478D02*
X336608995Y-90390907D01*
X336512233Y-90245764D01*
X336512233Y-90028050D01*
X336608995Y-89882907D01*
X336802519Y-89810335D01*
X337866900Y-89810335D01*
X336802519Y-89810335D02*
X336608995Y-89737764D01*
X336512233Y-89592621D01*
X336512233Y-89374907D01*
X336608995Y-89229764D01*
X336802519Y-89157192D01*
X337866900Y-89157192D01*
X337866900Y-88431478D02*
X336512233Y-88431478D01*
X336705757Y-88431478D02*
X336608995Y-88358907D01*
X336512233Y-88213764D01*
X336512233Y-87996050D01*
X336608995Y-87850907D01*
X336802519Y-87778335D01*
X337866900Y-87778335D01*
X336802519Y-87778335D02*
X336608995Y-87705764D01*
X336512233Y-87560621D01*
X336512233Y-87342907D01*
X336608995Y-87197764D01*
X336802519Y-87125192D01*
X337866900Y-87125192D01*
D11*
X219474462Y-51492050D02*
X339870882Y-51492050D01*
X219474462Y-136692050D02*
X339870882Y-136692050D01*
X339284462Y-51492050D02*
X339284462Y-136692050D01*
X339284462Y-51492050D02*
X339284462Y-136692050D01*
X339284462Y-51492050D02*
X338698041Y-52618554D01*
X339284462Y-51492050D02*
X339870883Y-52618554D01*
X339284462Y-136692050D02*
X339870883Y-135565546D01*
X339284462Y-136692050D02*
X338698041Y-135565546D01*
D10*
X44288176Y-34922488D02*
X45304176Y-34922488D01*
X44651033Y-36954488D01*
X45884747Y-36760964D02*
X45957319Y-36857726D01*
X45884747Y-36954488D01*
X45812176Y-36857726D01*
X45884747Y-36760964D01*
X45884747Y-36954488D01*
X46900747Y-34922488D02*
X47045890Y-34922488D01*
X47191033Y-35019250D01*
X47263604Y-35116011D01*
X47336176Y-35309535D01*
X47408747Y-35696583D01*
X47408747Y-36180392D01*
X47336176Y-36567440D01*
X47263604Y-36760964D01*
X47191033Y-36857726D01*
X47045890Y-36954488D01*
X46900747Y-36954488D01*
X46755604Y-36857726D01*
X46683033Y-36760964D01*
X46610462Y-36567440D01*
X46537890Y-36180392D01*
X46537890Y-35696583D01*
X46610462Y-35309535D01*
X46683033Y-35116011D01*
X46755604Y-35019250D01*
X46900747Y-34922488D01*
X48352176Y-34922488D02*
X48497319Y-34922488D01*
X48642462Y-35019250D01*
X48715033Y-35116011D01*
X48787604Y-35309535D01*
X48860176Y-35696583D01*
X48860176Y-36180392D01*
X48787604Y-36567440D01*
X48715033Y-36760964D01*
X48642462Y-36857726D01*
X48497319Y-36954488D01*
X48352176Y-36954488D01*
X48207033Y-36857726D01*
X48134462Y-36760964D01*
X48061890Y-36567440D01*
X47989319Y-36180392D01*
X47989319Y-35696583D01*
X48061890Y-35309535D01*
X48134462Y-35116011D01*
X48207033Y-35019250D01*
X48352176Y-34922488D01*
X49803604Y-34922488D02*
X49948747Y-34922488D01*
X50093890Y-35019250D01*
X50166462Y-35116011D01*
X50239033Y-35309535D01*
X50311604Y-35696583D01*
X50311604Y-36180392D01*
X50239033Y-36567440D01*
X50166462Y-36760964D01*
X50093890Y-36857726D01*
X49948747Y-36954488D01*
X49803604Y-36954488D01*
X49658462Y-36857726D01*
X49585890Y-36760964D01*
X49513319Y-36567440D01*
X49440747Y-36180392D01*
X49440747Y-35696583D01*
X49513319Y-35309535D01*
X49585890Y-35116011D01*
X49658462Y-35019250D01*
X49803604Y-34922488D01*
X51255033Y-34922488D02*
X51400176Y-34922488D01*
X51545319Y-35019250D01*
X51617890Y-35116011D01*
X51690462Y-35309535D01*
X51763033Y-35696583D01*
X51763033Y-36180392D01*
X51690462Y-36567440D01*
X51617890Y-36760964D01*
X51545319Y-36857726D01*
X51400176Y-36954488D01*
X51255033Y-36954488D01*
X51109890Y-36857726D01*
X51037319Y-36760964D01*
X50964747Y-36567440D01*
X50892176Y-36180392D01*
X50892176Y-35696583D01*
X50964747Y-35309535D01*
X51037319Y-35116011D01*
X51109890Y-35019250D01*
X51255033Y-34922488D01*
X53577319Y-36954488D02*
X53577319Y-35599821D01*
X53577319Y-35793345D02*
X53649890Y-35696583D01*
X53795033Y-35599821D01*
X54012747Y-35599821D01*
X54157890Y-35696583D01*
X54230462Y-35890107D01*
X54230462Y-36954488D01*
X54230462Y-35890107D02*
X54303033Y-35696583D01*
X54448176Y-35599821D01*
X54665890Y-35599821D01*
X54811033Y-35696583D01*
X54883604Y-35890107D01*
X54883604Y-36954488D01*
X55609319Y-36954488D02*
X55609319Y-35599821D01*
X55609319Y-35793345D02*
X55681890Y-35696583D01*
X55827033Y-35599821D01*
X56044747Y-35599821D01*
X56189890Y-35696583D01*
X56262462Y-35890107D01*
X56262462Y-36954488D01*
X56262462Y-35890107D02*
X56335033Y-35696583D01*
X56480176Y-35599821D01*
X56697890Y-35599821D01*
X56843033Y-35696583D01*
X56915604Y-35890107D01*
X56915604Y-36954488D01*
D11*
X47174462Y-51492050D02*
X47174462Y-37785630D01*
X54174462Y-51492050D02*
X54174462Y-37785630D01*
X47174462Y-38372050D02*
X54174462Y-38372050D01*
X47174462Y-38372050D02*
X54174462Y-38372050D01*
X47174462Y-38372050D02*
X48300966Y-38958471D01*
X47174462Y-38372050D02*
X48300966Y-37785629D01*
X54174462Y-38372050D02*
X53047958Y-37785629D01*
X54174462Y-38372050D02*
X53047958Y-38958471D01*
D10*
X321828423Y-72481478D02*
X321731662Y-72408907D01*
X321634900Y-72263764D01*
X321634900Y-71900907D01*
X321731662Y-71755764D01*
X321828423Y-71683192D01*
X322021947Y-71610621D01*
X322215471Y-71610621D01*
X322505757Y-71683192D01*
X323666900Y-72554050D01*
X323666900Y-71610621D01*
X321634900Y-71102621D02*
X321634900Y-70086621D01*
X323666900Y-70739764D01*
X323473376Y-69506050D02*
X323570138Y-69433478D01*
X323666900Y-69506050D01*
X323570138Y-69578621D01*
X323473376Y-69506050D01*
X323666900Y-69506050D01*
X323666900Y-68707764D02*
X323666900Y-68417478D01*
X323570138Y-68272335D01*
X323473376Y-68199764D01*
X323183090Y-68054621D01*
X322796042Y-67982050D01*
X322021947Y-67982050D01*
X321828423Y-68054621D01*
X321731662Y-68127192D01*
X321634900Y-68272335D01*
X321634900Y-68562621D01*
X321731662Y-68707764D01*
X321828423Y-68780335D01*
X322021947Y-68852907D01*
X322505757Y-68852907D01*
X322699281Y-68780335D01*
X322796042Y-68707764D01*
X322892804Y-68562621D01*
X322892804Y-68272335D01*
X322796042Y-68127192D01*
X322699281Y-68054621D01*
X322505757Y-67982050D01*
X321634900Y-67038621D02*
X321634900Y-66893478D01*
X321731662Y-66748335D01*
X321828423Y-66675764D01*
X322021947Y-66603192D01*
X322408995Y-66530621D01*
X322892804Y-66530621D01*
X323279852Y-66603192D01*
X323473376Y-66675764D01*
X323570138Y-66748335D01*
X323666900Y-66893478D01*
X323666900Y-67038621D01*
X323570138Y-67183764D01*
X323473376Y-67256335D01*
X323279852Y-67328907D01*
X322892804Y-67401478D01*
X322408995Y-67401478D01*
X322021947Y-67328907D01*
X321828423Y-67256335D01*
X321731662Y-67183764D01*
X321634900Y-67038621D01*
X321634900Y-65587192D02*
X321634900Y-65442050D01*
X321731662Y-65296907D01*
X321828423Y-65224335D01*
X322021947Y-65151764D01*
X322408995Y-65079192D01*
X322892804Y-65079192D01*
X323279852Y-65151764D01*
X323473376Y-65224335D01*
X323570138Y-65296907D01*
X323666900Y-65442050D01*
X323666900Y-65587192D01*
X323570138Y-65732335D01*
X323473376Y-65804907D01*
X323279852Y-65877478D01*
X322892804Y-65950050D01*
X322408995Y-65950050D01*
X322021947Y-65877478D01*
X321828423Y-65804907D01*
X321731662Y-65732335D01*
X321634900Y-65587192D01*
X321634900Y-64135764D02*
X321634900Y-63990621D01*
X321731662Y-63845478D01*
X321828423Y-63772907D01*
X322021947Y-63700335D01*
X322408995Y-63627764D01*
X322892804Y-63627764D01*
X323279852Y-63700335D01*
X323473376Y-63772907D01*
X323570138Y-63845478D01*
X323666900Y-63990621D01*
X323666900Y-64135764D01*
X323570138Y-64280907D01*
X323473376Y-64353478D01*
X323279852Y-64426050D01*
X322892804Y-64498621D01*
X322408995Y-64498621D01*
X322021947Y-64426050D01*
X321828423Y-64353478D01*
X321731662Y-64280907D01*
X321634900Y-64135764D01*
X323666900Y-61813478D02*
X322312233Y-61813478D01*
X322505757Y-61813478D02*
X322408995Y-61740907D01*
X322312233Y-61595764D01*
X322312233Y-61378050D01*
X322408995Y-61232907D01*
X322602519Y-61160335D01*
X323666900Y-61160335D01*
X322602519Y-61160335D02*
X322408995Y-61087764D01*
X322312233Y-60942621D01*
X322312233Y-60724907D01*
X322408995Y-60579764D01*
X322602519Y-60507192D01*
X323666900Y-60507192D01*
X323666900Y-59781478D02*
X322312233Y-59781478D01*
X322505757Y-59781478D02*
X322408995Y-59708907D01*
X322312233Y-59563764D01*
X322312233Y-59346050D01*
X322408995Y-59200907D01*
X322602519Y-59128335D01*
X323666900Y-59128335D01*
X322602519Y-59128335D02*
X322408995Y-59055764D01*
X322312233Y-58910621D01*
X322312233Y-58692907D01*
X322408995Y-58547764D01*
X322602519Y-58475192D01*
X323666900Y-58475192D01*
D11*
X289024462Y-51492050D02*
X325670882Y-51492050D01*
X289024462Y-79392050D02*
X325670882Y-79392050D01*
X325084462Y-51492050D02*
X325084462Y-79392050D01*
X325084462Y-51492050D02*
X325084462Y-79392050D01*
X325084462Y-51492050D02*
X324498041Y-52618554D01*
X325084462Y-51492050D02*
X325670883Y-52618554D01*
X325084462Y-79392050D02*
X325670883Y-78265546D01*
X325084462Y-79392050D02*
X324498041Y-78265546D01*
D10*
X329012233Y-81305764D02*
X330366900Y-81305764D01*
X328238138Y-81668621D02*
X329689566Y-82031478D01*
X329689566Y-81088050D01*
X328334900Y-80652621D02*
X328334900Y-79636621D01*
X330366900Y-80289764D01*
X330173376Y-79056050D02*
X330270138Y-78983478D01*
X330366900Y-79056050D01*
X330270138Y-79128621D01*
X330173376Y-79056050D01*
X330366900Y-79056050D01*
X328334900Y-78040050D02*
X328334900Y-77894907D01*
X328431662Y-77749764D01*
X328528423Y-77677192D01*
X328721947Y-77604621D01*
X329108995Y-77532050D01*
X329592804Y-77532050D01*
X329979852Y-77604621D01*
X330173376Y-77677192D01*
X330270138Y-77749764D01*
X330366900Y-77894907D01*
X330366900Y-78040050D01*
X330270138Y-78185192D01*
X330173376Y-78257764D01*
X329979852Y-78330335D01*
X329592804Y-78402907D01*
X329108995Y-78402907D01*
X328721947Y-78330335D01*
X328528423Y-78257764D01*
X328431662Y-78185192D01*
X328334900Y-78040050D01*
X328334900Y-76588621D02*
X328334900Y-76443478D01*
X328431662Y-76298335D01*
X328528423Y-76225764D01*
X328721947Y-76153192D01*
X329108995Y-76080621D01*
X329592804Y-76080621D01*
X329979852Y-76153192D01*
X330173376Y-76225764D01*
X330270138Y-76298335D01*
X330366900Y-76443478D01*
X330366900Y-76588621D01*
X330270138Y-76733764D01*
X330173376Y-76806335D01*
X329979852Y-76878907D01*
X329592804Y-76951478D01*
X329108995Y-76951478D01*
X328721947Y-76878907D01*
X328528423Y-76806335D01*
X328431662Y-76733764D01*
X328334900Y-76588621D01*
X328334900Y-75137192D02*
X328334900Y-74992050D01*
X328431662Y-74846907D01*
X328528423Y-74774335D01*
X328721947Y-74701764D01*
X329108995Y-74629192D01*
X329592804Y-74629192D01*
X329979852Y-74701764D01*
X330173376Y-74774335D01*
X330270138Y-74846907D01*
X330366900Y-74992050D01*
X330366900Y-75137192D01*
X330270138Y-75282335D01*
X330173376Y-75354907D01*
X329979852Y-75427478D01*
X329592804Y-75500050D01*
X329108995Y-75500050D01*
X328721947Y-75427478D01*
X328528423Y-75354907D01*
X328431662Y-75282335D01*
X328334900Y-75137192D01*
X328334900Y-73685764D02*
X328334900Y-73540621D01*
X328431662Y-73395478D01*
X328528423Y-73322907D01*
X328721947Y-73250335D01*
X329108995Y-73177764D01*
X329592804Y-73177764D01*
X329979852Y-73250335D01*
X330173376Y-73322907D01*
X330270138Y-73395478D01*
X330366900Y-73540621D01*
X330366900Y-73685764D01*
X330270138Y-73830907D01*
X330173376Y-73903478D01*
X329979852Y-73976050D01*
X329592804Y-74048621D01*
X329108995Y-74048621D01*
X328721947Y-73976050D01*
X328528423Y-73903478D01*
X328431662Y-73830907D01*
X328334900Y-73685764D01*
X330366900Y-71363478D02*
X329012233Y-71363478D01*
X329205757Y-71363478D02*
X329108995Y-71290907D01*
X329012233Y-71145764D01*
X329012233Y-70928050D01*
X329108995Y-70782907D01*
X329302519Y-70710335D01*
X330366900Y-70710335D01*
X329302519Y-70710335D02*
X329108995Y-70637764D01*
X329012233Y-70492621D01*
X329012233Y-70274907D01*
X329108995Y-70129764D01*
X329302519Y-70057192D01*
X330366900Y-70057192D01*
X330366900Y-69331478D02*
X329012233Y-69331478D01*
X329205757Y-69331478D02*
X329108995Y-69258907D01*
X329012233Y-69113764D01*
X329012233Y-68896050D01*
X329108995Y-68750907D01*
X329302519Y-68678335D01*
X330366900Y-68678335D01*
X329302519Y-68678335D02*
X329108995Y-68605764D01*
X329012233Y-68460621D01*
X329012233Y-68242907D01*
X329108995Y-68097764D01*
X329302519Y-68025192D01*
X330366900Y-68025192D01*
D11*
X157194462Y-51492050D02*
X332370882Y-51492050D01*
X157194462Y-98492050D02*
X332370882Y-98492050D01*
X331784462Y-51492050D02*
X331784462Y-98492050D01*
X331784462Y-51492050D02*
X331784462Y-98492050D01*
X331784462Y-51492050D02*
X331198041Y-52618554D01*
X331784462Y-51492050D02*
X332370883Y-52618554D01*
X331784462Y-98492050D02*
X332370883Y-97365546D01*
X331784462Y-98492050D02*
X331198041Y-97365546D01*
D10*
X13228423Y-72481478D02*
X13131662Y-72408907D01*
X13034900Y-72263764D01*
X13034900Y-71900907D01*
X13131662Y-71755764D01*
X13228423Y-71683192D01*
X13421947Y-71610621D01*
X13615471Y-71610621D01*
X13905757Y-71683192D01*
X15066900Y-72554050D01*
X15066900Y-71610621D01*
X13034900Y-71102621D02*
X13034900Y-70086621D01*
X15066900Y-70739764D01*
X14873376Y-69506050D02*
X14970138Y-69433478D01*
X15066900Y-69506050D01*
X14970138Y-69578621D01*
X14873376Y-69506050D01*
X15066900Y-69506050D01*
X15066900Y-68707764D02*
X15066900Y-68417478D01*
X14970138Y-68272335D01*
X14873376Y-68199764D01*
X14583090Y-68054621D01*
X14196042Y-67982050D01*
X13421947Y-67982050D01*
X13228423Y-68054621D01*
X13131662Y-68127192D01*
X13034900Y-68272335D01*
X13034900Y-68562621D01*
X13131662Y-68707764D01*
X13228423Y-68780335D01*
X13421947Y-68852907D01*
X13905757Y-68852907D01*
X14099281Y-68780335D01*
X14196042Y-68707764D01*
X14292804Y-68562621D01*
X14292804Y-68272335D01*
X14196042Y-68127192D01*
X14099281Y-68054621D01*
X13905757Y-67982050D01*
X13034900Y-67038621D02*
X13034900Y-66893478D01*
X13131662Y-66748335D01*
X13228423Y-66675764D01*
X13421947Y-66603192D01*
X13808995Y-66530621D01*
X14292804Y-66530621D01*
X14679852Y-66603192D01*
X14873376Y-66675764D01*
X14970138Y-66748335D01*
X15066900Y-66893478D01*
X15066900Y-67038621D01*
X14970138Y-67183764D01*
X14873376Y-67256335D01*
X14679852Y-67328907D01*
X14292804Y-67401478D01*
X13808995Y-67401478D01*
X13421947Y-67328907D01*
X13228423Y-67256335D01*
X13131662Y-67183764D01*
X13034900Y-67038621D01*
X13034900Y-65587192D02*
X13034900Y-65442050D01*
X13131662Y-65296907D01*
X13228423Y-65224335D01*
X13421947Y-65151764D01*
X13808995Y-65079192D01*
X14292804Y-65079192D01*
X14679852Y-65151764D01*
X14873376Y-65224335D01*
X14970138Y-65296907D01*
X15066900Y-65442050D01*
X15066900Y-65587192D01*
X14970138Y-65732335D01*
X14873376Y-65804907D01*
X14679852Y-65877478D01*
X14292804Y-65950050D01*
X13808995Y-65950050D01*
X13421947Y-65877478D01*
X13228423Y-65804907D01*
X13131662Y-65732335D01*
X13034900Y-65587192D01*
X13034900Y-64135764D02*
X13034900Y-63990621D01*
X13131662Y-63845478D01*
X13228423Y-63772907D01*
X13421947Y-63700335D01*
X13808995Y-63627764D01*
X14292804Y-63627764D01*
X14679852Y-63700335D01*
X14873376Y-63772907D01*
X14970138Y-63845478D01*
X15066900Y-63990621D01*
X15066900Y-64135764D01*
X14970138Y-64280907D01*
X14873376Y-64353478D01*
X14679852Y-64426050D01*
X14292804Y-64498621D01*
X13808995Y-64498621D01*
X13421947Y-64426050D01*
X13228423Y-64353478D01*
X13131662Y-64280907D01*
X13034900Y-64135764D01*
X15066900Y-61813478D02*
X13712233Y-61813478D01*
X13905757Y-61813478D02*
X13808995Y-61740907D01*
X13712233Y-61595764D01*
X13712233Y-61378050D01*
X13808995Y-61232907D01*
X14002519Y-61160335D01*
X15066900Y-61160335D01*
X14002519Y-61160335D02*
X13808995Y-61087764D01*
X13712233Y-60942621D01*
X13712233Y-60724907D01*
X13808995Y-60579764D01*
X14002519Y-60507192D01*
X15066900Y-60507192D01*
X15066900Y-59781478D02*
X13712233Y-59781478D01*
X13905757Y-59781478D02*
X13808995Y-59708907D01*
X13712233Y-59563764D01*
X13712233Y-59346050D01*
X13808995Y-59200907D01*
X14002519Y-59128335D01*
X15066900Y-59128335D01*
X14002519Y-59128335D02*
X13808995Y-59055764D01*
X13712233Y-58910621D01*
X13712233Y-58692907D01*
X13808995Y-58547764D01*
X14002519Y-58475192D01*
X15066900Y-58475192D01*
D11*
X54194462Y-51492050D02*
X15898042Y-51492050D01*
X54194462Y-79392050D02*
X15898042Y-79392050D01*
X16484462Y-51492050D02*
X16484462Y-79392050D01*
X16484462Y-51492050D02*
X16484462Y-79392050D01*
X16484462Y-51492050D02*
X15898041Y-52618554D01*
X16484462Y-51492050D02*
X17070883Y-52618554D01*
X16484462Y-79392050D02*
X17070883Y-78265546D01*
X16484462Y-79392050D02*
X15898041Y-78265546D01*
D12*
%TO.C,H9*%
X220890617Y-130796675D02*
G75*
G03*
X220890617Y-130796675I-1900000J0D01*
G01*
%TO.C,H2*%
X87514963Y-70017291D02*
G75*
G03*
X87514963Y-70017291I-1900000J0D01*
G01*
%TO.C,H8*%
X258966377Y-69984605D02*
G75*
G03*
X258966377Y-69984605I-1900000J0D01*
G01*
%TO.C,H4*%
X182770757Y-89073713D02*
G75*
G03*
X182770757Y-89073713I-1900000J0D01*
G01*
%TO.C,H6*%
X68467022Y-127163469D02*
G75*
G03*
X68467022Y-127163469I-1900000J0D01*
G01*
%TD*%
M02*
