%TF.GenerationSoftware,KiCad,Pcbnew,(6.0.4)*%
%TF.CreationDate,2022-10-29T20:57:45+01:00*%
%TF.ProjectId,nova75,6e6f7661-3735-42e6-9b69-6361645f7063,rev?*%
%TF.SameCoordinates,Original*%
%TF.FileFunction,Paste,Bot*%
%TF.FilePolarity,Positive*%
%FSLAX46Y46*%
G04 Gerber Fmt 4.6, Leading zero omitted, Abs format (unit mm)*
G04 Created by KiCad (PCBNEW (6.0.4)) date 2022-10-29 20:57:45*
%MOMM*%
%LPD*%
G01*
G04 APERTURE LIST*
G04 Aperture macros list*
%AMRoundRect*
0 Rectangle with rounded corners*
0 $1 Rounding radius*
0 $2 $3 $4 $5 $6 $7 $8 $9 X,Y pos of 4 corners*
0 Add a 4 corners polygon primitive as box body*
4,1,4,$2,$3,$4,$5,$6,$7,$8,$9,$2,$3,0*
0 Add four circle primitives for the rounded corners*
1,1,$1+$1,$2,$3*
1,1,$1+$1,$4,$5*
1,1,$1+$1,$6,$7*
1,1,$1+$1,$8,$9*
0 Add four rect primitives between the rounded corners*
20,1,$1+$1,$2,$3,$4,$5,0*
20,1,$1+$1,$4,$5,$6,$7,0*
20,1,$1+$1,$6,$7,$8,$9,0*
20,1,$1+$1,$8,$9,$2,$3,0*%
G04 Aperture macros list end*
%ADD10R,2.550000X2.500000*%
%ADD11R,2.500000X2.550000*%
%ADD12R,1.200000X0.900000*%
%ADD13RoundRect,0.225000X-0.225000X-0.250000X0.225000X-0.250000X0.225000X0.250000X-0.225000X0.250000X0*%
%ADD14RoundRect,0.135000X0.226274X0.035355X0.035355X0.226274X-0.226274X-0.035355X-0.035355X-0.226274X0*%
%ADD15RoundRect,0.140000X-0.021213X0.219203X-0.219203X0.021213X0.021213X-0.219203X0.219203X-0.021213X0*%
%ADD16RoundRect,0.120000X-0.380000X-0.280000X0.380000X-0.280000X0.380000X0.280000X-0.380000X0.280000X0*%
%ADD17RoundRect,0.150000X0.350000X-0.425000X0.350000X0.425000X-0.350000X0.425000X-0.350000X-0.425000X0*%
%ADD18R,0.900000X1.200000*%
%ADD19RoundRect,0.082500X-0.667500X0.192500X-0.667500X-0.192500X0.667500X-0.192500X0.667500X0.192500X0*%
%ADD20R,0.600000X1.450000*%
%ADD21R,0.300000X1.450000*%
%ADD22RoundRect,0.135000X0.185000X-0.135000X0.185000X0.135000X-0.185000X0.135000X-0.185000X-0.135000X0*%
%ADD23RoundRect,0.140000X-0.140000X-0.170000X0.140000X-0.170000X0.140000X0.170000X-0.140000X0.170000X0*%
%ADD24RoundRect,0.250000X0.413257X0.000000X0.000000X0.413257X-0.413257X0.000000X0.000000X-0.413257X0*%
%ADD25RoundRect,0.050000X0.309359X-0.238649X-0.238649X0.309359X-0.309359X0.238649X0.238649X-0.309359X0*%
%ADD26RoundRect,0.050000X0.309359X0.238649X0.238649X0.309359X-0.309359X-0.238649X-0.238649X-0.309359X0*%
%ADD27RoundRect,0.135000X-0.135000X-0.185000X0.135000X-0.185000X0.135000X0.185000X-0.135000X0.185000X0*%
%ADD28RoundRect,0.150000X0.618718X-0.406586X-0.406586X0.618718X-0.618718X0.406586X0.406586X-0.618718X0*%
%ADD29RoundRect,0.135000X-0.226274X-0.035355X-0.035355X-0.226274X0.226274X0.035355X0.035355X0.226274X0*%
%ADD30RoundRect,0.135000X-0.185000X0.135000X-0.185000X-0.135000X0.185000X-0.135000X0.185000X0.135000X0*%
%ADD31RoundRect,0.140000X0.140000X0.170000X-0.140000X0.170000X-0.140000X-0.170000X0.140000X-0.170000X0*%
%ADD32RoundRect,0.140000X-0.219203X-0.021213X-0.021213X-0.219203X0.219203X0.021213X0.021213X0.219203X0*%
%ADD33RoundRect,0.218750X0.256250X-0.218750X0.256250X0.218750X-0.256250X0.218750X-0.256250X-0.218750X0*%
%ADD34RoundRect,0.140000X0.219203X0.021213X0.021213X0.219203X-0.219203X-0.021213X-0.021213X-0.219203X0*%
%ADD35RoundRect,0.150000X0.475000X0.150000X-0.475000X0.150000X-0.475000X-0.150000X0.475000X-0.150000X0*%
%ADD36RoundRect,0.147500X0.172500X-0.147500X0.172500X0.147500X-0.172500X0.147500X-0.172500X-0.147500X0*%
%ADD37RoundRect,0.218750X0.218750X0.256250X-0.218750X0.256250X-0.218750X-0.256250X0.218750X-0.256250X0*%
%ADD38R,1.016000X1.200000*%
G04 APERTURE END LIST*
D10*
%TO.C,K22*%
X145206700Y-77006330D03*
X158133700Y-74466330D03*
%TD*%
%TO.C,K20*%
X107106700Y-77006330D03*
X120033700Y-74466330D03*
%TD*%
%TO.C,K8*%
X164256700Y-57956330D03*
X177183700Y-55416330D03*
%TD*%
%TO.C,K71*%
X221406700Y-134156330D03*
X234333700Y-131616330D03*
%TD*%
%TO.C,K76*%
X140326700Y-139236330D03*
X127399700Y-141776330D03*
%TD*%
%TO.C,K23*%
X164256700Y-77006330D03*
X177183700Y-74466330D03*
%TD*%
%TO.C,K11*%
X221406700Y-57956330D03*
X234333700Y-55416330D03*
%TD*%
%TO.C,K44*%
X278556700Y-96056330D03*
X291483700Y-93516330D03*
%TD*%
%TO.C,K5*%
X107106700Y-57956330D03*
X120033700Y-55416330D03*
%TD*%
%TO.C,K39*%
X183306700Y-96056330D03*
X196233700Y-93516330D03*
%TD*%
%TO.C,K17*%
X49956700Y-77006330D03*
X62883700Y-74466330D03*
%TD*%
%TO.C,K3*%
X69006700Y-57956330D03*
X81933700Y-55416330D03*
%TD*%
%TO.C,K66*%
X135681700Y-134156330D03*
X148608700Y-131616330D03*
%TD*%
%TO.C,K12*%
X240456700Y-57956330D03*
X253383700Y-55416330D03*
%TD*%
%TO.C,K49*%
X88056700Y-115106330D03*
X100983700Y-112566330D03*
%TD*%
%TO.C,K43*%
X259506700Y-96056330D03*
X272433700Y-93516330D03*
%TD*%
%TO.C,K45*%
X297606700Y-96056330D03*
X310533700Y-93516330D03*
%TD*%
%TO.C,K34*%
X88056700Y-96056330D03*
X100983700Y-93516330D03*
%TD*%
%TO.C,K61*%
X30906700Y-134156330D03*
X43833700Y-131616330D03*
%TD*%
%TO.C,K21*%
X126156700Y-77006330D03*
X139083700Y-74466330D03*
%TD*%
D11*
%TO.C,K1*%
X35451700Y-67581330D03*
X32911700Y-54654330D03*
%TD*%
D10*
%TO.C,K48*%
X69006700Y-115106330D03*
X81933700Y-112566330D03*
%TD*%
%TO.C,K52*%
X145206700Y-115106330D03*
X158133700Y-112566330D03*
%TD*%
%TO.C,K73*%
X259506700Y-134156330D03*
X272433700Y-131616330D03*
%TD*%
%TO.C,K41*%
X221406700Y-96056330D03*
X234333700Y-93516330D03*
%TD*%
%TO.C,K2*%
X64126700Y-63036330D03*
X51199700Y-65576330D03*
%TD*%
%TO.C,K18*%
X69006700Y-77006330D03*
X81933700Y-74466330D03*
%TD*%
%TO.C,K7*%
X145206700Y-57956330D03*
X158133700Y-55416330D03*
%TD*%
%TO.C,K10*%
X202356700Y-57956330D03*
X215283700Y-55416330D03*
%TD*%
%TO.C,K24*%
X183306700Y-77006330D03*
X196233700Y-74466330D03*
%TD*%
%TO.C,K30*%
X297606700Y-77006330D03*
X310533700Y-74466330D03*
%TD*%
%TO.C,K55*%
X202356700Y-115106330D03*
X215283700Y-112566330D03*
%TD*%
%TO.C,K59*%
X278556700Y-115106330D03*
X291483700Y-112566330D03*
%TD*%
%TO.C,K62*%
X49956700Y-134156330D03*
X62883700Y-131616330D03*
%TD*%
%TO.C,K58*%
X259506700Y-115106330D03*
X272433700Y-112566330D03*
%TD*%
%TO.C,K37*%
X145206700Y-96056330D03*
X158133700Y-93516330D03*
%TD*%
%TO.C,K54*%
X183306700Y-115106330D03*
X196233700Y-112566330D03*
%TD*%
%TO.C,K15*%
X297606700Y-57956330D03*
X310533700Y-55416330D03*
%TD*%
%TO.C,K33*%
X69006700Y-96056330D03*
X81933700Y-93516330D03*
%TD*%
%TO.C,K31*%
X30979433Y-96052690D03*
X43906433Y-93512690D03*
%TD*%
%TO.C,K38*%
X164256700Y-96056330D03*
X177183700Y-93516330D03*
%TD*%
%TO.C,K4*%
X88056700Y-57956330D03*
X100983700Y-55416330D03*
%TD*%
%TO.C,K27*%
X240456700Y-77006330D03*
X253383700Y-74466330D03*
%TD*%
%TO.C,K14*%
X278556700Y-57956330D03*
X291483700Y-55416330D03*
%TD*%
%TO.C,K28*%
X259506700Y-77006330D03*
X272433700Y-74466330D03*
%TD*%
%TO.C,K70*%
X216526700Y-139236330D03*
X203599700Y-141776330D03*
%TD*%
%TO.C,K60*%
X297606700Y-115106330D03*
X310533700Y-112566330D03*
%TD*%
%TO.C,K6*%
X126156700Y-57956330D03*
X139083700Y-55416330D03*
%TD*%
%TO.C,K75*%
X297606700Y-134156330D03*
X310533700Y-131616330D03*
%TD*%
%TO.C,K19*%
X88056700Y-77006330D03*
X100983700Y-74466330D03*
%TD*%
%TO.C,K69*%
X192831700Y-134156330D03*
X205758700Y-131616330D03*
%TD*%
%TO.C,K25*%
X202356700Y-77006330D03*
X215283700Y-74466330D03*
%TD*%
%TO.C,K68*%
X164256700Y-134156330D03*
X177183700Y-131616330D03*
%TD*%
%TO.C,K13*%
X259506700Y-57956330D03*
X272433700Y-55416330D03*
%TD*%
%TO.C,K53*%
X164256700Y-115106330D03*
X177183700Y-112566330D03*
%TD*%
%TO.C,K74*%
X278556700Y-134156330D03*
X291483700Y-131616330D03*
%TD*%
%TO.C,K51*%
X126156700Y-115106330D03*
X139083700Y-112566330D03*
%TD*%
%TO.C,K64*%
X88056700Y-134156330D03*
X100983700Y-131616330D03*
%TD*%
%TO.C,K56*%
X221406700Y-115106330D03*
X234333700Y-112566330D03*
%TD*%
%TO.C,K72*%
X240456700Y-134156330D03*
X253383700Y-131616330D03*
%TD*%
%TO.C,K47*%
X49956700Y-115106330D03*
X62883700Y-112566330D03*
%TD*%
%TO.C,K67*%
X159376700Y-139236330D03*
X146449700Y-141776330D03*
%TD*%
%TO.C,K77*%
X197476700Y-139236330D03*
X184549700Y-141776330D03*
%TD*%
%TO.C,K29*%
X278556700Y-77006330D03*
X291483700Y-74466330D03*
%TD*%
%TO.C,K35*%
X107106700Y-96056330D03*
X120033700Y-93516330D03*
%TD*%
%TO.C,K46*%
X30906700Y-115106330D03*
X43833700Y-112566330D03*
%TD*%
%TO.C,K9*%
X183306700Y-57956330D03*
X196233700Y-55416330D03*
%TD*%
D11*
%TO.C,K16*%
X35451700Y-86631330D03*
X32911700Y-73704330D03*
%TD*%
D10*
%TO.C,K63*%
X69006700Y-134156330D03*
X81933700Y-131616330D03*
%TD*%
%TO.C,K26*%
X221406700Y-77006330D03*
X234333700Y-74466330D03*
%TD*%
%TO.C,K42*%
X240456700Y-96056330D03*
X253383700Y-93516330D03*
%TD*%
%TO.C,K40*%
X202356700Y-96056330D03*
X215283700Y-93516330D03*
%TD*%
%TO.C,K65*%
X107106700Y-134156330D03*
X120033700Y-131616330D03*
%TD*%
%TO.C,K32*%
X49956700Y-96056330D03*
X62883700Y-93516330D03*
%TD*%
%TO.C,K50*%
X107106700Y-115106330D03*
X120033700Y-112566330D03*
%TD*%
%TO.C,K57*%
X240456700Y-115106330D03*
X253383700Y-112566330D03*
%TD*%
%TO.C,K36*%
X126156700Y-96056330D03*
X139083700Y-93516330D03*
%TD*%
D12*
%TO.C,D64*%
X82341700Y-142317330D03*
X82341700Y-139017330D03*
%TD*%
%TO.C,D56*%
X215691700Y-124492330D03*
X215691700Y-121192330D03*
%TD*%
D13*
%TO.C,C3*%
X40899700Y-64458330D03*
X42449700Y-64458330D03*
%TD*%
D12*
%TO.C,D23*%
X158541700Y-85892330D03*
X158541700Y-82592330D03*
%TD*%
D14*
%TO.C,R6*%
X43178324Y-77518954D03*
X42457076Y-76797706D03*
%TD*%
D12*
%TO.C,D9*%
X196641700Y-66692330D03*
X196641700Y-63392330D03*
%TD*%
%TO.C,D3*%
X82341700Y-66692330D03*
X82341700Y-63392330D03*
%TD*%
D15*
%TO.C,C14*%
X45697288Y-90046098D03*
X45018466Y-90724920D03*
%TD*%
D16*
%TO.C,D16*%
X40665920Y-62548108D03*
X42765920Y-62548108D03*
%TD*%
D17*
%TO.C,Y1*%
X39852946Y-88966455D03*
X39852946Y-87216455D03*
X41252946Y-87216455D03*
X41252946Y-88966455D03*
%TD*%
D12*
%TO.C,D5*%
X120441700Y-66692330D03*
X120441700Y-63392330D03*
%TD*%
%TO.C,D14*%
X291891700Y-66692330D03*
X291891700Y-63392330D03*
%TD*%
D18*
%TO.C,D69*%
X218203700Y-127196330D03*
X214903700Y-127196330D03*
%TD*%
D19*
%TO.C,SW1*%
X47643700Y-68675330D03*
X47643700Y-71925330D03*
%TD*%
D15*
%TO.C,C11*%
X47422963Y-82112492D03*
X46744141Y-82791314D03*
%TD*%
D20*
%TO.C,J1*%
X43799181Y-57783330D03*
X44599181Y-57783330D03*
D21*
X45799181Y-57783330D03*
X46799181Y-57783330D03*
X47299181Y-57783330D03*
X48299181Y-57783330D03*
D20*
X49499181Y-57783330D03*
X50299181Y-57783330D03*
X50299181Y-57783330D03*
X49499181Y-57783330D03*
D21*
X48799181Y-57783330D03*
X47799181Y-57783330D03*
X46299181Y-57783330D03*
X45299181Y-57783330D03*
D20*
X44599181Y-57783330D03*
X43799181Y-57783330D03*
%TD*%
D22*
%TO.C,R10*%
X42944700Y-72207330D03*
X42944700Y-71187330D03*
%TD*%
D23*
%TO.C,C10*%
X53344214Y-82673752D03*
X54304214Y-82673752D03*
%TD*%
D12*
%TO.C,D38*%
X158541700Y-105317330D03*
X158541700Y-102017330D03*
%TD*%
D18*
%TO.C,D67*%
X161053700Y-127069330D03*
X157753700Y-127069330D03*
%TD*%
D12*
%TO.C,D46*%
X310025700Y-103650000D03*
X310025700Y-100350000D03*
%TD*%
D24*
%TO.C,U1*%
X49188946Y-87850016D03*
X48287385Y-86948455D03*
X50090507Y-86948455D03*
X49188946Y-86046894D03*
D25*
X53458103Y-87540657D03*
X53175260Y-87823500D03*
X52892418Y-88106342D03*
X52609575Y-88389185D03*
X52326732Y-88672028D03*
X52043890Y-88954870D03*
X51761047Y-89237713D03*
X51478204Y-89520556D03*
X51195361Y-89803399D03*
X50912519Y-90086241D03*
X50629676Y-90369084D03*
X50346833Y-90651927D03*
X50063991Y-90934769D03*
X49781148Y-91217612D03*
D26*
X48596744Y-91217612D03*
X48313901Y-90934769D03*
X48031059Y-90651927D03*
X47748216Y-90369084D03*
X47465373Y-90086241D03*
X47182531Y-89803399D03*
X46899688Y-89520556D03*
X46616845Y-89237713D03*
X46334002Y-88954870D03*
X46051160Y-88672028D03*
X45768317Y-88389185D03*
X45485474Y-88106342D03*
X45202632Y-87823500D03*
X44919789Y-87540657D03*
D25*
X44919789Y-86356253D03*
X45202632Y-86073410D03*
X45485474Y-85790568D03*
X45768317Y-85507725D03*
X46051160Y-85224882D03*
X46334002Y-84942040D03*
X46616845Y-84659197D03*
X46899688Y-84376354D03*
X47182531Y-84093511D03*
X47465373Y-83810669D03*
X47748216Y-83527826D03*
X48031059Y-83244983D03*
X48313901Y-82962141D03*
X48596744Y-82679298D03*
D26*
X49781148Y-82679298D03*
X50063991Y-82962141D03*
X50346833Y-83244983D03*
X50629676Y-83527826D03*
X50912519Y-83810669D03*
X51195361Y-84093511D03*
X51478204Y-84376354D03*
X51761047Y-84659197D03*
X52043890Y-84942040D03*
X52326732Y-85224882D03*
X52609575Y-85507725D03*
X52892418Y-85790568D03*
X53175260Y-86073410D03*
X53458103Y-86356253D03*
%TD*%
D12*
%TO.C,D34*%
X82341700Y-105317330D03*
X82341700Y-102017330D03*
%TD*%
%TO.C,D41*%
X215691700Y-105317330D03*
X215691700Y-102017330D03*
%TD*%
%TO.C,D15*%
X310191700Y-66692330D03*
X310191700Y-63392330D03*
%TD*%
%TO.C,D49*%
X82341700Y-124492330D03*
X82341700Y-121192330D03*
%TD*%
%TO.C,D50*%
X100491700Y-124492330D03*
X100491700Y-121192330D03*
%TD*%
%TO.C,D19*%
X82341700Y-85892330D03*
X82341700Y-82592330D03*
%TD*%
%TO.C,D45*%
X291891700Y-105317330D03*
X291891700Y-102017330D03*
%TD*%
D27*
%TO.C,R1*%
X45101700Y-59886330D03*
X46121700Y-59886330D03*
%TD*%
D12*
%TO.C,D32*%
X43071700Y-105317330D03*
X43071700Y-102017330D03*
%TD*%
D23*
%TO.C,C9*%
X52116877Y-90937455D03*
X53076877Y-90937455D03*
%TD*%
D12*
%TO.C,D42*%
X234741700Y-105317330D03*
X234741700Y-102017330D03*
%TD*%
D14*
%TO.C,R8*%
X61411812Y-82695799D03*
X60690564Y-81974551D03*
%TD*%
D12*
%TO.C,D61*%
X310191700Y-124492330D03*
X310191700Y-121192330D03*
%TD*%
%TO.C,D11*%
X234741700Y-66692330D03*
X234741700Y-63392330D03*
%TD*%
%TO.C,D24*%
X177591700Y-85892330D03*
X177591700Y-82592330D03*
%TD*%
%TO.C,D22*%
X138941700Y-85892330D03*
X138941700Y-82592330D03*
%TD*%
%TO.C,D25*%
X196641700Y-85892330D03*
X196641700Y-82592330D03*
%TD*%
%TO.C,D73*%
X291891700Y-142317330D03*
X291891700Y-139017330D03*
%TD*%
%TO.C,D47*%
X43691700Y-124492330D03*
X43691700Y-121192330D03*
%TD*%
D18*
%TO.C,D75*%
X147464700Y-127196330D03*
X144164700Y-127196330D03*
%TD*%
D12*
%TO.C,D57*%
X234741700Y-124492330D03*
X234741700Y-121192330D03*
%TD*%
D28*
%TO.C,U4*%
X63029115Y-86316532D03*
X62131090Y-87214557D03*
X61233064Y-88112583D03*
X60335039Y-89010608D03*
X56693439Y-85369008D03*
X57591464Y-84470983D03*
X58489490Y-83572957D03*
X59387515Y-82674932D03*
%TD*%
D12*
%TO.C,D26*%
X215691700Y-85892330D03*
X215691700Y-82592330D03*
%TD*%
%TO.C,D43*%
X253791700Y-105317330D03*
X253791700Y-102017330D03*
%TD*%
%TO.C,D53*%
X158541700Y-124492330D03*
X158541700Y-121192330D03*
%TD*%
%TO.C,D71*%
X253791700Y-142317330D03*
X253791700Y-139017330D03*
%TD*%
%TO.C,D27*%
X234741700Y-85892330D03*
X234741700Y-82592330D03*
%TD*%
%TO.C,D54*%
X177591700Y-124492330D03*
X177591700Y-121192330D03*
%TD*%
D19*
%TO.C,SW2*%
X44722700Y-68675330D03*
X44722700Y-71925330D03*
%TD*%
D12*
%TO.C,D63*%
X63291700Y-142317330D03*
X63291700Y-139017330D03*
%TD*%
D29*
%TO.C,R4*%
X50077076Y-81115706D03*
X50798324Y-81836954D03*
%TD*%
D18*
%TO.C,D76*%
X204360700Y-127069330D03*
X201060700Y-127069330D03*
%TD*%
D30*
%TO.C,R11*%
X40531700Y-83503970D03*
X40531700Y-84523970D03*
%TD*%
D12*
%TO.C,D20*%
X100491700Y-85892330D03*
X100491700Y-82592330D03*
%TD*%
%TO.C,D52*%
X138941700Y-124492330D03*
X138941700Y-121192330D03*
%TD*%
%TO.C,D7*%
X158541700Y-66692330D03*
X158541700Y-63392330D03*
%TD*%
D31*
%TO.C,C2*%
X42332946Y-85841455D03*
X41372946Y-85841455D03*
%TD*%
D12*
%TO.C,D6*%
X138941700Y-66692330D03*
X138941700Y-63392330D03*
%TD*%
%TO.C,D60*%
X291891700Y-124492330D03*
X291891700Y-121192330D03*
%TD*%
D32*
%TO.C,C12*%
X55051466Y-87611559D03*
X55730288Y-88290381D03*
%TD*%
D12*
%TO.C,D65*%
X100491700Y-142317330D03*
X100491700Y-139017330D03*
%TD*%
%TO.C,D70*%
X234741700Y-142317330D03*
X234741700Y-139017330D03*
%TD*%
D23*
%TO.C,C7*%
X53344214Y-83658978D03*
X54304214Y-83658978D03*
%TD*%
D12*
%TO.C,D10*%
X215691700Y-66692330D03*
X215691700Y-63392330D03*
%TD*%
%TO.C,D59*%
X272924997Y-124476607D03*
X272924997Y-121176607D03*
%TD*%
D18*
%TO.C,D68*%
X178198700Y-126942330D03*
X174898700Y-126942330D03*
%TD*%
D13*
%TO.C,C4*%
X40772700Y-69665330D03*
X42322700Y-69665330D03*
%TD*%
D12*
%TO.C,D72*%
X272841700Y-142317330D03*
X272841700Y-139017330D03*
%TD*%
D33*
%TO.C,FB1*%
X53231700Y-58387830D03*
X53231700Y-56812830D03*
%TD*%
D12*
%TO.C,D44*%
X272841700Y-105317330D03*
X272841700Y-102017330D03*
%TD*%
%TO.C,D36*%
X120441700Y-105317330D03*
X120441700Y-102017330D03*
%TD*%
%TO.C,D58*%
X253791700Y-124492330D03*
X253791700Y-121192330D03*
%TD*%
%TO.C,D40*%
X196641700Y-105317330D03*
X196641700Y-102017330D03*
%TD*%
D14*
%TO.C,R7*%
X44575324Y-78915954D03*
X43854076Y-78194706D03*
%TD*%
D12*
%TO.C,D35*%
X100491700Y-105317330D03*
X100491700Y-102017330D03*
%TD*%
%TO.C,D55*%
X196641700Y-124492330D03*
X196641700Y-121192330D03*
%TD*%
D34*
%TO.C,C6*%
X48127611Y-81451963D03*
X47448789Y-80773141D03*
%TD*%
D12*
%TO.C,D8*%
X177591700Y-66692330D03*
X177591700Y-63392330D03*
%TD*%
D29*
%TO.C,R9*%
X62091453Y-83399346D03*
X62812701Y-84120594D03*
%TD*%
D12*
%TO.C,D37*%
X138941700Y-105317330D03*
X138941700Y-102017330D03*
%TD*%
%TO.C,D29*%
X272841700Y-85892330D03*
X272841700Y-82592330D03*
%TD*%
%TO.C,D33*%
X67836700Y-105224330D03*
X67836700Y-101924330D03*
%TD*%
D35*
%TO.C,U3*%
X48183700Y-61222330D03*
X48183700Y-62172330D03*
X48183700Y-63122330D03*
X45833700Y-63122330D03*
X45833700Y-62172330D03*
X45833700Y-61222330D03*
%TD*%
D12*
%TO.C,D1*%
X31229641Y-70880974D03*
X31229641Y-67580974D03*
%TD*%
%TO.C,D74*%
X310191700Y-142317330D03*
X310191700Y-139017330D03*
%TD*%
%TO.C,D39*%
X177591700Y-105317330D03*
X177591700Y-102017330D03*
%TD*%
%TO.C,D21*%
X120441700Y-85892330D03*
X120441700Y-82592330D03*
%TD*%
%TO.C,D31*%
X310191700Y-85892330D03*
X310191700Y-82592330D03*
%TD*%
%TO.C,D30*%
X291891700Y-85892330D03*
X291891700Y-82592330D03*
%TD*%
D30*
%TO.C,R5*%
X42602946Y-87181455D03*
X42602946Y-88201455D03*
%TD*%
D12*
%TO.C,D4*%
X100491700Y-66692330D03*
X100491700Y-63392330D03*
%TD*%
D29*
%TO.C,R3*%
X51674736Y-81295552D03*
X52395984Y-82016800D03*
%TD*%
D12*
%TO.C,D12*%
X253791700Y-66692330D03*
X253791700Y-63392330D03*
%TD*%
D36*
%TO.C,D77*%
X41547700Y-84498970D03*
X41547700Y-83528970D03*
%TD*%
D12*
%TO.C,D62*%
X44241700Y-142317330D03*
X44241700Y-139017330D03*
%TD*%
D37*
%TO.C,F1*%
X42716200Y-60775330D03*
X41141200Y-60775330D03*
%TD*%
D15*
%TO.C,C5*%
X46727168Y-81413306D03*
X46048346Y-82092128D03*
%TD*%
D18*
%TO.C,D17*%
X39133700Y-71951330D03*
X35833700Y-71951330D03*
%TD*%
D12*
%TO.C,D51*%
X120441700Y-124492330D03*
X120441700Y-121192330D03*
%TD*%
%TO.C,D66*%
X120441700Y-142317330D03*
X120441700Y-139017330D03*
%TD*%
D23*
%TO.C,C1*%
X39372946Y-85841455D03*
X40332946Y-85841455D03*
%TD*%
D12*
%TO.C,D13*%
X272841700Y-66692330D03*
X272841700Y-63392330D03*
%TD*%
D38*
%TO.C,U2*%
X42565920Y-68185330D03*
X40665920Y-68185330D03*
X41615920Y-66065330D03*
%TD*%
D34*
%TO.C,C8*%
X44992201Y-89377715D03*
X44313379Y-88698893D03*
%TD*%
D12*
%TO.C,D18*%
X72662700Y-85920330D03*
X72662700Y-82620330D03*
%TD*%
%TO.C,D2*%
X71519700Y-66743330D03*
X71519700Y-63443330D03*
%TD*%
%TO.C,D28*%
X253791700Y-85892330D03*
X253791700Y-82592330D03*
%TD*%
D34*
%TO.C,C13*%
X45020085Y-84568169D03*
X44341263Y-83889347D03*
%TD*%
D27*
%TO.C,R2*%
X48403700Y-59886330D03*
X49423700Y-59886330D03*
%TD*%
D12*
%TO.C,D48*%
X62741700Y-124492330D03*
X62741700Y-121192330D03*
%TD*%
M02*
