%TF.GenerationSoftware,KiCad,Pcbnew,(6.0.4)*%
%TF.CreationDate,2022-10-29T20:57:45+01:00*%
%TF.ProjectId,nova75,6e6f7661-3735-42e6-9b69-6361645f7063,rev?*%
%TF.SameCoordinates,Original*%
%TF.FileFunction,Legend,Top*%
%TF.FilePolarity,Positive*%
%FSLAX46Y46*%
G04 Gerber Fmt 4.6, Leading zero omitted, Abs format (unit mm)*
G04 Created by KiCad (PCBNEW (6.0.4)) date 2022-10-29 20:57:45*
%MOMM*%
%LPD*%
G01*
G04 APERTURE LIST*
G04 Aperture macros list*
%AMRoundRect*
0 Rectangle with rounded corners*
0 $1 Rounding radius*
0 $2 $3 $4 $5 $6 $7 $8 $9 X,Y pos of 4 corners*
0 Add a 4 corners polygon primitive as box body*
4,1,4,$2,$3,$4,$5,$6,$7,$8,$9,$2,$3,0*
0 Add four circle primitives for the rounded corners*
1,1,$1+$1,$2,$3*
1,1,$1+$1,$4,$5*
1,1,$1+$1,$6,$7*
1,1,$1+$1,$8,$9*
0 Add four rect primitives between the rounded corners*
20,1,$1+$1,$2,$3,$4,$5,0*
20,1,$1+$1,$4,$5,$6,$7,0*
20,1,$1+$1,$6,$7,$8,$9,0*
20,1,$1+$1,$8,$9,$2,$3,0*%
G04 Aperture macros list end*
%ADD10C,0.200000*%
%ADD11C,0.300000*%
%ADD12C,0.125000*%
%ADD13C,0.150000*%
%ADD14C,1.250000*%
%ADD15C,3.000000*%
%ADD16C,1.750000*%
%ADD17C,3.987800*%
%ADD18C,2.200000*%
%ADD19C,3.800000*%
%ADD20C,3.048000*%
%ADD21C,1.300000*%
%ADD22R,1.500000X1.500000*%
%ADD23C,0.650000*%
%ADD24O,1.000000X1.600000*%
%ADD25O,1.000000X2.100000*%
%ADD26C,1.000000*%
%ADD27RoundRect,0.150000X0.350000X0.350000X-0.350000X0.350000X-0.350000X-0.350000X0.350000X-0.350000X0*%
%ADD28C,0.600000*%
%ADD29C,0.800000*%
%ADD30C,0.500000*%
G04 APERTURE END LIST*
D10*
X309983247Y-106646315D02*
X313692147Y-106646315D01*
X32700881Y-109135421D02*
G75*
G03*
X32700881Y-106635419I-11J1250001D01*
G01*
X32700881Y-109135419D02*
X28991981Y-109135419D01*
X309983247Y-109146315D02*
X313692147Y-109146315D01*
X32700881Y-106635419D02*
X28991981Y-106635419D01*
X309983247Y-106646285D02*
G75*
G03*
X309983247Y-109146315I53J-1250015D01*
G01*
D11*
X128848700Y-68835901D02*
X128848700Y-70050187D01*
X128777271Y-70193044D01*
X128705842Y-70264472D01*
X128562985Y-70335901D01*
X128348700Y-70335901D01*
X128205842Y-70264472D01*
X128848700Y-69764472D02*
X128705842Y-69835901D01*
X128420128Y-69835901D01*
X128277271Y-69764472D01*
X128205842Y-69693044D01*
X128134414Y-69550187D01*
X128134414Y-69121615D01*
X128205842Y-68978758D01*
X128277271Y-68907330D01*
X128420128Y-68835901D01*
X128705842Y-68835901D01*
X128848700Y-68907330D01*
X129562985Y-69835901D02*
X129562985Y-68835901D01*
X129562985Y-68335901D02*
X129491557Y-68407330D01*
X129562985Y-68478758D01*
X129634414Y-68407330D01*
X129562985Y-68335901D01*
X129562985Y-68478758D01*
X130062985Y-68835901D02*
X130634414Y-68835901D01*
X130277271Y-68335901D02*
X130277271Y-69621615D01*
X130348700Y-69764472D01*
X130491557Y-69835901D01*
X130634414Y-69835901D01*
X131134414Y-69835901D02*
X131134414Y-68335901D01*
X131777271Y-69835901D02*
X131777271Y-69050187D01*
X131705842Y-68907330D01*
X131562985Y-68835901D01*
X131348700Y-68835901D01*
X131205842Y-68907330D01*
X131134414Y-68978758D01*
X133134414Y-68835901D02*
X133134414Y-69835901D01*
X132491557Y-68835901D02*
X132491557Y-69621615D01*
X132562985Y-69764472D01*
X132705842Y-69835901D01*
X132920128Y-69835901D01*
X133062985Y-69764472D01*
X133134414Y-69693044D01*
X133848700Y-69835901D02*
X133848700Y-68335901D01*
X133848700Y-68907330D02*
X133991557Y-68835901D01*
X134277271Y-68835901D01*
X134420128Y-68907330D01*
X134491557Y-68978758D01*
X134562985Y-69121615D01*
X134562985Y-69550187D01*
X134491557Y-69693044D01*
X134420128Y-69764472D01*
X134277271Y-69835901D01*
X133991557Y-69835901D01*
X133848700Y-69764472D01*
X135205842Y-69693044D02*
X135277271Y-69764472D01*
X135205842Y-69835901D01*
X135134414Y-69764472D01*
X135205842Y-69693044D01*
X135205842Y-69835901D01*
X136562985Y-69764472D02*
X136420128Y-69835901D01*
X136134414Y-69835901D01*
X135991557Y-69764472D01*
X135920128Y-69693044D01*
X135848700Y-69550187D01*
X135848700Y-69121615D01*
X135920128Y-68978758D01*
X135991557Y-68907330D01*
X136134414Y-68835901D01*
X136420128Y-68835901D01*
X136562985Y-68907330D01*
X137420128Y-69835901D02*
X137277271Y-69764472D01*
X137205842Y-69693044D01*
X137134414Y-69550187D01*
X137134414Y-69121615D01*
X137205842Y-68978758D01*
X137277271Y-68907330D01*
X137420128Y-68835901D01*
X137634414Y-68835901D01*
X137777271Y-68907330D01*
X137848700Y-68978758D01*
X137920128Y-69121615D01*
X137920128Y-69550187D01*
X137848700Y-69693044D01*
X137777271Y-69764472D01*
X137634414Y-69835901D01*
X137420128Y-69835901D01*
X138562985Y-69835901D02*
X138562985Y-68835901D01*
X138562985Y-68978758D02*
X138634414Y-68907330D01*
X138777271Y-68835901D01*
X138991557Y-68835901D01*
X139134414Y-68907330D01*
X139205842Y-69050187D01*
X139205842Y-69835901D01*
X139205842Y-69050187D02*
X139277271Y-68907330D01*
X139420128Y-68835901D01*
X139634414Y-68835901D01*
X139777271Y-68907330D01*
X139848700Y-69050187D01*
X139848700Y-69835901D01*
X141634414Y-68264472D02*
X140348700Y-70193044D01*
X141920128Y-68835901D02*
X142491557Y-68835901D01*
X142134414Y-68335901D02*
X142134414Y-69621615D01*
X142205842Y-69764472D01*
X142348700Y-69835901D01*
X142491557Y-69835901D01*
X142991557Y-68835901D02*
X142991557Y-70121615D01*
X142920128Y-70264472D01*
X142777271Y-70335901D01*
X142705842Y-70335901D01*
X142991557Y-68335901D02*
X142920128Y-68407330D01*
X142991557Y-68478758D01*
X143062985Y-68407330D01*
X142991557Y-68335901D01*
X142991557Y-68478758D01*
X144277271Y-69764472D02*
X144134414Y-69835901D01*
X143848700Y-69835901D01*
X143705842Y-69764472D01*
X143634414Y-69621615D01*
X143634414Y-69050187D01*
X143705842Y-68907330D01*
X143848700Y-68835901D01*
X144134414Y-68835901D01*
X144277271Y-68907330D01*
X144348700Y-69050187D01*
X144348700Y-69193044D01*
X143634414Y-69335901D01*
X144777271Y-68835901D02*
X145348700Y-68835901D01*
X144991557Y-69835901D02*
X144991557Y-68550187D01*
X145062985Y-68407330D01*
X145205842Y-68335901D01*
X145348700Y-68335901D01*
X145634414Y-68835901D02*
X146205842Y-68835901D01*
X145848700Y-69835901D02*
X145848700Y-68550187D01*
X145920128Y-68407330D01*
X146062985Y-68335901D01*
X146205842Y-68335901D01*
X146705842Y-69835901D02*
X146705842Y-68835901D01*
X146705842Y-69121615D02*
X146777271Y-68978758D01*
X146848700Y-68907330D01*
X146991557Y-68835901D01*
X147134414Y-68835901D01*
X148205842Y-69764472D02*
X148062985Y-69835901D01*
X147777271Y-69835901D01*
X147634414Y-69764472D01*
X147562985Y-69621615D01*
X147562985Y-69050187D01*
X147634414Y-68907330D01*
X147777271Y-68835901D01*
X148062985Y-68835901D01*
X148205842Y-68907330D01*
X148277271Y-69050187D01*
X148277271Y-69193044D01*
X147562985Y-69335901D01*
X149491557Y-69764472D02*
X149348700Y-69835901D01*
X149062985Y-69835901D01*
X148920128Y-69764472D01*
X148848700Y-69621615D01*
X148848700Y-69050187D01*
X148920128Y-68907330D01*
X149062985Y-68835901D01*
X149348700Y-68835901D01*
X149491557Y-68907330D01*
X149562985Y-69050187D01*
X149562985Y-69193044D01*
X148848700Y-69335901D01*
D12*
X272734557Y-127668520D02*
X272734557Y-128025663D01*
X272691700Y-128097091D01*
X272605985Y-128144710D01*
X272477414Y-128168520D01*
X272391700Y-128168520D01*
X273591700Y-128168520D02*
X273163128Y-128168520D01*
X273163128Y-127668520D01*
X274405985Y-128120901D02*
X274363128Y-128144710D01*
X274234557Y-128168520D01*
X274148842Y-128168520D01*
X274020271Y-128144710D01*
X273934557Y-128097091D01*
X273891700Y-128049472D01*
X273848842Y-127954234D01*
X273848842Y-127882806D01*
X273891700Y-127787568D01*
X273934557Y-127739949D01*
X274020271Y-127692330D01*
X274148842Y-127668520D01*
X274234557Y-127668520D01*
X274363128Y-127692330D01*
X274405985Y-127716139D01*
X275048842Y-127668520D02*
X275048842Y-128025663D01*
X275005985Y-128097091D01*
X274920271Y-128144710D01*
X274791700Y-128168520D01*
X274705985Y-128168520D01*
X275905985Y-128168520D02*
X275477414Y-128168520D01*
X275477414Y-127668520D01*
X276720271Y-128120901D02*
X276677414Y-128144710D01*
X276548842Y-128168520D01*
X276463128Y-128168520D01*
X276334557Y-128144710D01*
X276248842Y-128097091D01*
X276205985Y-128049472D01*
X276163128Y-127954234D01*
X276163128Y-127882806D01*
X276205985Y-127787568D01*
X276248842Y-127739949D01*
X276334557Y-127692330D01*
X276463128Y-127668520D01*
X276548842Y-127668520D01*
X276677414Y-127692330D01*
X276720271Y-127716139D01*
X277363128Y-127668520D02*
X277363128Y-128025663D01*
X277320271Y-128097091D01*
X277234557Y-128144710D01*
X277105985Y-128168520D01*
X277020271Y-128168520D01*
X278220271Y-128168520D02*
X277791700Y-128168520D01*
X277791700Y-127668520D01*
X279034557Y-128120901D02*
X278991700Y-128144710D01*
X278863128Y-128168520D01*
X278777414Y-128168520D01*
X278648842Y-128144710D01*
X278563128Y-128097091D01*
X278520271Y-128049472D01*
X278477414Y-127954234D01*
X278477414Y-127882806D01*
X278520271Y-127787568D01*
X278563128Y-127739949D01*
X278648842Y-127692330D01*
X278777414Y-127668520D01*
X278863128Y-127668520D01*
X278991700Y-127692330D01*
X279034557Y-127716139D01*
X279677414Y-127668520D02*
X279677414Y-128025663D01*
X279634557Y-128097091D01*
X279548842Y-128144710D01*
X279420271Y-128168520D01*
X279334557Y-128168520D01*
X280534557Y-128168520D02*
X280105985Y-128168520D01*
X280105985Y-127668520D01*
X281348842Y-128120901D02*
X281305985Y-128144710D01*
X281177414Y-128168520D01*
X281091700Y-128168520D01*
X280963128Y-128144710D01*
X280877414Y-128097091D01*
X280834557Y-128049472D01*
X280791700Y-127954234D01*
X280791700Y-127882806D01*
X280834557Y-127787568D01*
X280877414Y-127739949D01*
X280963128Y-127692330D01*
X281091700Y-127668520D01*
X281177414Y-127668520D01*
X281305985Y-127692330D01*
X281348842Y-127716139D01*
D13*
%TO.C,H9*%
X218228712Y-128349055D02*
X218228712Y-127349055D01*
X218228712Y-127825246D02*
X218800140Y-127825246D01*
X218800140Y-128349055D02*
X218800140Y-127349055D01*
X219323950Y-128349055D02*
X219514426Y-128349055D01*
X219609664Y-128301436D01*
X219657283Y-128253817D01*
X219752521Y-128110960D01*
X219800140Y-127920484D01*
X219800140Y-127539532D01*
X219752521Y-127444294D01*
X219704902Y-127396675D01*
X219609664Y-127349055D01*
X219419188Y-127349055D01*
X219323950Y-127396675D01*
X219276331Y-127444294D01*
X219228712Y-127539532D01*
X219228712Y-127777627D01*
X219276331Y-127872865D01*
X219323950Y-127920484D01*
X219419188Y-127968103D01*
X219609664Y-127968103D01*
X219704902Y-127920484D01*
X219752521Y-127872865D01*
X219800140Y-127777627D01*
%TO.C,H2*%
X84853058Y-67569671D02*
X84853058Y-66569671D01*
X84853058Y-67045862D02*
X85424486Y-67045862D01*
X85424486Y-67569671D02*
X85424486Y-66569671D01*
X85853058Y-66664910D02*
X85900677Y-66617291D01*
X85995915Y-66569671D01*
X86234010Y-66569671D01*
X86329248Y-66617291D01*
X86376867Y-66664910D01*
X86424486Y-66760148D01*
X86424486Y-66855386D01*
X86376867Y-66998243D01*
X85805439Y-67569671D01*
X86424486Y-67569671D01*
%TO.C,H8*%
X256304472Y-67536985D02*
X256304472Y-66536985D01*
X256304472Y-67013176D02*
X256875900Y-67013176D01*
X256875900Y-67536985D02*
X256875900Y-66536985D01*
X257494948Y-66965557D02*
X257399710Y-66917938D01*
X257352091Y-66870319D01*
X257304472Y-66775081D01*
X257304472Y-66727462D01*
X257352091Y-66632224D01*
X257399710Y-66584605D01*
X257494948Y-66536985D01*
X257685424Y-66536985D01*
X257780662Y-66584605D01*
X257828281Y-66632224D01*
X257875900Y-66727462D01*
X257875900Y-66775081D01*
X257828281Y-66870319D01*
X257780662Y-66917938D01*
X257685424Y-66965557D01*
X257494948Y-66965557D01*
X257399710Y-67013176D01*
X257352091Y-67060795D01*
X257304472Y-67156033D01*
X257304472Y-67346509D01*
X257352091Y-67441747D01*
X257399710Y-67489366D01*
X257494948Y-67536985D01*
X257685424Y-67536985D01*
X257780662Y-67489366D01*
X257828281Y-67441747D01*
X257875900Y-67346509D01*
X257875900Y-67156033D01*
X257828281Y-67060795D01*
X257780662Y-67013176D01*
X257685424Y-66965557D01*
%TO.C,H4*%
X180108852Y-86626093D02*
X180108852Y-85626093D01*
X180108852Y-86102284D02*
X180680280Y-86102284D01*
X180680280Y-86626093D02*
X180680280Y-85626093D01*
X181585042Y-85959427D02*
X181585042Y-86626093D01*
X181346947Y-85578474D02*
X181108852Y-86292760D01*
X181727899Y-86292760D01*
%TO.C,H6*%
X65805117Y-124715849D02*
X65805117Y-123715849D01*
X65805117Y-124192040D02*
X66376545Y-124192040D01*
X66376545Y-124715849D02*
X66376545Y-123715849D01*
X67281307Y-123715849D02*
X67090831Y-123715849D01*
X66995593Y-123763469D01*
X66947974Y-123811088D01*
X66852736Y-123953945D01*
X66805117Y-124144421D01*
X66805117Y-124525373D01*
X66852736Y-124620611D01*
X66900355Y-124668230D01*
X66995593Y-124715849D01*
X67186069Y-124715849D01*
X67281307Y-124668230D01*
X67328926Y-124620611D01*
X67376545Y-124525373D01*
X67376545Y-124287278D01*
X67328926Y-124192040D01*
X67281307Y-124144421D01*
X67186069Y-124096802D01*
X66995593Y-124096802D01*
X66900355Y-124144421D01*
X66852736Y-124192040D01*
X66805117Y-124287278D01*
%TD*%
%LPC*%
D14*
%TO.C,HOLE*%
X28990518Y-109767675D02*
X32699418Y-109767675D01*
X32699418Y-106017675D02*
X28990518Y-106017675D01*
X32699418Y-109767675D02*
G75*
G03*
X32699418Y-106017675I0J1875000D01*
G01*
X309984710Y-109764059D02*
X313693610Y-109764059D01*
X313693610Y-106014059D02*
X309984710Y-106014059D01*
X309984710Y-106014059D02*
G75*
G03*
X309984710Y-109764059I0J-1875000D01*
G01*
%TD*%
D15*
%TO.C,K22*%
X148481700Y-77006330D03*
X154831700Y-74466330D03*
D16*
X147211700Y-79546330D03*
D17*
X152291700Y-79546330D03*
D16*
X157371700Y-79546330D03*
%TD*%
D15*
%TO.C,K20*%
X116731700Y-74466330D03*
D16*
X109111700Y-79546330D03*
X119271700Y-79546330D03*
D15*
X110381700Y-77006330D03*
D17*
X114191700Y-79546330D03*
%TD*%
D16*
%TO.C,K8*%
X166261700Y-60496330D03*
D15*
X173881700Y-55416330D03*
D16*
X176421700Y-60496330D03*
D17*
X171341700Y-60496330D03*
D15*
X167531700Y-57956330D03*
%TD*%
D17*
%TO.C,K71*%
X228491700Y-136696330D03*
D15*
X224681700Y-134156330D03*
D16*
X233571700Y-136696330D03*
D15*
X231031700Y-131616330D03*
D16*
X223411700Y-136696330D03*
%TD*%
D15*
%TO.C,K76*%
X130701700Y-141776330D03*
D17*
X133241700Y-136696330D03*
D16*
X128161700Y-136696330D03*
X138321700Y-136696330D03*
D15*
X137051700Y-139236330D03*
%TD*%
D16*
%TO.C,K23*%
X166261700Y-79546330D03*
D17*
X171341700Y-79546330D03*
D16*
X176421700Y-79546330D03*
D15*
X167531700Y-77006330D03*
X173881700Y-74466330D03*
%TD*%
D16*
%TO.C,K11*%
X223411700Y-60496330D03*
X233571700Y-60496330D03*
D17*
X228491700Y-60496330D03*
D15*
X231031700Y-55416330D03*
X224681700Y-57956330D03*
%TD*%
D18*
%TO.C,H9*%
X218990617Y-130796675D03*
X219366377Y-130796675D03*
X218608281Y-130796675D03*
D19*
X218990617Y-130796675D03*
%TD*%
D16*
%TO.C,K44*%
X280561700Y-98596330D03*
D15*
X281831700Y-96056330D03*
D17*
X285641700Y-98596330D03*
D15*
X288181700Y-93516330D03*
D16*
X290721700Y-98596330D03*
%TD*%
%TO.C,K5*%
X109111700Y-60496330D03*
D15*
X110381700Y-57956330D03*
D16*
X119271700Y-60496330D03*
D17*
X114191700Y-60496330D03*
D15*
X116731700Y-55416330D03*
%TD*%
D16*
%TO.C,K39*%
X195471700Y-98596330D03*
X185311700Y-98596330D03*
D15*
X192931700Y-93516330D03*
X186581700Y-96056330D03*
D17*
X190391700Y-98596330D03*
%TD*%
D15*
%TO.C,K17*%
X53231700Y-77006330D03*
D17*
X57041700Y-79546330D03*
D16*
X51961700Y-79546330D03*
D15*
X59581700Y-74466330D03*
D16*
X62121700Y-79546330D03*
%TD*%
%TO.C,K3*%
X71011700Y-60496330D03*
D15*
X78631700Y-55416330D03*
X72281700Y-57956330D03*
D16*
X81171700Y-60496330D03*
D17*
X76091700Y-60496330D03*
%TD*%
%TO.C,K66*%
X142766700Y-136696330D03*
D20*
X130828700Y-143681330D03*
D17*
X130828700Y-128441330D03*
X154704700Y-128441330D03*
D15*
X145306700Y-131616330D03*
D16*
X137686700Y-136696330D03*
D15*
X138956700Y-134156330D03*
D20*
X154704700Y-143681330D03*
D16*
X147846700Y-136696330D03*
%TD*%
%TO.C,K12*%
X252621700Y-60496330D03*
D15*
X243731700Y-57956330D03*
D16*
X242461700Y-60496330D03*
D17*
X247541700Y-60496330D03*
D15*
X250081700Y-55416330D03*
%TD*%
%TO.C,K49*%
X97681700Y-112566330D03*
X91331700Y-115106330D03*
D17*
X95141700Y-117646330D03*
D16*
X100221700Y-117646330D03*
X90061700Y-117646330D03*
%TD*%
D18*
%TO.C,H2*%
X85990723Y-70017291D03*
X85232627Y-70017291D03*
X85614963Y-70017291D03*
D19*
X85614963Y-70017291D03*
%TD*%
D16*
%TO.C,K43*%
X261511700Y-98596330D03*
X271671700Y-98596330D03*
D15*
X262781700Y-96056330D03*
X269131700Y-93516330D03*
D17*
X266591700Y-98596330D03*
%TD*%
D15*
%TO.C,K45*%
X307231700Y-93516330D03*
D17*
X304691700Y-98596330D03*
D16*
X299611700Y-98596330D03*
X309771700Y-98596330D03*
D15*
X300881700Y-96056330D03*
%TD*%
%TO.C,K34*%
X97681700Y-93516330D03*
D16*
X100221700Y-98596330D03*
D17*
X95141700Y-98596330D03*
D15*
X91331700Y-96056330D03*
D16*
X90061700Y-98596330D03*
%TD*%
D21*
%TO.C,H5*%
X295928700Y-142944330D03*
%TD*%
D15*
%TO.C,K61*%
X34181700Y-134156330D03*
D17*
X37991700Y-136696330D03*
D15*
X40531700Y-131616330D03*
D16*
X32911700Y-136696330D03*
X43071700Y-136696330D03*
%TD*%
D15*
%TO.C,K21*%
X129431700Y-77006330D03*
D16*
X138321700Y-79546330D03*
X128161700Y-79546330D03*
D15*
X135781700Y-74466330D03*
D17*
X133241700Y-79546330D03*
%TD*%
%TO.C,K1*%
X37991700Y-60496330D03*
D15*
X32911700Y-57956330D03*
X35451700Y-64306330D03*
D16*
X37991700Y-55416330D03*
X37991700Y-65576330D03*
%TD*%
D15*
%TO.C,K48*%
X78631700Y-112566330D03*
X72281700Y-115106330D03*
D16*
X71011700Y-117646330D03*
D17*
X76091700Y-117646330D03*
D16*
X81171700Y-117646330D03*
%TD*%
%TO.C,K52*%
X147211700Y-117646330D03*
D15*
X148481700Y-115106330D03*
D16*
X157371700Y-117646330D03*
D17*
X152291700Y-117646330D03*
D15*
X154831700Y-112566330D03*
%TD*%
D16*
%TO.C,K73*%
X271671700Y-136696330D03*
D15*
X269131700Y-131616330D03*
D16*
X261511700Y-136696330D03*
D17*
X266591700Y-136696330D03*
D15*
X262781700Y-134156330D03*
%TD*%
D17*
%TO.C,K41*%
X228491700Y-98596330D03*
D15*
X224681700Y-96056330D03*
D16*
X233571700Y-98596330D03*
X223411700Y-98596330D03*
D15*
X231031700Y-93516330D03*
%TD*%
D21*
%TO.C,H7*%
X295928700Y-54425330D03*
%TD*%
D16*
%TO.C,K2*%
X62121700Y-60496330D03*
X51961700Y-60496330D03*
D15*
X54501700Y-65576330D03*
X60851700Y-63036330D03*
D17*
X57041700Y-60496330D03*
%TD*%
%TO.C,K18*%
X76091700Y-79546330D03*
D15*
X72281700Y-77006330D03*
D16*
X71011700Y-79546330D03*
X81171700Y-79546330D03*
D15*
X78631700Y-74466330D03*
%TD*%
D16*
%TO.C,K7*%
X157371700Y-60496330D03*
D15*
X154831700Y-55416330D03*
D16*
X147211700Y-60496330D03*
D17*
X152291700Y-60496330D03*
D15*
X148481700Y-57956330D03*
%TD*%
D16*
%TO.C,K10*%
X214521700Y-60496330D03*
X204361700Y-60496330D03*
D17*
X209441700Y-60496330D03*
D15*
X211981700Y-55416330D03*
X205631700Y-57956330D03*
%TD*%
D17*
%TO.C,K24*%
X190391700Y-79546330D03*
D15*
X192931700Y-74466330D03*
D16*
X195471700Y-79546330D03*
D15*
X186581700Y-77006330D03*
D16*
X185311700Y-79546330D03*
%TD*%
%TO.C,K30*%
X299611700Y-79546330D03*
D15*
X307231700Y-74466330D03*
X300881700Y-77006330D03*
D16*
X309771700Y-79546330D03*
D17*
X304691700Y-79546330D03*
%TD*%
D16*
%TO.C,K55*%
X214521700Y-117646330D03*
D17*
X209441700Y-117646330D03*
D15*
X211981700Y-112566330D03*
D16*
X204361700Y-117646330D03*
D15*
X205631700Y-115106330D03*
%TD*%
D16*
%TO.C,K59*%
X280561700Y-117646330D03*
D15*
X281831700Y-115106330D03*
X288181700Y-112566330D03*
D16*
X290721700Y-117646330D03*
D17*
X285641700Y-117646330D03*
%TD*%
%TO.C,K62*%
X57041700Y-136696330D03*
D15*
X53231700Y-134156330D03*
D16*
X62121700Y-136696330D03*
X51961700Y-136696330D03*
D15*
X59581700Y-131616330D03*
%TD*%
%TO.C,K58*%
X269131700Y-112566330D03*
X262781700Y-115106330D03*
D16*
X261511700Y-117646330D03*
D17*
X266591700Y-117646330D03*
D16*
X271671700Y-117646330D03*
%TD*%
D15*
%TO.C,K37*%
X148481700Y-96056330D03*
D16*
X147211700Y-98596330D03*
D15*
X154831700Y-93516330D03*
D17*
X152291700Y-98596330D03*
D16*
X157371700Y-98596330D03*
%TD*%
D15*
%TO.C,K54*%
X186581700Y-115106330D03*
X192931700Y-112566330D03*
D17*
X190391700Y-117646330D03*
D16*
X185311700Y-117646330D03*
X195471700Y-117646330D03*
%TD*%
%TO.C,K15*%
X309771700Y-60496330D03*
D15*
X300881700Y-57956330D03*
D16*
X299611700Y-60496330D03*
D15*
X307231700Y-55416330D03*
D17*
X304691700Y-60496330D03*
%TD*%
D15*
%TO.C,K33*%
X78631700Y-93516330D03*
D17*
X76091700Y-98596330D03*
D15*
X72281700Y-96056330D03*
D16*
X81171700Y-98596330D03*
X71011700Y-98596330D03*
%TD*%
%TO.C,K31*%
X32984433Y-98592690D03*
X43144433Y-98592690D03*
D17*
X38064433Y-98592690D03*
D15*
X34254433Y-96052690D03*
X40604433Y-93512690D03*
%TD*%
D16*
%TO.C,K38*%
X166261700Y-98596330D03*
D17*
X171341700Y-98596330D03*
D16*
X176421700Y-98596330D03*
D15*
X167531700Y-96056330D03*
X173881700Y-93516330D03*
%TD*%
D16*
%TO.C,K4*%
X90061700Y-60496330D03*
D17*
X95141700Y-60496330D03*
D15*
X97681700Y-55416330D03*
X91331700Y-57956330D03*
D16*
X100221700Y-60496330D03*
%TD*%
D15*
%TO.C,K27*%
X243731700Y-77006330D03*
D16*
X252621700Y-79546330D03*
D15*
X250081700Y-74466330D03*
D16*
X242461700Y-79546330D03*
D17*
X247541700Y-79546330D03*
%TD*%
D15*
%TO.C,K14*%
X281831700Y-57956330D03*
D17*
X285641700Y-60496330D03*
D15*
X288181700Y-55416330D03*
D16*
X290721700Y-60496330D03*
X280561700Y-60496330D03*
%TD*%
D15*
%TO.C,K28*%
X269131700Y-74466330D03*
D16*
X261511700Y-79546330D03*
D17*
X266591700Y-79546330D03*
D15*
X262781700Y-77006330D03*
D16*
X271671700Y-79546330D03*
%TD*%
%TO.C,K70*%
X204361700Y-136696330D03*
D15*
X213251700Y-139236330D03*
X206901700Y-141776330D03*
D16*
X214521700Y-136696330D03*
D17*
X209441700Y-136696330D03*
%TD*%
D16*
%TO.C,K60*%
X309771700Y-117646330D03*
D17*
X304691700Y-117646330D03*
D15*
X307231700Y-112566330D03*
D16*
X299611700Y-117646330D03*
D15*
X300881700Y-115106330D03*
%TD*%
D16*
%TO.C,K6*%
X128161700Y-60496330D03*
D15*
X129431700Y-57956330D03*
D16*
X138321700Y-60496330D03*
D17*
X133241700Y-60496330D03*
D15*
X135781700Y-55416330D03*
%TD*%
D16*
%TO.C,K75*%
X299611700Y-136696330D03*
D17*
X304691700Y-136696330D03*
D15*
X307231700Y-131616330D03*
D16*
X309771700Y-136696330D03*
D15*
X300881700Y-134156330D03*
%TD*%
%TO.C,K19*%
X91331700Y-77006330D03*
D16*
X90061700Y-79546330D03*
D17*
X95141700Y-79546330D03*
D16*
X100221700Y-79546330D03*
D15*
X97681700Y-74466330D03*
%TD*%
D20*
%TO.C,K69*%
X187978700Y-143681330D03*
D17*
X199916700Y-136696330D03*
X211854700Y-128441330D03*
X187978700Y-128441330D03*
D15*
X196106700Y-134156330D03*
D16*
X194836700Y-136696330D03*
D20*
X211854700Y-143681330D03*
D16*
X204996700Y-136696330D03*
D15*
X202456700Y-131616330D03*
%TD*%
%TO.C,K25*%
X205631700Y-77006330D03*
D16*
X214521700Y-79546330D03*
D17*
X209441700Y-79546330D03*
D16*
X204361700Y-79546330D03*
D15*
X211981700Y-74466330D03*
%TD*%
D16*
%TO.C,K68*%
X176421700Y-136696330D03*
D15*
X173881700Y-131616330D03*
D17*
X171341700Y-136696330D03*
D16*
X166261700Y-136696330D03*
D15*
X167531700Y-134156330D03*
%TD*%
%TO.C,K13*%
X262781700Y-57956330D03*
D16*
X271671700Y-60496330D03*
X261511700Y-60496330D03*
D17*
X266591700Y-60496330D03*
D15*
X269131700Y-55416330D03*
%TD*%
D16*
%TO.C,K53*%
X166261700Y-117646330D03*
X176421700Y-117646330D03*
D15*
X167531700Y-115106330D03*
D17*
X171341700Y-117646330D03*
D15*
X173881700Y-112566330D03*
%TD*%
D16*
%TO.C,K74*%
X280561700Y-136696330D03*
D17*
X285641700Y-136696330D03*
D16*
X290721700Y-136696330D03*
D15*
X281831700Y-134156330D03*
X288181700Y-131616330D03*
%TD*%
%TO.C,K51*%
X135781700Y-112566330D03*
D16*
X128161700Y-117646330D03*
X138321700Y-117646330D03*
D15*
X129431700Y-115106330D03*
D17*
X133241700Y-117646330D03*
%TD*%
D21*
%TO.C,H1*%
X35959700Y-54425330D03*
%TD*%
D18*
%TO.C,H8*%
X257066377Y-69984605D03*
X256684041Y-69984605D03*
X257442137Y-69984605D03*
D19*
X257066377Y-69984605D03*
%TD*%
D15*
%TO.C,K64*%
X91331700Y-134156330D03*
X97681700Y-131616330D03*
D16*
X100221700Y-136696330D03*
X90061700Y-136696330D03*
D17*
X95141700Y-136696330D03*
%TD*%
D15*
%TO.C,K56*%
X231031700Y-112566330D03*
D17*
X228491700Y-117646330D03*
D16*
X233571700Y-117646330D03*
D15*
X224681700Y-115106330D03*
D16*
X223411700Y-117646330D03*
%TD*%
D15*
%TO.C,K72*%
X250081700Y-131616330D03*
D16*
X252621700Y-136696330D03*
D17*
X247541700Y-136696330D03*
D16*
X242461700Y-136696330D03*
D15*
X243731700Y-134156330D03*
%TD*%
D18*
%TO.C,H4*%
X180870757Y-89073713D03*
X181246517Y-89073713D03*
X180488421Y-89073713D03*
D19*
X180870757Y-89073713D03*
%TD*%
D15*
%TO.C,K47*%
X59581700Y-112566330D03*
D16*
X51961700Y-117646330D03*
X62121700Y-117646330D03*
D15*
X53231700Y-115106330D03*
D17*
X57041700Y-117646330D03*
%TD*%
D15*
%TO.C,K67*%
X149751700Y-141776330D03*
D16*
X157371700Y-136696330D03*
D15*
X156101700Y-139236330D03*
D16*
X147211700Y-136696330D03*
D17*
X152291700Y-136696330D03*
%TD*%
%TO.C,K77*%
X190391700Y-136696330D03*
D16*
X195471700Y-136696330D03*
X185311700Y-136696330D03*
D15*
X194201700Y-139236330D03*
X187851700Y-141776330D03*
%TD*%
%TO.C,K29*%
X288181700Y-74466330D03*
D17*
X285641700Y-79546330D03*
D15*
X281831700Y-77006330D03*
D16*
X290721700Y-79546330D03*
X280561700Y-79546330D03*
%TD*%
D17*
%TO.C,K35*%
X114191700Y-98596330D03*
D15*
X116731700Y-93516330D03*
X110381700Y-96056330D03*
D16*
X119271700Y-98596330D03*
X109111700Y-98596330D03*
%TD*%
D18*
%TO.C,H6*%
X66942782Y-127163469D03*
X66184686Y-127163469D03*
X66567022Y-127163469D03*
D19*
X66567022Y-127163469D03*
%TD*%
D15*
%TO.C,K46*%
X40531700Y-112566330D03*
X34181700Y-115106330D03*
D16*
X43071700Y-117646330D03*
D17*
X37991700Y-117646330D03*
D16*
X32911700Y-117646330D03*
%TD*%
D15*
%TO.C,K9*%
X186581700Y-57956330D03*
D16*
X185311700Y-60496330D03*
X195471700Y-60496330D03*
D15*
X192931700Y-55416330D03*
D17*
X190391700Y-60496330D03*
%TD*%
D16*
%TO.C,K16*%
X37991700Y-74466330D03*
D15*
X35451700Y-83356330D03*
D17*
X37991700Y-79546330D03*
D15*
X32911700Y-77006330D03*
D16*
X37991700Y-84626330D03*
%TD*%
D15*
%TO.C,K63*%
X78631700Y-131616330D03*
D17*
X76091700Y-136696330D03*
D15*
X72281700Y-134156330D03*
D16*
X71011700Y-136696330D03*
X81171700Y-136696330D03*
%TD*%
D15*
%TO.C,K26*%
X224681700Y-77006330D03*
D16*
X223411700Y-79546330D03*
D17*
X228491700Y-79546330D03*
D15*
X231031700Y-74466330D03*
D16*
X233571700Y-79546330D03*
%TD*%
D21*
%TO.C,H3*%
X35959700Y-142944330D03*
%TD*%
D15*
%TO.C,K42*%
X243731700Y-96056330D03*
D16*
X252621700Y-98596330D03*
D17*
X247541700Y-98596330D03*
D16*
X242461700Y-98596330D03*
D15*
X250081700Y-93516330D03*
%TD*%
D17*
%TO.C,K40*%
X209441700Y-98596330D03*
D16*
X204361700Y-98596330D03*
D15*
X205631700Y-96056330D03*
X211981700Y-93516330D03*
D16*
X214521700Y-98596330D03*
%TD*%
D17*
%TO.C,K65*%
X114191700Y-136696330D03*
D15*
X116731700Y-131616330D03*
D16*
X119271700Y-136696330D03*
X109111700Y-136696330D03*
D15*
X110381700Y-134156330D03*
%TD*%
%TO.C,K32*%
X53231700Y-96056330D03*
D16*
X62121700Y-98596330D03*
X51961700Y-98596330D03*
D15*
X59581700Y-93516330D03*
D17*
X57041700Y-98596330D03*
%TD*%
D15*
%TO.C,K50*%
X110381700Y-115106330D03*
X116731700Y-112566330D03*
D16*
X109111700Y-117646330D03*
D17*
X114191700Y-117646330D03*
D16*
X119271700Y-117646330D03*
%TD*%
%TO.C,K57*%
X242461700Y-117646330D03*
D15*
X250081700Y-112566330D03*
D16*
X252621700Y-117646330D03*
D15*
X243731700Y-115106330D03*
D17*
X247541700Y-117646330D03*
%TD*%
%TO.C,K36*%
X133241700Y-98596330D03*
D15*
X135781700Y-93516330D03*
D16*
X138321700Y-98596330D03*
D15*
X129431700Y-96056330D03*
D16*
X128161700Y-98596330D03*
%TD*%
D22*
%TO.C,TP6*%
X30888613Y-86756059D03*
%TD*%
%TO.C,TP7*%
X30888613Y-89315988D03*
%TD*%
D23*
%TO.C,J1*%
X49939181Y-56338330D03*
X44159181Y-56338330D03*
D24*
X51369181Y-52688330D03*
X42729181Y-52688330D03*
D25*
X42729181Y-56868330D03*
X51369181Y-56868330D03*
%TD*%
D26*
%TO.C,TP8*%
X38753700Y-67506330D03*
%TD*%
D22*
%TO.C,TP5*%
X30888613Y-91875917D03*
%TD*%
D26*
%TO.C,TP9*%
X46627700Y-76650330D03*
%TD*%
%TO.C,TP26*%
X44239268Y-64669721D03*
%TD*%
D27*
%TO.C,J2*%
X47643700Y-69665330D03*
D26*
X47643700Y-70935330D03*
%TD*%
D28*
X44481847Y-89614580D03*
X49154461Y-84296862D03*
X52760104Y-83743470D03*
X39007700Y-76015330D03*
X33000000Y-71000000D03*
X47643700Y-73856330D03*
D29*
X47643700Y-65220330D03*
X50691700Y-80460330D03*
X49167700Y-80206330D03*
X46455564Y-64807610D03*
D28*
X44341877Y-85283970D03*
X44323000Y-77724000D03*
X40182200Y-76015330D03*
X70376700Y-86000000D03*
X47643700Y-74612830D03*
X55517700Y-74342830D03*
X44976700Y-97732330D03*
X43706700Y-95827330D03*
X65804700Y-94430330D03*
X65931700Y-96970330D03*
X43106576Y-75142330D03*
X62191700Y-67242330D03*
X50091700Y-123142330D03*
X41025200Y-76015330D03*
X50091700Y-125500000D03*
X66058700Y-102812330D03*
X63645700Y-65347330D03*
X65042700Y-105733330D03*
X67091700Y-95542330D03*
X68471700Y-83762330D03*
X68471700Y-64712330D03*
X70122700Y-104082330D03*
X66566700Y-94430330D03*
X68471700Y-67252330D03*
X68471700Y-81222330D03*
X70249700Y-125418330D03*
X70249700Y-123132330D03*
X70122700Y-106000000D03*
X87521700Y-85912830D03*
X87521700Y-104082330D03*
X87521700Y-83762330D03*
X87521700Y-125500000D03*
X87521700Y-64712330D03*
X87521700Y-106000000D03*
X87521700Y-67252330D03*
X53612700Y-93246537D03*
X87521700Y-123132330D03*
X85591700Y-97842330D03*
X106571700Y-106000000D03*
X106571700Y-64712330D03*
X106571700Y-125500000D03*
X105791700Y-94242330D03*
X106571700Y-67252330D03*
X106571700Y-123132330D03*
X106571700Y-83762330D03*
X106571700Y-104082330D03*
X55243077Y-93437262D03*
X106571700Y-85912830D03*
X125621700Y-64712330D03*
X125621700Y-104082330D03*
X125621700Y-83762330D03*
X124791700Y-94242330D03*
X56012107Y-92991263D03*
X125621700Y-85912830D03*
X125621700Y-123132330D03*
X125621700Y-106000000D03*
X133241700Y-134181330D03*
X125621700Y-67252330D03*
X144671700Y-64712330D03*
X144671700Y-67252330D03*
X144671700Y-85912830D03*
X157752700Y-134689330D03*
X144671700Y-83762330D03*
X143991700Y-94242330D03*
X56750604Y-92468417D03*
X154831700Y-123132330D03*
X144671700Y-104082330D03*
X144671700Y-106000000D03*
X206774700Y-134689330D03*
X208171700Y-132149330D03*
X57549700Y-92047561D03*
X163721700Y-85912830D03*
X163721700Y-123132330D03*
X163721700Y-83762330D03*
X163721700Y-104082330D03*
X162991700Y-94242330D03*
X163721700Y-106000000D03*
X163721700Y-67252330D03*
X163721700Y-64712330D03*
X163594700Y-126815330D03*
X182771700Y-106000000D03*
X66820700Y-91816817D03*
X183406700Y-123132330D03*
X182771700Y-67252330D03*
X182771700Y-104082330D03*
X182771700Y-83000330D03*
X181891700Y-94242330D03*
X187216700Y-136975330D03*
X182771700Y-64712330D03*
X182771700Y-81476330D03*
X201821700Y-85912830D03*
X201821700Y-67252330D03*
X201821700Y-83762330D03*
X201821700Y-64712330D03*
X55737865Y-90988550D03*
X201821700Y-123132330D03*
X201821700Y-106000000D03*
X201821700Y-104082330D03*
X199916700Y-129101330D03*
X200991700Y-94242330D03*
X220091700Y-94142330D03*
X220871700Y-64712330D03*
X220871700Y-106000000D03*
X220871700Y-104082330D03*
X66820700Y-90747330D03*
X220871700Y-85912830D03*
X220871700Y-125500000D03*
X220871700Y-67252330D03*
X220871700Y-123132330D03*
X220871700Y-83762330D03*
X239921700Y-85912830D03*
X239921700Y-64712330D03*
X66820700Y-89985330D03*
X239921700Y-83762330D03*
X239921700Y-67252330D03*
X239921700Y-123132330D03*
X239921700Y-104082330D03*
X239091700Y-94242330D03*
X239921700Y-106000000D03*
X240000000Y-125500000D03*
X258971700Y-83762330D03*
X57041700Y-90088470D03*
X258971700Y-85912830D03*
X258191700Y-94142330D03*
X258971700Y-64712330D03*
X258971700Y-104082330D03*
X258971700Y-67252330D03*
X258971700Y-123132330D03*
X259000000Y-125500000D03*
X258971700Y-106000000D03*
X278021700Y-64712330D03*
X278021700Y-85912830D03*
X57041700Y-89338967D03*
X278021700Y-123132330D03*
X278021700Y-83762330D03*
X278021700Y-67252330D03*
X278021700Y-125500000D03*
X278021700Y-104082330D03*
X278021700Y-106000000D03*
X277491700Y-93942330D03*
X295791700Y-79342330D03*
X297071700Y-67252330D03*
X297071700Y-64712330D03*
X297071700Y-106000000D03*
X57041700Y-88589464D03*
X297071700Y-86302330D03*
X297071700Y-83762330D03*
X297071700Y-125500000D03*
X297071700Y-104082330D03*
X297071700Y-123132330D03*
D30*
X46394973Y-87847603D03*
X46869913Y-88307087D03*
X50691700Y-72840330D03*
X54755700Y-75380330D03*
D29*
X41928700Y-71697330D03*
X49428681Y-58870330D03*
X43833700Y-60013330D03*
D28*
X43106576Y-73750830D03*
X43961946Y-87537455D03*
X50073517Y-87736500D03*
X33906200Y-90975500D03*
X45962432Y-59268425D03*
D30*
X53702302Y-91126653D03*
D28*
X49188946Y-90377455D03*
X54293196Y-83120984D03*
X46863000Y-80264000D03*
X44468877Y-90363970D03*
X43729112Y-80310918D03*
X42053446Y-88932047D03*
X50038000Y-59886330D03*
X43706877Y-88966970D03*
X59200877Y-87823970D03*
D29*
X41547700Y-59251330D03*
D28*
X49188946Y-88472455D03*
X45085000Y-79375000D03*
X48426946Y-86059455D03*
X49181748Y-86884661D03*
X46208604Y-68642983D03*
X47537946Y-86948455D03*
X40500200Y-81222330D03*
D30*
X40849840Y-85256047D03*
X43942000Y-83439000D03*
D28*
X40531700Y-82765470D03*
X43833700Y-62045330D03*
X49188946Y-85297455D03*
X56261000Y-87757000D03*
X48383149Y-87683260D03*
X65500000Y-87000000D03*
X53739700Y-79670330D03*
D30*
X45593000Y-81661000D03*
D28*
X37000000Y-90975500D03*
X49953728Y-86139302D03*
X50818877Y-86924591D03*
X48000000Y-93500000D03*
X49167700Y-62172330D03*
X61232877Y-85791970D03*
X45500000Y-74000000D03*
X237635700Y-90747330D03*
X53104700Y-102558330D03*
X92474700Y-90747330D03*
X60000000Y-100000000D03*
X141496700Y-107257330D03*
X256685700Y-90747330D03*
X58057700Y-70554330D03*
X198900700Y-90747330D03*
X122700700Y-90747330D03*
X263670700Y-90747330D03*
X275735700Y-107257330D03*
X294150700Y-107257330D03*
X83584700Y-107257330D03*
X220109700Y-90747330D03*
X33000000Y-82500000D03*
X42500000Y-109500000D03*
X54000000Y-70500000D03*
X276878700Y-90747330D03*
X103650700Y-90747330D03*
X67074700Y-107257330D03*
X64770000Y-70612000D03*
X102507700Y-107257330D03*
X33000000Y-80000000D03*
X121557700Y-107257330D03*
X129558700Y-90747330D03*
X255542700Y-107257330D03*
X38500000Y-107000000D03*
X180358700Y-107257330D03*
X226205700Y-90747330D03*
X186835700Y-90747330D03*
X53104700Y-107257330D03*
X54000000Y-100000000D03*
X168801700Y-90747330D03*
X149370700Y-90747330D03*
X244747700Y-90747330D03*
X218966700Y-107257330D03*
X161689700Y-90747330D03*
X47389700Y-121100330D03*
X167500000Y-129500000D03*
X236492700Y-107257330D03*
X197249700Y-107257330D03*
X142639700Y-90747330D03*
X111778700Y-90747330D03*
X206774700Y-90747330D03*
X160546700Y-107257330D03*
X57500000Y-64500000D03*
M02*
