M48
; DRILL file {KiCad (6.0.4)} date Sat Oct 29 20:57:45 2022
; FORMAT={-:-/ absolute / inch / decimal}
; #@! TF.CreationDate,2022-10-29T20:57:45+01:00
; #@! TF.GenerationSoftware,Kicad,Pcbnew,(6.0.4)
; #@! TF.FileFunction,NonPlated,1,2,NPTH
FMAT,2
INCH
; #@! TA.AperFunction,NonPlated,NPTH,ComponentDrill
T1C0.0256
; #@! TA.AperFunction,NonPlated,NPTH,ComponentDrill
T2C0.0454
; #@! TA.AperFunction,NonPlated,NPTH,ComponentDrill
T3C0.0689
; #@! TA.AperFunction,NonPlated,NPTH,ComponentDrill
T4C0.0866
; #@! TA.AperFunction,NonPlated,NPTH,ComponentDrill
T5C0.1181
; #@! TA.AperFunction,NonPlated,NPTH,ComponentDrill
T6C0.1200
; #@! TA.AperFunction,NonPlated,NPTH,ComponentDrill
T7C0.1570
%
G90
G05
T1
X1.7386Y-2.218
X1.9661Y-2.218
T2
X1.4157Y-2.1427
X1.4157Y-5.6277
X11.6507Y-2.1427
X11.6507Y-5.6277
T3
X1.2957Y-4.6317
X1.2957Y-5.3817
X1.2986Y-3.8816
X1.4957Y-2.1817
X1.4957Y-2.5817
X1.4957Y-2.9317
X1.4957Y-3.3317
X1.6957Y-4.6317
X1.6957Y-5.3817
X1.6986Y-3.8816
X2.0457Y-2.3817
X2.0457Y-3.1317
X2.0457Y-3.8817
X2.0457Y-4.6317
X2.0457Y-5.3817
X2.4457Y-2.3817
X2.4457Y-3.1317
X2.4457Y-3.8817
X2.4457Y-4.6317
X2.4457Y-5.3817
X2.7957Y-2.3817
X2.7957Y-3.1317
X2.7957Y-3.8817
X2.7957Y-4.6317
X2.7957Y-5.3817
X3.1957Y-2.3817
X3.1957Y-3.1317
X3.1957Y-3.8817
X3.1957Y-4.6317
X3.1957Y-5.3817
X3.5457Y-2.3817
X3.5457Y-3.1317
X3.5457Y-3.8817
X3.5457Y-4.6317
X3.5457Y-5.3817
X3.9457Y-2.3817
X3.9457Y-3.1317
X3.9457Y-3.8817
X3.9457Y-4.6317
X3.9457Y-5.3817
X4.2957Y-2.3817
X4.2957Y-3.1317
X4.2957Y-3.8817
X4.2957Y-4.6317
X4.2957Y-5.3817
X4.6957Y-2.3817
X4.6957Y-3.1317
X4.6957Y-3.8817
X4.6957Y-4.6317
X4.6957Y-5.3817
X5.0457Y-2.3817
X5.0457Y-3.1317
X5.0457Y-3.8817
X5.0457Y-4.6317
X5.0457Y-5.3817
X5.4207Y-5.3817
X5.4457Y-2.3817
X5.4457Y-3.1317
X5.4457Y-3.8817
X5.4457Y-4.6317
X5.4457Y-5.3817
X5.7957Y-2.3817
X5.7957Y-3.1317
X5.7957Y-3.8817
X5.7957Y-4.6317
X5.7957Y-5.3817
X5.8207Y-5.3817
X6.1957Y-2.3817
X6.1957Y-3.1317
X6.1957Y-3.8817
X6.1957Y-4.6317
X6.1957Y-5.3817
X6.5457Y-2.3817
X6.5457Y-3.1317
X6.5457Y-3.8817
X6.5457Y-4.6317
X6.5457Y-5.3817
X6.9457Y-2.3817
X6.9457Y-3.1317
X6.9457Y-3.8817
X6.9457Y-4.6317
X6.9457Y-5.3817
X7.2957Y-2.3817
X7.2957Y-3.1317
X7.2957Y-3.8817
X7.2957Y-4.6317
X7.2957Y-5.3817
X7.6707Y-5.3817
X7.6957Y-2.3817
X7.6957Y-3.1317
X7.6957Y-3.8817
X7.6957Y-4.6317
X7.6957Y-5.3817
X8.0457Y-2.3817
X8.0457Y-3.1317
X8.0457Y-3.8817
X8.0457Y-4.6317
X8.0457Y-5.3817
X8.0707Y-5.3817
X8.4457Y-2.3817
X8.4457Y-3.1317
X8.4457Y-3.8817
X8.4457Y-4.6317
X8.4457Y-5.3817
X8.7957Y-2.3817
X8.7957Y-3.1317
X8.7957Y-3.8817
X8.7957Y-4.6317
X8.7957Y-5.3817
X9.1957Y-2.3817
X9.1957Y-3.1317
X9.1957Y-3.8817
X9.1957Y-4.6317
X9.1957Y-5.3817
X9.5457Y-2.3817
X9.5457Y-3.1317
X9.5457Y-3.8817
X9.5457Y-4.6317
X9.5457Y-5.3817
X9.9457Y-2.3817
X9.9457Y-3.1317
X9.9457Y-3.8817
X9.9457Y-4.6317
X9.9457Y-5.3817
X10.2957Y-2.3817
X10.2957Y-3.1317
X10.2957Y-3.8817
X10.2957Y-4.6317
X10.2957Y-5.3817
X10.6957Y-2.3817
X10.6957Y-3.1317
X10.6957Y-3.8817
X10.6957Y-4.6317
X10.6957Y-5.3817
X11.0457Y-2.3817
X11.0457Y-3.1317
X11.0457Y-3.8817
X11.0457Y-4.6317
X11.0457Y-5.3817
X11.4457Y-2.3817
X11.4457Y-3.1317
X11.4457Y-3.8817
X11.4457Y-4.6317
X11.4457Y-5.3817
X11.7957Y-2.3817
X11.7957Y-3.1317
X11.7957Y-3.8817
X11.7957Y-4.6317
X11.7957Y-5.3817
X12.1957Y-2.3817
X12.1957Y-3.1317
X12.1957Y-3.8817
X12.1957Y-4.6317
X12.1957Y-5.3817
T4
X2.6057Y-5.0064
X2.6207Y-5.0064
X2.6355Y-5.0064
X3.3556Y-2.7566
X3.3707Y-2.7566
X3.3855Y-2.7566
X7.1058Y-3.5068
X7.1209Y-3.5068
X7.1357Y-3.5068
X8.6066Y-5.1495
X8.6217Y-5.1495
X8.6365Y-5.1495
X10.1057Y-2.7553
X10.1207Y-2.7553
X10.1355Y-2.7553
T5
X1.2957Y-2.2817
X1.2957Y-3.0317
X1.3457Y-4.5317
X1.3457Y-5.2817
X1.3486Y-3.7816
X1.3957Y-2.5317
X1.3957Y-3.2817
X1.5957Y-4.4317
X1.5957Y-5.1817
X1.5986Y-3.6816
X2.0957Y-3.0317
X2.0957Y-3.7817
X2.0957Y-4.5317
X2.0957Y-5.2817
X2.1457Y-2.5817
X2.3457Y-2.9317
X2.3457Y-3.6817
X2.3457Y-4.4317
X2.3457Y-5.1817
X2.3957Y-2.4817
X2.8457Y-2.2817
X2.8457Y-3.0317
X2.8457Y-3.7817
X2.8457Y-4.5317
X2.8457Y-5.2817
X3.0957Y-2.1817
X3.0957Y-2.9317
X3.0957Y-3.6817
X3.0957Y-4.4317
X3.0957Y-5.1817
X3.5957Y-2.2817
X3.5957Y-3.0317
X3.5957Y-3.7817
X3.5957Y-4.5317
X3.5957Y-5.2817
X3.8457Y-2.1817
X3.8457Y-2.9317
X3.8457Y-3.6817
X3.8457Y-4.4317
X3.8457Y-5.1817
X4.3457Y-2.2817
X4.3457Y-3.0317
X4.3457Y-3.7817
X4.3457Y-4.5317
X4.3457Y-5.2817
X4.5957Y-2.1817
X4.5957Y-2.9317
X4.5957Y-3.6817
X4.5957Y-4.4317
X4.5957Y-5.1817
X5.0957Y-2.2817
X5.0957Y-3.0317
X5.0957Y-3.7817
X5.0957Y-4.5317
X5.1457Y-5.5817
X5.3457Y-2.1817
X5.3457Y-2.9317
X5.3457Y-3.6817
X5.3457Y-4.4317
X5.3957Y-5.4817
X5.4707Y-5.2817
X5.7207Y-5.1817
X5.8457Y-2.2817
X5.8457Y-3.0317
X5.8457Y-3.7817
X5.8457Y-4.5317
X5.8957Y-5.5817
X6.0957Y-2.1817
X6.0957Y-2.9317
X6.0957Y-3.6817
X6.0957Y-4.4317
X6.1457Y-5.4817
X6.5957Y-2.2817
X6.5957Y-3.0317
X6.5957Y-3.7817
X6.5957Y-4.5317
X6.5957Y-5.2817
X6.8457Y-2.1817
X6.8457Y-2.9317
X6.8457Y-3.6817
X6.8457Y-4.4317
X6.8457Y-5.1817
X7.3457Y-2.2817
X7.3457Y-3.0317
X7.3457Y-3.7817
X7.3457Y-4.5317
X7.3957Y-5.5817
X7.5957Y-2.1817
X7.5957Y-2.9317
X7.5957Y-3.6817
X7.5957Y-4.4317
X7.6457Y-5.4817
X7.7207Y-5.2817
X7.9707Y-5.1817
X8.0957Y-2.2817
X8.0957Y-3.0317
X8.0957Y-3.7817
X8.0957Y-4.5317
X8.1457Y-5.5817
X8.3457Y-2.1817
X8.3457Y-2.9317
X8.3457Y-3.6817
X8.3457Y-4.4317
X8.3957Y-5.4817
X8.8457Y-2.2817
X8.8457Y-3.0317
X8.8457Y-3.7817
X8.8457Y-4.5317
X8.8457Y-5.2817
X9.0957Y-2.1817
X9.0957Y-2.9317
X9.0957Y-3.6817
X9.0957Y-4.4317
X9.0957Y-5.1817
X9.5957Y-2.2817
X9.5957Y-3.0317
X9.5957Y-3.7817
X9.5957Y-4.5317
X9.5957Y-5.2817
X9.8457Y-2.1817
X9.8457Y-2.9317
X9.8457Y-3.6817
X9.8457Y-4.4317
X9.8457Y-5.1817
X10.3457Y-2.2817
X10.3457Y-3.0317
X10.3457Y-3.7817
X10.3457Y-4.5317
X10.3457Y-5.2817
X10.5957Y-2.1817
X10.5957Y-2.9317
X10.5957Y-3.6817
X10.5957Y-4.4317
X10.5957Y-5.1817
X11.0957Y-2.2817
X11.0957Y-3.0317
X11.0957Y-3.7817
X11.0957Y-4.5317
X11.0957Y-5.2817
X11.3457Y-2.1817
X11.3457Y-2.9317
X11.3457Y-3.6817
X11.3457Y-4.4317
X11.3457Y-5.1817
X11.8457Y-2.2817
X11.8457Y-3.0317
X11.8457Y-3.7817
X11.8457Y-4.5317
X11.8457Y-5.2817
X12.0957Y-2.1817
X12.0957Y-2.9317
X12.0957Y-3.6817
X12.0957Y-4.4317
X12.0957Y-5.1817
T6
X5.1507Y-5.6567
X6.0907Y-5.6567
X7.4007Y-5.6567
X8.3407Y-5.6567
T7
X1.4957Y-2.3817
X1.4957Y-3.1317
X1.4957Y-4.6317
X1.4957Y-5.3817
X1.4986Y-3.8816
X2.2457Y-2.3817
X2.2457Y-3.1317
X2.2457Y-3.8817
X2.2457Y-4.6317
X2.2457Y-5.3817
X2.9957Y-2.3817
X2.9957Y-3.1317
X2.9957Y-3.8817
X2.9957Y-4.6317
X2.9957Y-5.3817
X3.7457Y-2.3817
X3.7457Y-3.1317
X3.7457Y-3.8817
X3.7457Y-4.6317
X3.7457Y-5.3817
X4.4957Y-2.3817
X4.4957Y-3.1317
X4.4957Y-3.8817
X4.4957Y-4.6317
X4.4957Y-5.3817
X5.1507Y-5.0567
X5.2457Y-2.3817
X5.2457Y-3.1317
X5.2457Y-3.8817
X5.2457Y-4.6317
X5.2457Y-5.3817
X5.6207Y-5.3817
X5.9957Y-2.3817
X5.9957Y-3.1317
X5.9957Y-3.8817
X5.9957Y-4.6317
X5.9957Y-5.3817
X6.0907Y-5.0567
X6.7457Y-2.3817
X6.7457Y-3.1317
X6.7457Y-3.8817
X6.7457Y-4.6317
X6.7457Y-5.3817
X7.4007Y-5.0567
X7.4957Y-2.3817
X7.4957Y-3.1317
X7.4957Y-3.8817
X7.4957Y-4.6317
X7.4957Y-5.3817
X7.8707Y-5.3817
X8.2457Y-2.3817
X8.2457Y-3.1317
X8.2457Y-3.8817
X8.2457Y-4.6317
X8.2457Y-5.3817
X8.3407Y-5.0567
X8.9957Y-2.3817
X8.9957Y-3.1317
X8.9957Y-3.8817
X8.9957Y-4.6317
X8.9957Y-5.3817
X9.7457Y-2.3817
X9.7457Y-3.1317
X9.7457Y-3.8817
X9.7457Y-4.6317
X9.7457Y-5.3817
X10.4957Y-2.3817
X10.4957Y-3.1317
X10.4957Y-3.8817
X10.4957Y-4.6317
X10.4957Y-5.3817
X11.2457Y-2.3817
X11.2457Y-3.1317
X11.2457Y-3.8817
X11.2457Y-4.6317
X11.2457Y-5.3817
X11.9957Y-2.3817
X11.9957Y-3.1317
X11.9957Y-3.8817
X11.9957Y-4.6317
X11.9957Y-5.3817
T0
M30
