%FSLAX45Y45*%
G04 Gerber Fmt 4.5, Leading zero omitted, Abs format (unit mm)*
G04 Created by KiCad (PCBNEW (6.0.4)) date 2022-09-08 11:43:34*
%MOMM*%
%LPD*%
G01*
G04 APERTURE LIST*
%TA.AperFunction,Profile*%
%ADD10C,0.200000*%
%TD*%
%ADD11C,0.200000*%
%ADD12C,0.030000*%
%ADD13C,0.040000*%
%ADD14C,0.050000*%
%ADD15C,0.060000*%
%ADD16C,0.070000*%
%ADD17C,0.220000*%
G04 APERTURE END LIST*
D10*
X30998471Y-10913906D02*
X31368822Y-10913906D01*
X2898822Y-10664268D02*
X2898822Y-5374263D01*
X27199012Y-5149263D02*
X21893823Y-5149888D01*
X18974883Y-5149263D02*
X15292762Y-5149263D01*
X30583477Y-14569263D02*
X26594883Y-14569263D01*
X8497383Y-14569263D02*
X4508789Y-14569263D01*
X30998471Y-10663906D02*
X31368822Y-10663906D01*
X3123822Y-5149263D02*
G75*
G03*
X2898822Y-5374263I1J-225001D01*
G01*
X15292762Y-5149263D02*
X12373822Y-5149888D01*
X18974883Y-5149263D02*
X21893823Y-5149888D01*
X30998471Y-10663914D02*
G75*
G03*
X30998471Y-10913906I-1J-124996D01*
G01*
X31368822Y-14344263D02*
X31368822Y-10913906D01*
X3269942Y-10664268D02*
X2898822Y-10664268D01*
X3269942Y-10914269D02*
G75*
G03*
X3269942Y-10664268I0J125001D01*
G01*
X2898822Y-14344263D02*
X2898822Y-10914268D01*
X30583477Y-5149263D02*
X27199012Y-5149263D01*
X31143822Y-14569262D02*
G75*
G03*
X31368822Y-14344263I8J224993D01*
G01*
X6244012Y-5149263D02*
X3123822Y-5149263D01*
X30583477Y-5149263D02*
X31143822Y-5149263D01*
X21873823Y-14569888D02*
X12393822Y-14569888D01*
X12393822Y-14569888D02*
X8497383Y-14569263D01*
X2898817Y-14344263D02*
G75*
G03*
X3123822Y-14569263I225003J3D01*
G01*
X21873823Y-14569888D02*
X26594883Y-14569263D01*
X12373822Y-5149888D02*
X6244012Y-5149263D01*
X30583477Y-14569263D02*
X31143822Y-14569263D01*
X31368822Y-10663906D02*
X31368822Y-5374263D01*
X4508789Y-14569263D02*
X3123822Y-14569263D01*
X31368827Y-5374263D02*
G75*
G03*
X31143822Y-5149263I-224997J3D01*
G01*
X3269942Y-10914268D02*
X2898822Y-10914268D01*
D11*
D12*
X3285000Y-7085000D02*
X3315000Y-7115000D01*
X3315000Y-7085000D02*
X3285000Y-7115000D01*
X3885770Y-7586533D02*
X3915770Y-7616533D01*
X3915770Y-7586533D02*
X3885770Y-7616533D01*
X4003220Y-7586533D02*
X4033220Y-7616533D01*
X4033220Y-7586533D02*
X4003220Y-7616533D01*
X4035020Y-8107233D02*
X4065020Y-8137233D01*
X4065020Y-8107233D02*
X4035020Y-8137233D01*
X4038170Y-8286397D02*
X4068170Y-8316397D01*
X4068170Y-8286397D02*
X4038170Y-8316397D01*
X4067495Y-8570199D02*
X4097495Y-8600199D01*
X4097495Y-8570199D02*
X4067495Y-8600199D01*
X4087520Y-7586533D02*
X4117520Y-7616533D01*
X4117520Y-7586533D02*
X4087520Y-7616533D01*
X4185295Y-8884146D02*
X4215295Y-8914146D01*
X4215295Y-8884146D02*
X4185295Y-8914146D01*
X4295658Y-7360083D02*
X4325658Y-7390083D01*
X4325658Y-7360083D02*
X4295658Y-7390083D01*
X4295658Y-7499233D02*
X4325658Y-7529233D01*
X4325658Y-7499233D02*
X4295658Y-7529233D01*
X4355670Y-9567733D02*
X4385670Y-9597733D01*
X4385670Y-9567733D02*
X4355670Y-9597733D01*
X4355688Y-8881697D02*
X4385688Y-8911697D01*
X4385688Y-8881697D02*
X4355688Y-8911697D01*
X4357911Y-8016092D02*
X4387911Y-8046092D01*
X4387911Y-8016092D02*
X4357911Y-8046092D01*
X4368370Y-6189533D02*
X4398370Y-6219533D01*
X4398370Y-6189533D02*
X4368370Y-6219533D01*
X4376867Y-8343027D02*
X4406867Y-8373027D01*
X4406867Y-8343027D02*
X4376867Y-8373027D01*
X4381195Y-8738746D02*
X4411195Y-8768746D01*
X4411195Y-8738746D02*
X4381195Y-8768746D01*
X4406470Y-7764333D02*
X4436470Y-7794333D01*
X4436470Y-7764333D02*
X4406470Y-7794333D01*
X4419188Y-8513397D02*
X4449188Y-8543397D01*
X4449188Y-8513397D02*
X4419188Y-8543397D01*
X4431888Y-9021397D02*
X4461888Y-9051397D01*
X4461888Y-9021397D02*
X4431888Y-9051397D01*
X4433185Y-8946458D02*
X4463185Y-8976458D01*
X4463185Y-8946458D02*
X4433185Y-8976458D01*
X4482670Y-7904033D02*
X4512670Y-7934033D01*
X4512670Y-7904033D02*
X4482670Y-7934033D01*
X4482670Y-9758233D02*
X4512670Y-9788233D01*
X4512670Y-9758233D02*
X4482670Y-9788233D01*
X4605860Y-6849298D02*
X4635860Y-6879298D01*
X4635860Y-6849298D02*
X4605860Y-6879298D01*
X4606455Y-5924191D02*
X4636455Y-5954191D01*
X4636455Y-5924191D02*
X4606455Y-5954191D01*
X4622388Y-8043497D02*
X4652388Y-8073497D01*
X4652388Y-8043497D02*
X4622388Y-8073497D01*
X4622388Y-8233997D02*
X4652388Y-8263997D01*
X4652388Y-8233997D02*
X4622388Y-8263997D01*
X4624497Y-8769760D02*
X4654497Y-8799760D01*
X4654497Y-8769760D02*
X4624497Y-8799760D01*
X4671991Y-8815709D02*
X4701991Y-8845709D01*
X4701991Y-8815709D02*
X4671991Y-8845709D01*
X4723970Y-10240833D02*
X4753970Y-10270833D01*
X4753970Y-10240833D02*
X4723970Y-10270833D01*
X4723970Y-10710733D02*
X4753970Y-10740733D01*
X4753970Y-10710733D02*
X4723970Y-10740733D01*
X4723970Y-12095033D02*
X4753970Y-12125033D01*
X4753970Y-12095033D02*
X4723970Y-12125033D01*
X4738795Y-8679846D02*
X4768795Y-8709846D01*
X4768795Y-8679846D02*
X4738795Y-8709846D01*
X4749370Y-7370633D02*
X4779370Y-7400633D01*
X4779370Y-7370633D02*
X4749370Y-7400633D01*
X4749370Y-7446283D02*
X4779370Y-7476283D01*
X4779370Y-7446283D02*
X4749370Y-7476283D01*
X4823315Y-8753326D02*
X4853315Y-8783326D01*
X4853315Y-8753326D02*
X4823315Y-8783326D01*
X4827695Y-8590946D02*
X4857695Y-8620946D01*
X4857695Y-8590946D02*
X4827695Y-8620946D01*
X4900446Y-8414686D02*
X4930446Y-8444686D01*
X4930446Y-8414686D02*
X4900446Y-8444686D01*
X4901770Y-6202233D02*
X4931770Y-6232233D01*
X4931770Y-6202233D02*
X4901770Y-6232233D01*
X4903175Y-8673466D02*
X4933175Y-8703466D01*
X4933175Y-8673466D02*
X4903175Y-8703466D01*
X4903895Y-8514746D02*
X4933895Y-8544746D01*
X4933895Y-8514746D02*
X4903895Y-8544746D01*
X4903895Y-8832246D02*
X4933895Y-8862246D01*
X4933895Y-8832246D02*
X4903895Y-8862246D01*
X4903895Y-9022746D02*
X4933895Y-9052746D01*
X4933895Y-9022746D02*
X4903895Y-9052746D01*
X4967395Y-8387745D02*
X4997395Y-8417746D01*
X4997395Y-8387745D02*
X4967395Y-8417746D01*
X4977970Y-5973633D02*
X5007970Y-6003633D01*
X5007970Y-5973633D02*
X4977970Y-6003633D01*
X4980373Y-8598930D02*
X5010373Y-8628930D01*
X5010373Y-8598930D02*
X4980373Y-8628930D01*
X4992352Y-8758650D02*
X5022352Y-8788650D01*
X5022352Y-8758650D02*
X4992352Y-8788650D01*
X4994170Y-12299233D02*
X5024170Y-12329233D01*
X5024170Y-12299233D02*
X4994170Y-12329233D01*
X4994170Y-12535000D02*
X5024170Y-12565000D01*
X5024170Y-12535000D02*
X4994170Y-12565000D01*
X5054170Y-7269033D02*
X5084170Y-7299033D01*
X5084170Y-7269033D02*
X5054170Y-7299033D01*
X5066888Y-8677459D02*
X5096888Y-8707459D01*
X5096888Y-8677459D02*
X5066888Y-8707459D01*
X5231970Y-7040433D02*
X5261970Y-7070433D01*
X5261970Y-7040433D02*
X5231970Y-7070433D01*
X5261010Y-8359347D02*
X5291010Y-8389347D01*
X5291010Y-8359347D02*
X5261010Y-8389347D01*
X5295470Y-10240833D02*
X5325470Y-10270833D01*
X5325470Y-10240833D02*
X5295470Y-10270833D01*
X5295470Y-10710733D02*
X5325470Y-10740733D01*
X5325470Y-10710733D02*
X5295470Y-10740733D01*
X5346270Y-9309654D02*
X5376270Y-9339654D01*
X5376270Y-9309654D02*
X5346270Y-9339654D01*
X5346288Y-9095796D02*
X5376288Y-9125796D01*
X5376288Y-9095796D02*
X5346288Y-9125796D01*
X5358970Y-7952033D02*
X5388970Y-7982033D01*
X5388970Y-7952033D02*
X5358970Y-7982033D01*
X5414320Y-8297098D02*
X5444320Y-8327098D01*
X5444320Y-8297098D02*
X5414320Y-8327098D01*
X5460570Y-7523033D02*
X5490570Y-7553033D01*
X5490570Y-7523033D02*
X5460570Y-7553033D01*
X5509308Y-9328726D02*
X5539308Y-9358726D01*
X5539308Y-9328726D02*
X5509308Y-9358726D01*
X5536770Y-7419283D02*
X5566770Y-7449283D01*
X5566770Y-7419283D02*
X5536770Y-7449283D01*
X5558787Y-9083855D02*
X5588787Y-9113855D01*
X5588787Y-9083855D02*
X5558787Y-9113855D01*
X5586211Y-9284126D02*
X5616211Y-9314126D01*
X5616211Y-9284126D02*
X5586211Y-9314126D01*
X5600288Y-8780097D02*
X5630288Y-8810097D01*
X5630288Y-8780097D02*
X5600288Y-8810097D01*
X5660060Y-9231842D02*
X5690060Y-9261842D01*
X5690060Y-9231842D02*
X5660060Y-9261842D01*
X5689170Y-8843946D02*
X5719170Y-8873946D01*
X5719170Y-8843946D02*
X5689170Y-8873946D01*
X5689170Y-8918897D02*
X5719170Y-8948897D01*
X5719170Y-8918897D02*
X5689170Y-8948897D01*
X5689170Y-8993847D02*
X5719170Y-9023847D01*
X5719170Y-8993847D02*
X5689170Y-9023847D01*
X5739970Y-9189756D02*
X5769970Y-9219756D01*
X5769970Y-9189756D02*
X5739970Y-9219756D01*
X5790770Y-7040433D02*
X5820770Y-7070433D01*
X5820770Y-7040433D02*
X5790770Y-7070433D01*
X5905088Y-8767397D02*
X5935088Y-8797397D01*
X5935088Y-8767397D02*
X5905088Y-8797397D01*
X6108288Y-8564197D02*
X6138288Y-8594197D01*
X6138288Y-8564197D02*
X6108288Y-8594197D01*
X6197170Y-7078533D02*
X6227170Y-7108533D01*
X6227170Y-7078533D02*
X6197170Y-7108533D01*
X6204170Y-6709233D02*
X6234170Y-6739233D01*
X6234170Y-6709233D02*
X6204170Y-6739233D01*
X6336870Y-9643933D02*
X6366870Y-9673933D01*
X6366870Y-9643933D02*
X6336870Y-9673933D01*
X6349570Y-6519733D02*
X6379570Y-6549733D01*
X6379570Y-6519733D02*
X6349570Y-6549733D01*
X6489270Y-10558333D02*
X6519270Y-10588333D01*
X6519270Y-10558333D02*
X6489270Y-10588333D01*
X6565470Y-9428033D02*
X6595470Y-9458033D01*
X6595470Y-9428033D02*
X6565470Y-9458033D01*
X6578170Y-9682033D02*
X6608170Y-9712033D01*
X6608170Y-9682033D02*
X6578170Y-9712033D01*
X6590870Y-10266233D02*
X6620870Y-10296233D01*
X6620870Y-10266233D02*
X6590870Y-10296233D01*
X6641670Y-9428033D02*
X6671670Y-9458033D01*
X6671670Y-9428033D02*
X6641670Y-9458033D01*
X6667070Y-8983533D02*
X6697070Y-9013533D01*
X6697070Y-8983533D02*
X6667070Y-9013533D01*
X6667070Y-9059733D02*
X6697070Y-9089733D01*
X6697070Y-9059733D02*
X6667070Y-9089733D01*
X6667070Y-9166682D02*
X6697070Y-9196682D01*
X6697070Y-9166682D02*
X6667070Y-9196682D01*
X6692470Y-7078533D02*
X6722470Y-7108533D01*
X6722470Y-7078533D02*
X6692470Y-7108533D01*
X6692470Y-10710733D02*
X6722470Y-10740733D01*
X6722470Y-10710733D02*
X6692470Y-10740733D01*
X6694170Y-9539233D02*
X6724170Y-9569233D01*
X6724170Y-9539233D02*
X6694170Y-9569233D01*
X6832170Y-6456233D02*
X6862170Y-6486233D01*
X6862170Y-6456233D02*
X6832170Y-6486233D01*
X6832170Y-6710233D02*
X6862170Y-6740233D01*
X6862170Y-6710233D02*
X6832170Y-6740233D01*
X6832170Y-8107233D02*
X6862170Y-8137233D01*
X6862170Y-8107233D02*
X6832170Y-8137233D01*
X6832170Y-8361233D02*
X6862170Y-8391233D01*
X6862170Y-8361233D02*
X6832170Y-8391233D01*
X6997270Y-10393233D02*
X7027270Y-10423233D01*
X7027270Y-10393233D02*
X6997270Y-10423233D01*
X6997270Y-10585000D02*
X7027270Y-10615000D01*
X7027270Y-10585000D02*
X6997270Y-10615000D01*
X7009970Y-12298233D02*
X7039970Y-12328233D01*
X7039970Y-12298233D02*
X7009970Y-12328233D01*
X7009970Y-12526833D02*
X7039970Y-12556833D01*
X7039970Y-12526833D02*
X7009970Y-12556833D01*
X7022670Y-8585000D02*
X7052670Y-8615000D01*
X7052670Y-8585000D02*
X7022670Y-8615000D01*
X7238570Y-10710733D02*
X7268570Y-10740733D01*
X7268570Y-10710733D02*
X7238570Y-10740733D01*
X8343470Y-10710733D02*
X8373470Y-10740733D01*
X8373470Y-10710733D02*
X8343470Y-10740733D01*
X8544170Y-9769233D02*
X8574170Y-9799233D01*
X8574170Y-9769233D02*
X8544170Y-9799233D01*
X8737170Y-6456233D02*
X8767170Y-6486233D01*
X8767170Y-6456233D02*
X8737170Y-6486233D01*
X8737170Y-6710233D02*
X8767170Y-6740233D01*
X8767170Y-6710233D02*
X8737170Y-6740233D01*
X8737170Y-8361233D02*
X8767170Y-8391233D01*
X8767170Y-8361233D02*
X8737170Y-8391233D01*
X8737170Y-8576283D02*
X8767170Y-8606283D01*
X8767170Y-8576283D02*
X8737170Y-8606283D01*
X8737170Y-10393233D02*
X8767170Y-10423233D01*
X8767170Y-10393233D02*
X8737170Y-10423233D01*
X8737170Y-10585000D02*
X8767170Y-10615000D01*
X8767170Y-10585000D02*
X8737170Y-10615000D01*
X8737170Y-12298233D02*
X8767170Y-12328233D01*
X8767170Y-12298233D02*
X8737170Y-12328233D01*
X8737170Y-12535000D02*
X8767170Y-12565000D01*
X8767170Y-12535000D02*
X8737170Y-12565000D01*
X9118170Y-10710733D02*
X9148170Y-10740733D01*
X9148170Y-10710733D02*
X9118170Y-10740733D01*
X9232470Y-9059733D02*
X9262470Y-9089733D01*
X9262470Y-9059733D02*
X9232470Y-9089733D01*
X10235770Y-10710733D02*
X10265770Y-10740733D01*
X10265770Y-10710733D02*
X10235770Y-10740733D01*
X10350070Y-9059733D02*
X10380070Y-9089733D01*
X10380070Y-9059733D02*
X10350070Y-9089733D01*
X10564170Y-9409233D02*
X10594170Y-9439233D01*
X10594170Y-9409233D02*
X10564170Y-9439233D01*
X10642170Y-6456233D02*
X10672170Y-6486233D01*
X10672170Y-6456233D02*
X10642170Y-6486233D01*
X10642170Y-6710233D02*
X10672170Y-6740233D01*
X10672170Y-6710233D02*
X10642170Y-6740233D01*
X10642170Y-8361233D02*
X10672170Y-8391233D01*
X10672170Y-8361233D02*
X10642170Y-8391233D01*
X10642170Y-8576283D02*
X10672170Y-8606283D01*
X10672170Y-8576283D02*
X10642170Y-8606283D01*
X10642170Y-10393233D02*
X10672170Y-10423233D01*
X10672170Y-10393233D02*
X10642170Y-10423233D01*
X10642170Y-10585000D02*
X10672170Y-10615000D01*
X10672170Y-10585000D02*
X10642170Y-10615000D01*
X10642170Y-12298233D02*
X10672170Y-12328233D01*
X10672170Y-12298233D02*
X10642170Y-12328233D01*
X10642170Y-12535000D02*
X10672170Y-12565000D01*
X10672170Y-12535000D02*
X10642170Y-12565000D01*
X11048570Y-10710733D02*
X11078570Y-10740733D01*
X11078570Y-10710733D02*
X11048570Y-10740733D01*
X11162870Y-9059733D02*
X11192870Y-9089733D01*
X11192870Y-9059733D02*
X11162870Y-9089733D01*
X12140770Y-10710733D02*
X12170770Y-10740733D01*
X12170770Y-10710733D02*
X12140770Y-10740733D01*
X12255070Y-9059733D02*
X12285070Y-9089733D01*
X12285070Y-9059733D02*
X12255070Y-9089733D01*
X12464170Y-9409233D02*
X12494170Y-9439233D01*
X12494170Y-9409233D02*
X12464170Y-9439233D01*
X12547170Y-6456233D02*
X12577170Y-6486233D01*
X12577170Y-6456233D02*
X12547170Y-6486233D01*
X12547170Y-6710233D02*
X12577170Y-6740233D01*
X12577170Y-6710233D02*
X12547170Y-6740233D01*
X12547170Y-8361233D02*
X12577170Y-8391233D01*
X12577170Y-8361233D02*
X12547170Y-8391233D01*
X12547170Y-8576283D02*
X12577170Y-8606283D01*
X12577170Y-8576283D02*
X12547170Y-8606283D01*
X12547170Y-10393233D02*
X12577170Y-10423233D01*
X12577170Y-10393233D02*
X12547170Y-10423233D01*
X12547170Y-10585000D02*
X12577170Y-10615000D01*
X12577170Y-10585000D02*
X12547170Y-10615000D01*
X12547170Y-12298233D02*
X12577170Y-12328233D01*
X12577170Y-12298233D02*
X12547170Y-12328233D01*
X12826570Y-10710733D02*
X12856570Y-10740733D01*
X12856570Y-10710733D02*
X12826570Y-10740733D01*
X12940870Y-9059733D02*
X12970870Y-9089733D01*
X12970870Y-9059733D02*
X12940870Y-9089733D01*
X13309170Y-13403133D02*
X13339170Y-13433133D01*
X13339170Y-13403133D02*
X13309170Y-13433133D01*
X14134670Y-10710733D02*
X14164670Y-10740733D01*
X14164670Y-10710733D02*
X14134670Y-10740733D01*
X14248970Y-9059733D02*
X14278970Y-9089733D01*
X14278970Y-9059733D02*
X14248970Y-9089733D01*
X14384170Y-9409233D02*
X14414170Y-9439233D01*
X14414170Y-9409233D02*
X14384170Y-9439233D01*
X14452170Y-6456233D02*
X14482170Y-6486233D01*
X14482170Y-6456233D02*
X14452170Y-6486233D01*
X14452170Y-6710233D02*
X14482170Y-6740233D01*
X14482170Y-6710233D02*
X14452170Y-6740233D01*
X14452170Y-8361233D02*
X14482170Y-8391233D01*
X14482170Y-8361233D02*
X14452170Y-8391233D01*
X14452170Y-8576283D02*
X14482170Y-8606283D01*
X14482170Y-8576283D02*
X14452170Y-8606283D01*
X14452170Y-10393233D02*
X14482170Y-10423233D01*
X14482170Y-10393233D02*
X14452170Y-10423233D01*
X14452170Y-10585000D02*
X14482170Y-10615000D01*
X14482170Y-10585000D02*
X14452170Y-10615000D01*
X14807770Y-10710733D02*
X14837770Y-10740733D01*
X14837770Y-10710733D02*
X14807770Y-10740733D01*
X14922070Y-9059733D02*
X14952070Y-9089733D01*
X14952070Y-9059733D02*
X14922070Y-9089733D01*
X15468170Y-12298233D02*
X15498170Y-12328233D01*
X15498170Y-12298233D02*
X15468170Y-12328233D01*
X15760270Y-13453933D02*
X15790270Y-13483933D01*
X15790270Y-13453933D02*
X15760270Y-13483933D01*
X16039670Y-10710733D02*
X16069670Y-10740733D01*
X16069670Y-10710733D02*
X16039670Y-10740733D01*
X16153970Y-9059733D02*
X16183970Y-9089733D01*
X16183970Y-9059733D02*
X16153970Y-9089733D01*
X16284170Y-9409233D02*
X16314170Y-9439233D01*
X16314170Y-9409233D02*
X16284170Y-9439233D01*
X16344470Y-12666533D02*
X16374470Y-12696533D01*
X16374470Y-12666533D02*
X16344470Y-12696533D01*
X16357170Y-6456233D02*
X16387170Y-6486233D01*
X16387170Y-6456233D02*
X16357170Y-6486233D01*
X16357170Y-6710233D02*
X16387170Y-6740233D01*
X16387170Y-6710233D02*
X16357170Y-6740233D01*
X16357170Y-8361233D02*
X16387170Y-8391233D01*
X16387170Y-8361233D02*
X16357170Y-8391233D01*
X16357170Y-8576283D02*
X16387170Y-8606283D01*
X16387170Y-8576283D02*
X16357170Y-8606283D01*
X16357170Y-10393233D02*
X16387170Y-10423233D01*
X16387170Y-10393233D02*
X16357170Y-10423233D01*
X16357170Y-10585000D02*
X16387170Y-10615000D01*
X16387170Y-10585000D02*
X16357170Y-10615000D01*
X16357170Y-12298233D02*
X16387170Y-12328233D01*
X16387170Y-12298233D02*
X16357170Y-12328233D01*
X16750870Y-10710733D02*
X16780870Y-10740733D01*
X16780870Y-10710733D02*
X16750870Y-10740733D01*
X16865170Y-9059733D02*
X16895170Y-9089733D01*
X16895170Y-9059733D02*
X16865170Y-9089733D01*
X18020870Y-10710733D02*
X18050870Y-10740733D01*
X18050870Y-10710733D02*
X18020870Y-10740733D01*
X18135170Y-9059733D02*
X18165170Y-9089733D01*
X18165170Y-9059733D02*
X18135170Y-9089733D01*
X18174170Y-9409233D02*
X18204170Y-9439233D01*
X18204170Y-9409233D02*
X18174170Y-9439233D01*
X18262170Y-6456233D02*
X18292170Y-6486233D01*
X18292170Y-6456233D02*
X18262170Y-6486233D01*
X18262170Y-6710233D02*
X18292170Y-6740233D01*
X18292170Y-6710233D02*
X18262170Y-6740233D01*
X18262170Y-8132633D02*
X18292170Y-8162633D01*
X18292170Y-8132633D02*
X18262170Y-8162633D01*
X18262170Y-8285033D02*
X18292170Y-8315033D01*
X18292170Y-8285033D02*
X18262170Y-8315033D01*
X18262170Y-10393233D02*
X18292170Y-10423233D01*
X18292170Y-10393233D02*
X18262170Y-10423233D01*
X18262170Y-10585000D02*
X18292170Y-10615000D01*
X18292170Y-10585000D02*
X18262170Y-10615000D01*
X18325670Y-12298233D02*
X18355670Y-12328233D01*
X18355670Y-12298233D02*
X18325670Y-12328233D01*
X18554270Y-10710733D02*
X18584270Y-10740733D01*
X18584270Y-10710733D02*
X18554270Y-10740733D01*
X18668570Y-9059733D02*
X18698570Y-9089733D01*
X18698570Y-9059733D02*
X18668570Y-9089733D01*
X18706670Y-13682533D02*
X18736670Y-13712533D01*
X18736670Y-13682533D02*
X18706670Y-13712533D01*
X19709970Y-10710733D02*
X19739970Y-10740733D01*
X19739970Y-10710733D02*
X19709970Y-10740733D01*
X19875070Y-9059733D02*
X19905070Y-9089733D01*
X19905070Y-9059733D02*
X19875070Y-9089733D01*
X19976670Y-12895133D02*
X20006670Y-12925133D01*
X20006670Y-12895133D02*
X19976670Y-12925133D01*
X20084170Y-9409233D02*
X20114170Y-9439233D01*
X20114170Y-9409233D02*
X20084170Y-9439233D01*
X20167170Y-6456233D02*
X20197170Y-6486233D01*
X20197170Y-6456233D02*
X20167170Y-6486233D01*
X20167170Y-6710233D02*
X20197170Y-6740233D01*
X20197170Y-6710233D02*
X20167170Y-6740233D01*
X20167170Y-8361233D02*
X20197170Y-8391233D01*
X20197170Y-8361233D02*
X20167170Y-8391233D01*
X20167170Y-8576283D02*
X20197170Y-8606283D01*
X20197170Y-8576283D02*
X20167170Y-8606283D01*
X20167170Y-10393233D02*
X20197170Y-10423233D01*
X20197170Y-10393233D02*
X20167170Y-10423233D01*
X20167170Y-10585000D02*
X20197170Y-10615000D01*
X20197170Y-10585000D02*
X20167170Y-10615000D01*
X20167170Y-12298233D02*
X20197170Y-12328233D01*
X20197170Y-12298233D02*
X20167170Y-12328233D01*
X20548170Y-10710733D02*
X20578170Y-10740733D01*
X20578170Y-10710733D02*
X20548170Y-10740733D01*
X20662470Y-9059733D02*
X20692470Y-9089733D01*
X20692470Y-9059733D02*
X20662470Y-9089733D01*
X20662470Y-13453933D02*
X20692470Y-13483933D01*
X20692470Y-13453933D02*
X20662470Y-13483933D01*
X20802170Y-13199933D02*
X20832170Y-13229933D01*
X20832170Y-13199933D02*
X20802170Y-13229933D01*
X21881670Y-10710733D02*
X21911670Y-10740733D01*
X21911670Y-10710733D02*
X21881670Y-10740733D01*
X21994170Y-9399233D02*
X22024170Y-9429233D01*
X22024170Y-9399233D02*
X21994170Y-9429233D01*
X21995970Y-9059733D02*
X22025970Y-9089733D01*
X22025970Y-9059733D02*
X21995970Y-9089733D01*
X22072170Y-6456233D02*
X22102170Y-6486233D01*
X22102170Y-6456233D02*
X22072170Y-6486233D01*
X22072170Y-6710233D02*
X22102170Y-6740233D01*
X22102170Y-6710233D02*
X22072170Y-6740233D01*
X22072170Y-8361233D02*
X22102170Y-8391233D01*
X22102170Y-8361233D02*
X22072170Y-8391233D01*
X22072170Y-8576283D02*
X22102170Y-8606283D01*
X22102170Y-8576283D02*
X22072170Y-8606283D01*
X22072170Y-10393233D02*
X22102170Y-10423233D01*
X22102170Y-10393233D02*
X22072170Y-10423233D01*
X22072170Y-10585000D02*
X22102170Y-10615000D01*
X22102170Y-10585000D02*
X22072170Y-10615000D01*
X22072170Y-12298233D02*
X22102170Y-12328233D01*
X22102170Y-12298233D02*
X22072170Y-12328233D01*
X22072170Y-12535000D02*
X22102170Y-12565000D01*
X22102170Y-12535000D02*
X22072170Y-12565000D01*
X22491270Y-10710733D02*
X22521270Y-10740733D01*
X22521270Y-10710733D02*
X22491270Y-10740733D01*
X22605570Y-9059733D02*
X22635570Y-9089733D01*
X22635570Y-9059733D02*
X22605570Y-9089733D01*
X23634270Y-10710733D02*
X23664270Y-10740733D01*
X23664270Y-10710733D02*
X23634270Y-10740733D01*
X23748570Y-9059733D02*
X23778570Y-9089733D01*
X23778570Y-9059733D02*
X23748570Y-9089733D01*
X23894170Y-9409233D02*
X23924170Y-9439233D01*
X23924170Y-9409233D02*
X23894170Y-9439233D01*
X23977170Y-6456233D02*
X24007170Y-6486233D01*
X24007170Y-6456233D02*
X23977170Y-6486233D01*
X23977170Y-6710233D02*
X24007170Y-6740233D01*
X24007170Y-6710233D02*
X23977170Y-6740233D01*
X23977170Y-8361233D02*
X24007170Y-8391233D01*
X24007170Y-8361233D02*
X23977170Y-8391233D01*
X23977170Y-8576283D02*
X24007170Y-8606283D01*
X24007170Y-8576283D02*
X23977170Y-8606283D01*
X23977170Y-10393233D02*
X24007170Y-10423233D01*
X24007170Y-10393233D02*
X23977170Y-10423233D01*
X23977170Y-10585000D02*
X24007170Y-10615000D01*
X24007170Y-10585000D02*
X23977170Y-10615000D01*
X23977170Y-12298233D02*
X24007170Y-12328233D01*
X24007170Y-12298233D02*
X23977170Y-12328233D01*
X23985000Y-12535000D02*
X24015000Y-12565000D01*
X24015000Y-12535000D02*
X23985000Y-12565000D01*
X24345470Y-10710733D02*
X24375470Y-10740733D01*
X24375470Y-10710733D02*
X24345470Y-10740733D01*
X24459770Y-9059733D02*
X24489770Y-9089733D01*
X24489770Y-9059733D02*
X24459770Y-9089733D01*
X25539270Y-10710733D02*
X25569270Y-10740733D01*
X25569270Y-10710733D02*
X25539270Y-10740733D01*
X25653570Y-9059733D02*
X25683570Y-9089733D01*
X25683570Y-9059733D02*
X25653570Y-9089733D01*
X25804170Y-9399233D02*
X25834170Y-9429233D01*
X25834170Y-9399233D02*
X25804170Y-9429233D01*
X25882170Y-6456233D02*
X25912170Y-6486233D01*
X25912170Y-6456233D02*
X25882170Y-6486233D01*
X25882170Y-6710233D02*
X25912170Y-6740233D01*
X25912170Y-6710233D02*
X25882170Y-6740233D01*
X25882170Y-8361233D02*
X25912170Y-8391233D01*
X25912170Y-8361233D02*
X25882170Y-8391233D01*
X25882170Y-8576283D02*
X25912170Y-8606283D01*
X25912170Y-8576283D02*
X25882170Y-8606283D01*
X25882170Y-10393233D02*
X25912170Y-10423233D01*
X25912170Y-10393233D02*
X25882170Y-10423233D01*
X25882170Y-10585000D02*
X25912170Y-10615000D01*
X25912170Y-10585000D02*
X25882170Y-10615000D01*
X25882170Y-12298233D02*
X25912170Y-12328233D01*
X25912170Y-12298233D02*
X25882170Y-12328233D01*
X25885000Y-12535000D02*
X25915000Y-12565000D01*
X25915000Y-12535000D02*
X25885000Y-12565000D01*
X26237770Y-10710733D02*
X26267770Y-10740733D01*
X26267770Y-10710733D02*
X26237770Y-10740733D01*
X26352070Y-9059733D02*
X26382070Y-9089733D01*
X26382070Y-9059733D02*
X26352070Y-9089733D01*
X27558570Y-10710733D02*
X27588570Y-10740733D01*
X27588570Y-10710733D02*
X27558570Y-10740733D01*
X27672870Y-9059733D02*
X27702870Y-9089733D01*
X27702870Y-9059733D02*
X27672870Y-9089733D01*
X27734170Y-9379233D02*
X27764170Y-9409233D01*
X27764170Y-9379233D02*
X27734170Y-9409233D01*
X27787170Y-6456233D02*
X27817170Y-6486233D01*
X27817170Y-6456233D02*
X27787170Y-6486233D01*
X27787170Y-6710233D02*
X27817170Y-6740233D01*
X27817170Y-6710233D02*
X27787170Y-6740233D01*
X27787170Y-8361233D02*
X27817170Y-8391233D01*
X27817170Y-8361233D02*
X27787170Y-8391233D01*
X27787170Y-8576283D02*
X27817170Y-8606283D01*
X27817170Y-8576283D02*
X27787170Y-8606283D01*
X27787170Y-10393233D02*
X27817170Y-10423233D01*
X27817170Y-10393233D02*
X27787170Y-10423233D01*
X27787170Y-10585000D02*
X27817170Y-10615000D01*
X27817170Y-10585000D02*
X27787170Y-10615000D01*
X27787170Y-12298233D02*
X27817170Y-12328233D01*
X27817170Y-12298233D02*
X27787170Y-12328233D01*
X27787170Y-12535000D02*
X27817170Y-12565000D01*
X27817170Y-12535000D02*
X27787170Y-12565000D01*
X28053870Y-10710733D02*
X28083870Y-10740733D01*
X28083870Y-10710733D02*
X28053870Y-10740733D01*
X29400070Y-10710733D02*
X29430070Y-10740733D01*
X29430070Y-10710733D02*
X29400070Y-10740733D01*
X29564170Y-7919233D02*
X29594170Y-7949233D01*
X29594170Y-7919233D02*
X29564170Y-7949233D01*
X29692170Y-6456233D02*
X29722170Y-6486233D01*
X29722170Y-6456233D02*
X29692170Y-6486233D01*
X29692170Y-6710233D02*
X29722170Y-6740233D01*
X29722170Y-6710233D02*
X29692170Y-6740233D01*
X29692170Y-8361233D02*
X29722170Y-8391233D01*
X29722170Y-8361233D02*
X29692170Y-8391233D01*
X29692170Y-8615233D02*
X29722170Y-8645233D01*
X29722170Y-8615233D02*
X29692170Y-8645233D01*
X29692170Y-10393233D02*
X29722170Y-10423233D01*
X29722170Y-10393233D02*
X29692170Y-10423233D01*
X29692170Y-10585000D02*
X29722170Y-10615000D01*
X29722170Y-10585000D02*
X29692170Y-10615000D01*
X29692170Y-12298233D02*
X29722170Y-12328233D01*
X29722170Y-12298233D02*
X29692170Y-12328233D01*
X29692170Y-12535000D02*
X29722170Y-12565000D01*
X29722170Y-12535000D02*
X29692170Y-12565000D01*
D13*
X4174770Y-5925133D02*
G75*
G03*
X4174770Y-5925133I-20000J0D01*
G01*
X4212870Y-7169733D02*
G75*
G03*
X4212870Y-7169733I-20000J0D01*
G01*
X4403370Y-6001333D02*
G75*
G03*
X4403370Y-6001333I-20000J0D01*
G01*
X4665556Y-6480761D02*
G75*
G03*
X4665556Y-6480761I-20000J0D01*
G01*
X4784370Y-6522033D02*
G75*
G03*
X4784370Y-6522033I-20000J0D01*
G01*
X4936770Y-8020633D02*
G75*
G03*
X4936770Y-8020633I-20000J0D01*
G01*
X4962868Y-5887033D02*
G75*
G03*
X4962868Y-5887033I-20000J0D01*
G01*
X5089170Y-8046033D02*
G75*
G03*
X5089170Y-8046033I-20000J0D01*
G01*
D14*
X3875370Y-6725633D02*
X3875370Y-6775633D01*
X3850370Y-6750633D02*
X3900370Y-6750633D01*
X4423927Y-6441972D02*
X4423927Y-6491972D01*
X4398927Y-6466972D02*
X4448927Y-6466972D01*
X4662770Y-7640033D02*
X4662770Y-7690033D01*
X4637770Y-7665033D02*
X4687770Y-7665033D01*
D15*
X4294132Y-5290046D02*
X4294132Y-5247620D01*
X4251705Y-5247620D01*
X4251705Y-5290046D01*
X4294132Y-5290046D01*
D11*
X4252918Y-5238833D02*
X4252918Y-5298833D01*
X4292918Y-5238833D02*
X4292918Y-5298833D01*
X4252918Y-5298833D02*
G75*
G03*
X4292918Y-5298833I20000J0D01*
G01*
X4292918Y-5238833D02*
G75*
G03*
X4252918Y-5238833I-20000J0D01*
G01*
D15*
X4294132Y-5708046D02*
X4294132Y-5665620D01*
X4251705Y-5665620D01*
X4251705Y-5708046D01*
X4294132Y-5708046D01*
D11*
X4252918Y-5631833D02*
X4252918Y-5741833D01*
X4292918Y-5631833D02*
X4292918Y-5741833D01*
X4252918Y-5741833D02*
G75*
G03*
X4292918Y-5741833I20000J0D01*
G01*
X4292918Y-5631833D02*
G75*
G03*
X4252918Y-5631833I-20000J0D01*
G01*
D15*
X4785583Y-6987746D02*
X4785583Y-6945320D01*
X4743157Y-6945320D01*
X4743157Y-6987746D01*
X4785583Y-6987746D01*
X4785583Y-7114746D02*
X4785583Y-7072320D01*
X4743157Y-7072320D01*
X4743157Y-7114746D01*
X4785583Y-7114746D01*
X5158132Y-5290046D02*
X5158132Y-5247620D01*
X5115705Y-5247620D01*
X5115705Y-5290046D01*
X5158132Y-5290046D01*
D11*
X5116918Y-5238833D02*
X5116918Y-5298833D01*
X5156918Y-5238833D02*
X5156918Y-5298833D01*
X5116918Y-5298833D02*
G75*
G03*
X5156918Y-5298833I20000J0D01*
G01*
X5156918Y-5238833D02*
G75*
G03*
X5116918Y-5238833I-20000J0D01*
G01*
D15*
X5158132Y-5708046D02*
X5158132Y-5665620D01*
X5115705Y-5665620D01*
X5115705Y-5708046D01*
X5158132Y-5708046D01*
D11*
X5116918Y-5631833D02*
X5116918Y-5741833D01*
X5156918Y-5631833D02*
X5156918Y-5741833D01*
X5116918Y-5741833D02*
G75*
G03*
X5156918Y-5741833I20000J0D01*
G01*
X5156918Y-5631833D02*
G75*
G03*
X5116918Y-5631833I-20000J0D01*
G01*
D16*
X3088861Y-8710606D02*
X3123861Y-8675606D01*
X3088861Y-8640606D01*
X3053861Y-8675606D01*
X3088861Y-8710606D01*
X3088861Y-8966599D02*
X3123861Y-8931599D01*
X3088861Y-8896599D01*
X3053861Y-8931599D01*
X3088861Y-8966599D01*
X3088861Y-9222592D02*
X3123861Y-9187592D01*
X3088861Y-9152592D01*
X3053861Y-9187592D01*
X3088861Y-9222592D01*
D17*
X6546702Y-12606347D02*
X6766702Y-12826347D01*
X6766702Y-12606347D02*
X6546702Y-12826347D01*
X6766702Y-12716347D02*
G75*
G03*
X6766702Y-12716347I-110000J0D01*
G01*
D11*
X6616702Y-12816347D02*
X6696702Y-12816347D01*
X6616702Y-12616347D02*
X6696702Y-12616347D01*
X6696702Y-12816347D02*
G75*
G03*
X6696702Y-12616347I0J100000D01*
G01*
X6616702Y-12616347D02*
G75*
G03*
X6616702Y-12816347I0J-100000D01*
G01*
D17*
X8451496Y-6891729D02*
X8671496Y-7111729D01*
X8671496Y-6891729D02*
X8451496Y-7111729D01*
X8671496Y-7001729D02*
G75*
G03*
X8671496Y-7001729I-110000J0D01*
G01*
D11*
X8521496Y-7101729D02*
X8601496Y-7101729D01*
X8521496Y-6901729D02*
X8601496Y-6901729D01*
X8601496Y-7101729D02*
G75*
G03*
X8601496Y-6901729I0J100000D01*
G01*
X8521496Y-6901729D02*
G75*
G03*
X8521496Y-7101729I0J-100000D01*
G01*
D17*
X17977076Y-8797371D02*
X18197076Y-9017371D01*
X18197076Y-8797371D02*
X17977076Y-9017371D01*
X18197076Y-8907371D02*
G75*
G03*
X18197076Y-8907371I-110000J0D01*
G01*
D11*
X18047076Y-9007371D02*
X18127076Y-9007371D01*
X18047076Y-8807371D02*
X18127076Y-8807371D01*
X18127076Y-9007371D02*
G75*
G03*
X18127076Y-8807371I0J100000D01*
G01*
X18047076Y-8807371D02*
G75*
G03*
X18047076Y-9007371I0J-100000D01*
G01*
D17*
X21789062Y-12969667D02*
X22009062Y-13189667D01*
X22009062Y-12969667D02*
X21789062Y-13189667D01*
X22009062Y-13079667D02*
G75*
G03*
X22009062Y-13079667I-110000J0D01*
G01*
D11*
X21859062Y-13179667D02*
X21939062Y-13179667D01*
X21859062Y-12979667D02*
X21939062Y-12979667D01*
X21939062Y-13179667D02*
G75*
G03*
X21939062Y-12979667I0J100000D01*
G01*
X21859062Y-12979667D02*
G75*
G03*
X21859062Y-13179667I0J-100000D01*
G01*
D17*
X25596638Y-6888460D02*
X25816638Y-7108460D01*
X25816638Y-6888460D02*
X25596638Y-7108460D01*
X25816638Y-6998460D02*
G75*
G03*
X25816638Y-6998460I-110000J0D01*
G01*
D11*
X25666638Y-7098460D02*
X25746638Y-7098460D01*
X25666638Y-6898460D02*
X25746638Y-6898460D01*
X25746638Y-7098460D02*
G75*
G03*
X25746638Y-6898460I0J100000D01*
G01*
X25666638Y-6898460D02*
G75*
G03*
X25666638Y-7098460I0J-100000D01*
G01*
X3146441Y-14890364D02*
X3146441Y-14690364D01*
X3194060Y-14690364D01*
X3222632Y-14699888D01*
X3241680Y-14718935D01*
X3251203Y-14737983D01*
X3260727Y-14776078D01*
X3260727Y-14804650D01*
X3251203Y-14842745D01*
X3241680Y-14861793D01*
X3222632Y-14880840D01*
X3194060Y-14890364D01*
X3146441Y-14890364D01*
X3346441Y-14890364D02*
X3346441Y-14757031D01*
X3346441Y-14795126D02*
X3355965Y-14776078D01*
X3365489Y-14766554D01*
X3384537Y-14757031D01*
X3403584Y-14757031D01*
X3470251Y-14890364D02*
X3470251Y-14757031D01*
X3470251Y-14690364D02*
X3460727Y-14699888D01*
X3470251Y-14709412D01*
X3479775Y-14699888D01*
X3470251Y-14690364D01*
X3470251Y-14709412D01*
X3594060Y-14890364D02*
X3575013Y-14880840D01*
X3565489Y-14861793D01*
X3565489Y-14690364D01*
X3698822Y-14890364D02*
X3679775Y-14880840D01*
X3670251Y-14861793D01*
X3670251Y-14690364D01*
X3927394Y-14890364D02*
X3927394Y-14690364D01*
X3994060Y-14833221D01*
X4060727Y-14690364D01*
X4060727Y-14890364D01*
X4241680Y-14890364D02*
X4241680Y-14785602D01*
X4232156Y-14766554D01*
X4213108Y-14757031D01*
X4175013Y-14757031D01*
X4155965Y-14766554D01*
X4241680Y-14880840D02*
X4222632Y-14890364D01*
X4175013Y-14890364D01*
X4155965Y-14880840D01*
X4146441Y-14861793D01*
X4146441Y-14842745D01*
X4155965Y-14823697D01*
X4175013Y-14814174D01*
X4222632Y-14814174D01*
X4241680Y-14804650D01*
X4336918Y-14757031D02*
X4336918Y-14957031D01*
X4336918Y-14766554D02*
X4355965Y-14757031D01*
X4394061Y-14757031D01*
X4413108Y-14766554D01*
X4422632Y-14776078D01*
X4432156Y-14795126D01*
X4432156Y-14852269D01*
X4422632Y-14871316D01*
X4413108Y-14880840D01*
X4394061Y-14890364D01*
X4355965Y-14890364D01*
X4336918Y-14880840D01*
X4517870Y-14871316D02*
X4527394Y-14880840D01*
X4517870Y-14890364D01*
X4508346Y-14880840D01*
X4517870Y-14871316D01*
X4517870Y-14890364D01*
X4517870Y-14766554D02*
X4527394Y-14776078D01*
X4517870Y-14785602D01*
X4508346Y-14776078D01*
X4517870Y-14766554D01*
X4517870Y-14785602D01*
D12*
X2858822Y-15204888D02*
X2888822Y-15234888D01*
X2888822Y-15204888D02*
X2858822Y-15234888D01*
D11*
X3184537Y-15110364D02*
X3203584Y-15110364D01*
X3222632Y-15119888D01*
X3232156Y-15129412D01*
X3241680Y-15148459D01*
X3251203Y-15186554D01*
X3251203Y-15234174D01*
X3241680Y-15272269D01*
X3232156Y-15291316D01*
X3222632Y-15300840D01*
X3203584Y-15310364D01*
X3184537Y-15310364D01*
X3165489Y-15300840D01*
X3155965Y-15291316D01*
X3146441Y-15272269D01*
X3136918Y-15234174D01*
X3136918Y-15186554D01*
X3146441Y-15148459D01*
X3155965Y-15129412D01*
X3165489Y-15119888D01*
X3184537Y-15110364D01*
X3336918Y-15291316D02*
X3346441Y-15300840D01*
X3336918Y-15310364D01*
X3327394Y-15300840D01*
X3336918Y-15291316D01*
X3336918Y-15310364D01*
X3413108Y-15110364D02*
X3536918Y-15110364D01*
X3470251Y-15186554D01*
X3498822Y-15186554D01*
X3517870Y-15196078D01*
X3527394Y-15205602D01*
X3536918Y-15224650D01*
X3536918Y-15272269D01*
X3527394Y-15291316D01*
X3517870Y-15300840D01*
X3498822Y-15310364D01*
X3441680Y-15310364D01*
X3422632Y-15300840D01*
X3413108Y-15291316D01*
X3660727Y-15110364D02*
X3679775Y-15110364D01*
X3698822Y-15119888D01*
X3708346Y-15129412D01*
X3717870Y-15148459D01*
X3727394Y-15186554D01*
X3727394Y-15234174D01*
X3717870Y-15272269D01*
X3708346Y-15291316D01*
X3698822Y-15300840D01*
X3679775Y-15310364D01*
X3660727Y-15310364D01*
X3641680Y-15300840D01*
X3632156Y-15291316D01*
X3622632Y-15272269D01*
X3613108Y-15234174D01*
X3613108Y-15186554D01*
X3622632Y-15148459D01*
X3632156Y-15129412D01*
X3641680Y-15119888D01*
X3660727Y-15110364D01*
X3851203Y-15110364D02*
X3870251Y-15110364D01*
X3889299Y-15119888D01*
X3898822Y-15129412D01*
X3908346Y-15148459D01*
X3917870Y-15186554D01*
X3917870Y-15234174D01*
X3908346Y-15272269D01*
X3898822Y-15291316D01*
X3889299Y-15300840D01*
X3870251Y-15310364D01*
X3851203Y-15310364D01*
X3832156Y-15300840D01*
X3822632Y-15291316D01*
X3813108Y-15272269D01*
X3803584Y-15234174D01*
X3803584Y-15186554D01*
X3813108Y-15148459D01*
X3822632Y-15129412D01*
X3832156Y-15119888D01*
X3851203Y-15110364D01*
X4003584Y-15310364D02*
X4003584Y-15177031D01*
X4003584Y-15196078D02*
X4013108Y-15186554D01*
X4032156Y-15177031D01*
X4060727Y-15177031D01*
X4079775Y-15186554D01*
X4089299Y-15205602D01*
X4089299Y-15310364D01*
X4089299Y-15205602D02*
X4098822Y-15186554D01*
X4117870Y-15177031D01*
X4146441Y-15177031D01*
X4165489Y-15186554D01*
X4175013Y-15205602D01*
X4175013Y-15310364D01*
X4270251Y-15310364D02*
X4270251Y-15177031D01*
X4270251Y-15196078D02*
X4279775Y-15186554D01*
X4298823Y-15177031D01*
X4327394Y-15177031D01*
X4346442Y-15186554D01*
X4355965Y-15205602D01*
X4355965Y-15310364D01*
X4355965Y-15205602D02*
X4365489Y-15186554D01*
X4384537Y-15177031D01*
X4413108Y-15177031D01*
X4432156Y-15186554D01*
X4441680Y-15205602D01*
X4441680Y-15310364D01*
X4832156Y-15100840D02*
X4660727Y-15357983D01*
X5089299Y-15110364D02*
X5108346Y-15110364D01*
X5127394Y-15119888D01*
X5136918Y-15129412D01*
X5146442Y-15148459D01*
X5155965Y-15186554D01*
X5155965Y-15234174D01*
X5146442Y-15272269D01*
X5136918Y-15291316D01*
X5127394Y-15300840D01*
X5108346Y-15310364D01*
X5089299Y-15310364D01*
X5070251Y-15300840D01*
X5060727Y-15291316D01*
X5051203Y-15272269D01*
X5041680Y-15234174D01*
X5041680Y-15186554D01*
X5051203Y-15148459D01*
X5060727Y-15129412D01*
X5070251Y-15119888D01*
X5089299Y-15110364D01*
X5241680Y-15291316D02*
X5251203Y-15300840D01*
X5241680Y-15310364D01*
X5232156Y-15300840D01*
X5241680Y-15291316D01*
X5241680Y-15310364D01*
X5375013Y-15110364D02*
X5394061Y-15110364D01*
X5413108Y-15119888D01*
X5422632Y-15129412D01*
X5432156Y-15148459D01*
X5441680Y-15186554D01*
X5441680Y-15234174D01*
X5432156Y-15272269D01*
X5422632Y-15291316D01*
X5413108Y-15300840D01*
X5394061Y-15310364D01*
X5375013Y-15310364D01*
X5355965Y-15300840D01*
X5346442Y-15291316D01*
X5336918Y-15272269D01*
X5327394Y-15234174D01*
X5327394Y-15186554D01*
X5336918Y-15148459D01*
X5346442Y-15129412D01*
X5355965Y-15119888D01*
X5375013Y-15110364D01*
X5632156Y-15310364D02*
X5517870Y-15310364D01*
X5575013Y-15310364D02*
X5575013Y-15110364D01*
X5555965Y-15138935D01*
X5536918Y-15157983D01*
X5517870Y-15167507D01*
X5822632Y-15310364D02*
X5708346Y-15310364D01*
X5765489Y-15310364D02*
X5765489Y-15110364D01*
X5746441Y-15138935D01*
X5727394Y-15157983D01*
X5708346Y-15167507D01*
X5936918Y-15196078D02*
X5917870Y-15186554D01*
X5908346Y-15177031D01*
X5898822Y-15157983D01*
X5898822Y-15148459D01*
X5908346Y-15129412D01*
X5917870Y-15119888D01*
X5936918Y-15110364D01*
X5975013Y-15110364D01*
X5994060Y-15119888D01*
X6003584Y-15129412D01*
X6013108Y-15148459D01*
X6013108Y-15157983D01*
X6003584Y-15177031D01*
X5994060Y-15186554D01*
X5975013Y-15196078D01*
X5936918Y-15196078D01*
X5917870Y-15205602D01*
X5908346Y-15215126D01*
X5898822Y-15234174D01*
X5898822Y-15272269D01*
X5908346Y-15291316D01*
X5917870Y-15300840D01*
X5936918Y-15310364D01*
X5975013Y-15310364D01*
X5994060Y-15300840D01*
X6003584Y-15291316D01*
X6013108Y-15272269D01*
X6013108Y-15234174D01*
X6003584Y-15215126D01*
X5994060Y-15205602D01*
X5975013Y-15196078D01*
X6089299Y-15110364D02*
X6089299Y-15148459D01*
X6165489Y-15110364D02*
X6165489Y-15148459D01*
X6460727Y-15386554D02*
X6451203Y-15377031D01*
X6432156Y-15348459D01*
X6422632Y-15329412D01*
X6413108Y-15300840D01*
X6403584Y-15253221D01*
X6403584Y-15215126D01*
X6413108Y-15167507D01*
X6422632Y-15138935D01*
X6432156Y-15119888D01*
X6451203Y-15091316D01*
X6460727Y-15081793D01*
X6527394Y-15129412D02*
X6536918Y-15119888D01*
X6555965Y-15110364D01*
X6603584Y-15110364D01*
X6622632Y-15119888D01*
X6632156Y-15129412D01*
X6641680Y-15148459D01*
X6641680Y-15167507D01*
X6632156Y-15196078D01*
X6517870Y-15310364D01*
X6641680Y-15310364D01*
X6822632Y-15110364D02*
X6727394Y-15110364D01*
X6717870Y-15205602D01*
X6727394Y-15196078D01*
X6746441Y-15186554D01*
X6794060Y-15186554D01*
X6813108Y-15196078D01*
X6822632Y-15205602D01*
X6832156Y-15224650D01*
X6832156Y-15272269D01*
X6822632Y-15291316D01*
X6813108Y-15300840D01*
X6794060Y-15310364D01*
X6746441Y-15310364D01*
X6727394Y-15300840D01*
X6717870Y-15291316D01*
X6955965Y-15110364D02*
X6975013Y-15110364D01*
X6994060Y-15119888D01*
X7003584Y-15129412D01*
X7013108Y-15148459D01*
X7022632Y-15186554D01*
X7022632Y-15234174D01*
X7013108Y-15272269D01*
X7003584Y-15291316D01*
X6994060Y-15300840D01*
X6975013Y-15310364D01*
X6955965Y-15310364D01*
X6936918Y-15300840D01*
X6927394Y-15291316D01*
X6917870Y-15272269D01*
X6908346Y-15234174D01*
X6908346Y-15186554D01*
X6917870Y-15148459D01*
X6927394Y-15129412D01*
X6936918Y-15119888D01*
X6955965Y-15110364D01*
X7260727Y-15310364D02*
X7260727Y-15110364D01*
X7346441Y-15310364D02*
X7346441Y-15205602D01*
X7336918Y-15186554D01*
X7317870Y-15177031D01*
X7289299Y-15177031D01*
X7270251Y-15186554D01*
X7260727Y-15196078D01*
X7470251Y-15310364D02*
X7451203Y-15300840D01*
X7441680Y-15291316D01*
X7432156Y-15272269D01*
X7432156Y-15215126D01*
X7441680Y-15196078D01*
X7451203Y-15186554D01*
X7470251Y-15177031D01*
X7498822Y-15177031D01*
X7517870Y-15186554D01*
X7527394Y-15196078D01*
X7536918Y-15215126D01*
X7536918Y-15272269D01*
X7527394Y-15291316D01*
X7517870Y-15300840D01*
X7498822Y-15310364D01*
X7470251Y-15310364D01*
X7651203Y-15310364D02*
X7632156Y-15300840D01*
X7622632Y-15281793D01*
X7622632Y-15110364D01*
X7803584Y-15300840D02*
X7784537Y-15310364D01*
X7746441Y-15310364D01*
X7727394Y-15300840D01*
X7717870Y-15281793D01*
X7717870Y-15205602D01*
X7727394Y-15186554D01*
X7746441Y-15177031D01*
X7784537Y-15177031D01*
X7803584Y-15186554D01*
X7813108Y-15205602D01*
X7813108Y-15224650D01*
X7717870Y-15243697D01*
X7889299Y-15300840D02*
X7908346Y-15310364D01*
X7946441Y-15310364D01*
X7965489Y-15300840D01*
X7975013Y-15281793D01*
X7975013Y-15272269D01*
X7965489Y-15253221D01*
X7946441Y-15243697D01*
X7917870Y-15243697D01*
X7898822Y-15234174D01*
X7889299Y-15215126D01*
X7889299Y-15205602D01*
X7898822Y-15186554D01*
X7917870Y-15177031D01*
X7946441Y-15177031D01*
X7965489Y-15186554D01*
X8041680Y-15386554D02*
X8051203Y-15377031D01*
X8070251Y-15348459D01*
X8079775Y-15329412D01*
X8089299Y-15300840D01*
X8098822Y-15253221D01*
X8098822Y-15215126D01*
X8089299Y-15167507D01*
X8079775Y-15138935D01*
X8070251Y-15119888D01*
X8051203Y-15091316D01*
X8041680Y-15081793D01*
D13*
X2888822Y-15483888D02*
G75*
G03*
X2888822Y-15483888I-20000J0D01*
G01*
D11*
X3184537Y-15374364D02*
X3203584Y-15374364D01*
X3222632Y-15383888D01*
X3232156Y-15393412D01*
X3241680Y-15412459D01*
X3251203Y-15450554D01*
X3251203Y-15498174D01*
X3241680Y-15536269D01*
X3232156Y-15555316D01*
X3222632Y-15564840D01*
X3203584Y-15574364D01*
X3184537Y-15574364D01*
X3165489Y-15564840D01*
X3155965Y-15555316D01*
X3146441Y-15536269D01*
X3136918Y-15498174D01*
X3136918Y-15450554D01*
X3146441Y-15412459D01*
X3155965Y-15393412D01*
X3165489Y-15383888D01*
X3184537Y-15374364D01*
X3336918Y-15555316D02*
X3346441Y-15564840D01*
X3336918Y-15574364D01*
X3327394Y-15564840D01*
X3336918Y-15555316D01*
X3336918Y-15574364D01*
X3517870Y-15441031D02*
X3517870Y-15574364D01*
X3470251Y-15364840D02*
X3422632Y-15507697D01*
X3546441Y-15507697D01*
X3660727Y-15374364D02*
X3679775Y-15374364D01*
X3698822Y-15383888D01*
X3708346Y-15393412D01*
X3717870Y-15412459D01*
X3727394Y-15450554D01*
X3727394Y-15498174D01*
X3717870Y-15536269D01*
X3708346Y-15555316D01*
X3698822Y-15564840D01*
X3679775Y-15574364D01*
X3660727Y-15574364D01*
X3641680Y-15564840D01*
X3632156Y-15555316D01*
X3622632Y-15536269D01*
X3613108Y-15498174D01*
X3613108Y-15450554D01*
X3622632Y-15412459D01*
X3632156Y-15393412D01*
X3641680Y-15383888D01*
X3660727Y-15374364D01*
X3851203Y-15374364D02*
X3870251Y-15374364D01*
X3889299Y-15383888D01*
X3898822Y-15393412D01*
X3908346Y-15412459D01*
X3917870Y-15450554D01*
X3917870Y-15498174D01*
X3908346Y-15536269D01*
X3898822Y-15555316D01*
X3889299Y-15564840D01*
X3870251Y-15574364D01*
X3851203Y-15574364D01*
X3832156Y-15564840D01*
X3822632Y-15555316D01*
X3813108Y-15536269D01*
X3803584Y-15498174D01*
X3803584Y-15450554D01*
X3813108Y-15412459D01*
X3822632Y-15393412D01*
X3832156Y-15383888D01*
X3851203Y-15374364D01*
X4003584Y-15574364D02*
X4003584Y-15441031D01*
X4003584Y-15460078D02*
X4013108Y-15450554D01*
X4032156Y-15441031D01*
X4060727Y-15441031D01*
X4079775Y-15450554D01*
X4089299Y-15469602D01*
X4089299Y-15574364D01*
X4089299Y-15469602D02*
X4098822Y-15450554D01*
X4117870Y-15441031D01*
X4146441Y-15441031D01*
X4165489Y-15450554D01*
X4175013Y-15469602D01*
X4175013Y-15574364D01*
X4270251Y-15574364D02*
X4270251Y-15441031D01*
X4270251Y-15460078D02*
X4279775Y-15450554D01*
X4298823Y-15441031D01*
X4327394Y-15441031D01*
X4346442Y-15450554D01*
X4355965Y-15469602D01*
X4355965Y-15574364D01*
X4355965Y-15469602D02*
X4365489Y-15450554D01*
X4384537Y-15441031D01*
X4413108Y-15441031D01*
X4432156Y-15450554D01*
X4441680Y-15469602D01*
X4441680Y-15574364D01*
X4832156Y-15364840D02*
X4660727Y-15621983D01*
X5089299Y-15374364D02*
X5108346Y-15374364D01*
X5127394Y-15383888D01*
X5136918Y-15393412D01*
X5146442Y-15412459D01*
X5155965Y-15450554D01*
X5155965Y-15498174D01*
X5146442Y-15536269D01*
X5136918Y-15555316D01*
X5127394Y-15564840D01*
X5108346Y-15574364D01*
X5089299Y-15574364D01*
X5070251Y-15564840D01*
X5060727Y-15555316D01*
X5051203Y-15536269D01*
X5041680Y-15498174D01*
X5041680Y-15450554D01*
X5051203Y-15412459D01*
X5060727Y-15393412D01*
X5070251Y-15383888D01*
X5089299Y-15374364D01*
X5241680Y-15555316D02*
X5251203Y-15564840D01*
X5241680Y-15574364D01*
X5232156Y-15564840D01*
X5241680Y-15555316D01*
X5241680Y-15574364D01*
X5375013Y-15374364D02*
X5394061Y-15374364D01*
X5413108Y-15383888D01*
X5422632Y-15393412D01*
X5432156Y-15412459D01*
X5441680Y-15450554D01*
X5441680Y-15498174D01*
X5432156Y-15536269D01*
X5422632Y-15555316D01*
X5413108Y-15564840D01*
X5394061Y-15574364D01*
X5375013Y-15574364D01*
X5355965Y-15564840D01*
X5346442Y-15555316D01*
X5336918Y-15536269D01*
X5327394Y-15498174D01*
X5327394Y-15450554D01*
X5336918Y-15412459D01*
X5346442Y-15393412D01*
X5355965Y-15383888D01*
X5375013Y-15374364D01*
X5632156Y-15574364D02*
X5517870Y-15574364D01*
X5575013Y-15574364D02*
X5575013Y-15374364D01*
X5555965Y-15402935D01*
X5536918Y-15421983D01*
X5517870Y-15431507D01*
X5813108Y-15374364D02*
X5717870Y-15374364D01*
X5708346Y-15469602D01*
X5717870Y-15460078D01*
X5736918Y-15450554D01*
X5784537Y-15450554D01*
X5803584Y-15460078D01*
X5813108Y-15469602D01*
X5822632Y-15488650D01*
X5822632Y-15536269D01*
X5813108Y-15555316D01*
X5803584Y-15564840D01*
X5784537Y-15574364D01*
X5736918Y-15574364D01*
X5717870Y-15564840D01*
X5708346Y-15555316D01*
X5889299Y-15374364D02*
X6022632Y-15374364D01*
X5936918Y-15574364D01*
X6089299Y-15374364D02*
X6089299Y-15412459D01*
X6165489Y-15374364D02*
X6165489Y-15412459D01*
X6460727Y-15650554D02*
X6451203Y-15641031D01*
X6432156Y-15612459D01*
X6422632Y-15593412D01*
X6413108Y-15564840D01*
X6403584Y-15517221D01*
X6403584Y-15479126D01*
X6413108Y-15431507D01*
X6422632Y-15402935D01*
X6432156Y-15383888D01*
X6451203Y-15355316D01*
X6460727Y-15345793D01*
X6565489Y-15460078D02*
X6546441Y-15450554D01*
X6536918Y-15441031D01*
X6527394Y-15421983D01*
X6527394Y-15412459D01*
X6536918Y-15393412D01*
X6546441Y-15383888D01*
X6565489Y-15374364D01*
X6603584Y-15374364D01*
X6622632Y-15383888D01*
X6632156Y-15393412D01*
X6641680Y-15412459D01*
X6641680Y-15421983D01*
X6632156Y-15441031D01*
X6622632Y-15450554D01*
X6603584Y-15460078D01*
X6565489Y-15460078D01*
X6546441Y-15469602D01*
X6536918Y-15479126D01*
X6527394Y-15498174D01*
X6527394Y-15536269D01*
X6536918Y-15555316D01*
X6546441Y-15564840D01*
X6565489Y-15574364D01*
X6603584Y-15574364D01*
X6622632Y-15564840D01*
X6632156Y-15555316D01*
X6641680Y-15536269D01*
X6641680Y-15498174D01*
X6632156Y-15479126D01*
X6622632Y-15469602D01*
X6603584Y-15460078D01*
X6879775Y-15574364D02*
X6879775Y-15374364D01*
X6965489Y-15574364D02*
X6965489Y-15469602D01*
X6955965Y-15450554D01*
X6936918Y-15441031D01*
X6908346Y-15441031D01*
X6889299Y-15450554D01*
X6879775Y-15460078D01*
X7089299Y-15574364D02*
X7070251Y-15564840D01*
X7060727Y-15555316D01*
X7051203Y-15536269D01*
X7051203Y-15479126D01*
X7060727Y-15460078D01*
X7070251Y-15450554D01*
X7089299Y-15441031D01*
X7117870Y-15441031D01*
X7136918Y-15450554D01*
X7146441Y-15460078D01*
X7155965Y-15479126D01*
X7155965Y-15536269D01*
X7146441Y-15555316D01*
X7136918Y-15564840D01*
X7117870Y-15574364D01*
X7089299Y-15574364D01*
X7270251Y-15574364D02*
X7251203Y-15564840D01*
X7241680Y-15545793D01*
X7241680Y-15374364D01*
X7422632Y-15564840D02*
X7403584Y-15574364D01*
X7365489Y-15574364D01*
X7346441Y-15564840D01*
X7336918Y-15545793D01*
X7336918Y-15469602D01*
X7346441Y-15450554D01*
X7365489Y-15441031D01*
X7403584Y-15441031D01*
X7422632Y-15450554D01*
X7432156Y-15469602D01*
X7432156Y-15488650D01*
X7336918Y-15507697D01*
X7508346Y-15564840D02*
X7527394Y-15574364D01*
X7565489Y-15574364D01*
X7584537Y-15564840D01*
X7594060Y-15545793D01*
X7594060Y-15536269D01*
X7584537Y-15517221D01*
X7565489Y-15507697D01*
X7536918Y-15507697D01*
X7517870Y-15498174D01*
X7508346Y-15479126D01*
X7508346Y-15469602D01*
X7517870Y-15450554D01*
X7536918Y-15441031D01*
X7565489Y-15441031D01*
X7584537Y-15450554D01*
X7660727Y-15650554D02*
X7670251Y-15641031D01*
X7689299Y-15612459D01*
X7698822Y-15593412D01*
X7708346Y-15564840D01*
X7717870Y-15517221D01*
X7717870Y-15479126D01*
X7708346Y-15431507D01*
X7698822Y-15402935D01*
X7689299Y-15383888D01*
X7670251Y-15355316D01*
X7660727Y-15345793D01*
D14*
X2863822Y-15722888D02*
X2863822Y-15772888D01*
X2838822Y-15747888D02*
X2888822Y-15747888D01*
D11*
X3184537Y-15638364D02*
X3203584Y-15638364D01*
X3222632Y-15647888D01*
X3232156Y-15657412D01*
X3241680Y-15676459D01*
X3251203Y-15714554D01*
X3251203Y-15762174D01*
X3241680Y-15800269D01*
X3232156Y-15819316D01*
X3222632Y-15828840D01*
X3203584Y-15838364D01*
X3184537Y-15838364D01*
X3165489Y-15828840D01*
X3155965Y-15819316D01*
X3146441Y-15800269D01*
X3136918Y-15762174D01*
X3136918Y-15714554D01*
X3146441Y-15676459D01*
X3155965Y-15657412D01*
X3165489Y-15647888D01*
X3184537Y-15638364D01*
X3336918Y-15819316D02*
X3346441Y-15828840D01*
X3336918Y-15838364D01*
X3327394Y-15828840D01*
X3336918Y-15819316D01*
X3336918Y-15838364D01*
X3527394Y-15638364D02*
X3432156Y-15638364D01*
X3422632Y-15733602D01*
X3432156Y-15724078D01*
X3451203Y-15714554D01*
X3498822Y-15714554D01*
X3517870Y-15724078D01*
X3527394Y-15733602D01*
X3536918Y-15752650D01*
X3536918Y-15800269D01*
X3527394Y-15819316D01*
X3517870Y-15828840D01*
X3498822Y-15838364D01*
X3451203Y-15838364D01*
X3432156Y-15828840D01*
X3422632Y-15819316D01*
X3660727Y-15638364D02*
X3679775Y-15638364D01*
X3698822Y-15647888D01*
X3708346Y-15657412D01*
X3717870Y-15676459D01*
X3727394Y-15714554D01*
X3727394Y-15762174D01*
X3717870Y-15800269D01*
X3708346Y-15819316D01*
X3698822Y-15828840D01*
X3679775Y-15838364D01*
X3660727Y-15838364D01*
X3641680Y-15828840D01*
X3632156Y-15819316D01*
X3622632Y-15800269D01*
X3613108Y-15762174D01*
X3613108Y-15714554D01*
X3622632Y-15676459D01*
X3632156Y-15657412D01*
X3641680Y-15647888D01*
X3660727Y-15638364D01*
X3851203Y-15638364D02*
X3870251Y-15638364D01*
X3889299Y-15647888D01*
X3898822Y-15657412D01*
X3908346Y-15676459D01*
X3917870Y-15714554D01*
X3917870Y-15762174D01*
X3908346Y-15800269D01*
X3898822Y-15819316D01*
X3889299Y-15828840D01*
X3870251Y-15838364D01*
X3851203Y-15838364D01*
X3832156Y-15828840D01*
X3822632Y-15819316D01*
X3813108Y-15800269D01*
X3803584Y-15762174D01*
X3803584Y-15714554D01*
X3813108Y-15676459D01*
X3822632Y-15657412D01*
X3832156Y-15647888D01*
X3851203Y-15638364D01*
X4003584Y-15838364D02*
X4003584Y-15705031D01*
X4003584Y-15724078D02*
X4013108Y-15714554D01*
X4032156Y-15705031D01*
X4060727Y-15705031D01*
X4079775Y-15714554D01*
X4089299Y-15733602D01*
X4089299Y-15838364D01*
X4089299Y-15733602D02*
X4098822Y-15714554D01*
X4117870Y-15705031D01*
X4146441Y-15705031D01*
X4165489Y-15714554D01*
X4175013Y-15733602D01*
X4175013Y-15838364D01*
X4270251Y-15838364D02*
X4270251Y-15705031D01*
X4270251Y-15724078D02*
X4279775Y-15714554D01*
X4298823Y-15705031D01*
X4327394Y-15705031D01*
X4346442Y-15714554D01*
X4355965Y-15733602D01*
X4355965Y-15838364D01*
X4355965Y-15733602D02*
X4365489Y-15714554D01*
X4384537Y-15705031D01*
X4413108Y-15705031D01*
X4432156Y-15714554D01*
X4441680Y-15733602D01*
X4441680Y-15838364D01*
X4832156Y-15628840D02*
X4660727Y-15885983D01*
X5089299Y-15638364D02*
X5108346Y-15638364D01*
X5127394Y-15647888D01*
X5136918Y-15657412D01*
X5146442Y-15676459D01*
X5155965Y-15714554D01*
X5155965Y-15762174D01*
X5146442Y-15800269D01*
X5136918Y-15819316D01*
X5127394Y-15828840D01*
X5108346Y-15838364D01*
X5089299Y-15838364D01*
X5070251Y-15828840D01*
X5060727Y-15819316D01*
X5051203Y-15800269D01*
X5041680Y-15762174D01*
X5041680Y-15714554D01*
X5051203Y-15676459D01*
X5060727Y-15657412D01*
X5070251Y-15647888D01*
X5089299Y-15638364D01*
X5241680Y-15819316D02*
X5251203Y-15828840D01*
X5241680Y-15838364D01*
X5232156Y-15828840D01*
X5241680Y-15819316D01*
X5241680Y-15838364D01*
X5375013Y-15638364D02*
X5394061Y-15638364D01*
X5413108Y-15647888D01*
X5422632Y-15657412D01*
X5432156Y-15676459D01*
X5441680Y-15714554D01*
X5441680Y-15762174D01*
X5432156Y-15800269D01*
X5422632Y-15819316D01*
X5413108Y-15828840D01*
X5394061Y-15838364D01*
X5375013Y-15838364D01*
X5355965Y-15828840D01*
X5346442Y-15819316D01*
X5336918Y-15800269D01*
X5327394Y-15762174D01*
X5327394Y-15714554D01*
X5336918Y-15676459D01*
X5346442Y-15657412D01*
X5355965Y-15647888D01*
X5375013Y-15638364D01*
X5632156Y-15838364D02*
X5517870Y-15838364D01*
X5575013Y-15838364D02*
X5575013Y-15638364D01*
X5555965Y-15666935D01*
X5536918Y-15685983D01*
X5517870Y-15695507D01*
X5727394Y-15838364D02*
X5765489Y-15838364D01*
X5784537Y-15828840D01*
X5794060Y-15819316D01*
X5813108Y-15790745D01*
X5822632Y-15752650D01*
X5822632Y-15676459D01*
X5813108Y-15657412D01*
X5803584Y-15647888D01*
X5784537Y-15638364D01*
X5746441Y-15638364D01*
X5727394Y-15647888D01*
X5717870Y-15657412D01*
X5708346Y-15676459D01*
X5708346Y-15724078D01*
X5717870Y-15743126D01*
X5727394Y-15752650D01*
X5746441Y-15762174D01*
X5784537Y-15762174D01*
X5803584Y-15752650D01*
X5813108Y-15743126D01*
X5822632Y-15724078D01*
X5889299Y-15638364D02*
X6022632Y-15638364D01*
X5936918Y-15838364D01*
X6089299Y-15638364D02*
X6089299Y-15676459D01*
X6165489Y-15638364D02*
X6165489Y-15676459D01*
X6460727Y-15914554D02*
X6451203Y-15905031D01*
X6432156Y-15876459D01*
X6422632Y-15857412D01*
X6413108Y-15828840D01*
X6403584Y-15781221D01*
X6403584Y-15743126D01*
X6413108Y-15695507D01*
X6422632Y-15666935D01*
X6432156Y-15647888D01*
X6451203Y-15619316D01*
X6460727Y-15609793D01*
X6517870Y-15638364D02*
X6641680Y-15638364D01*
X6575013Y-15714554D01*
X6603584Y-15714554D01*
X6622632Y-15724078D01*
X6632156Y-15733602D01*
X6641680Y-15752650D01*
X6641680Y-15800269D01*
X6632156Y-15819316D01*
X6622632Y-15828840D01*
X6603584Y-15838364D01*
X6546441Y-15838364D01*
X6527394Y-15828840D01*
X6517870Y-15819316D01*
X6879775Y-15838364D02*
X6879775Y-15638364D01*
X6965489Y-15838364D02*
X6965489Y-15733602D01*
X6955965Y-15714554D01*
X6936918Y-15705031D01*
X6908346Y-15705031D01*
X6889299Y-15714554D01*
X6879775Y-15724078D01*
X7089299Y-15838364D02*
X7070251Y-15828840D01*
X7060727Y-15819316D01*
X7051203Y-15800269D01*
X7051203Y-15743126D01*
X7060727Y-15724078D01*
X7070251Y-15714554D01*
X7089299Y-15705031D01*
X7117870Y-15705031D01*
X7136918Y-15714554D01*
X7146441Y-15724078D01*
X7155965Y-15743126D01*
X7155965Y-15800269D01*
X7146441Y-15819316D01*
X7136918Y-15828840D01*
X7117870Y-15838364D01*
X7089299Y-15838364D01*
X7270251Y-15838364D02*
X7251203Y-15828840D01*
X7241680Y-15809793D01*
X7241680Y-15638364D01*
X7422632Y-15828840D02*
X7403584Y-15838364D01*
X7365489Y-15838364D01*
X7346441Y-15828840D01*
X7336918Y-15809793D01*
X7336918Y-15733602D01*
X7346441Y-15714554D01*
X7365489Y-15705031D01*
X7403584Y-15705031D01*
X7422632Y-15714554D01*
X7432156Y-15733602D01*
X7432156Y-15752650D01*
X7336918Y-15771697D01*
X7508346Y-15828840D02*
X7527394Y-15838364D01*
X7565489Y-15838364D01*
X7584537Y-15828840D01*
X7594060Y-15809793D01*
X7594060Y-15800269D01*
X7584537Y-15781221D01*
X7565489Y-15771697D01*
X7536918Y-15771697D01*
X7517870Y-15762174D01*
X7508346Y-15743126D01*
X7508346Y-15733602D01*
X7517870Y-15714554D01*
X7536918Y-15705031D01*
X7565489Y-15705031D01*
X7584537Y-15714554D01*
X7660727Y-15914554D02*
X7670251Y-15905031D01*
X7689299Y-15876459D01*
X7698822Y-15857412D01*
X7708346Y-15828840D01*
X7717870Y-15781221D01*
X7717870Y-15743126D01*
X7708346Y-15695507D01*
X7698822Y-15666935D01*
X7689299Y-15647888D01*
X7670251Y-15619316D01*
X7660727Y-15609793D01*
D15*
X2880036Y-16033101D02*
X2880036Y-15990674D01*
X2837609Y-15990674D01*
X2837609Y-16033101D01*
X2880036Y-16033101D01*
D11*
X3184537Y-15902364D02*
X3203584Y-15902364D01*
X3222632Y-15911888D01*
X3232156Y-15921412D01*
X3241680Y-15940459D01*
X3251203Y-15978554D01*
X3251203Y-16026174D01*
X3241680Y-16064269D01*
X3232156Y-16083316D01*
X3222632Y-16092840D01*
X3203584Y-16102364D01*
X3184537Y-16102364D01*
X3165489Y-16092840D01*
X3155965Y-16083316D01*
X3146441Y-16064269D01*
X3136918Y-16026174D01*
X3136918Y-15978554D01*
X3146441Y-15940459D01*
X3155965Y-15921412D01*
X3165489Y-15911888D01*
X3184537Y-15902364D01*
X3336918Y-16083316D02*
X3346441Y-16092840D01*
X3336918Y-16102364D01*
X3327394Y-16092840D01*
X3336918Y-16083316D01*
X3336918Y-16102364D01*
X3517870Y-15902364D02*
X3479775Y-15902364D01*
X3460727Y-15911888D01*
X3451203Y-15921412D01*
X3432156Y-15949983D01*
X3422632Y-15988078D01*
X3422632Y-16064269D01*
X3432156Y-16083316D01*
X3441680Y-16092840D01*
X3460727Y-16102364D01*
X3498822Y-16102364D01*
X3517870Y-16092840D01*
X3527394Y-16083316D01*
X3536918Y-16064269D01*
X3536918Y-16016650D01*
X3527394Y-15997602D01*
X3517870Y-15988078D01*
X3498822Y-15978554D01*
X3460727Y-15978554D01*
X3441680Y-15988078D01*
X3432156Y-15997602D01*
X3422632Y-16016650D01*
X3660727Y-15902364D02*
X3679775Y-15902364D01*
X3698822Y-15911888D01*
X3708346Y-15921412D01*
X3717870Y-15940459D01*
X3727394Y-15978554D01*
X3727394Y-16026174D01*
X3717870Y-16064269D01*
X3708346Y-16083316D01*
X3698822Y-16092840D01*
X3679775Y-16102364D01*
X3660727Y-16102364D01*
X3641680Y-16092840D01*
X3632156Y-16083316D01*
X3622632Y-16064269D01*
X3613108Y-16026174D01*
X3613108Y-15978554D01*
X3622632Y-15940459D01*
X3632156Y-15921412D01*
X3641680Y-15911888D01*
X3660727Y-15902364D01*
X3851203Y-15902364D02*
X3870251Y-15902364D01*
X3889299Y-15911888D01*
X3898822Y-15921412D01*
X3908346Y-15940459D01*
X3917870Y-15978554D01*
X3917870Y-16026174D01*
X3908346Y-16064269D01*
X3898822Y-16083316D01*
X3889299Y-16092840D01*
X3870251Y-16102364D01*
X3851203Y-16102364D01*
X3832156Y-16092840D01*
X3822632Y-16083316D01*
X3813108Y-16064269D01*
X3803584Y-16026174D01*
X3803584Y-15978554D01*
X3813108Y-15940459D01*
X3822632Y-15921412D01*
X3832156Y-15911888D01*
X3851203Y-15902364D01*
X4003584Y-16102364D02*
X4003584Y-15969031D01*
X4003584Y-15988078D02*
X4013108Y-15978554D01*
X4032156Y-15969031D01*
X4060727Y-15969031D01*
X4079775Y-15978554D01*
X4089299Y-15997602D01*
X4089299Y-16102364D01*
X4089299Y-15997602D02*
X4098822Y-15978554D01*
X4117870Y-15969031D01*
X4146441Y-15969031D01*
X4165489Y-15978554D01*
X4175013Y-15997602D01*
X4175013Y-16102364D01*
X4270251Y-16102364D02*
X4270251Y-15969031D01*
X4270251Y-15988078D02*
X4279775Y-15978554D01*
X4298823Y-15969031D01*
X4327394Y-15969031D01*
X4346442Y-15978554D01*
X4355965Y-15997602D01*
X4355965Y-16102364D01*
X4355965Y-15997602D02*
X4365489Y-15978554D01*
X4384537Y-15969031D01*
X4413108Y-15969031D01*
X4432156Y-15978554D01*
X4441680Y-15997602D01*
X4441680Y-16102364D01*
X4832156Y-15892840D02*
X4660727Y-16149983D01*
X5089299Y-15902364D02*
X5108346Y-15902364D01*
X5127394Y-15911888D01*
X5136918Y-15921412D01*
X5146442Y-15940459D01*
X5155965Y-15978554D01*
X5155965Y-16026174D01*
X5146442Y-16064269D01*
X5136918Y-16083316D01*
X5127394Y-16092840D01*
X5108346Y-16102364D01*
X5089299Y-16102364D01*
X5070251Y-16092840D01*
X5060727Y-16083316D01*
X5051203Y-16064269D01*
X5041680Y-16026174D01*
X5041680Y-15978554D01*
X5051203Y-15940459D01*
X5060727Y-15921412D01*
X5070251Y-15911888D01*
X5089299Y-15902364D01*
X5241680Y-16083316D02*
X5251203Y-16092840D01*
X5241680Y-16102364D01*
X5232156Y-16092840D01*
X5241680Y-16083316D01*
X5241680Y-16102364D01*
X5375013Y-15902364D02*
X5394061Y-15902364D01*
X5413108Y-15911888D01*
X5422632Y-15921412D01*
X5432156Y-15940459D01*
X5441680Y-15978554D01*
X5441680Y-16026174D01*
X5432156Y-16064269D01*
X5422632Y-16083316D01*
X5413108Y-16092840D01*
X5394061Y-16102364D01*
X5375013Y-16102364D01*
X5355965Y-16092840D01*
X5346442Y-16083316D01*
X5336918Y-16064269D01*
X5327394Y-16026174D01*
X5327394Y-15978554D01*
X5336918Y-15940459D01*
X5346442Y-15921412D01*
X5355965Y-15911888D01*
X5375013Y-15902364D01*
X5517870Y-15921412D02*
X5527394Y-15911888D01*
X5546442Y-15902364D01*
X5594060Y-15902364D01*
X5613108Y-15911888D01*
X5622632Y-15921412D01*
X5632156Y-15940459D01*
X5632156Y-15959507D01*
X5622632Y-15988078D01*
X5508346Y-16102364D01*
X5632156Y-16102364D01*
X5698822Y-15902364D02*
X5822632Y-15902364D01*
X5755965Y-15978554D01*
X5784537Y-15978554D01*
X5803584Y-15988078D01*
X5813108Y-15997602D01*
X5822632Y-16016650D01*
X5822632Y-16064269D01*
X5813108Y-16083316D01*
X5803584Y-16092840D01*
X5784537Y-16102364D01*
X5727394Y-16102364D01*
X5708346Y-16092840D01*
X5698822Y-16083316D01*
X5994060Y-15902364D02*
X5955965Y-15902364D01*
X5936918Y-15911888D01*
X5927394Y-15921412D01*
X5908346Y-15949983D01*
X5898822Y-15988078D01*
X5898822Y-16064269D01*
X5908346Y-16083316D01*
X5917870Y-16092840D01*
X5936918Y-16102364D01*
X5975013Y-16102364D01*
X5994060Y-16092840D01*
X6003584Y-16083316D01*
X6013108Y-16064269D01*
X6013108Y-16016650D01*
X6003584Y-15997602D01*
X5994060Y-15988078D01*
X5975013Y-15978554D01*
X5936918Y-15978554D01*
X5917870Y-15988078D01*
X5908346Y-15997602D01*
X5898822Y-16016650D01*
X6089299Y-15902364D02*
X6089299Y-15940459D01*
X6165489Y-15902364D02*
X6165489Y-15940459D01*
X6460727Y-16178554D02*
X6451203Y-16169031D01*
X6432156Y-16140459D01*
X6422632Y-16121412D01*
X6413108Y-16092840D01*
X6403584Y-16045221D01*
X6403584Y-16007126D01*
X6413108Y-15959507D01*
X6422632Y-15930935D01*
X6432156Y-15911888D01*
X6451203Y-15883316D01*
X6460727Y-15873793D01*
X6527394Y-15921412D02*
X6536918Y-15911888D01*
X6555965Y-15902364D01*
X6603584Y-15902364D01*
X6622632Y-15911888D01*
X6632156Y-15921412D01*
X6641680Y-15940459D01*
X6641680Y-15959507D01*
X6632156Y-15988078D01*
X6517870Y-16102364D01*
X6641680Y-16102364D01*
X6879775Y-16102364D02*
X6879775Y-15902364D01*
X6965489Y-16102364D02*
X6965489Y-15997602D01*
X6955965Y-15978554D01*
X6936918Y-15969031D01*
X6908346Y-15969031D01*
X6889299Y-15978554D01*
X6879775Y-15988078D01*
X7089299Y-16102364D02*
X7070251Y-16092840D01*
X7060727Y-16083316D01*
X7051203Y-16064269D01*
X7051203Y-16007126D01*
X7060727Y-15988078D01*
X7070251Y-15978554D01*
X7089299Y-15969031D01*
X7117870Y-15969031D01*
X7136918Y-15978554D01*
X7146441Y-15988078D01*
X7155965Y-16007126D01*
X7155965Y-16064269D01*
X7146441Y-16083316D01*
X7136918Y-16092840D01*
X7117870Y-16102364D01*
X7089299Y-16102364D01*
X7270251Y-16102364D02*
X7251203Y-16092840D01*
X7241680Y-16073793D01*
X7241680Y-15902364D01*
X7422632Y-16092840D02*
X7403584Y-16102364D01*
X7365489Y-16102364D01*
X7346441Y-16092840D01*
X7336918Y-16073793D01*
X7336918Y-15997602D01*
X7346441Y-15978554D01*
X7365489Y-15969031D01*
X7403584Y-15969031D01*
X7422632Y-15978554D01*
X7432156Y-15997602D01*
X7432156Y-16016650D01*
X7336918Y-16035697D01*
X7508346Y-16092840D02*
X7527394Y-16102364D01*
X7565489Y-16102364D01*
X7584537Y-16092840D01*
X7594060Y-16073793D01*
X7594060Y-16064269D01*
X7584537Y-16045221D01*
X7565489Y-16035697D01*
X7536918Y-16035697D01*
X7517870Y-16026174D01*
X7508346Y-16007126D01*
X7508346Y-15997602D01*
X7517870Y-15978554D01*
X7536918Y-15969031D01*
X7565489Y-15969031D01*
X7584537Y-15978554D01*
X7832156Y-16026174D02*
X7984537Y-16026174D01*
X7908346Y-16102364D02*
X7908346Y-15949983D01*
X8317870Y-15969031D02*
X8317870Y-16102364D01*
X8270251Y-15892840D02*
X8222632Y-16035697D01*
X8346441Y-16035697D01*
X8565489Y-16092840D02*
X8584537Y-16102364D01*
X8622632Y-16102364D01*
X8641680Y-16092840D01*
X8651203Y-16073793D01*
X8651203Y-16064269D01*
X8641680Y-16045221D01*
X8622632Y-16035697D01*
X8594061Y-16035697D01*
X8575013Y-16026174D01*
X8565489Y-16007126D01*
X8565489Y-15997602D01*
X8575013Y-15978554D01*
X8594061Y-15969031D01*
X8622632Y-15969031D01*
X8641680Y-15978554D01*
X8765489Y-16102364D02*
X8746442Y-16092840D01*
X8736918Y-16073793D01*
X8736918Y-15902364D01*
X8870251Y-16102364D02*
X8851203Y-16092840D01*
X8841680Y-16083316D01*
X8832156Y-16064269D01*
X8832156Y-16007126D01*
X8841680Y-15988078D01*
X8851203Y-15978554D01*
X8870251Y-15969031D01*
X8898822Y-15969031D01*
X8917870Y-15978554D01*
X8927394Y-15988078D01*
X8936918Y-16007126D01*
X8936918Y-16064269D01*
X8927394Y-16083316D01*
X8917870Y-16092840D01*
X8898822Y-16102364D01*
X8870251Y-16102364D01*
X8994061Y-15969031D02*
X9070251Y-15969031D01*
X9022632Y-15902364D02*
X9022632Y-16073793D01*
X9032156Y-16092840D01*
X9051203Y-16102364D01*
X9070251Y-16102364D01*
X9127394Y-16092840D02*
X9146442Y-16102364D01*
X9184537Y-16102364D01*
X9203584Y-16092840D01*
X9213108Y-16073793D01*
X9213108Y-16064269D01*
X9203584Y-16045221D01*
X9184537Y-16035697D01*
X9155965Y-16035697D01*
X9136918Y-16026174D01*
X9127394Y-16007126D01*
X9127394Y-15997602D01*
X9136918Y-15978554D01*
X9155965Y-15969031D01*
X9184537Y-15969031D01*
X9203584Y-15978554D01*
X9279775Y-16178554D02*
X9289299Y-16169031D01*
X9308346Y-16140459D01*
X9317870Y-16121412D01*
X9327394Y-16092840D01*
X9336918Y-16045221D01*
X9336918Y-16007126D01*
X9327394Y-15959507D01*
X9317870Y-15930935D01*
X9308346Y-15911888D01*
X9289299Y-15883316D01*
X9279775Y-15873793D01*
D16*
X2853822Y-16310888D02*
X2888822Y-16275888D01*
X2853822Y-16240888D01*
X2818822Y-16275888D01*
X2853822Y-16310888D01*
D11*
X3184537Y-16166364D02*
X3203584Y-16166364D01*
X3222632Y-16175888D01*
X3232156Y-16185412D01*
X3241680Y-16204459D01*
X3251203Y-16242554D01*
X3251203Y-16290174D01*
X3241680Y-16328269D01*
X3232156Y-16347316D01*
X3222632Y-16356840D01*
X3203584Y-16366364D01*
X3184537Y-16366364D01*
X3165489Y-16356840D01*
X3155965Y-16347316D01*
X3146441Y-16328269D01*
X3136918Y-16290174D01*
X3136918Y-16242554D01*
X3146441Y-16204459D01*
X3155965Y-16185412D01*
X3165489Y-16175888D01*
X3184537Y-16166364D01*
X3336918Y-16347316D02*
X3346441Y-16356840D01*
X3336918Y-16366364D01*
X3327394Y-16356840D01*
X3336918Y-16347316D01*
X3336918Y-16366364D01*
X3413108Y-16166364D02*
X3546441Y-16166364D01*
X3460727Y-16366364D01*
X3660727Y-16166364D02*
X3679775Y-16166364D01*
X3698822Y-16175888D01*
X3708346Y-16185412D01*
X3717870Y-16204459D01*
X3727394Y-16242554D01*
X3727394Y-16290174D01*
X3717870Y-16328269D01*
X3708346Y-16347316D01*
X3698822Y-16356840D01*
X3679775Y-16366364D01*
X3660727Y-16366364D01*
X3641680Y-16356840D01*
X3632156Y-16347316D01*
X3622632Y-16328269D01*
X3613108Y-16290174D01*
X3613108Y-16242554D01*
X3622632Y-16204459D01*
X3632156Y-16185412D01*
X3641680Y-16175888D01*
X3660727Y-16166364D01*
X3851203Y-16166364D02*
X3870251Y-16166364D01*
X3889299Y-16175888D01*
X3898822Y-16185412D01*
X3908346Y-16204459D01*
X3917870Y-16242554D01*
X3917870Y-16290174D01*
X3908346Y-16328269D01*
X3898822Y-16347316D01*
X3889299Y-16356840D01*
X3870251Y-16366364D01*
X3851203Y-16366364D01*
X3832156Y-16356840D01*
X3822632Y-16347316D01*
X3813108Y-16328269D01*
X3803584Y-16290174D01*
X3803584Y-16242554D01*
X3813108Y-16204459D01*
X3822632Y-16185412D01*
X3832156Y-16175888D01*
X3851203Y-16166364D01*
X4003584Y-16366364D02*
X4003584Y-16233031D01*
X4003584Y-16252078D02*
X4013108Y-16242554D01*
X4032156Y-16233031D01*
X4060727Y-16233031D01*
X4079775Y-16242554D01*
X4089299Y-16261602D01*
X4089299Y-16366364D01*
X4089299Y-16261602D02*
X4098822Y-16242554D01*
X4117870Y-16233031D01*
X4146441Y-16233031D01*
X4165489Y-16242554D01*
X4175013Y-16261602D01*
X4175013Y-16366364D01*
X4270251Y-16366364D02*
X4270251Y-16233031D01*
X4270251Y-16252078D02*
X4279775Y-16242554D01*
X4298823Y-16233031D01*
X4327394Y-16233031D01*
X4346442Y-16242554D01*
X4355965Y-16261602D01*
X4355965Y-16366364D01*
X4355965Y-16261602D02*
X4365489Y-16242554D01*
X4384537Y-16233031D01*
X4413108Y-16233031D01*
X4432156Y-16242554D01*
X4441680Y-16261602D01*
X4441680Y-16366364D01*
X4832156Y-16156840D02*
X4660727Y-16413983D01*
X5089299Y-16166364D02*
X5108346Y-16166364D01*
X5127394Y-16175888D01*
X5136918Y-16185412D01*
X5146442Y-16204459D01*
X5155965Y-16242554D01*
X5155965Y-16290174D01*
X5146442Y-16328269D01*
X5136918Y-16347316D01*
X5127394Y-16356840D01*
X5108346Y-16366364D01*
X5089299Y-16366364D01*
X5070251Y-16356840D01*
X5060727Y-16347316D01*
X5051203Y-16328269D01*
X5041680Y-16290174D01*
X5041680Y-16242554D01*
X5051203Y-16204459D01*
X5060727Y-16185412D01*
X5070251Y-16175888D01*
X5089299Y-16166364D01*
X5241680Y-16347316D02*
X5251203Y-16356840D01*
X5241680Y-16366364D01*
X5232156Y-16356840D01*
X5241680Y-16347316D01*
X5241680Y-16366364D01*
X5375013Y-16166364D02*
X5394061Y-16166364D01*
X5413108Y-16175888D01*
X5422632Y-16185412D01*
X5432156Y-16204459D01*
X5441680Y-16242554D01*
X5441680Y-16290174D01*
X5432156Y-16328269D01*
X5422632Y-16347316D01*
X5413108Y-16356840D01*
X5394061Y-16366364D01*
X5375013Y-16366364D01*
X5355965Y-16356840D01*
X5346442Y-16347316D01*
X5336918Y-16328269D01*
X5327394Y-16290174D01*
X5327394Y-16242554D01*
X5336918Y-16204459D01*
X5346442Y-16185412D01*
X5355965Y-16175888D01*
X5375013Y-16166364D01*
X5517870Y-16185412D02*
X5527394Y-16175888D01*
X5546442Y-16166364D01*
X5594060Y-16166364D01*
X5613108Y-16175888D01*
X5622632Y-16185412D01*
X5632156Y-16204459D01*
X5632156Y-16223507D01*
X5622632Y-16252078D01*
X5508346Y-16366364D01*
X5632156Y-16366364D01*
X5698822Y-16166364D02*
X5832156Y-16166364D01*
X5746441Y-16366364D01*
X5994060Y-16166364D02*
X5955965Y-16166364D01*
X5936918Y-16175888D01*
X5927394Y-16185412D01*
X5908346Y-16213983D01*
X5898822Y-16252078D01*
X5898822Y-16328269D01*
X5908346Y-16347316D01*
X5917870Y-16356840D01*
X5936918Y-16366364D01*
X5975013Y-16366364D01*
X5994060Y-16356840D01*
X6003584Y-16347316D01*
X6013108Y-16328269D01*
X6013108Y-16280650D01*
X6003584Y-16261602D01*
X5994060Y-16252078D01*
X5975013Y-16242554D01*
X5936918Y-16242554D01*
X5917870Y-16252078D01*
X5908346Y-16261602D01*
X5898822Y-16280650D01*
X6089299Y-16166364D02*
X6089299Y-16204459D01*
X6165489Y-16166364D02*
X6165489Y-16204459D01*
X6460727Y-16442554D02*
X6451203Y-16433031D01*
X6432156Y-16404459D01*
X6422632Y-16385412D01*
X6413108Y-16356840D01*
X6403584Y-16309221D01*
X6403584Y-16271126D01*
X6413108Y-16223507D01*
X6422632Y-16194935D01*
X6432156Y-16175888D01*
X6451203Y-16147316D01*
X6460727Y-16137793D01*
X6517870Y-16166364D02*
X6641680Y-16166364D01*
X6575013Y-16242554D01*
X6603584Y-16242554D01*
X6622632Y-16252078D01*
X6632156Y-16261602D01*
X6641680Y-16280650D01*
X6641680Y-16328269D01*
X6632156Y-16347316D01*
X6622632Y-16356840D01*
X6603584Y-16366364D01*
X6546441Y-16366364D01*
X6527394Y-16356840D01*
X6517870Y-16347316D01*
X6879775Y-16366364D02*
X6879775Y-16166364D01*
X6965489Y-16366364D02*
X6965489Y-16261602D01*
X6955965Y-16242554D01*
X6936918Y-16233031D01*
X6908346Y-16233031D01*
X6889299Y-16242554D01*
X6879775Y-16252078D01*
X7089299Y-16366364D02*
X7070251Y-16356840D01*
X7060727Y-16347316D01*
X7051203Y-16328269D01*
X7051203Y-16271126D01*
X7060727Y-16252078D01*
X7070251Y-16242554D01*
X7089299Y-16233031D01*
X7117870Y-16233031D01*
X7136918Y-16242554D01*
X7146441Y-16252078D01*
X7155965Y-16271126D01*
X7155965Y-16328269D01*
X7146441Y-16347316D01*
X7136918Y-16356840D01*
X7117870Y-16366364D01*
X7089299Y-16366364D01*
X7270251Y-16366364D02*
X7251203Y-16356840D01*
X7241680Y-16337793D01*
X7241680Y-16166364D01*
X7422632Y-16356840D02*
X7403584Y-16366364D01*
X7365489Y-16366364D01*
X7346441Y-16356840D01*
X7336918Y-16337793D01*
X7336918Y-16261602D01*
X7346441Y-16242554D01*
X7365489Y-16233031D01*
X7403584Y-16233031D01*
X7422632Y-16242554D01*
X7432156Y-16261602D01*
X7432156Y-16280650D01*
X7336918Y-16299697D01*
X7508346Y-16356840D02*
X7527394Y-16366364D01*
X7565489Y-16366364D01*
X7584537Y-16356840D01*
X7594060Y-16337793D01*
X7594060Y-16328269D01*
X7584537Y-16309221D01*
X7565489Y-16299697D01*
X7536918Y-16299697D01*
X7517870Y-16290174D01*
X7508346Y-16271126D01*
X7508346Y-16261602D01*
X7517870Y-16242554D01*
X7536918Y-16233031D01*
X7565489Y-16233031D01*
X7584537Y-16242554D01*
X7660727Y-16442554D02*
X7670251Y-16433031D01*
X7689299Y-16404459D01*
X7698822Y-16385412D01*
X7708346Y-16356840D01*
X7717870Y-16309221D01*
X7717870Y-16271126D01*
X7708346Y-16223507D01*
X7698822Y-16194935D01*
X7689299Y-16175888D01*
X7670251Y-16147316D01*
X7660727Y-16137793D01*
X2688823Y-16439888D02*
X2888822Y-16639888D01*
X2888822Y-16439888D02*
X2688823Y-16639888D01*
X2888822Y-16539888D02*
G75*
G03*
X2888822Y-16539888I-100000J0D01*
G01*
X3136918Y-16449412D02*
X3146441Y-16439888D01*
X3165489Y-16430364D01*
X3213108Y-16430364D01*
X3232156Y-16439888D01*
X3241680Y-16449412D01*
X3251203Y-16468459D01*
X3251203Y-16487507D01*
X3241680Y-16516078D01*
X3127394Y-16630364D01*
X3251203Y-16630364D01*
X3336918Y-16611316D02*
X3346441Y-16620840D01*
X3336918Y-16630364D01*
X3327394Y-16620840D01*
X3336918Y-16611316D01*
X3336918Y-16630364D01*
X3422632Y-16449412D02*
X3432156Y-16439888D01*
X3451203Y-16430364D01*
X3498822Y-16430364D01*
X3517870Y-16439888D01*
X3527394Y-16449412D01*
X3536918Y-16468459D01*
X3536918Y-16487507D01*
X3527394Y-16516078D01*
X3413108Y-16630364D01*
X3536918Y-16630364D01*
X3660727Y-16430364D02*
X3679775Y-16430364D01*
X3698822Y-16439888D01*
X3708346Y-16449412D01*
X3717870Y-16468459D01*
X3727394Y-16506554D01*
X3727394Y-16554174D01*
X3717870Y-16592269D01*
X3708346Y-16611316D01*
X3698822Y-16620840D01*
X3679775Y-16630364D01*
X3660727Y-16630364D01*
X3641680Y-16620840D01*
X3632156Y-16611316D01*
X3622632Y-16592269D01*
X3613108Y-16554174D01*
X3613108Y-16506554D01*
X3622632Y-16468459D01*
X3632156Y-16449412D01*
X3641680Y-16439888D01*
X3660727Y-16430364D01*
X3851203Y-16430364D02*
X3870251Y-16430364D01*
X3889299Y-16439888D01*
X3898822Y-16449412D01*
X3908346Y-16468459D01*
X3917870Y-16506554D01*
X3917870Y-16554174D01*
X3908346Y-16592269D01*
X3898822Y-16611316D01*
X3889299Y-16620840D01*
X3870251Y-16630364D01*
X3851203Y-16630364D01*
X3832156Y-16620840D01*
X3822632Y-16611316D01*
X3813108Y-16592269D01*
X3803584Y-16554174D01*
X3803584Y-16506554D01*
X3813108Y-16468459D01*
X3822632Y-16449412D01*
X3832156Y-16439888D01*
X3851203Y-16430364D01*
X4003584Y-16630364D02*
X4003584Y-16497031D01*
X4003584Y-16516078D02*
X4013108Y-16506554D01*
X4032156Y-16497031D01*
X4060727Y-16497031D01*
X4079775Y-16506554D01*
X4089299Y-16525602D01*
X4089299Y-16630364D01*
X4089299Y-16525602D02*
X4098822Y-16506554D01*
X4117870Y-16497031D01*
X4146441Y-16497031D01*
X4165489Y-16506554D01*
X4175013Y-16525602D01*
X4175013Y-16630364D01*
X4270251Y-16630364D02*
X4270251Y-16497031D01*
X4270251Y-16516078D02*
X4279775Y-16506554D01*
X4298823Y-16497031D01*
X4327394Y-16497031D01*
X4346442Y-16506554D01*
X4355965Y-16525602D01*
X4355965Y-16630364D01*
X4355965Y-16525602D02*
X4365489Y-16506554D01*
X4384537Y-16497031D01*
X4413108Y-16497031D01*
X4432156Y-16506554D01*
X4441680Y-16525602D01*
X4441680Y-16630364D01*
X4832156Y-16420840D02*
X4660727Y-16677983D01*
X5089299Y-16430364D02*
X5108346Y-16430364D01*
X5127394Y-16439888D01*
X5136918Y-16449412D01*
X5146442Y-16468459D01*
X5155965Y-16506554D01*
X5155965Y-16554174D01*
X5146442Y-16592269D01*
X5136918Y-16611316D01*
X5127394Y-16620840D01*
X5108346Y-16630364D01*
X5089299Y-16630364D01*
X5070251Y-16620840D01*
X5060727Y-16611316D01*
X5051203Y-16592269D01*
X5041680Y-16554174D01*
X5041680Y-16506554D01*
X5051203Y-16468459D01*
X5060727Y-16449412D01*
X5070251Y-16439888D01*
X5089299Y-16430364D01*
X5241680Y-16611316D02*
X5251203Y-16620840D01*
X5241680Y-16630364D01*
X5232156Y-16620840D01*
X5241680Y-16611316D01*
X5241680Y-16630364D01*
X5375013Y-16430364D02*
X5394061Y-16430364D01*
X5413108Y-16439888D01*
X5422632Y-16449412D01*
X5432156Y-16468459D01*
X5441680Y-16506554D01*
X5441680Y-16554174D01*
X5432156Y-16592269D01*
X5422632Y-16611316D01*
X5413108Y-16620840D01*
X5394061Y-16630364D01*
X5375013Y-16630364D01*
X5355965Y-16620840D01*
X5346442Y-16611316D01*
X5336918Y-16592269D01*
X5327394Y-16554174D01*
X5327394Y-16506554D01*
X5336918Y-16468459D01*
X5346442Y-16449412D01*
X5355965Y-16439888D01*
X5375013Y-16430364D01*
X5555965Y-16516078D02*
X5536918Y-16506554D01*
X5527394Y-16497031D01*
X5517870Y-16477983D01*
X5517870Y-16468459D01*
X5527394Y-16449412D01*
X5536918Y-16439888D01*
X5555965Y-16430364D01*
X5594060Y-16430364D01*
X5613108Y-16439888D01*
X5622632Y-16449412D01*
X5632156Y-16468459D01*
X5632156Y-16477983D01*
X5622632Y-16497031D01*
X5613108Y-16506554D01*
X5594060Y-16516078D01*
X5555965Y-16516078D01*
X5536918Y-16525602D01*
X5527394Y-16535126D01*
X5517870Y-16554174D01*
X5517870Y-16592269D01*
X5527394Y-16611316D01*
X5536918Y-16620840D01*
X5555965Y-16630364D01*
X5594060Y-16630364D01*
X5613108Y-16620840D01*
X5622632Y-16611316D01*
X5632156Y-16592269D01*
X5632156Y-16554174D01*
X5622632Y-16535126D01*
X5613108Y-16525602D01*
X5594060Y-16516078D01*
X5803584Y-16430364D02*
X5765489Y-16430364D01*
X5746441Y-16439888D01*
X5736918Y-16449412D01*
X5717870Y-16477983D01*
X5708346Y-16516078D01*
X5708346Y-16592269D01*
X5717870Y-16611316D01*
X5727394Y-16620840D01*
X5746441Y-16630364D01*
X5784537Y-16630364D01*
X5803584Y-16620840D01*
X5813108Y-16611316D01*
X5822632Y-16592269D01*
X5822632Y-16544650D01*
X5813108Y-16525602D01*
X5803584Y-16516078D01*
X5784537Y-16506554D01*
X5746441Y-16506554D01*
X5727394Y-16516078D01*
X5717870Y-16525602D01*
X5708346Y-16544650D01*
X5994060Y-16430364D02*
X5955965Y-16430364D01*
X5936918Y-16439888D01*
X5927394Y-16449412D01*
X5908346Y-16477983D01*
X5898822Y-16516078D01*
X5898822Y-16592269D01*
X5908346Y-16611316D01*
X5917870Y-16620840D01*
X5936918Y-16630364D01*
X5975013Y-16630364D01*
X5994060Y-16620840D01*
X6003584Y-16611316D01*
X6013108Y-16592269D01*
X6013108Y-16544650D01*
X6003584Y-16525602D01*
X5994060Y-16516078D01*
X5975013Y-16506554D01*
X5936918Y-16506554D01*
X5917870Y-16516078D01*
X5908346Y-16525602D01*
X5898822Y-16544650D01*
X6089299Y-16430364D02*
X6089299Y-16468459D01*
X6165489Y-16430364D02*
X6165489Y-16468459D01*
X6460727Y-16706554D02*
X6451203Y-16697031D01*
X6432156Y-16668459D01*
X6422632Y-16649412D01*
X6413108Y-16620840D01*
X6403584Y-16573221D01*
X6403584Y-16535126D01*
X6413108Y-16487507D01*
X6422632Y-16458935D01*
X6432156Y-16439888D01*
X6451203Y-16411316D01*
X6460727Y-16401793D01*
X6575013Y-16430364D02*
X6594060Y-16430364D01*
X6613108Y-16439888D01*
X6622632Y-16449412D01*
X6632156Y-16468459D01*
X6641680Y-16506554D01*
X6641680Y-16554174D01*
X6632156Y-16592269D01*
X6622632Y-16611316D01*
X6613108Y-16620840D01*
X6594060Y-16630364D01*
X6575013Y-16630364D01*
X6555965Y-16620840D01*
X6546441Y-16611316D01*
X6536918Y-16592269D01*
X6527394Y-16554174D01*
X6527394Y-16506554D01*
X6536918Y-16468459D01*
X6546441Y-16449412D01*
X6555965Y-16439888D01*
X6575013Y-16430364D01*
X6879775Y-16630364D02*
X6879775Y-16430364D01*
X6965489Y-16630364D02*
X6965489Y-16525602D01*
X6955965Y-16506554D01*
X6936918Y-16497031D01*
X6908346Y-16497031D01*
X6889299Y-16506554D01*
X6879775Y-16516078D01*
X7089299Y-16630364D02*
X7070251Y-16620840D01*
X7060727Y-16611316D01*
X7051203Y-16592269D01*
X7051203Y-16535126D01*
X7060727Y-16516078D01*
X7070251Y-16506554D01*
X7089299Y-16497031D01*
X7117870Y-16497031D01*
X7136918Y-16506554D01*
X7146441Y-16516078D01*
X7155965Y-16535126D01*
X7155965Y-16592269D01*
X7146441Y-16611316D01*
X7136918Y-16620840D01*
X7117870Y-16630364D01*
X7089299Y-16630364D01*
X7270251Y-16630364D02*
X7251203Y-16620840D01*
X7241680Y-16601793D01*
X7241680Y-16430364D01*
X7422632Y-16620840D02*
X7403584Y-16630364D01*
X7365489Y-16630364D01*
X7346441Y-16620840D01*
X7336918Y-16601793D01*
X7336918Y-16525602D01*
X7346441Y-16506554D01*
X7365489Y-16497031D01*
X7403584Y-16497031D01*
X7422632Y-16506554D01*
X7432156Y-16525602D01*
X7432156Y-16544650D01*
X7336918Y-16563697D01*
X7508346Y-16620840D02*
X7527394Y-16630364D01*
X7565489Y-16630364D01*
X7584537Y-16620840D01*
X7594060Y-16601793D01*
X7594060Y-16592269D01*
X7584537Y-16573221D01*
X7565489Y-16563697D01*
X7536918Y-16563697D01*
X7517870Y-16554174D01*
X7508346Y-16535126D01*
X7508346Y-16525602D01*
X7517870Y-16506554D01*
X7536918Y-16497031D01*
X7565489Y-16497031D01*
X7584537Y-16506554D01*
X7832156Y-16554174D02*
X7984537Y-16554174D01*
X7908346Y-16630364D02*
X7908346Y-16477983D01*
X8327394Y-16430364D02*
X8232156Y-16430364D01*
X8222632Y-16525602D01*
X8232156Y-16516078D01*
X8251203Y-16506554D01*
X8298822Y-16506554D01*
X8317870Y-16516078D01*
X8327394Y-16525602D01*
X8336918Y-16544650D01*
X8336918Y-16592269D01*
X8327394Y-16611316D01*
X8317870Y-16620840D01*
X8298822Y-16630364D01*
X8251203Y-16630364D01*
X8232156Y-16620840D01*
X8222632Y-16611316D01*
X8565489Y-16620840D02*
X8584537Y-16630364D01*
X8622632Y-16630364D01*
X8641680Y-16620840D01*
X8651203Y-16601793D01*
X8651203Y-16592269D01*
X8641680Y-16573221D01*
X8622632Y-16563697D01*
X8594061Y-16563697D01*
X8575013Y-16554174D01*
X8565489Y-16535126D01*
X8565489Y-16525602D01*
X8575013Y-16506554D01*
X8594061Y-16497031D01*
X8622632Y-16497031D01*
X8641680Y-16506554D01*
X8765489Y-16630364D02*
X8746442Y-16620840D01*
X8736918Y-16601793D01*
X8736918Y-16430364D01*
X8870251Y-16630364D02*
X8851203Y-16620840D01*
X8841680Y-16611316D01*
X8832156Y-16592269D01*
X8832156Y-16535126D01*
X8841680Y-16516078D01*
X8851203Y-16506554D01*
X8870251Y-16497031D01*
X8898822Y-16497031D01*
X8917870Y-16506554D01*
X8927394Y-16516078D01*
X8936918Y-16535126D01*
X8936918Y-16592269D01*
X8927394Y-16611316D01*
X8917870Y-16620840D01*
X8898822Y-16630364D01*
X8870251Y-16630364D01*
X8994061Y-16497031D02*
X9070251Y-16497031D01*
X9022632Y-16430364D02*
X9022632Y-16601793D01*
X9032156Y-16620840D01*
X9051203Y-16630364D01*
X9070251Y-16630364D01*
X9127394Y-16620840D02*
X9146442Y-16630364D01*
X9184537Y-16630364D01*
X9203584Y-16620840D01*
X9213108Y-16601793D01*
X9213108Y-16592269D01*
X9203584Y-16573221D01*
X9184537Y-16563697D01*
X9155965Y-16563697D01*
X9136918Y-16554174D01*
X9127394Y-16535126D01*
X9127394Y-16525602D01*
X9136918Y-16506554D01*
X9155965Y-16497031D01*
X9184537Y-16497031D01*
X9203584Y-16506554D01*
X9279775Y-16706554D02*
X9289299Y-16697031D01*
X9308346Y-16668459D01*
X9317870Y-16649412D01*
X9327394Y-16620840D01*
X9336918Y-16573221D01*
X9336918Y-16535126D01*
X9327394Y-16487507D01*
X9317870Y-16458935D01*
X9308346Y-16439888D01*
X9289299Y-16411316D01*
X9279775Y-16401793D01*
M02*
