%FSLAX45Y45*%
G04 Gerber Fmt 4.5, Leading zero omitted, Abs format (unit mm)*
G04 Created by KiCad (PCBNEW (6.0.4)) date 2022-10-29 20:59:10*
%MOMM*%
%LPD*%
G01*
G04 APERTURE LIST*
%TA.AperFunction,Profile*%
%ADD10C,0.200000*%
%TD*%
%ADD11C,0.200000*%
%ADD12C,0.065000*%
%ADD13C,0.115200*%
%ADD14C,0.175000*%
%ADD15C,0.220000*%
%ADD16C,0.300000*%
%ADD17C,0.304800*%
%ADD18C,0.398780*%
G04 APERTURE END LIST*
D10*
X30998471Y-10913906D02*
X31368822Y-10913906D01*
X2898822Y-10664268D02*
X2898822Y-5374263D01*
X27199012Y-5149263D02*
X21893823Y-5149888D01*
X18974883Y-5149263D02*
X15292762Y-5149263D01*
X30583477Y-14569263D02*
X26594883Y-14569263D01*
X8497383Y-14569263D02*
X4508789Y-14569263D01*
X30998471Y-10663906D02*
X31368822Y-10663906D01*
X3123822Y-5149263D02*
G75*
G03*
X2898822Y-5374263I1J-225001D01*
G01*
X15292762Y-5149263D02*
X12373822Y-5149888D01*
X18974883Y-5149263D02*
X21893823Y-5149888D01*
X30998471Y-10663914D02*
G75*
G03*
X30998471Y-10913906I-1J-124996D01*
G01*
X31368822Y-14344263D02*
X31368822Y-10913906D01*
X3269942Y-10664268D02*
X2898822Y-10664268D01*
X3269942Y-10914269D02*
G75*
G03*
X3269942Y-10664268I0J125001D01*
G01*
X2898822Y-14344263D02*
X2898822Y-10914268D01*
X30583477Y-5149263D02*
X27199012Y-5149263D01*
X31143822Y-14569262D02*
G75*
G03*
X31368822Y-14344263I8J224993D01*
G01*
X6244012Y-5149263D02*
X3123822Y-5149263D01*
X30583477Y-5149263D02*
X31143822Y-5149263D01*
X21873823Y-14569888D02*
X12393822Y-14569888D01*
X12393822Y-14569888D02*
X8497383Y-14569263D01*
X2898817Y-14344263D02*
G75*
G03*
X3123822Y-14569263I225003J3D01*
G01*
X21873823Y-14569888D02*
X26594883Y-14569263D01*
X12373822Y-5149888D02*
X6244012Y-5149263D01*
X30583477Y-14569263D02*
X31143822Y-14569263D01*
X31368822Y-10663906D02*
X31368822Y-5374263D01*
X4508789Y-14569263D02*
X3123822Y-14569263D01*
X31368827Y-5374263D02*
G75*
G03*
X31143822Y-5149263I-224997J3D01*
G01*
X3269942Y-10914268D02*
X2898822Y-10914268D01*
D11*
D12*
X4383418Y-5601333D02*
X4448418Y-5666333D01*
X4448418Y-5601333D02*
X4383418Y-5666333D01*
X4961418Y-5601333D02*
X5026418Y-5666333D01*
X5026418Y-5601333D02*
X4961418Y-5666333D01*
D13*
X3653570Y-5442533D02*
G75*
G03*
X3653570Y-5442533I-57600J0D01*
G01*
X3653570Y-14294433D02*
G75*
G03*
X3653570Y-14294433I-57600J0D01*
G01*
X29650470Y-5442533D02*
G75*
G03*
X29650470Y-5442533I-57600J0D01*
G01*
X29650470Y-14294433D02*
G75*
G03*
X29650470Y-14294433I-57600J0D01*
G01*
D14*
X3291170Y-11677133D02*
X3291170Y-11852133D01*
X3203670Y-11764633D02*
X3378670Y-11764633D01*
X3291170Y-13582133D02*
X3291170Y-13757133D01*
X3203670Y-13669633D02*
X3378670Y-13669633D01*
X3298443Y-9771769D02*
X3298443Y-9946769D01*
X3210943Y-9859269D02*
X3385943Y-9859269D01*
X3799170Y-5454133D02*
X3799170Y-5629133D01*
X3711670Y-5541633D02*
X3886670Y-5541633D01*
X3799170Y-6470133D02*
X3799170Y-6645133D01*
X3711670Y-6557633D02*
X3886670Y-6557633D01*
X3799170Y-7359133D02*
X3799170Y-7534133D01*
X3711670Y-7446633D02*
X3886670Y-7446633D01*
X3799170Y-8375133D02*
X3799170Y-8550133D01*
X3711670Y-8462633D02*
X3886670Y-8462633D01*
X4307170Y-11677133D02*
X4307170Y-11852133D01*
X4219670Y-11764633D02*
X4394670Y-11764633D01*
X4307170Y-13582133D02*
X4307170Y-13757133D01*
X4219670Y-13669633D02*
X4394670Y-13669633D01*
X4314443Y-9771769D02*
X4314443Y-9946769D01*
X4226943Y-9859269D02*
X4401943Y-9859269D01*
X5196170Y-5962133D02*
X5196170Y-6137133D01*
X5108670Y-6049633D02*
X5283670Y-6049633D01*
X5196170Y-7867133D02*
X5196170Y-8042133D01*
X5108670Y-7954633D02*
X5283670Y-7954633D01*
X5196170Y-9772133D02*
X5196170Y-9947133D01*
X5108670Y-9859633D02*
X5283670Y-9859633D01*
X5196170Y-11677133D02*
X5196170Y-11852133D01*
X5108670Y-11764633D02*
X5283670Y-11764633D01*
X5196170Y-13582133D02*
X5196170Y-13757133D01*
X5108670Y-13669633D02*
X5283670Y-13669633D01*
X6212170Y-5962133D02*
X6212170Y-6137133D01*
X6124670Y-6049633D02*
X6299670Y-6049633D01*
X6212170Y-7867133D02*
X6212170Y-8042133D01*
X6124670Y-7954633D02*
X6299670Y-7954633D01*
X6212170Y-9772133D02*
X6212170Y-9947133D01*
X6124670Y-9859633D02*
X6299670Y-9859633D01*
X6212170Y-11677133D02*
X6212170Y-11852133D01*
X6124670Y-11764633D02*
X6299670Y-11764633D01*
X6212170Y-13582133D02*
X6212170Y-13757133D01*
X6124670Y-13669633D02*
X6299670Y-13669633D01*
X7101170Y-5962133D02*
X7101170Y-6137133D01*
X7013670Y-6049633D02*
X7188670Y-6049633D01*
X7101170Y-7867133D02*
X7101170Y-8042133D01*
X7013670Y-7954633D02*
X7188670Y-7954633D01*
X7101170Y-9772133D02*
X7101170Y-9947133D01*
X7013670Y-9859633D02*
X7188670Y-9859633D01*
X7101170Y-11677133D02*
X7101170Y-11852133D01*
X7013670Y-11764633D02*
X7188670Y-11764633D01*
X7101170Y-13582133D02*
X7101170Y-13757133D01*
X7013670Y-13669633D02*
X7188670Y-13669633D01*
X8117170Y-5962133D02*
X8117170Y-6137133D01*
X8029670Y-6049633D02*
X8204670Y-6049633D01*
X8117170Y-7867133D02*
X8117170Y-8042133D01*
X8029670Y-7954633D02*
X8204670Y-7954633D01*
X8117170Y-9772133D02*
X8117170Y-9947133D01*
X8029670Y-9859633D02*
X8204670Y-9859633D01*
X8117170Y-11677133D02*
X8117170Y-11852133D01*
X8029670Y-11764633D02*
X8204670Y-11764633D01*
X8117170Y-13582133D02*
X8117170Y-13757133D01*
X8029670Y-13669633D02*
X8204670Y-13669633D01*
X9006170Y-5962133D02*
X9006170Y-6137133D01*
X8918670Y-6049633D02*
X9093670Y-6049633D01*
X9006170Y-7867133D02*
X9006170Y-8042133D01*
X8918670Y-7954633D02*
X9093670Y-7954633D01*
X9006170Y-9772133D02*
X9006170Y-9947133D01*
X8918670Y-9859633D02*
X9093670Y-9859633D01*
X9006170Y-11677133D02*
X9006170Y-11852133D01*
X8918670Y-11764633D02*
X9093670Y-11764633D01*
X9006170Y-13582133D02*
X9006170Y-13757133D01*
X8918670Y-13669633D02*
X9093670Y-13669633D01*
X10022170Y-5962133D02*
X10022170Y-6137133D01*
X9934670Y-6049633D02*
X10109670Y-6049633D01*
X10022170Y-7867133D02*
X10022170Y-8042133D01*
X9934670Y-7954633D02*
X10109670Y-7954633D01*
X10022170Y-9772133D02*
X10022170Y-9947133D01*
X9934670Y-9859633D02*
X10109670Y-9859633D01*
X10022170Y-11677133D02*
X10022170Y-11852133D01*
X9934670Y-11764633D02*
X10109670Y-11764633D01*
X10022170Y-13582133D02*
X10022170Y-13757133D01*
X9934670Y-13669633D02*
X10109670Y-13669633D01*
X10911170Y-5962133D02*
X10911170Y-6137133D01*
X10823670Y-6049633D02*
X10998670Y-6049633D01*
X10911170Y-7867133D02*
X10911170Y-8042133D01*
X10823670Y-7954633D02*
X10998670Y-7954633D01*
X10911170Y-9772133D02*
X10911170Y-9947133D01*
X10823670Y-9859633D02*
X10998670Y-9859633D01*
X10911170Y-11677133D02*
X10911170Y-11852133D01*
X10823670Y-11764633D02*
X10998670Y-11764633D01*
X10911170Y-13582133D02*
X10911170Y-13757133D01*
X10823670Y-13669633D02*
X10998670Y-13669633D01*
X11927170Y-5962133D02*
X11927170Y-6137133D01*
X11839670Y-6049633D02*
X12014670Y-6049633D01*
X11927170Y-7867133D02*
X11927170Y-8042133D01*
X11839670Y-7954633D02*
X12014670Y-7954633D01*
X11927170Y-9772133D02*
X11927170Y-9947133D01*
X11839670Y-9859633D02*
X12014670Y-9859633D01*
X11927170Y-11677133D02*
X11927170Y-11852133D01*
X11839670Y-11764633D02*
X12014670Y-11764633D01*
X11927170Y-13582133D02*
X11927170Y-13757133D01*
X11839670Y-13669633D02*
X12014670Y-13669633D01*
X12816170Y-5962133D02*
X12816170Y-6137133D01*
X12728670Y-6049633D02*
X12903670Y-6049633D01*
X12816170Y-7867133D02*
X12816170Y-8042133D01*
X12728670Y-7954633D02*
X12903670Y-7954633D01*
X12816170Y-9772133D02*
X12816170Y-9947133D01*
X12728670Y-9859633D02*
X12903670Y-9859633D01*
X12816170Y-11677133D02*
X12816170Y-11852133D01*
X12728670Y-11764633D02*
X12903670Y-11764633D01*
X12816170Y-13582133D02*
X12816170Y-13757133D01*
X12728670Y-13669633D02*
X12903670Y-13669633D01*
X13768670Y-13582133D02*
X13768670Y-13757133D01*
X13681170Y-13669633D02*
X13856170Y-13669633D01*
X13832170Y-5962133D02*
X13832170Y-6137133D01*
X13744670Y-6049633D02*
X13919670Y-6049633D01*
X13832170Y-7867133D02*
X13832170Y-8042133D01*
X13744670Y-7954633D02*
X13919670Y-7954633D01*
X13832170Y-9772133D02*
X13832170Y-9947133D01*
X13744670Y-9859633D02*
X13919670Y-9859633D01*
X13832170Y-11677133D02*
X13832170Y-11852133D01*
X13744670Y-11764633D02*
X13919670Y-11764633D01*
X13832170Y-13582133D02*
X13832170Y-13757133D01*
X13744670Y-13669633D02*
X13919670Y-13669633D01*
X14721170Y-5962133D02*
X14721170Y-6137133D01*
X14633670Y-6049633D02*
X14808670Y-6049633D01*
X14721170Y-7867133D02*
X14721170Y-8042133D01*
X14633670Y-7954633D02*
X14808670Y-7954633D01*
X14721170Y-9772133D02*
X14721170Y-9947133D01*
X14633670Y-9859633D02*
X14808670Y-9859633D01*
X14721170Y-11677133D02*
X14721170Y-11852133D01*
X14633670Y-11764633D02*
X14808670Y-11764633D01*
X14721170Y-13582133D02*
X14721170Y-13757133D01*
X14633670Y-13669633D02*
X14808670Y-13669633D01*
X14784670Y-13582133D02*
X14784670Y-13757133D01*
X14697170Y-13669633D02*
X14872170Y-13669633D01*
X15737170Y-5962133D02*
X15737170Y-6137133D01*
X15649670Y-6049633D02*
X15824670Y-6049633D01*
X15737170Y-7867133D02*
X15737170Y-8042133D01*
X15649670Y-7954633D02*
X15824670Y-7954633D01*
X15737170Y-9772133D02*
X15737170Y-9947133D01*
X15649670Y-9859633D02*
X15824670Y-9859633D01*
X15737170Y-11677133D02*
X15737170Y-11852133D01*
X15649670Y-11764633D02*
X15824670Y-11764633D01*
X15737170Y-13582133D02*
X15737170Y-13757133D01*
X15649670Y-13669633D02*
X15824670Y-13669633D01*
X16626170Y-5962133D02*
X16626170Y-6137133D01*
X16538670Y-6049633D02*
X16713670Y-6049633D01*
X16626170Y-7867133D02*
X16626170Y-8042133D01*
X16538670Y-7954633D02*
X16713670Y-7954633D01*
X16626170Y-9772133D02*
X16626170Y-9947133D01*
X16538670Y-9859633D02*
X16713670Y-9859633D01*
X16626170Y-11677133D02*
X16626170Y-11852133D01*
X16538670Y-11764633D02*
X16713670Y-11764633D01*
X16626170Y-13582133D02*
X16626170Y-13757133D01*
X16538670Y-13669633D02*
X16713670Y-13669633D01*
X17642170Y-5962133D02*
X17642170Y-6137133D01*
X17554670Y-6049633D02*
X17729670Y-6049633D01*
X17642170Y-7867133D02*
X17642170Y-8042133D01*
X17554670Y-7954633D02*
X17729670Y-7954633D01*
X17642170Y-9772133D02*
X17642170Y-9947133D01*
X17554670Y-9859633D02*
X17729670Y-9859633D01*
X17642170Y-11677133D02*
X17642170Y-11852133D01*
X17554670Y-11764633D02*
X17729670Y-11764633D01*
X17642170Y-13582133D02*
X17642170Y-13757133D01*
X17554670Y-13669633D02*
X17729670Y-13669633D01*
X18531170Y-5962133D02*
X18531170Y-6137133D01*
X18443670Y-6049633D02*
X18618670Y-6049633D01*
X18531170Y-7867133D02*
X18531170Y-8042133D01*
X18443670Y-7954633D02*
X18618670Y-7954633D01*
X18531170Y-9772133D02*
X18531170Y-9947133D01*
X18443670Y-9859633D02*
X18618670Y-9859633D01*
X18531170Y-11677133D02*
X18531170Y-11852133D01*
X18443670Y-11764633D02*
X18618670Y-11764633D01*
X18531170Y-13582133D02*
X18531170Y-13757133D01*
X18443670Y-13669633D02*
X18618670Y-13669633D01*
X19483670Y-13582133D02*
X19483670Y-13757133D01*
X19396170Y-13669633D02*
X19571170Y-13669633D01*
X19547170Y-5962133D02*
X19547170Y-6137133D01*
X19459670Y-6049633D02*
X19634670Y-6049633D01*
X19547170Y-7867133D02*
X19547170Y-8042133D01*
X19459670Y-7954633D02*
X19634670Y-7954633D01*
X19547170Y-9772133D02*
X19547170Y-9947133D01*
X19459670Y-9859633D02*
X19634670Y-9859633D01*
X19547170Y-11677133D02*
X19547170Y-11852133D01*
X19459670Y-11764633D02*
X19634670Y-11764633D01*
X19547170Y-13582133D02*
X19547170Y-13757133D01*
X19459670Y-13669633D02*
X19634670Y-13669633D01*
X20436170Y-5962133D02*
X20436170Y-6137133D01*
X20348670Y-6049633D02*
X20523670Y-6049633D01*
X20436170Y-7867133D02*
X20436170Y-8042133D01*
X20348670Y-7954633D02*
X20523670Y-7954633D01*
X20436170Y-9772133D02*
X20436170Y-9947133D01*
X20348670Y-9859633D02*
X20523670Y-9859633D01*
X20436170Y-11677133D02*
X20436170Y-11852133D01*
X20348670Y-11764633D02*
X20523670Y-11764633D01*
X20436170Y-13582133D02*
X20436170Y-13757133D01*
X20348670Y-13669633D02*
X20523670Y-13669633D01*
X20499670Y-13582133D02*
X20499670Y-13757133D01*
X20412170Y-13669633D02*
X20587170Y-13669633D01*
X21452170Y-5962133D02*
X21452170Y-6137133D01*
X21364670Y-6049633D02*
X21539670Y-6049633D01*
X21452170Y-7867133D02*
X21452170Y-8042133D01*
X21364670Y-7954633D02*
X21539670Y-7954633D01*
X21452170Y-9772133D02*
X21452170Y-9947133D01*
X21364670Y-9859633D02*
X21539670Y-9859633D01*
X21452170Y-11677133D02*
X21452170Y-11852133D01*
X21364670Y-11764633D02*
X21539670Y-11764633D01*
X21452170Y-13582133D02*
X21452170Y-13757133D01*
X21364670Y-13669633D02*
X21539670Y-13669633D01*
X22341170Y-5962133D02*
X22341170Y-6137133D01*
X22253670Y-6049633D02*
X22428670Y-6049633D01*
X22341170Y-7867133D02*
X22341170Y-8042133D01*
X22253670Y-7954633D02*
X22428670Y-7954633D01*
X22341170Y-9772133D02*
X22341170Y-9947133D01*
X22253670Y-9859633D02*
X22428670Y-9859633D01*
X22341170Y-11677133D02*
X22341170Y-11852133D01*
X22253670Y-11764633D02*
X22428670Y-11764633D01*
X22341170Y-13582133D02*
X22341170Y-13757133D01*
X22253670Y-13669633D02*
X22428670Y-13669633D01*
X23357170Y-5962133D02*
X23357170Y-6137133D01*
X23269670Y-6049633D02*
X23444670Y-6049633D01*
X23357170Y-7867133D02*
X23357170Y-8042133D01*
X23269670Y-7954633D02*
X23444670Y-7954633D01*
X23357170Y-9772133D02*
X23357170Y-9947133D01*
X23269670Y-9859633D02*
X23444670Y-9859633D01*
X23357170Y-11677133D02*
X23357170Y-11852133D01*
X23269670Y-11764633D02*
X23444670Y-11764633D01*
X23357170Y-13582133D02*
X23357170Y-13757133D01*
X23269670Y-13669633D02*
X23444670Y-13669633D01*
X24246170Y-5962133D02*
X24246170Y-6137133D01*
X24158670Y-6049633D02*
X24333670Y-6049633D01*
X24246170Y-7867133D02*
X24246170Y-8042133D01*
X24158670Y-7954633D02*
X24333670Y-7954633D01*
X24246170Y-9772133D02*
X24246170Y-9947133D01*
X24158670Y-9859633D02*
X24333670Y-9859633D01*
X24246170Y-11677133D02*
X24246170Y-11852133D01*
X24158670Y-11764633D02*
X24333670Y-11764633D01*
X24246170Y-13582133D02*
X24246170Y-13757133D01*
X24158670Y-13669633D02*
X24333670Y-13669633D01*
X25262170Y-5962133D02*
X25262170Y-6137133D01*
X25174670Y-6049633D02*
X25349670Y-6049633D01*
X25262170Y-7867133D02*
X25262170Y-8042133D01*
X25174670Y-7954633D02*
X25349670Y-7954633D01*
X25262170Y-9772133D02*
X25262170Y-9947133D01*
X25174670Y-9859633D02*
X25349670Y-9859633D01*
X25262170Y-11677133D02*
X25262170Y-11852133D01*
X25174670Y-11764633D02*
X25349670Y-11764633D01*
X25262170Y-13582133D02*
X25262170Y-13757133D01*
X25174670Y-13669633D02*
X25349670Y-13669633D01*
X26151170Y-5962133D02*
X26151170Y-6137133D01*
X26063670Y-6049633D02*
X26238670Y-6049633D01*
X26151170Y-7867133D02*
X26151170Y-8042133D01*
X26063670Y-7954633D02*
X26238670Y-7954633D01*
X26151170Y-9772133D02*
X26151170Y-9947133D01*
X26063670Y-9859633D02*
X26238670Y-9859633D01*
X26151170Y-11677133D02*
X26151170Y-11852133D01*
X26063670Y-11764633D02*
X26238670Y-11764633D01*
X26151170Y-13582133D02*
X26151170Y-13757133D01*
X26063670Y-13669633D02*
X26238670Y-13669633D01*
X27167170Y-5962133D02*
X27167170Y-6137133D01*
X27079670Y-6049633D02*
X27254670Y-6049633D01*
X27167170Y-7867133D02*
X27167170Y-8042133D01*
X27079670Y-7954633D02*
X27254670Y-7954633D01*
X27167170Y-9772133D02*
X27167170Y-9947133D01*
X27079670Y-9859633D02*
X27254670Y-9859633D01*
X27167170Y-11677133D02*
X27167170Y-11852133D01*
X27079670Y-11764633D02*
X27254670Y-11764633D01*
X27167170Y-13582133D02*
X27167170Y-13757133D01*
X27079670Y-13669633D02*
X27254670Y-13669633D01*
X28056170Y-5962133D02*
X28056170Y-6137133D01*
X27968670Y-6049633D02*
X28143670Y-6049633D01*
X28056170Y-7867133D02*
X28056170Y-8042133D01*
X27968670Y-7954633D02*
X28143670Y-7954633D01*
X28056170Y-9772133D02*
X28056170Y-9947133D01*
X27968670Y-9859633D02*
X28143670Y-9859633D01*
X28056170Y-11677133D02*
X28056170Y-11852133D01*
X27968670Y-11764633D02*
X28143670Y-11764633D01*
X28056170Y-13582133D02*
X28056170Y-13757133D01*
X27968670Y-13669633D02*
X28143670Y-13669633D01*
X29072170Y-5962133D02*
X29072170Y-6137133D01*
X28984670Y-6049633D02*
X29159670Y-6049633D01*
X29072170Y-7867133D02*
X29072170Y-8042133D01*
X28984670Y-7954633D02*
X29159670Y-7954633D01*
X29072170Y-9772133D02*
X29072170Y-9947133D01*
X28984670Y-9859633D02*
X29159670Y-9859633D01*
X29072170Y-11677133D02*
X29072170Y-11852133D01*
X28984670Y-11764633D02*
X29159670Y-11764633D01*
X29072170Y-13582133D02*
X29072170Y-13757133D01*
X28984670Y-13669633D02*
X29159670Y-13669633D01*
X29961170Y-5962133D02*
X29961170Y-6137133D01*
X29873670Y-6049633D02*
X30048670Y-6049633D01*
X29961170Y-7867133D02*
X29961170Y-8042133D01*
X29873670Y-7954633D02*
X30048670Y-7954633D01*
X29961170Y-9772133D02*
X29961170Y-9947133D01*
X29873670Y-9859633D02*
X30048670Y-9859633D01*
X29961170Y-11677133D02*
X29961170Y-11852133D01*
X29873670Y-11764633D02*
X30048670Y-11764633D01*
X29961170Y-13582133D02*
X29961170Y-13757133D01*
X29873670Y-13669633D02*
X30048670Y-13669633D01*
X30977170Y-5962133D02*
X30977170Y-6137133D01*
X30889670Y-6049633D02*
X31064670Y-6049633D01*
X30977170Y-7867133D02*
X30977170Y-8042133D01*
X30889670Y-7954633D02*
X31064670Y-7954633D01*
X30977170Y-9772133D02*
X30977170Y-9947133D01*
X30889670Y-9859633D02*
X31064670Y-9859633D01*
X30977170Y-11677133D02*
X30977170Y-11852133D01*
X30889670Y-11764633D02*
X31064670Y-11764633D01*
X30977170Y-13582133D02*
X30977170Y-13757133D01*
X30889670Y-13669633D02*
X31064670Y-13669633D01*
D15*
X6696251Y-12794129D02*
X6696251Y-12638564D01*
X6540686Y-12638564D01*
X6540686Y-12794129D01*
X6696251Y-12794129D01*
X6734485Y-12794129D02*
X6734485Y-12638564D01*
X6578920Y-12638564D01*
X6578920Y-12794129D01*
X6734485Y-12794129D01*
X6772061Y-12794129D02*
X6772061Y-12638564D01*
X6616496Y-12638564D01*
X6616496Y-12794129D01*
X6772061Y-12794129D01*
X8601045Y-7079512D02*
X8601045Y-6923947D01*
X8445480Y-6923947D01*
X8445480Y-7079512D01*
X8601045Y-7079512D01*
X8639279Y-7079512D02*
X8639279Y-6923947D01*
X8483714Y-6923947D01*
X8483714Y-7079512D01*
X8639279Y-7079512D01*
X8676855Y-7079512D02*
X8676855Y-6923947D01*
X8521290Y-6923947D01*
X8521290Y-7079512D01*
X8676855Y-7079512D01*
X18126625Y-8985154D02*
X18126625Y-8829589D01*
X17971060Y-8829589D01*
X17971060Y-8985154D01*
X18126625Y-8985154D01*
X18164858Y-8985154D02*
X18164858Y-8829589D01*
X18009293Y-8829589D01*
X18009293Y-8985154D01*
X18164858Y-8985154D01*
X18202434Y-8985154D02*
X18202434Y-8829589D01*
X18046869Y-8829589D01*
X18046869Y-8985154D01*
X18202434Y-8985154D01*
X21938611Y-13157450D02*
X21938611Y-13001885D01*
X21783046Y-13001885D01*
X21783046Y-13157450D01*
X21938611Y-13157450D01*
X21976844Y-13157450D02*
X21976844Y-13001885D01*
X21821279Y-13001885D01*
X21821279Y-13157450D01*
X21976844Y-13157450D01*
X22014420Y-13157450D02*
X22014420Y-13001885D01*
X21858855Y-13001885D01*
X21858855Y-13157450D01*
X22014420Y-13157450D01*
X25746187Y-7076243D02*
X25746187Y-6920678D01*
X25590622Y-6920678D01*
X25590622Y-7076243D01*
X25746187Y-7076243D01*
X25784420Y-7076243D02*
X25784420Y-6920678D01*
X25628855Y-6920678D01*
X25628855Y-7076243D01*
X25784420Y-7076243D01*
X25821996Y-7076243D02*
X25821996Y-6920678D01*
X25666431Y-6920678D01*
X25666431Y-7076243D01*
X25821996Y-7076243D01*
D16*
X3291170Y-5945633D02*
X3441170Y-5795633D01*
X3291170Y-5645633D01*
X3141170Y-5795633D01*
X3291170Y-5945633D01*
X3291170Y-7850633D02*
X3441170Y-7700633D01*
X3291170Y-7550633D01*
X3141170Y-7700633D01*
X3291170Y-7850633D01*
X3418170Y-11660633D02*
X3568170Y-11510633D01*
X3418170Y-11360633D01*
X3268170Y-11510633D01*
X3418170Y-11660633D01*
X3418170Y-13565633D02*
X3568170Y-13415633D01*
X3418170Y-13265633D01*
X3268170Y-13415633D01*
X3418170Y-13565633D01*
X3425443Y-9755269D02*
X3575443Y-9605269D01*
X3425443Y-9455269D01*
X3275443Y-9605269D01*
X3425443Y-9755269D01*
X3545170Y-6580633D02*
X3695170Y-6430633D01*
X3545170Y-6280633D01*
X3395170Y-6430633D01*
X3545170Y-6580633D01*
X3545170Y-8485633D02*
X3695170Y-8335633D01*
X3545170Y-8185633D01*
X3395170Y-8335633D01*
X3545170Y-8485633D01*
X4053170Y-11406633D02*
X4203170Y-11256633D01*
X4053170Y-11106633D01*
X3903170Y-11256633D01*
X4053170Y-11406633D01*
X4053170Y-13311633D02*
X4203170Y-13161633D01*
X4053170Y-13011633D01*
X3903170Y-13161633D01*
X4053170Y-13311633D01*
X4060443Y-9501269D02*
X4210443Y-9351269D01*
X4060443Y-9201269D01*
X3910443Y-9351269D01*
X4060443Y-9501269D01*
X5323170Y-7850633D02*
X5473170Y-7700633D01*
X5323170Y-7550633D01*
X5173170Y-7700633D01*
X5323170Y-7850633D01*
X5323170Y-9755633D02*
X5473170Y-9605633D01*
X5323170Y-9455633D01*
X5173170Y-9605633D01*
X5323170Y-9755633D01*
X5323170Y-11660633D02*
X5473170Y-11510633D01*
X5323170Y-11360633D01*
X5173170Y-11510633D01*
X5323170Y-11660633D01*
X5323170Y-13565633D02*
X5473170Y-13415633D01*
X5323170Y-13265633D01*
X5173170Y-13415633D01*
X5323170Y-13565633D01*
X5450170Y-6707633D02*
X5600170Y-6557633D01*
X5450170Y-6407633D01*
X5300170Y-6557633D01*
X5450170Y-6707633D01*
X5958170Y-7596633D02*
X6108170Y-7446633D01*
X5958170Y-7296633D01*
X5808170Y-7446633D01*
X5958170Y-7596633D01*
X5958170Y-9501633D02*
X6108170Y-9351633D01*
X5958170Y-9201633D01*
X5808170Y-9351633D01*
X5958170Y-9501633D01*
X5958170Y-11406633D02*
X6108170Y-11256633D01*
X5958170Y-11106633D01*
X5808170Y-11256633D01*
X5958170Y-11406633D01*
X5958170Y-13311633D02*
X6108170Y-13161633D01*
X5958170Y-13011633D01*
X5808170Y-13161633D01*
X5958170Y-13311633D01*
X6085170Y-6453633D02*
X6235170Y-6303633D01*
X6085170Y-6153633D01*
X5935170Y-6303633D01*
X6085170Y-6453633D01*
X7228170Y-5945633D02*
X7378170Y-5795633D01*
X7228170Y-5645633D01*
X7078170Y-5795633D01*
X7228170Y-5945633D01*
X7228170Y-7850633D02*
X7378170Y-7700633D01*
X7228170Y-7550633D01*
X7078170Y-7700633D01*
X7228170Y-7850633D01*
X7228170Y-9755633D02*
X7378170Y-9605633D01*
X7228170Y-9455633D01*
X7078170Y-9605633D01*
X7228170Y-9755633D01*
X7228170Y-11660633D02*
X7378170Y-11510633D01*
X7228170Y-11360633D01*
X7078170Y-11510633D01*
X7228170Y-11660633D01*
X7228170Y-13565633D02*
X7378170Y-13415633D01*
X7228170Y-13265633D01*
X7078170Y-13415633D01*
X7228170Y-13565633D01*
X7863170Y-5691633D02*
X8013170Y-5541633D01*
X7863170Y-5391633D01*
X7713170Y-5541633D01*
X7863170Y-5691633D01*
X7863170Y-7596633D02*
X8013170Y-7446633D01*
X7863170Y-7296633D01*
X7713170Y-7446633D01*
X7863170Y-7596633D01*
X7863170Y-9501633D02*
X8013170Y-9351633D01*
X7863170Y-9201633D01*
X7713170Y-9351633D01*
X7863170Y-9501633D01*
X7863170Y-11406633D02*
X8013170Y-11256633D01*
X7863170Y-11106633D01*
X7713170Y-11256633D01*
X7863170Y-11406633D01*
X7863170Y-13311633D02*
X8013170Y-13161633D01*
X7863170Y-13011633D01*
X7713170Y-13161633D01*
X7863170Y-13311633D01*
X9133170Y-5945633D02*
X9283170Y-5795633D01*
X9133170Y-5645633D01*
X8983170Y-5795633D01*
X9133170Y-5945633D01*
X9133170Y-7850633D02*
X9283170Y-7700633D01*
X9133170Y-7550633D01*
X8983170Y-7700633D01*
X9133170Y-7850633D01*
X9133170Y-9755633D02*
X9283170Y-9605633D01*
X9133170Y-9455633D01*
X8983170Y-9605633D01*
X9133170Y-9755633D01*
X9133170Y-11660633D02*
X9283170Y-11510633D01*
X9133170Y-11360633D01*
X8983170Y-11510633D01*
X9133170Y-11660633D01*
X9133170Y-13565633D02*
X9283170Y-13415633D01*
X9133170Y-13265633D01*
X8983170Y-13415633D01*
X9133170Y-13565633D01*
X9768170Y-5691633D02*
X9918170Y-5541633D01*
X9768170Y-5391633D01*
X9618170Y-5541633D01*
X9768170Y-5691633D01*
X9768170Y-7596633D02*
X9918170Y-7446633D01*
X9768170Y-7296633D01*
X9618170Y-7446633D01*
X9768170Y-7596633D01*
X9768170Y-9501633D02*
X9918170Y-9351633D01*
X9768170Y-9201633D01*
X9618170Y-9351633D01*
X9768170Y-9501633D01*
X9768170Y-11406633D02*
X9918170Y-11256633D01*
X9768170Y-11106633D01*
X9618170Y-11256633D01*
X9768170Y-11406633D01*
X9768170Y-13311633D02*
X9918170Y-13161633D01*
X9768170Y-13011633D01*
X9618170Y-13161633D01*
X9768170Y-13311633D01*
X11038170Y-5945633D02*
X11188170Y-5795633D01*
X11038170Y-5645633D01*
X10888170Y-5795633D01*
X11038170Y-5945633D01*
X11038170Y-7850633D02*
X11188170Y-7700633D01*
X11038170Y-7550633D01*
X10888170Y-7700633D01*
X11038170Y-7850633D01*
X11038170Y-9755633D02*
X11188170Y-9605633D01*
X11038170Y-9455633D01*
X10888170Y-9605633D01*
X11038170Y-9755633D01*
X11038170Y-11660633D02*
X11188170Y-11510633D01*
X11038170Y-11360633D01*
X10888170Y-11510633D01*
X11038170Y-11660633D01*
X11038170Y-13565633D02*
X11188170Y-13415633D01*
X11038170Y-13265633D01*
X10888170Y-13415633D01*
X11038170Y-13565633D01*
X11673170Y-5691633D02*
X11823170Y-5541633D01*
X11673170Y-5391633D01*
X11523170Y-5541633D01*
X11673170Y-5691633D01*
X11673170Y-7596633D02*
X11823170Y-7446633D01*
X11673170Y-7296633D01*
X11523170Y-7446633D01*
X11673170Y-7596633D01*
X11673170Y-9501633D02*
X11823170Y-9351633D01*
X11673170Y-9201633D01*
X11523170Y-9351633D01*
X11673170Y-9501633D01*
X11673170Y-11406633D02*
X11823170Y-11256633D01*
X11673170Y-11106633D01*
X11523170Y-11256633D01*
X11673170Y-11406633D01*
X11673170Y-13311633D02*
X11823170Y-13161633D01*
X11673170Y-13011633D01*
X11523170Y-13161633D01*
X11673170Y-13311633D01*
X12943170Y-5945633D02*
X13093170Y-5795633D01*
X12943170Y-5645633D01*
X12793170Y-5795633D01*
X12943170Y-5945633D01*
X12943170Y-7850633D02*
X13093170Y-7700633D01*
X12943170Y-7550633D01*
X12793170Y-7700633D01*
X12943170Y-7850633D01*
X12943170Y-9755633D02*
X13093170Y-9605633D01*
X12943170Y-9455633D01*
X12793170Y-9605633D01*
X12943170Y-9755633D01*
X12943170Y-11660633D02*
X13093170Y-11510633D01*
X12943170Y-11360633D01*
X12793170Y-11510633D01*
X12943170Y-11660633D01*
X13070170Y-14327633D02*
X13220170Y-14177633D01*
X13070170Y-14027633D01*
X12920170Y-14177633D01*
X13070170Y-14327633D01*
X13578170Y-5691633D02*
X13728170Y-5541633D01*
X13578170Y-5391633D01*
X13428170Y-5541633D01*
X13578170Y-5691633D01*
X13578170Y-7596633D02*
X13728170Y-7446633D01*
X13578170Y-7296633D01*
X13428170Y-7446633D01*
X13578170Y-7596633D01*
X13578170Y-9501633D02*
X13728170Y-9351633D01*
X13578170Y-9201633D01*
X13428170Y-9351633D01*
X13578170Y-9501633D01*
X13578170Y-11406633D02*
X13728170Y-11256633D01*
X13578170Y-11106633D01*
X13428170Y-11256633D01*
X13578170Y-11406633D01*
X13705170Y-14073633D02*
X13855170Y-13923633D01*
X13705170Y-13773633D01*
X13555170Y-13923633D01*
X13705170Y-14073633D01*
X13895670Y-13565633D02*
X14045670Y-13415633D01*
X13895670Y-13265633D01*
X13745670Y-13415633D01*
X13895670Y-13565633D01*
X14530670Y-13311633D02*
X14680670Y-13161633D01*
X14530670Y-13011633D01*
X14380670Y-13161633D01*
X14530670Y-13311633D01*
X14848170Y-5945633D02*
X14998170Y-5795633D01*
X14848170Y-5645633D01*
X14698170Y-5795633D01*
X14848170Y-5945633D01*
X14848170Y-7850633D02*
X14998170Y-7700633D01*
X14848170Y-7550633D01*
X14698170Y-7700633D01*
X14848170Y-7850633D01*
X14848170Y-9755633D02*
X14998170Y-9605633D01*
X14848170Y-9455633D01*
X14698170Y-9605633D01*
X14848170Y-9755633D01*
X14848170Y-11660633D02*
X14998170Y-11510633D01*
X14848170Y-11360633D01*
X14698170Y-11510633D01*
X14848170Y-11660633D01*
X14975170Y-14327633D02*
X15125170Y-14177633D01*
X14975170Y-14027633D01*
X14825170Y-14177633D01*
X14975170Y-14327633D01*
X15483170Y-5691633D02*
X15633170Y-5541633D01*
X15483170Y-5391633D01*
X15333170Y-5541633D01*
X15483170Y-5691633D01*
X15483170Y-7596633D02*
X15633170Y-7446633D01*
X15483170Y-7296633D01*
X15333170Y-7446633D01*
X15483170Y-7596633D01*
X15483170Y-9501633D02*
X15633170Y-9351633D01*
X15483170Y-9201633D01*
X15333170Y-9351633D01*
X15483170Y-9501633D01*
X15483170Y-11406633D02*
X15633170Y-11256633D01*
X15483170Y-11106633D01*
X15333170Y-11256633D01*
X15483170Y-11406633D01*
X15610170Y-14073633D02*
X15760170Y-13923633D01*
X15610170Y-13773633D01*
X15460170Y-13923633D01*
X15610170Y-14073633D01*
X16753170Y-5945633D02*
X16903170Y-5795633D01*
X16753170Y-5645633D01*
X16603170Y-5795633D01*
X16753170Y-5945633D01*
X16753170Y-7850633D02*
X16903170Y-7700633D01*
X16753170Y-7550633D01*
X16603170Y-7700633D01*
X16753170Y-7850633D01*
X16753170Y-9755633D02*
X16903170Y-9605633D01*
X16753170Y-9455633D01*
X16603170Y-9605633D01*
X16753170Y-9755633D01*
X16753170Y-11660633D02*
X16903170Y-11510633D01*
X16753170Y-11360633D01*
X16603170Y-11510633D01*
X16753170Y-11660633D01*
X16753170Y-13565633D02*
X16903170Y-13415633D01*
X16753170Y-13265633D01*
X16603170Y-13415633D01*
X16753170Y-13565633D01*
X17388170Y-5691633D02*
X17538170Y-5541633D01*
X17388170Y-5391633D01*
X17238170Y-5541633D01*
X17388170Y-5691633D01*
X17388170Y-7596633D02*
X17538170Y-7446633D01*
X17388170Y-7296633D01*
X17238170Y-7446633D01*
X17388170Y-7596633D01*
X17388170Y-9501633D02*
X17538170Y-9351633D01*
X17388170Y-9201633D01*
X17238170Y-9351633D01*
X17388170Y-9501633D01*
X17388170Y-11406633D02*
X17538170Y-11256633D01*
X17388170Y-11106633D01*
X17238170Y-11256633D01*
X17388170Y-11406633D01*
X17388170Y-13311633D02*
X17538170Y-13161633D01*
X17388170Y-13011633D01*
X17238170Y-13161633D01*
X17388170Y-13311633D01*
X18658170Y-5945633D02*
X18808170Y-5795633D01*
X18658170Y-5645633D01*
X18508170Y-5795633D01*
X18658170Y-5945633D01*
X18658170Y-7850633D02*
X18808170Y-7700633D01*
X18658170Y-7550633D01*
X18508170Y-7700633D01*
X18658170Y-7850633D01*
X18658170Y-9755633D02*
X18808170Y-9605633D01*
X18658170Y-9455633D01*
X18508170Y-9605633D01*
X18658170Y-9755633D01*
X18658170Y-11660633D02*
X18808170Y-11510633D01*
X18658170Y-11360633D01*
X18508170Y-11510633D01*
X18658170Y-11660633D01*
X18785170Y-14327633D02*
X18935170Y-14177633D01*
X18785170Y-14027633D01*
X18635170Y-14177633D01*
X18785170Y-14327633D01*
X19293170Y-5691633D02*
X19443170Y-5541633D01*
X19293170Y-5391633D01*
X19143170Y-5541633D01*
X19293170Y-5691633D01*
X19293170Y-7596633D02*
X19443170Y-7446633D01*
X19293170Y-7296633D01*
X19143170Y-7446633D01*
X19293170Y-7596633D01*
X19293170Y-9501633D02*
X19443170Y-9351633D01*
X19293170Y-9201633D01*
X19143170Y-9351633D01*
X19293170Y-9501633D01*
X19293170Y-11406633D02*
X19443170Y-11256633D01*
X19293170Y-11106633D01*
X19143170Y-11256633D01*
X19293170Y-11406633D01*
X19420170Y-14073633D02*
X19570170Y-13923633D01*
X19420170Y-13773633D01*
X19270170Y-13923633D01*
X19420170Y-14073633D01*
X19610670Y-13565633D02*
X19760670Y-13415633D01*
X19610670Y-13265633D01*
X19460670Y-13415633D01*
X19610670Y-13565633D01*
X20245670Y-13311633D02*
X20395670Y-13161633D01*
X20245670Y-13011633D01*
X20095670Y-13161633D01*
X20245670Y-13311633D01*
X20563170Y-5945633D02*
X20713170Y-5795633D01*
X20563170Y-5645633D01*
X20413170Y-5795633D01*
X20563170Y-5945633D01*
X20563170Y-7850633D02*
X20713170Y-7700633D01*
X20563170Y-7550633D01*
X20413170Y-7700633D01*
X20563170Y-7850633D01*
X20563170Y-9755633D02*
X20713170Y-9605633D01*
X20563170Y-9455633D01*
X20413170Y-9605633D01*
X20563170Y-9755633D01*
X20563170Y-11660633D02*
X20713170Y-11510633D01*
X20563170Y-11360633D01*
X20413170Y-11510633D01*
X20563170Y-11660633D01*
X20690170Y-14327633D02*
X20840170Y-14177633D01*
X20690170Y-14027633D01*
X20540170Y-14177633D01*
X20690170Y-14327633D01*
X21198170Y-5691633D02*
X21348170Y-5541633D01*
X21198170Y-5391633D01*
X21048170Y-5541633D01*
X21198170Y-5691633D01*
X21198170Y-7596633D02*
X21348170Y-7446633D01*
X21198170Y-7296633D01*
X21048170Y-7446633D01*
X21198170Y-7596633D01*
X21198170Y-9501633D02*
X21348170Y-9351633D01*
X21198170Y-9201633D01*
X21048170Y-9351633D01*
X21198170Y-9501633D01*
X21198170Y-11406633D02*
X21348170Y-11256633D01*
X21198170Y-11106633D01*
X21048170Y-11256633D01*
X21198170Y-11406633D01*
X21325170Y-14073633D02*
X21475170Y-13923633D01*
X21325170Y-13773633D01*
X21175170Y-13923633D01*
X21325170Y-14073633D01*
X22468170Y-5945633D02*
X22618170Y-5795633D01*
X22468170Y-5645633D01*
X22318170Y-5795633D01*
X22468170Y-5945633D01*
X22468170Y-7850633D02*
X22618170Y-7700633D01*
X22468170Y-7550633D01*
X22318170Y-7700633D01*
X22468170Y-7850633D01*
X22468170Y-9755633D02*
X22618170Y-9605633D01*
X22468170Y-9455633D01*
X22318170Y-9605633D01*
X22468170Y-9755633D01*
X22468170Y-11660633D02*
X22618170Y-11510633D01*
X22468170Y-11360633D01*
X22318170Y-11510633D01*
X22468170Y-11660633D01*
X22468170Y-13565633D02*
X22618170Y-13415633D01*
X22468170Y-13265633D01*
X22318170Y-13415633D01*
X22468170Y-13565633D01*
X23103170Y-5691633D02*
X23253170Y-5541633D01*
X23103170Y-5391633D01*
X22953170Y-5541633D01*
X23103170Y-5691633D01*
X23103170Y-7596633D02*
X23253170Y-7446633D01*
X23103170Y-7296633D01*
X22953170Y-7446633D01*
X23103170Y-7596633D01*
X23103170Y-9501633D02*
X23253170Y-9351633D01*
X23103170Y-9201633D01*
X22953170Y-9351633D01*
X23103170Y-9501633D01*
X23103170Y-11406633D02*
X23253170Y-11256633D01*
X23103170Y-11106633D01*
X22953170Y-11256633D01*
X23103170Y-11406633D01*
X23103170Y-13311633D02*
X23253170Y-13161633D01*
X23103170Y-13011633D01*
X22953170Y-13161633D01*
X23103170Y-13311633D01*
X24373170Y-5945633D02*
X24523170Y-5795633D01*
X24373170Y-5645633D01*
X24223170Y-5795633D01*
X24373170Y-5945633D01*
X24373170Y-7850633D02*
X24523170Y-7700633D01*
X24373170Y-7550633D01*
X24223170Y-7700633D01*
X24373170Y-7850633D01*
X24373170Y-9755633D02*
X24523170Y-9605633D01*
X24373170Y-9455633D01*
X24223170Y-9605633D01*
X24373170Y-9755633D01*
X24373170Y-11660633D02*
X24523170Y-11510633D01*
X24373170Y-11360633D01*
X24223170Y-11510633D01*
X24373170Y-11660633D01*
X24373170Y-13565633D02*
X24523170Y-13415633D01*
X24373170Y-13265633D01*
X24223170Y-13415633D01*
X24373170Y-13565633D01*
X25008170Y-5691633D02*
X25158170Y-5541633D01*
X25008170Y-5391633D01*
X24858170Y-5541633D01*
X25008170Y-5691633D01*
X25008170Y-7596633D02*
X25158170Y-7446633D01*
X25008170Y-7296633D01*
X24858170Y-7446633D01*
X25008170Y-7596633D01*
X25008170Y-9501633D02*
X25158170Y-9351633D01*
X25008170Y-9201633D01*
X24858170Y-9351633D01*
X25008170Y-9501633D01*
X25008170Y-11406633D02*
X25158170Y-11256633D01*
X25008170Y-11106633D01*
X24858170Y-11256633D01*
X25008170Y-11406633D01*
X25008170Y-13311633D02*
X25158170Y-13161633D01*
X25008170Y-13011633D01*
X24858170Y-13161633D01*
X25008170Y-13311633D01*
X26278170Y-5945633D02*
X26428170Y-5795633D01*
X26278170Y-5645633D01*
X26128170Y-5795633D01*
X26278170Y-5945633D01*
X26278170Y-7850633D02*
X26428170Y-7700633D01*
X26278170Y-7550633D01*
X26128170Y-7700633D01*
X26278170Y-7850633D01*
X26278170Y-9755633D02*
X26428170Y-9605633D01*
X26278170Y-9455633D01*
X26128170Y-9605633D01*
X26278170Y-9755633D01*
X26278170Y-11660633D02*
X26428170Y-11510633D01*
X26278170Y-11360633D01*
X26128170Y-11510633D01*
X26278170Y-11660633D01*
X26278170Y-13565633D02*
X26428170Y-13415633D01*
X26278170Y-13265633D01*
X26128170Y-13415633D01*
X26278170Y-13565633D01*
X26913170Y-5691633D02*
X27063170Y-5541633D01*
X26913170Y-5391633D01*
X26763170Y-5541633D01*
X26913170Y-5691633D01*
X26913170Y-7596633D02*
X27063170Y-7446633D01*
X26913170Y-7296633D01*
X26763170Y-7446633D01*
X26913170Y-7596633D01*
X26913170Y-9501633D02*
X27063170Y-9351633D01*
X26913170Y-9201633D01*
X26763170Y-9351633D01*
X26913170Y-9501633D01*
X26913170Y-11406633D02*
X27063170Y-11256633D01*
X26913170Y-11106633D01*
X26763170Y-11256633D01*
X26913170Y-11406633D01*
X26913170Y-13311633D02*
X27063170Y-13161633D01*
X26913170Y-13011633D01*
X26763170Y-13161633D01*
X26913170Y-13311633D01*
X28183170Y-5945633D02*
X28333170Y-5795633D01*
X28183170Y-5645633D01*
X28033170Y-5795633D01*
X28183170Y-5945633D01*
X28183170Y-7850633D02*
X28333170Y-7700633D01*
X28183170Y-7550633D01*
X28033170Y-7700633D01*
X28183170Y-7850633D01*
X28183170Y-9755633D02*
X28333170Y-9605633D01*
X28183170Y-9455633D01*
X28033170Y-9605633D01*
X28183170Y-9755633D01*
X28183170Y-11660633D02*
X28333170Y-11510633D01*
X28183170Y-11360633D01*
X28033170Y-11510633D01*
X28183170Y-11660633D01*
X28183170Y-13565633D02*
X28333170Y-13415633D01*
X28183170Y-13265633D01*
X28033170Y-13415633D01*
X28183170Y-13565633D01*
X28818170Y-5691633D02*
X28968170Y-5541633D01*
X28818170Y-5391633D01*
X28668170Y-5541633D01*
X28818170Y-5691633D01*
X28818170Y-7596633D02*
X28968170Y-7446633D01*
X28818170Y-7296633D01*
X28668170Y-7446633D01*
X28818170Y-7596633D01*
X28818170Y-9501633D02*
X28968170Y-9351633D01*
X28818170Y-9201633D01*
X28668170Y-9351633D01*
X28818170Y-9501633D01*
X28818170Y-11406633D02*
X28968170Y-11256633D01*
X28818170Y-11106633D01*
X28668170Y-11256633D01*
X28818170Y-11406633D01*
X28818170Y-13311633D02*
X28968170Y-13161633D01*
X28818170Y-13011633D01*
X28668170Y-13161633D01*
X28818170Y-13311633D01*
X30088170Y-5945633D02*
X30238170Y-5795633D01*
X30088170Y-5645633D01*
X29938170Y-5795633D01*
X30088170Y-5945633D01*
X30088170Y-7850633D02*
X30238170Y-7700633D01*
X30088170Y-7550633D01*
X29938170Y-7700633D01*
X30088170Y-7850633D01*
X30088170Y-9755633D02*
X30238170Y-9605633D01*
X30088170Y-9455633D01*
X29938170Y-9605633D01*
X30088170Y-9755633D01*
X30088170Y-11660633D02*
X30238170Y-11510633D01*
X30088170Y-11360633D01*
X29938170Y-11510633D01*
X30088170Y-11660633D01*
X30088170Y-13565633D02*
X30238170Y-13415633D01*
X30088170Y-13265633D01*
X29938170Y-13415633D01*
X30088170Y-13565633D01*
X30723170Y-5691633D02*
X30873170Y-5541633D01*
X30723170Y-5391633D01*
X30573170Y-5541633D01*
X30723170Y-5691633D01*
X30723170Y-7596633D02*
X30873170Y-7446633D01*
X30723170Y-7296633D01*
X30573170Y-7446633D01*
X30723170Y-7596633D01*
X30723170Y-9501633D02*
X30873170Y-9351633D01*
X30723170Y-9201633D01*
X30573170Y-9351633D01*
X30723170Y-9501633D01*
X30723170Y-11406633D02*
X30873170Y-11256633D01*
X30723170Y-11106633D01*
X30573170Y-11256633D01*
X30723170Y-11406633D01*
X30723170Y-13311633D02*
X30873170Y-13161633D01*
X30723170Y-13011633D01*
X30573170Y-13161633D01*
X30723170Y-13311633D01*
D17*
X12930470Y-14215733D02*
X13235270Y-14520533D01*
X13235270Y-14215733D02*
X12930470Y-14520533D01*
X13235270Y-14368133D02*
G75*
G03*
X13235270Y-14368133I-152400J0D01*
G01*
X15318070Y-14215733D02*
X15622870Y-14520533D01*
X15622870Y-14215733D02*
X15318070Y-14520533D01*
X15622870Y-14368133D02*
G75*
G03*
X15622870Y-14368133I-152400J0D01*
G01*
X18645470Y-14215733D02*
X18950270Y-14520533D01*
X18950270Y-14215733D02*
X18645470Y-14520533D01*
X18950270Y-14368133D02*
G75*
G03*
X18950270Y-14368133I-152400J0D01*
G01*
X21033070Y-14215733D02*
X21337870Y-14520533D01*
X21337870Y-14215733D02*
X21033070Y-14520533D01*
X21337870Y-14368133D02*
G75*
G03*
X21337870Y-14368133I-152400J0D01*
G01*
D18*
X3599780Y-5850243D02*
X3998560Y-6249023D01*
X3998560Y-5850243D02*
X3599780Y-6249023D01*
X3799170Y-5850243D02*
X3799170Y-6249023D01*
X3599780Y-6049633D02*
X3998560Y-6049633D01*
X3599780Y-7755243D02*
X3998560Y-8154023D01*
X3998560Y-7755243D02*
X3599780Y-8154023D01*
X3799170Y-7755243D02*
X3799170Y-8154023D01*
X3599780Y-7954633D02*
X3998560Y-7954633D01*
X3599780Y-11565243D02*
X3998560Y-11964023D01*
X3998560Y-11565243D02*
X3599780Y-11964023D01*
X3799170Y-11565243D02*
X3799170Y-11964023D01*
X3599780Y-11764633D02*
X3998560Y-11764633D01*
X3599780Y-13470243D02*
X3998560Y-13869023D01*
X3998560Y-13470243D02*
X3599780Y-13869023D01*
X3799170Y-13470243D02*
X3799170Y-13869023D01*
X3599780Y-13669633D02*
X3998560Y-13669633D01*
X3607053Y-9659879D02*
X4005833Y-10058659D01*
X4005833Y-9659879D02*
X3607053Y-10058659D01*
X3806443Y-9659879D02*
X3806443Y-10058659D01*
X3607053Y-9859269D02*
X4005833Y-9859269D01*
X5504780Y-5850243D02*
X5903560Y-6249023D01*
X5903560Y-5850243D02*
X5504780Y-6249023D01*
X5704170Y-5850243D02*
X5704170Y-6249023D01*
X5504780Y-6049633D02*
X5903560Y-6049633D01*
X5504780Y-7755243D02*
X5903560Y-8154023D01*
X5903560Y-7755243D02*
X5504780Y-8154023D01*
X5704170Y-7755243D02*
X5704170Y-8154023D01*
X5504780Y-7954633D02*
X5903560Y-7954633D01*
X5504780Y-9660243D02*
X5903560Y-10059023D01*
X5903560Y-9660243D02*
X5504780Y-10059023D01*
X5704170Y-9660243D02*
X5704170Y-10059023D01*
X5504780Y-9859633D02*
X5903560Y-9859633D01*
X5504780Y-11565243D02*
X5903560Y-11964023D01*
X5903560Y-11565243D02*
X5504780Y-11964023D01*
X5704170Y-11565243D02*
X5704170Y-11964023D01*
X5504780Y-11764633D02*
X5903560Y-11764633D01*
X5504780Y-13470243D02*
X5903560Y-13869023D01*
X5903560Y-13470243D02*
X5504780Y-13869023D01*
X5704170Y-13470243D02*
X5704170Y-13869023D01*
X5504780Y-13669633D02*
X5903560Y-13669633D01*
X7409780Y-5850243D02*
X7808560Y-6249023D01*
X7808560Y-5850243D02*
X7409780Y-6249023D01*
X7609170Y-5850243D02*
X7609170Y-6249023D01*
X7409780Y-6049633D02*
X7808560Y-6049633D01*
X7409780Y-7755243D02*
X7808560Y-8154023D01*
X7808560Y-7755243D02*
X7409780Y-8154023D01*
X7609170Y-7755243D02*
X7609170Y-8154023D01*
X7409780Y-7954633D02*
X7808560Y-7954633D01*
X7409780Y-9660243D02*
X7808560Y-10059023D01*
X7808560Y-9660243D02*
X7409780Y-10059023D01*
X7609170Y-9660243D02*
X7609170Y-10059023D01*
X7409780Y-9859633D02*
X7808560Y-9859633D01*
X7409780Y-11565243D02*
X7808560Y-11964023D01*
X7808560Y-11565243D02*
X7409780Y-11964023D01*
X7609170Y-11565243D02*
X7609170Y-11964023D01*
X7409780Y-11764633D02*
X7808560Y-11764633D01*
X7409780Y-13470243D02*
X7808560Y-13869023D01*
X7808560Y-13470243D02*
X7409780Y-13869023D01*
X7609170Y-13470243D02*
X7609170Y-13869023D01*
X7409780Y-13669633D02*
X7808560Y-13669633D01*
X9314780Y-5850243D02*
X9713560Y-6249023D01*
X9713560Y-5850243D02*
X9314780Y-6249023D01*
X9514170Y-5850243D02*
X9514170Y-6249023D01*
X9314780Y-6049633D02*
X9713560Y-6049633D01*
X9314780Y-7755243D02*
X9713560Y-8154023D01*
X9713560Y-7755243D02*
X9314780Y-8154023D01*
X9514170Y-7755243D02*
X9514170Y-8154023D01*
X9314780Y-7954633D02*
X9713560Y-7954633D01*
X9314780Y-9660243D02*
X9713560Y-10059023D01*
X9713560Y-9660243D02*
X9314780Y-10059023D01*
X9514170Y-9660243D02*
X9514170Y-10059023D01*
X9314780Y-9859633D02*
X9713560Y-9859633D01*
X9314780Y-11565243D02*
X9713560Y-11964023D01*
X9713560Y-11565243D02*
X9314780Y-11964023D01*
X9514170Y-11565243D02*
X9514170Y-11964023D01*
X9314780Y-11764633D02*
X9713560Y-11764633D01*
X9314780Y-13470243D02*
X9713560Y-13869023D01*
X9713560Y-13470243D02*
X9314780Y-13869023D01*
X9514170Y-13470243D02*
X9514170Y-13869023D01*
X9314780Y-13669633D02*
X9713560Y-13669633D01*
X11219780Y-5850243D02*
X11618560Y-6249023D01*
X11618560Y-5850243D02*
X11219780Y-6249023D01*
X11419170Y-5850243D02*
X11419170Y-6249023D01*
X11219780Y-6049633D02*
X11618560Y-6049633D01*
X11219780Y-7755243D02*
X11618560Y-8154023D01*
X11618560Y-7755243D02*
X11219780Y-8154023D01*
X11419170Y-7755243D02*
X11419170Y-8154023D01*
X11219780Y-7954633D02*
X11618560Y-7954633D01*
X11219780Y-9660243D02*
X11618560Y-10059023D01*
X11618560Y-9660243D02*
X11219780Y-10059023D01*
X11419170Y-9660243D02*
X11419170Y-10059023D01*
X11219780Y-9859633D02*
X11618560Y-9859633D01*
X11219780Y-11565243D02*
X11618560Y-11964023D01*
X11618560Y-11565243D02*
X11219780Y-11964023D01*
X11419170Y-11565243D02*
X11419170Y-11964023D01*
X11219780Y-11764633D02*
X11618560Y-11764633D01*
X11219780Y-13470243D02*
X11618560Y-13869023D01*
X11618560Y-13470243D02*
X11219780Y-13869023D01*
X11419170Y-13470243D02*
X11419170Y-13869023D01*
X11219780Y-13669633D02*
X11618560Y-13669633D01*
X12883480Y-12644743D02*
X13282260Y-13043523D01*
X13282260Y-12644743D02*
X12883480Y-13043523D01*
X13082870Y-12644743D02*
X13082870Y-13043523D01*
X12883480Y-12844133D02*
X13282260Y-12844133D01*
X13124780Y-5850243D02*
X13523560Y-6249023D01*
X13523560Y-5850243D02*
X13124780Y-6249023D01*
X13324170Y-5850243D02*
X13324170Y-6249023D01*
X13124780Y-6049633D02*
X13523560Y-6049633D01*
X13124780Y-7755243D02*
X13523560Y-8154023D01*
X13523560Y-7755243D02*
X13124780Y-8154023D01*
X13324170Y-7755243D02*
X13324170Y-8154023D01*
X13124780Y-7954633D02*
X13523560Y-7954633D01*
X13124780Y-9660243D02*
X13523560Y-10059023D01*
X13523560Y-9660243D02*
X13124780Y-10059023D01*
X13324170Y-9660243D02*
X13324170Y-10059023D01*
X13124780Y-9859633D02*
X13523560Y-9859633D01*
X13124780Y-11565243D02*
X13523560Y-11964023D01*
X13523560Y-11565243D02*
X13124780Y-11964023D01*
X13324170Y-11565243D02*
X13324170Y-11964023D01*
X13124780Y-11764633D02*
X13523560Y-11764633D01*
X13124780Y-13470243D02*
X13523560Y-13869023D01*
X13523560Y-13470243D02*
X13124780Y-13869023D01*
X13324170Y-13470243D02*
X13324170Y-13869023D01*
X13124780Y-13669633D02*
X13523560Y-13669633D01*
X14077280Y-13470243D02*
X14476060Y-13869023D01*
X14476060Y-13470243D02*
X14077280Y-13869023D01*
X14276670Y-13470243D02*
X14276670Y-13869023D01*
X14077280Y-13669633D02*
X14476060Y-13669633D01*
X15029780Y-5850243D02*
X15428560Y-6249023D01*
X15428560Y-5850243D02*
X15029780Y-6249023D01*
X15229170Y-5850243D02*
X15229170Y-6249023D01*
X15029780Y-6049633D02*
X15428560Y-6049633D01*
X15029780Y-7755243D02*
X15428560Y-8154023D01*
X15428560Y-7755243D02*
X15029780Y-8154023D01*
X15229170Y-7755243D02*
X15229170Y-8154023D01*
X15029780Y-7954633D02*
X15428560Y-7954633D01*
X15029780Y-9660243D02*
X15428560Y-10059023D01*
X15428560Y-9660243D02*
X15029780Y-10059023D01*
X15229170Y-9660243D02*
X15229170Y-10059023D01*
X15029780Y-9859633D02*
X15428560Y-9859633D01*
X15029780Y-11565243D02*
X15428560Y-11964023D01*
X15428560Y-11565243D02*
X15029780Y-11964023D01*
X15229170Y-11565243D02*
X15229170Y-11964023D01*
X15029780Y-11764633D02*
X15428560Y-11764633D01*
X15029780Y-13470243D02*
X15428560Y-13869023D01*
X15428560Y-13470243D02*
X15029780Y-13869023D01*
X15229170Y-13470243D02*
X15229170Y-13869023D01*
X15029780Y-13669633D02*
X15428560Y-13669633D01*
X15271080Y-12644743D02*
X15669860Y-13043523D01*
X15669860Y-12644743D02*
X15271080Y-13043523D01*
X15470470Y-12644743D02*
X15470470Y-13043523D01*
X15271080Y-12844133D02*
X15669860Y-12844133D01*
X16934780Y-5850243D02*
X17333560Y-6249023D01*
X17333560Y-5850243D02*
X16934780Y-6249023D01*
X17134170Y-5850243D02*
X17134170Y-6249023D01*
X16934780Y-6049633D02*
X17333560Y-6049633D01*
X16934780Y-7755243D02*
X17333560Y-8154023D01*
X17333560Y-7755243D02*
X16934780Y-8154023D01*
X17134170Y-7755243D02*
X17134170Y-8154023D01*
X16934780Y-7954633D02*
X17333560Y-7954633D01*
X16934780Y-9660243D02*
X17333560Y-10059023D01*
X17333560Y-9660243D02*
X16934780Y-10059023D01*
X17134170Y-9660243D02*
X17134170Y-10059023D01*
X16934780Y-9859633D02*
X17333560Y-9859633D01*
X16934780Y-11565243D02*
X17333560Y-11964023D01*
X17333560Y-11565243D02*
X16934780Y-11964023D01*
X17134170Y-11565243D02*
X17134170Y-11964023D01*
X16934780Y-11764633D02*
X17333560Y-11764633D01*
X16934780Y-13470243D02*
X17333560Y-13869023D01*
X17333560Y-13470243D02*
X16934780Y-13869023D01*
X17134170Y-13470243D02*
X17134170Y-13869023D01*
X16934780Y-13669633D02*
X17333560Y-13669633D01*
X18598480Y-12644743D02*
X18997260Y-13043523D01*
X18997260Y-12644743D02*
X18598480Y-13043523D01*
X18797870Y-12644743D02*
X18797870Y-13043523D01*
X18598480Y-12844133D02*
X18997260Y-12844133D01*
X18839780Y-5850243D02*
X19238560Y-6249023D01*
X19238560Y-5850243D02*
X18839780Y-6249023D01*
X19039170Y-5850243D02*
X19039170Y-6249023D01*
X18839780Y-6049633D02*
X19238560Y-6049633D01*
X18839780Y-7755243D02*
X19238560Y-8154023D01*
X19238560Y-7755243D02*
X18839780Y-8154023D01*
X19039170Y-7755243D02*
X19039170Y-8154023D01*
X18839780Y-7954633D02*
X19238560Y-7954633D01*
X18839780Y-9660243D02*
X19238560Y-10059023D01*
X19238560Y-9660243D02*
X18839780Y-10059023D01*
X19039170Y-9660243D02*
X19039170Y-10059023D01*
X18839780Y-9859633D02*
X19238560Y-9859633D01*
X18839780Y-11565243D02*
X19238560Y-11964023D01*
X19238560Y-11565243D02*
X18839780Y-11964023D01*
X19039170Y-11565243D02*
X19039170Y-11964023D01*
X18839780Y-11764633D02*
X19238560Y-11764633D01*
X18839780Y-13470243D02*
X19238560Y-13869023D01*
X19238560Y-13470243D02*
X18839780Y-13869023D01*
X19039170Y-13470243D02*
X19039170Y-13869023D01*
X18839780Y-13669633D02*
X19238560Y-13669633D01*
X19792280Y-13470243D02*
X20191060Y-13869023D01*
X20191060Y-13470243D02*
X19792280Y-13869023D01*
X19991670Y-13470243D02*
X19991670Y-13869023D01*
X19792280Y-13669633D02*
X20191060Y-13669633D01*
X20744780Y-5850243D02*
X21143560Y-6249023D01*
X21143560Y-5850243D02*
X20744780Y-6249023D01*
X20944170Y-5850243D02*
X20944170Y-6249023D01*
X20744780Y-6049633D02*
X21143560Y-6049633D01*
X20744780Y-7755243D02*
X21143560Y-8154023D01*
X21143560Y-7755243D02*
X20744780Y-8154023D01*
X20944170Y-7755243D02*
X20944170Y-8154023D01*
X20744780Y-7954633D02*
X21143560Y-7954633D01*
X20744780Y-9660243D02*
X21143560Y-10059023D01*
X21143560Y-9660243D02*
X20744780Y-10059023D01*
X20944170Y-9660243D02*
X20944170Y-10059023D01*
X20744780Y-9859633D02*
X21143560Y-9859633D01*
X20744780Y-11565243D02*
X21143560Y-11964023D01*
X21143560Y-11565243D02*
X20744780Y-11964023D01*
X20944170Y-11565243D02*
X20944170Y-11964023D01*
X20744780Y-11764633D02*
X21143560Y-11764633D01*
X20744780Y-13470243D02*
X21143560Y-13869023D01*
X21143560Y-13470243D02*
X20744780Y-13869023D01*
X20944170Y-13470243D02*
X20944170Y-13869023D01*
X20744780Y-13669633D02*
X21143560Y-13669633D01*
X20986080Y-12644743D02*
X21384860Y-13043523D01*
X21384860Y-12644743D02*
X20986080Y-13043523D01*
X21185470Y-12644743D02*
X21185470Y-13043523D01*
X20986080Y-12844133D02*
X21384860Y-12844133D01*
X22649780Y-5850243D02*
X23048560Y-6249023D01*
X23048560Y-5850243D02*
X22649780Y-6249023D01*
X22849170Y-5850243D02*
X22849170Y-6249023D01*
X22649780Y-6049633D02*
X23048560Y-6049633D01*
X22649780Y-7755243D02*
X23048560Y-8154023D01*
X23048560Y-7755243D02*
X22649780Y-8154023D01*
X22849170Y-7755243D02*
X22849170Y-8154023D01*
X22649780Y-7954633D02*
X23048560Y-7954633D01*
X22649780Y-9660243D02*
X23048560Y-10059023D01*
X23048560Y-9660243D02*
X22649780Y-10059023D01*
X22849170Y-9660243D02*
X22849170Y-10059023D01*
X22649780Y-9859633D02*
X23048560Y-9859633D01*
X22649780Y-11565243D02*
X23048560Y-11964023D01*
X23048560Y-11565243D02*
X22649780Y-11964023D01*
X22849170Y-11565243D02*
X22849170Y-11964023D01*
X22649780Y-11764633D02*
X23048560Y-11764633D01*
X22649780Y-13470243D02*
X23048560Y-13869023D01*
X23048560Y-13470243D02*
X22649780Y-13869023D01*
X22849170Y-13470243D02*
X22849170Y-13869023D01*
X22649780Y-13669633D02*
X23048560Y-13669633D01*
X24554780Y-5850243D02*
X24953560Y-6249023D01*
X24953560Y-5850243D02*
X24554780Y-6249023D01*
X24754170Y-5850243D02*
X24754170Y-6249023D01*
X24554780Y-6049633D02*
X24953560Y-6049633D01*
X24554780Y-7755243D02*
X24953560Y-8154023D01*
X24953560Y-7755243D02*
X24554780Y-8154023D01*
X24754170Y-7755243D02*
X24754170Y-8154023D01*
X24554780Y-7954633D02*
X24953560Y-7954633D01*
X24554780Y-9660243D02*
X24953560Y-10059023D01*
X24953560Y-9660243D02*
X24554780Y-10059023D01*
X24754170Y-9660243D02*
X24754170Y-10059023D01*
X24554780Y-9859633D02*
X24953560Y-9859633D01*
X24554780Y-11565243D02*
X24953560Y-11964023D01*
X24953560Y-11565243D02*
X24554780Y-11964023D01*
X24754170Y-11565243D02*
X24754170Y-11964023D01*
X24554780Y-11764633D02*
X24953560Y-11764633D01*
X24554780Y-13470243D02*
X24953560Y-13869023D01*
X24953560Y-13470243D02*
X24554780Y-13869023D01*
X24754170Y-13470243D02*
X24754170Y-13869023D01*
X24554780Y-13669633D02*
X24953560Y-13669633D01*
X26459780Y-5850243D02*
X26858560Y-6249023D01*
X26858560Y-5850243D02*
X26459780Y-6249023D01*
X26659170Y-5850243D02*
X26659170Y-6249023D01*
X26459780Y-6049633D02*
X26858560Y-6049633D01*
X26459780Y-7755243D02*
X26858560Y-8154023D01*
X26858560Y-7755243D02*
X26459780Y-8154023D01*
X26659170Y-7755243D02*
X26659170Y-8154023D01*
X26459780Y-7954633D02*
X26858560Y-7954633D01*
X26459780Y-9660243D02*
X26858560Y-10059023D01*
X26858560Y-9660243D02*
X26459780Y-10059023D01*
X26659170Y-9660243D02*
X26659170Y-10059023D01*
X26459780Y-9859633D02*
X26858560Y-9859633D01*
X26459780Y-11565243D02*
X26858560Y-11964023D01*
X26858560Y-11565243D02*
X26459780Y-11964023D01*
X26659170Y-11565243D02*
X26659170Y-11964023D01*
X26459780Y-11764633D02*
X26858560Y-11764633D01*
X26459780Y-13470243D02*
X26858560Y-13869023D01*
X26858560Y-13470243D02*
X26459780Y-13869023D01*
X26659170Y-13470243D02*
X26659170Y-13869023D01*
X26459780Y-13669633D02*
X26858560Y-13669633D01*
X28364780Y-5850243D02*
X28763560Y-6249023D01*
X28763560Y-5850243D02*
X28364780Y-6249023D01*
X28564170Y-5850243D02*
X28564170Y-6249023D01*
X28364780Y-6049633D02*
X28763560Y-6049633D01*
X28364780Y-7755243D02*
X28763560Y-8154023D01*
X28763560Y-7755243D02*
X28364780Y-8154023D01*
X28564170Y-7755243D02*
X28564170Y-8154023D01*
X28364780Y-7954633D02*
X28763560Y-7954633D01*
X28364780Y-9660243D02*
X28763560Y-10059023D01*
X28763560Y-9660243D02*
X28364780Y-10059023D01*
X28564170Y-9660243D02*
X28564170Y-10059023D01*
X28364780Y-9859633D02*
X28763560Y-9859633D01*
X28364780Y-11565243D02*
X28763560Y-11964023D01*
X28763560Y-11565243D02*
X28364780Y-11964023D01*
X28564170Y-11565243D02*
X28564170Y-11964023D01*
X28364780Y-11764633D02*
X28763560Y-11764633D01*
X28364780Y-13470243D02*
X28763560Y-13869023D01*
X28763560Y-13470243D02*
X28364780Y-13869023D01*
X28564170Y-13470243D02*
X28564170Y-13869023D01*
X28364780Y-13669633D02*
X28763560Y-13669633D01*
X30269780Y-5850243D02*
X30668560Y-6249023D01*
X30668560Y-5850243D02*
X30269780Y-6249023D01*
X30469170Y-5850243D02*
X30469170Y-6249023D01*
X30269780Y-6049633D02*
X30668560Y-6049633D01*
X30269780Y-7755243D02*
X30668560Y-8154023D01*
X30668560Y-7755243D02*
X30269780Y-8154023D01*
X30469170Y-7755243D02*
X30469170Y-8154023D01*
X30269780Y-7954633D02*
X30668560Y-7954633D01*
X30269780Y-9660243D02*
X30668560Y-10059023D01*
X30668560Y-9660243D02*
X30269780Y-10059023D01*
X30469170Y-9660243D02*
X30469170Y-10059023D01*
X30269780Y-9859633D02*
X30668560Y-9859633D01*
X30269780Y-11565243D02*
X30668560Y-11964023D01*
X30668560Y-11565243D02*
X30269780Y-11964023D01*
X30469170Y-11565243D02*
X30469170Y-11964023D01*
X30269780Y-11764633D02*
X30668560Y-11764633D01*
X30269780Y-13470243D02*
X30668560Y-13869023D01*
X30668560Y-13470243D02*
X30269780Y-13869023D01*
X30469170Y-13470243D02*
X30469170Y-13869023D01*
X30269780Y-13669633D02*
X30668560Y-13669633D01*
D11*
X3146441Y-14890364D02*
X3146441Y-14690364D01*
X3194060Y-14690364D01*
X3222632Y-14699888D01*
X3241680Y-14718935D01*
X3251203Y-14737983D01*
X3260727Y-14776078D01*
X3260727Y-14804650D01*
X3251203Y-14842745D01*
X3241680Y-14861793D01*
X3222632Y-14880840D01*
X3194060Y-14890364D01*
X3146441Y-14890364D01*
X3346441Y-14890364D02*
X3346441Y-14757031D01*
X3346441Y-14795126D02*
X3355965Y-14776078D01*
X3365489Y-14766554D01*
X3384537Y-14757031D01*
X3403584Y-14757031D01*
X3470251Y-14890364D02*
X3470251Y-14757031D01*
X3470251Y-14690364D02*
X3460727Y-14699888D01*
X3470251Y-14709412D01*
X3479775Y-14699888D01*
X3470251Y-14690364D01*
X3470251Y-14709412D01*
X3594060Y-14890364D02*
X3575013Y-14880840D01*
X3565489Y-14861793D01*
X3565489Y-14690364D01*
X3698822Y-14890364D02*
X3679775Y-14880840D01*
X3670251Y-14861793D01*
X3670251Y-14690364D01*
X3927394Y-14890364D02*
X3927394Y-14690364D01*
X3994060Y-14833221D01*
X4060727Y-14690364D01*
X4060727Y-14890364D01*
X4241680Y-14890364D02*
X4241680Y-14785602D01*
X4232156Y-14766554D01*
X4213108Y-14757031D01*
X4175013Y-14757031D01*
X4155965Y-14766554D01*
X4241680Y-14880840D02*
X4222632Y-14890364D01*
X4175013Y-14890364D01*
X4155965Y-14880840D01*
X4146441Y-14861793D01*
X4146441Y-14842745D01*
X4155965Y-14823697D01*
X4175013Y-14814174D01*
X4222632Y-14814174D01*
X4241680Y-14804650D01*
X4336918Y-14757031D02*
X4336918Y-14957031D01*
X4336918Y-14766554D02*
X4355965Y-14757031D01*
X4394061Y-14757031D01*
X4413108Y-14766554D01*
X4422632Y-14776078D01*
X4432156Y-14795126D01*
X4432156Y-14852269D01*
X4422632Y-14871316D01*
X4413108Y-14880840D01*
X4394061Y-14890364D01*
X4355965Y-14890364D01*
X4336918Y-14880840D01*
X4517870Y-14871316D02*
X4527394Y-14880840D01*
X4517870Y-14890364D01*
X4508346Y-14880840D01*
X4517870Y-14871316D01*
X4517870Y-14890364D01*
X4517870Y-14766554D02*
X4527394Y-14776078D01*
X4517870Y-14785602D01*
X4508346Y-14776078D01*
X4517870Y-14766554D01*
X4517870Y-14785602D01*
D12*
X2823822Y-15187388D02*
X2888822Y-15252388D01*
X2888822Y-15187388D02*
X2823822Y-15252388D01*
D11*
X3184537Y-15110364D02*
X3203584Y-15110364D01*
X3222632Y-15119888D01*
X3232156Y-15129412D01*
X3241680Y-15148459D01*
X3251203Y-15186554D01*
X3251203Y-15234174D01*
X3241680Y-15272269D01*
X3232156Y-15291316D01*
X3222632Y-15300840D01*
X3203584Y-15310364D01*
X3184537Y-15310364D01*
X3165489Y-15300840D01*
X3155965Y-15291316D01*
X3146441Y-15272269D01*
X3136918Y-15234174D01*
X3136918Y-15186554D01*
X3146441Y-15148459D01*
X3155965Y-15129412D01*
X3165489Y-15119888D01*
X3184537Y-15110364D01*
X3336918Y-15291316D02*
X3346441Y-15300840D01*
X3336918Y-15310364D01*
X3327394Y-15300840D01*
X3336918Y-15291316D01*
X3336918Y-15310364D01*
X3517870Y-15110364D02*
X3479775Y-15110364D01*
X3460727Y-15119888D01*
X3451203Y-15129412D01*
X3432156Y-15157983D01*
X3422632Y-15196078D01*
X3422632Y-15272269D01*
X3432156Y-15291316D01*
X3441680Y-15300840D01*
X3460727Y-15310364D01*
X3498822Y-15310364D01*
X3517870Y-15300840D01*
X3527394Y-15291316D01*
X3536918Y-15272269D01*
X3536918Y-15224650D01*
X3527394Y-15205602D01*
X3517870Y-15196078D01*
X3498822Y-15186554D01*
X3460727Y-15186554D01*
X3441680Y-15196078D01*
X3432156Y-15205602D01*
X3422632Y-15224650D01*
X3717870Y-15110364D02*
X3622632Y-15110364D01*
X3613108Y-15205602D01*
X3622632Y-15196078D01*
X3641680Y-15186554D01*
X3689299Y-15186554D01*
X3708346Y-15196078D01*
X3717870Y-15205602D01*
X3727394Y-15224650D01*
X3727394Y-15272269D01*
X3717870Y-15291316D01*
X3708346Y-15300840D01*
X3689299Y-15310364D01*
X3641680Y-15310364D01*
X3622632Y-15300840D01*
X3613108Y-15291316D01*
X3851203Y-15110364D02*
X3870251Y-15110364D01*
X3889299Y-15119888D01*
X3898822Y-15129412D01*
X3908346Y-15148459D01*
X3917870Y-15186554D01*
X3917870Y-15234174D01*
X3908346Y-15272269D01*
X3898822Y-15291316D01*
X3889299Y-15300840D01*
X3870251Y-15310364D01*
X3851203Y-15310364D01*
X3832156Y-15300840D01*
X3822632Y-15291316D01*
X3813108Y-15272269D01*
X3803584Y-15234174D01*
X3803584Y-15186554D01*
X3813108Y-15148459D01*
X3822632Y-15129412D01*
X3832156Y-15119888D01*
X3851203Y-15110364D01*
X4003584Y-15310364D02*
X4003584Y-15177031D01*
X4003584Y-15196078D02*
X4013108Y-15186554D01*
X4032156Y-15177031D01*
X4060727Y-15177031D01*
X4079775Y-15186554D01*
X4089299Y-15205602D01*
X4089299Y-15310364D01*
X4089299Y-15205602D02*
X4098822Y-15186554D01*
X4117870Y-15177031D01*
X4146441Y-15177031D01*
X4165489Y-15186554D01*
X4175013Y-15205602D01*
X4175013Y-15310364D01*
X4270251Y-15310364D02*
X4270251Y-15177031D01*
X4270251Y-15196078D02*
X4279775Y-15186554D01*
X4298823Y-15177031D01*
X4327394Y-15177031D01*
X4346442Y-15186554D01*
X4355965Y-15205602D01*
X4355965Y-15310364D01*
X4355965Y-15205602D02*
X4365489Y-15186554D01*
X4384537Y-15177031D01*
X4413108Y-15177031D01*
X4432156Y-15186554D01*
X4441680Y-15205602D01*
X4441680Y-15310364D01*
X4832156Y-15100840D02*
X4660727Y-15357983D01*
X5089299Y-15110364D02*
X5108346Y-15110364D01*
X5127394Y-15119888D01*
X5136918Y-15129412D01*
X5146442Y-15148459D01*
X5155965Y-15186554D01*
X5155965Y-15234174D01*
X5146442Y-15272269D01*
X5136918Y-15291316D01*
X5127394Y-15300840D01*
X5108346Y-15310364D01*
X5089299Y-15310364D01*
X5070251Y-15300840D01*
X5060727Y-15291316D01*
X5051203Y-15272269D01*
X5041680Y-15234174D01*
X5041680Y-15186554D01*
X5051203Y-15148459D01*
X5060727Y-15129412D01*
X5070251Y-15119888D01*
X5089299Y-15110364D01*
X5241680Y-15291316D02*
X5251203Y-15300840D01*
X5241680Y-15310364D01*
X5232156Y-15300840D01*
X5241680Y-15291316D01*
X5241680Y-15310364D01*
X5375013Y-15110364D02*
X5394061Y-15110364D01*
X5413108Y-15119888D01*
X5422632Y-15129412D01*
X5432156Y-15148459D01*
X5441680Y-15186554D01*
X5441680Y-15234174D01*
X5432156Y-15272269D01*
X5422632Y-15291316D01*
X5413108Y-15300840D01*
X5394061Y-15310364D01*
X5375013Y-15310364D01*
X5355965Y-15300840D01*
X5346442Y-15291316D01*
X5336918Y-15272269D01*
X5327394Y-15234174D01*
X5327394Y-15186554D01*
X5336918Y-15148459D01*
X5346442Y-15129412D01*
X5355965Y-15119888D01*
X5375013Y-15110364D01*
X5517870Y-15129412D02*
X5527394Y-15119888D01*
X5546442Y-15110364D01*
X5594060Y-15110364D01*
X5613108Y-15119888D01*
X5622632Y-15129412D01*
X5632156Y-15148459D01*
X5632156Y-15167507D01*
X5622632Y-15196078D01*
X5508346Y-15310364D01*
X5632156Y-15310364D01*
X5813108Y-15110364D02*
X5717870Y-15110364D01*
X5708346Y-15205602D01*
X5717870Y-15196078D01*
X5736918Y-15186554D01*
X5784537Y-15186554D01*
X5803584Y-15196078D01*
X5813108Y-15205602D01*
X5822632Y-15224650D01*
X5822632Y-15272269D01*
X5813108Y-15291316D01*
X5803584Y-15300840D01*
X5784537Y-15310364D01*
X5736918Y-15310364D01*
X5717870Y-15300840D01*
X5708346Y-15291316D01*
X5994060Y-15110364D02*
X5955965Y-15110364D01*
X5936918Y-15119888D01*
X5927394Y-15129412D01*
X5908346Y-15157983D01*
X5898822Y-15196078D01*
X5898822Y-15272269D01*
X5908346Y-15291316D01*
X5917870Y-15300840D01*
X5936918Y-15310364D01*
X5975013Y-15310364D01*
X5994060Y-15300840D01*
X6003584Y-15291316D01*
X6013108Y-15272269D01*
X6013108Y-15224650D01*
X6003584Y-15205602D01*
X5994060Y-15196078D01*
X5975013Y-15186554D01*
X5936918Y-15186554D01*
X5917870Y-15196078D01*
X5908346Y-15205602D01*
X5898822Y-15224650D01*
X6089299Y-15110364D02*
X6089299Y-15148459D01*
X6165489Y-15110364D02*
X6165489Y-15148459D01*
X6460727Y-15386554D02*
X6451203Y-15377031D01*
X6432156Y-15348459D01*
X6422632Y-15329412D01*
X6413108Y-15300840D01*
X6403584Y-15253221D01*
X6403584Y-15215126D01*
X6413108Y-15167507D01*
X6422632Y-15138935D01*
X6432156Y-15119888D01*
X6451203Y-15091316D01*
X6460727Y-15081793D01*
X6527394Y-15129412D02*
X6536918Y-15119888D01*
X6555965Y-15110364D01*
X6603584Y-15110364D01*
X6622632Y-15119888D01*
X6632156Y-15129412D01*
X6641680Y-15148459D01*
X6641680Y-15167507D01*
X6632156Y-15196078D01*
X6517870Y-15310364D01*
X6641680Y-15310364D01*
X6879775Y-15310364D02*
X6879775Y-15110364D01*
X6965489Y-15310364D02*
X6965489Y-15205602D01*
X6955965Y-15186554D01*
X6936918Y-15177031D01*
X6908346Y-15177031D01*
X6889299Y-15186554D01*
X6879775Y-15196078D01*
X7089299Y-15310364D02*
X7070251Y-15300840D01*
X7060727Y-15291316D01*
X7051203Y-15272269D01*
X7051203Y-15215126D01*
X7060727Y-15196078D01*
X7070251Y-15186554D01*
X7089299Y-15177031D01*
X7117870Y-15177031D01*
X7136918Y-15186554D01*
X7146441Y-15196078D01*
X7155965Y-15215126D01*
X7155965Y-15272269D01*
X7146441Y-15291316D01*
X7136918Y-15300840D01*
X7117870Y-15310364D01*
X7089299Y-15310364D01*
X7270251Y-15310364D02*
X7251203Y-15300840D01*
X7241680Y-15281793D01*
X7241680Y-15110364D01*
X7422632Y-15300840D02*
X7403584Y-15310364D01*
X7365489Y-15310364D01*
X7346441Y-15300840D01*
X7336918Y-15281793D01*
X7336918Y-15205602D01*
X7346441Y-15186554D01*
X7365489Y-15177031D01*
X7403584Y-15177031D01*
X7422632Y-15186554D01*
X7432156Y-15205602D01*
X7432156Y-15224650D01*
X7336918Y-15243697D01*
X7508346Y-15300840D02*
X7527394Y-15310364D01*
X7565489Y-15310364D01*
X7584537Y-15300840D01*
X7594060Y-15281793D01*
X7594060Y-15272269D01*
X7584537Y-15253221D01*
X7565489Y-15243697D01*
X7536918Y-15243697D01*
X7517870Y-15234174D01*
X7508346Y-15215126D01*
X7508346Y-15205602D01*
X7517870Y-15186554D01*
X7536918Y-15177031D01*
X7565489Y-15177031D01*
X7584537Y-15186554D01*
X7660727Y-15386554D02*
X7670251Y-15377031D01*
X7689299Y-15348459D01*
X7698822Y-15329412D01*
X7708346Y-15300840D01*
X7717870Y-15253221D01*
X7717870Y-15215126D01*
X7708346Y-15167507D01*
X7698822Y-15138935D01*
X7689299Y-15119888D01*
X7670251Y-15091316D01*
X7660727Y-15081793D01*
X8022632Y-15386554D02*
X8013108Y-15377031D01*
X7994060Y-15348459D01*
X7984537Y-15329412D01*
X7975013Y-15300840D01*
X7965489Y-15253221D01*
X7965489Y-15215126D01*
X7975013Y-15167507D01*
X7984537Y-15138935D01*
X7994060Y-15119888D01*
X8013108Y-15091316D01*
X8022632Y-15081793D01*
X8098822Y-15177031D02*
X8098822Y-15310364D01*
X8098822Y-15196078D02*
X8108346Y-15186554D01*
X8127394Y-15177031D01*
X8155965Y-15177031D01*
X8175013Y-15186554D01*
X8184537Y-15205602D01*
X8184537Y-15310364D01*
X8308346Y-15310364D02*
X8289299Y-15300840D01*
X8279775Y-15291316D01*
X8270251Y-15272269D01*
X8270251Y-15215126D01*
X8279775Y-15196078D01*
X8289299Y-15186554D01*
X8308346Y-15177031D01*
X8336918Y-15177031D01*
X8355965Y-15186554D01*
X8365489Y-15196078D01*
X8375013Y-15215126D01*
X8375013Y-15272269D01*
X8365489Y-15291316D01*
X8355965Y-15300840D01*
X8336918Y-15310364D01*
X8308346Y-15310364D01*
X8432156Y-15177031D02*
X8508346Y-15177031D01*
X8460727Y-15110364D02*
X8460727Y-15281793D01*
X8470251Y-15300840D01*
X8489299Y-15310364D01*
X8508346Y-15310364D01*
X8727394Y-15177031D02*
X8727394Y-15377031D01*
X8727394Y-15186554D02*
X8746442Y-15177031D01*
X8784537Y-15177031D01*
X8803584Y-15186554D01*
X8813108Y-15196078D01*
X8822632Y-15215126D01*
X8822632Y-15272269D01*
X8813108Y-15291316D01*
X8803584Y-15300840D01*
X8784537Y-15310364D01*
X8746442Y-15310364D01*
X8727394Y-15300840D01*
X8936918Y-15310364D02*
X8917870Y-15300840D01*
X8908346Y-15281793D01*
X8908346Y-15110364D01*
X9098822Y-15310364D02*
X9098822Y-15205602D01*
X9089299Y-15186554D01*
X9070251Y-15177031D01*
X9032156Y-15177031D01*
X9013108Y-15186554D01*
X9098822Y-15300840D02*
X9079775Y-15310364D01*
X9032156Y-15310364D01*
X9013108Y-15300840D01*
X9003584Y-15281793D01*
X9003584Y-15262745D01*
X9013108Y-15243697D01*
X9032156Y-15234174D01*
X9079775Y-15234174D01*
X9098822Y-15224650D01*
X9165489Y-15177031D02*
X9241680Y-15177031D01*
X9194061Y-15110364D02*
X9194061Y-15281793D01*
X9203584Y-15300840D01*
X9222632Y-15310364D01*
X9241680Y-15310364D01*
X9384537Y-15300840D02*
X9365489Y-15310364D01*
X9327394Y-15310364D01*
X9308346Y-15300840D01*
X9298822Y-15281793D01*
X9298822Y-15205602D01*
X9308346Y-15186554D01*
X9327394Y-15177031D01*
X9365489Y-15177031D01*
X9384537Y-15186554D01*
X9394061Y-15205602D01*
X9394061Y-15224650D01*
X9298822Y-15243697D01*
X9565489Y-15310364D02*
X9565489Y-15110364D01*
X9565489Y-15300840D02*
X9546442Y-15310364D01*
X9508346Y-15310364D01*
X9489299Y-15300840D01*
X9479775Y-15291316D01*
X9470251Y-15272269D01*
X9470251Y-15215126D01*
X9479775Y-15196078D01*
X9489299Y-15186554D01*
X9508346Y-15177031D01*
X9546442Y-15177031D01*
X9565489Y-15186554D01*
X9641680Y-15386554D02*
X9651203Y-15377031D01*
X9670251Y-15348459D01*
X9679775Y-15329412D01*
X9689299Y-15300840D01*
X9698822Y-15253221D01*
X9698822Y-15215126D01*
X9689299Y-15167507D01*
X9679775Y-15138935D01*
X9670251Y-15119888D01*
X9651203Y-15091316D01*
X9641680Y-15081793D01*
D13*
X2888822Y-15483888D02*
G75*
G03*
X2888822Y-15483888I-57600J0D01*
G01*
D11*
X3251203Y-15574364D02*
X3136918Y-15574364D01*
X3194060Y-15574364D02*
X3194060Y-15374364D01*
X3175013Y-15402935D01*
X3155965Y-15421983D01*
X3136918Y-15431507D01*
X3336918Y-15555316D02*
X3346441Y-15564840D01*
X3336918Y-15574364D01*
X3327394Y-15564840D01*
X3336918Y-15555316D01*
X3336918Y-15574364D01*
X3536918Y-15574364D02*
X3422632Y-15574364D01*
X3479775Y-15574364D02*
X3479775Y-15374364D01*
X3460727Y-15402935D01*
X3441680Y-15421983D01*
X3422632Y-15431507D01*
X3717870Y-15374364D02*
X3622632Y-15374364D01*
X3613108Y-15469602D01*
X3622632Y-15460078D01*
X3641680Y-15450554D01*
X3689299Y-15450554D01*
X3708346Y-15460078D01*
X3717870Y-15469602D01*
X3727394Y-15488650D01*
X3727394Y-15536269D01*
X3717870Y-15555316D01*
X3708346Y-15564840D01*
X3689299Y-15574364D01*
X3641680Y-15574364D01*
X3622632Y-15564840D01*
X3613108Y-15555316D01*
X3803584Y-15393412D02*
X3813108Y-15383888D01*
X3832156Y-15374364D01*
X3879775Y-15374364D01*
X3898822Y-15383888D01*
X3908346Y-15393412D01*
X3917870Y-15412459D01*
X3917870Y-15431507D01*
X3908346Y-15460078D01*
X3794060Y-15574364D01*
X3917870Y-15574364D01*
X4003584Y-15574364D02*
X4003584Y-15441031D01*
X4003584Y-15460078D02*
X4013108Y-15450554D01*
X4032156Y-15441031D01*
X4060727Y-15441031D01*
X4079775Y-15450554D01*
X4089299Y-15469602D01*
X4089299Y-15574364D01*
X4089299Y-15469602D02*
X4098822Y-15450554D01*
X4117870Y-15441031D01*
X4146441Y-15441031D01*
X4165489Y-15450554D01*
X4175013Y-15469602D01*
X4175013Y-15574364D01*
X4270251Y-15574364D02*
X4270251Y-15441031D01*
X4270251Y-15460078D02*
X4279775Y-15450554D01*
X4298823Y-15441031D01*
X4327394Y-15441031D01*
X4346442Y-15450554D01*
X4355965Y-15469602D01*
X4355965Y-15574364D01*
X4355965Y-15469602D02*
X4365489Y-15450554D01*
X4384537Y-15441031D01*
X4413108Y-15441031D01*
X4432156Y-15450554D01*
X4441680Y-15469602D01*
X4441680Y-15574364D01*
X4832156Y-15364840D02*
X4660727Y-15621983D01*
X5089299Y-15374364D02*
X5108346Y-15374364D01*
X5127394Y-15383888D01*
X5136918Y-15393412D01*
X5146442Y-15412459D01*
X5155965Y-15450554D01*
X5155965Y-15498174D01*
X5146442Y-15536269D01*
X5136918Y-15555316D01*
X5127394Y-15564840D01*
X5108346Y-15574364D01*
X5089299Y-15574364D01*
X5070251Y-15564840D01*
X5060727Y-15555316D01*
X5051203Y-15536269D01*
X5041680Y-15498174D01*
X5041680Y-15450554D01*
X5051203Y-15412459D01*
X5060727Y-15393412D01*
X5070251Y-15383888D01*
X5089299Y-15374364D01*
X5241680Y-15555316D02*
X5251203Y-15564840D01*
X5241680Y-15574364D01*
X5232156Y-15564840D01*
X5241680Y-15555316D01*
X5241680Y-15574364D01*
X5375013Y-15374364D02*
X5394061Y-15374364D01*
X5413108Y-15383888D01*
X5422632Y-15393412D01*
X5432156Y-15412459D01*
X5441680Y-15450554D01*
X5441680Y-15498174D01*
X5432156Y-15536269D01*
X5422632Y-15555316D01*
X5413108Y-15564840D01*
X5394061Y-15574364D01*
X5375013Y-15574364D01*
X5355965Y-15564840D01*
X5346442Y-15555316D01*
X5336918Y-15536269D01*
X5327394Y-15498174D01*
X5327394Y-15450554D01*
X5336918Y-15412459D01*
X5346442Y-15393412D01*
X5355965Y-15383888D01*
X5375013Y-15374364D01*
X5613108Y-15441031D02*
X5613108Y-15574364D01*
X5565489Y-15364840D02*
X5517870Y-15507697D01*
X5641680Y-15507697D01*
X5813108Y-15374364D02*
X5717870Y-15374364D01*
X5708346Y-15469602D01*
X5717870Y-15460078D01*
X5736918Y-15450554D01*
X5784537Y-15450554D01*
X5803584Y-15460078D01*
X5813108Y-15469602D01*
X5822632Y-15488650D01*
X5822632Y-15536269D01*
X5813108Y-15555316D01*
X5803584Y-15564840D01*
X5784537Y-15574364D01*
X5736918Y-15574364D01*
X5717870Y-15564840D01*
X5708346Y-15555316D01*
X5994060Y-15441031D02*
X5994060Y-15574364D01*
X5946441Y-15364840D02*
X5898822Y-15507697D01*
X6022632Y-15507697D01*
X6089299Y-15374364D02*
X6089299Y-15412459D01*
X6165489Y-15374364D02*
X6165489Y-15412459D01*
X6460727Y-15650554D02*
X6451203Y-15641031D01*
X6432156Y-15612459D01*
X6422632Y-15593412D01*
X6413108Y-15564840D01*
X6403584Y-15517221D01*
X6403584Y-15479126D01*
X6413108Y-15431507D01*
X6422632Y-15402935D01*
X6432156Y-15383888D01*
X6451203Y-15355316D01*
X6460727Y-15345793D01*
X6622632Y-15441031D02*
X6622632Y-15574364D01*
X6575013Y-15364840D02*
X6527394Y-15507697D01*
X6651203Y-15507697D01*
X6879775Y-15574364D02*
X6879775Y-15374364D01*
X6965489Y-15574364D02*
X6965489Y-15469602D01*
X6955965Y-15450554D01*
X6936918Y-15441031D01*
X6908346Y-15441031D01*
X6889299Y-15450554D01*
X6879775Y-15460078D01*
X7089299Y-15574364D02*
X7070251Y-15564840D01*
X7060727Y-15555316D01*
X7051203Y-15536269D01*
X7051203Y-15479126D01*
X7060727Y-15460078D01*
X7070251Y-15450554D01*
X7089299Y-15441031D01*
X7117870Y-15441031D01*
X7136918Y-15450554D01*
X7146441Y-15460078D01*
X7155965Y-15479126D01*
X7155965Y-15536269D01*
X7146441Y-15555316D01*
X7136918Y-15564840D01*
X7117870Y-15574364D01*
X7089299Y-15574364D01*
X7270251Y-15574364D02*
X7251203Y-15564840D01*
X7241680Y-15545793D01*
X7241680Y-15374364D01*
X7422632Y-15564840D02*
X7403584Y-15574364D01*
X7365489Y-15574364D01*
X7346441Y-15564840D01*
X7336918Y-15545793D01*
X7336918Y-15469602D01*
X7346441Y-15450554D01*
X7365489Y-15441031D01*
X7403584Y-15441031D01*
X7422632Y-15450554D01*
X7432156Y-15469602D01*
X7432156Y-15488650D01*
X7336918Y-15507697D01*
X7508346Y-15564840D02*
X7527394Y-15574364D01*
X7565489Y-15574364D01*
X7584537Y-15564840D01*
X7594060Y-15545793D01*
X7594060Y-15536269D01*
X7584537Y-15517221D01*
X7565489Y-15507697D01*
X7536918Y-15507697D01*
X7517870Y-15498174D01*
X7508346Y-15479126D01*
X7508346Y-15469602D01*
X7517870Y-15450554D01*
X7536918Y-15441031D01*
X7565489Y-15441031D01*
X7584537Y-15450554D01*
X7660727Y-15650554D02*
X7670251Y-15641031D01*
X7689299Y-15612459D01*
X7698822Y-15593412D01*
X7708346Y-15564840D01*
X7717870Y-15517221D01*
X7717870Y-15479126D01*
X7708346Y-15431507D01*
X7698822Y-15402935D01*
X7689299Y-15383888D01*
X7670251Y-15355316D01*
X7660727Y-15345793D01*
X8022632Y-15650554D02*
X8013108Y-15641031D01*
X7994060Y-15612459D01*
X7984537Y-15593412D01*
X7975013Y-15564840D01*
X7965489Y-15517221D01*
X7965489Y-15479126D01*
X7975013Y-15431507D01*
X7984537Y-15402935D01*
X7994060Y-15383888D01*
X8013108Y-15355316D01*
X8022632Y-15345793D01*
X8098822Y-15441031D02*
X8098822Y-15574364D01*
X8098822Y-15460078D02*
X8108346Y-15450554D01*
X8127394Y-15441031D01*
X8155965Y-15441031D01*
X8175013Y-15450554D01*
X8184537Y-15469602D01*
X8184537Y-15574364D01*
X8308346Y-15574364D02*
X8289299Y-15564840D01*
X8279775Y-15555316D01*
X8270251Y-15536269D01*
X8270251Y-15479126D01*
X8279775Y-15460078D01*
X8289299Y-15450554D01*
X8308346Y-15441031D01*
X8336918Y-15441031D01*
X8355965Y-15450554D01*
X8365489Y-15460078D01*
X8375013Y-15479126D01*
X8375013Y-15536269D01*
X8365489Y-15555316D01*
X8355965Y-15564840D01*
X8336918Y-15574364D01*
X8308346Y-15574364D01*
X8432156Y-15441031D02*
X8508346Y-15441031D01*
X8460727Y-15374364D02*
X8460727Y-15545793D01*
X8470251Y-15564840D01*
X8489299Y-15574364D01*
X8508346Y-15574364D01*
X8727394Y-15441031D02*
X8727394Y-15641031D01*
X8727394Y-15450554D02*
X8746442Y-15441031D01*
X8784537Y-15441031D01*
X8803584Y-15450554D01*
X8813108Y-15460078D01*
X8822632Y-15479126D01*
X8822632Y-15536269D01*
X8813108Y-15555316D01*
X8803584Y-15564840D01*
X8784537Y-15574364D01*
X8746442Y-15574364D01*
X8727394Y-15564840D01*
X8936918Y-15574364D02*
X8917870Y-15564840D01*
X8908346Y-15545793D01*
X8908346Y-15374364D01*
X9098822Y-15574364D02*
X9098822Y-15469602D01*
X9089299Y-15450554D01*
X9070251Y-15441031D01*
X9032156Y-15441031D01*
X9013108Y-15450554D01*
X9098822Y-15564840D02*
X9079775Y-15574364D01*
X9032156Y-15574364D01*
X9013108Y-15564840D01*
X9003584Y-15545793D01*
X9003584Y-15526745D01*
X9013108Y-15507697D01*
X9032156Y-15498174D01*
X9079775Y-15498174D01*
X9098822Y-15488650D01*
X9165489Y-15441031D02*
X9241680Y-15441031D01*
X9194061Y-15374364D02*
X9194061Y-15545793D01*
X9203584Y-15564840D01*
X9222632Y-15574364D01*
X9241680Y-15574364D01*
X9384537Y-15564840D02*
X9365489Y-15574364D01*
X9327394Y-15574364D01*
X9308346Y-15564840D01*
X9298822Y-15545793D01*
X9298822Y-15469602D01*
X9308346Y-15450554D01*
X9327394Y-15441031D01*
X9365489Y-15441031D01*
X9384537Y-15450554D01*
X9394061Y-15469602D01*
X9394061Y-15488650D01*
X9298822Y-15507697D01*
X9565489Y-15574364D02*
X9565489Y-15374364D01*
X9565489Y-15564840D02*
X9546442Y-15574364D01*
X9508346Y-15574364D01*
X9489299Y-15564840D01*
X9479775Y-15555316D01*
X9470251Y-15536269D01*
X9470251Y-15479126D01*
X9479775Y-15460078D01*
X9489299Y-15450554D01*
X9508346Y-15441031D01*
X9546442Y-15441031D01*
X9565489Y-15450554D01*
X9641680Y-15650554D02*
X9651203Y-15641031D01*
X9670251Y-15612459D01*
X9679775Y-15593412D01*
X9689299Y-15564840D01*
X9698822Y-15517221D01*
X9698822Y-15479126D01*
X9689299Y-15431507D01*
X9679775Y-15402935D01*
X9670251Y-15383888D01*
X9651203Y-15355316D01*
X9641680Y-15345793D01*
D14*
X2801322Y-15660388D02*
X2801322Y-15835388D01*
X2713823Y-15747888D02*
X2888822Y-15747888D01*
D11*
X3251203Y-15838364D02*
X3136918Y-15838364D01*
X3194060Y-15838364D02*
X3194060Y-15638364D01*
X3175013Y-15666935D01*
X3155965Y-15685983D01*
X3136918Y-15695507D01*
X3336918Y-15819316D02*
X3346441Y-15828840D01*
X3336918Y-15838364D01*
X3327394Y-15828840D01*
X3336918Y-15819316D01*
X3336918Y-15838364D01*
X3413108Y-15638364D02*
X3546441Y-15638364D01*
X3460727Y-15838364D01*
X3717870Y-15638364D02*
X3622632Y-15638364D01*
X3613108Y-15733602D01*
X3622632Y-15724078D01*
X3641680Y-15714554D01*
X3689299Y-15714554D01*
X3708346Y-15724078D01*
X3717870Y-15733602D01*
X3727394Y-15752650D01*
X3727394Y-15800269D01*
X3717870Y-15819316D01*
X3708346Y-15828840D01*
X3689299Y-15838364D01*
X3641680Y-15838364D01*
X3622632Y-15828840D01*
X3613108Y-15819316D01*
X3851203Y-15638364D02*
X3870251Y-15638364D01*
X3889299Y-15647888D01*
X3898822Y-15657412D01*
X3908346Y-15676459D01*
X3917870Y-15714554D01*
X3917870Y-15762174D01*
X3908346Y-15800269D01*
X3898822Y-15819316D01*
X3889299Y-15828840D01*
X3870251Y-15838364D01*
X3851203Y-15838364D01*
X3832156Y-15828840D01*
X3822632Y-15819316D01*
X3813108Y-15800269D01*
X3803584Y-15762174D01*
X3803584Y-15714554D01*
X3813108Y-15676459D01*
X3822632Y-15657412D01*
X3832156Y-15647888D01*
X3851203Y-15638364D01*
X4003584Y-15838364D02*
X4003584Y-15705031D01*
X4003584Y-15724078D02*
X4013108Y-15714554D01*
X4032156Y-15705031D01*
X4060727Y-15705031D01*
X4079775Y-15714554D01*
X4089299Y-15733602D01*
X4089299Y-15838364D01*
X4089299Y-15733602D02*
X4098822Y-15714554D01*
X4117870Y-15705031D01*
X4146441Y-15705031D01*
X4165489Y-15714554D01*
X4175013Y-15733602D01*
X4175013Y-15838364D01*
X4270251Y-15838364D02*
X4270251Y-15705031D01*
X4270251Y-15724078D02*
X4279775Y-15714554D01*
X4298823Y-15705031D01*
X4327394Y-15705031D01*
X4346442Y-15714554D01*
X4355965Y-15733602D01*
X4355965Y-15838364D01*
X4355965Y-15733602D02*
X4365489Y-15714554D01*
X4384537Y-15705031D01*
X4413108Y-15705031D01*
X4432156Y-15714554D01*
X4441680Y-15733602D01*
X4441680Y-15838364D01*
X4832156Y-15628840D02*
X4660727Y-15885983D01*
X5089299Y-15638364D02*
X5108346Y-15638364D01*
X5127394Y-15647888D01*
X5136918Y-15657412D01*
X5146442Y-15676459D01*
X5155965Y-15714554D01*
X5155965Y-15762174D01*
X5146442Y-15800269D01*
X5136918Y-15819316D01*
X5127394Y-15828840D01*
X5108346Y-15838364D01*
X5089299Y-15838364D01*
X5070251Y-15828840D01*
X5060727Y-15819316D01*
X5051203Y-15800269D01*
X5041680Y-15762174D01*
X5041680Y-15714554D01*
X5051203Y-15676459D01*
X5060727Y-15657412D01*
X5070251Y-15647888D01*
X5089299Y-15638364D01*
X5241680Y-15819316D02*
X5251203Y-15828840D01*
X5241680Y-15838364D01*
X5232156Y-15828840D01*
X5241680Y-15819316D01*
X5241680Y-15838364D01*
X5375013Y-15638364D02*
X5394061Y-15638364D01*
X5413108Y-15647888D01*
X5422632Y-15657412D01*
X5432156Y-15676459D01*
X5441680Y-15714554D01*
X5441680Y-15762174D01*
X5432156Y-15800269D01*
X5422632Y-15819316D01*
X5413108Y-15828840D01*
X5394061Y-15838364D01*
X5375013Y-15838364D01*
X5355965Y-15828840D01*
X5346442Y-15819316D01*
X5336918Y-15800269D01*
X5327394Y-15762174D01*
X5327394Y-15714554D01*
X5336918Y-15676459D01*
X5346442Y-15657412D01*
X5355965Y-15647888D01*
X5375013Y-15638364D01*
X5613108Y-15638364D02*
X5575013Y-15638364D01*
X5555965Y-15647888D01*
X5546442Y-15657412D01*
X5527394Y-15685983D01*
X5517870Y-15724078D01*
X5517870Y-15800269D01*
X5527394Y-15819316D01*
X5536918Y-15828840D01*
X5555965Y-15838364D01*
X5594060Y-15838364D01*
X5613108Y-15828840D01*
X5622632Y-15819316D01*
X5632156Y-15800269D01*
X5632156Y-15752650D01*
X5622632Y-15733602D01*
X5613108Y-15724078D01*
X5594060Y-15714554D01*
X5555965Y-15714554D01*
X5536918Y-15724078D01*
X5527394Y-15733602D01*
X5517870Y-15752650D01*
X5746441Y-15724078D02*
X5727394Y-15714554D01*
X5717870Y-15705031D01*
X5708346Y-15685983D01*
X5708346Y-15676459D01*
X5717870Y-15657412D01*
X5727394Y-15647888D01*
X5746441Y-15638364D01*
X5784537Y-15638364D01*
X5803584Y-15647888D01*
X5813108Y-15657412D01*
X5822632Y-15676459D01*
X5822632Y-15685983D01*
X5813108Y-15705031D01*
X5803584Y-15714554D01*
X5784537Y-15724078D01*
X5746441Y-15724078D01*
X5727394Y-15733602D01*
X5717870Y-15743126D01*
X5708346Y-15762174D01*
X5708346Y-15800269D01*
X5717870Y-15819316D01*
X5727394Y-15828840D01*
X5746441Y-15838364D01*
X5784537Y-15838364D01*
X5803584Y-15828840D01*
X5813108Y-15819316D01*
X5822632Y-15800269D01*
X5822632Y-15762174D01*
X5813108Y-15743126D01*
X5803584Y-15733602D01*
X5784537Y-15724078D01*
X5917870Y-15838364D02*
X5955965Y-15838364D01*
X5975013Y-15828840D01*
X5984537Y-15819316D01*
X6003584Y-15790745D01*
X6013108Y-15752650D01*
X6013108Y-15676459D01*
X6003584Y-15657412D01*
X5994060Y-15647888D01*
X5975013Y-15638364D01*
X5936918Y-15638364D01*
X5917870Y-15647888D01*
X5908346Y-15657412D01*
X5898822Y-15676459D01*
X5898822Y-15724078D01*
X5908346Y-15743126D01*
X5917870Y-15752650D01*
X5936918Y-15762174D01*
X5975013Y-15762174D01*
X5994060Y-15752650D01*
X6003584Y-15743126D01*
X6013108Y-15724078D01*
X6089299Y-15638364D02*
X6089299Y-15676459D01*
X6165489Y-15638364D02*
X6165489Y-15676459D01*
X6460727Y-15914554D02*
X6451203Y-15905031D01*
X6432156Y-15876459D01*
X6422632Y-15857412D01*
X6413108Y-15828840D01*
X6403584Y-15781221D01*
X6403584Y-15743126D01*
X6413108Y-15695507D01*
X6422632Y-15666935D01*
X6432156Y-15647888D01*
X6451203Y-15619316D01*
X6460727Y-15609793D01*
X6641680Y-15838364D02*
X6527394Y-15838364D01*
X6584537Y-15838364D02*
X6584537Y-15638364D01*
X6565489Y-15666935D01*
X6546441Y-15685983D01*
X6527394Y-15695507D01*
X6822632Y-15638364D02*
X6727394Y-15638364D01*
X6717870Y-15733602D01*
X6727394Y-15724078D01*
X6746441Y-15714554D01*
X6794060Y-15714554D01*
X6813108Y-15724078D01*
X6822632Y-15733602D01*
X6832156Y-15752650D01*
X6832156Y-15800269D01*
X6822632Y-15819316D01*
X6813108Y-15828840D01*
X6794060Y-15838364D01*
X6746441Y-15838364D01*
X6727394Y-15828840D01*
X6717870Y-15819316D01*
X7003584Y-15705031D02*
X7003584Y-15838364D01*
X6955965Y-15628840D02*
X6908346Y-15771697D01*
X7032156Y-15771697D01*
X7260727Y-15838364D02*
X7260727Y-15638364D01*
X7346441Y-15838364D02*
X7346441Y-15733602D01*
X7336918Y-15714554D01*
X7317870Y-15705031D01*
X7289299Y-15705031D01*
X7270251Y-15714554D01*
X7260727Y-15724078D01*
X7470251Y-15838364D02*
X7451203Y-15828840D01*
X7441680Y-15819316D01*
X7432156Y-15800269D01*
X7432156Y-15743126D01*
X7441680Y-15724078D01*
X7451203Y-15714554D01*
X7470251Y-15705031D01*
X7498822Y-15705031D01*
X7517870Y-15714554D01*
X7527394Y-15724078D01*
X7536918Y-15743126D01*
X7536918Y-15800269D01*
X7527394Y-15819316D01*
X7517870Y-15828840D01*
X7498822Y-15838364D01*
X7470251Y-15838364D01*
X7651203Y-15838364D02*
X7632156Y-15828840D01*
X7622632Y-15809793D01*
X7622632Y-15638364D01*
X7803584Y-15828840D02*
X7784537Y-15838364D01*
X7746441Y-15838364D01*
X7727394Y-15828840D01*
X7717870Y-15809793D01*
X7717870Y-15733602D01*
X7727394Y-15714554D01*
X7746441Y-15705031D01*
X7784537Y-15705031D01*
X7803584Y-15714554D01*
X7813108Y-15733602D01*
X7813108Y-15752650D01*
X7717870Y-15771697D01*
X7889299Y-15828840D02*
X7908346Y-15838364D01*
X7946441Y-15838364D01*
X7965489Y-15828840D01*
X7975013Y-15809793D01*
X7975013Y-15800269D01*
X7965489Y-15781221D01*
X7946441Y-15771697D01*
X7917870Y-15771697D01*
X7898822Y-15762174D01*
X7889299Y-15743126D01*
X7889299Y-15733602D01*
X7898822Y-15714554D01*
X7917870Y-15705031D01*
X7946441Y-15705031D01*
X7965489Y-15714554D01*
X8041680Y-15914554D02*
X8051203Y-15905031D01*
X8070251Y-15876459D01*
X8079775Y-15857412D01*
X8089299Y-15828840D01*
X8098822Y-15781221D01*
X8098822Y-15743126D01*
X8089299Y-15695507D01*
X8079775Y-15666935D01*
X8070251Y-15647888D01*
X8051203Y-15619316D01*
X8041680Y-15609793D01*
X8403584Y-15914554D02*
X8394061Y-15905031D01*
X8375013Y-15876459D01*
X8365489Y-15857412D01*
X8355965Y-15828840D01*
X8346441Y-15781221D01*
X8346441Y-15743126D01*
X8355965Y-15695507D01*
X8365489Y-15666935D01*
X8375013Y-15647888D01*
X8394061Y-15619316D01*
X8403584Y-15609793D01*
X8479775Y-15705031D02*
X8479775Y-15838364D01*
X8479775Y-15724078D02*
X8489299Y-15714554D01*
X8508346Y-15705031D01*
X8536918Y-15705031D01*
X8555965Y-15714554D01*
X8565489Y-15733602D01*
X8565489Y-15838364D01*
X8689299Y-15838364D02*
X8670251Y-15828840D01*
X8660727Y-15819316D01*
X8651203Y-15800269D01*
X8651203Y-15743126D01*
X8660727Y-15724078D01*
X8670251Y-15714554D01*
X8689299Y-15705031D01*
X8717870Y-15705031D01*
X8736918Y-15714554D01*
X8746442Y-15724078D01*
X8755965Y-15743126D01*
X8755965Y-15800269D01*
X8746442Y-15819316D01*
X8736918Y-15828840D01*
X8717870Y-15838364D01*
X8689299Y-15838364D01*
X8813108Y-15705031D02*
X8889299Y-15705031D01*
X8841680Y-15638364D02*
X8841680Y-15809793D01*
X8851203Y-15828840D01*
X8870251Y-15838364D01*
X8889299Y-15838364D01*
X9108346Y-15705031D02*
X9108346Y-15905031D01*
X9108346Y-15714554D02*
X9127394Y-15705031D01*
X9165489Y-15705031D01*
X9184537Y-15714554D01*
X9194061Y-15724078D01*
X9203584Y-15743126D01*
X9203584Y-15800269D01*
X9194061Y-15819316D01*
X9184537Y-15828840D01*
X9165489Y-15838364D01*
X9127394Y-15838364D01*
X9108346Y-15828840D01*
X9317870Y-15838364D02*
X9298822Y-15828840D01*
X9289299Y-15809793D01*
X9289299Y-15638364D01*
X9479775Y-15838364D02*
X9479775Y-15733602D01*
X9470251Y-15714554D01*
X9451203Y-15705031D01*
X9413108Y-15705031D01*
X9394061Y-15714554D01*
X9479775Y-15828840D02*
X9460727Y-15838364D01*
X9413108Y-15838364D01*
X9394061Y-15828840D01*
X9384537Y-15809793D01*
X9384537Y-15790745D01*
X9394061Y-15771697D01*
X9413108Y-15762174D01*
X9460727Y-15762174D01*
X9479775Y-15752650D01*
X9546442Y-15705031D02*
X9622632Y-15705031D01*
X9575013Y-15638364D02*
X9575013Y-15809793D01*
X9584537Y-15828840D01*
X9603584Y-15838364D01*
X9622632Y-15838364D01*
X9765489Y-15828840D02*
X9746442Y-15838364D01*
X9708346Y-15838364D01*
X9689299Y-15828840D01*
X9679775Y-15809793D01*
X9679775Y-15733602D01*
X9689299Y-15714554D01*
X9708346Y-15705031D01*
X9746442Y-15705031D01*
X9765489Y-15714554D01*
X9775013Y-15733602D01*
X9775013Y-15752650D01*
X9679775Y-15771697D01*
X9946442Y-15838364D02*
X9946442Y-15638364D01*
X9946442Y-15828840D02*
X9927394Y-15838364D01*
X9889299Y-15838364D01*
X9870251Y-15828840D01*
X9860727Y-15819316D01*
X9851203Y-15800269D01*
X9851203Y-15743126D01*
X9860727Y-15724078D01*
X9870251Y-15714554D01*
X9889299Y-15705031D01*
X9927394Y-15705031D01*
X9946442Y-15714554D01*
X10022632Y-15914554D02*
X10032156Y-15905031D01*
X10051203Y-15876459D01*
X10060727Y-15857412D01*
X10070251Y-15828840D01*
X10079775Y-15781221D01*
X10079775Y-15743126D01*
X10070251Y-15695507D01*
X10060727Y-15666935D01*
X10051203Y-15647888D01*
X10032156Y-15619316D01*
X10022632Y-15609793D01*
X2859534Y-16113599D02*
X2859534Y-15972176D01*
X2718111Y-15972176D01*
X2718111Y-16113599D01*
X2859534Y-16113599D01*
X3136918Y-15952412D02*
X3146441Y-15942888D01*
X3165489Y-15933364D01*
X3213108Y-15933364D01*
X3232156Y-15942888D01*
X3241680Y-15952412D01*
X3251203Y-15971459D01*
X3251203Y-15990507D01*
X3241680Y-16019078D01*
X3127394Y-16133364D01*
X3251203Y-16133364D01*
X3336918Y-16114316D02*
X3346441Y-16123840D01*
X3336918Y-16133364D01*
X3327394Y-16123840D01*
X3336918Y-16114316D01*
X3336918Y-16133364D01*
X3422632Y-15952412D02*
X3432156Y-15942888D01*
X3451203Y-15933364D01*
X3498822Y-15933364D01*
X3517870Y-15942888D01*
X3527394Y-15952412D01*
X3536918Y-15971459D01*
X3536918Y-15990507D01*
X3527394Y-16019078D01*
X3413108Y-16133364D01*
X3536918Y-16133364D01*
X3660727Y-15933364D02*
X3679775Y-15933364D01*
X3698822Y-15942888D01*
X3708346Y-15952412D01*
X3717870Y-15971459D01*
X3727394Y-16009554D01*
X3727394Y-16057174D01*
X3717870Y-16095269D01*
X3708346Y-16114316D01*
X3698822Y-16123840D01*
X3679775Y-16133364D01*
X3660727Y-16133364D01*
X3641680Y-16123840D01*
X3632156Y-16114316D01*
X3622632Y-16095269D01*
X3613108Y-16057174D01*
X3613108Y-16009554D01*
X3622632Y-15971459D01*
X3632156Y-15952412D01*
X3641680Y-15942888D01*
X3660727Y-15933364D01*
X3851203Y-15933364D02*
X3870251Y-15933364D01*
X3889299Y-15942888D01*
X3898822Y-15952412D01*
X3908346Y-15971459D01*
X3917870Y-16009554D01*
X3917870Y-16057174D01*
X3908346Y-16095269D01*
X3898822Y-16114316D01*
X3889299Y-16123840D01*
X3870251Y-16133364D01*
X3851203Y-16133364D01*
X3832156Y-16123840D01*
X3822632Y-16114316D01*
X3813108Y-16095269D01*
X3803584Y-16057174D01*
X3803584Y-16009554D01*
X3813108Y-15971459D01*
X3822632Y-15952412D01*
X3832156Y-15942888D01*
X3851203Y-15933364D01*
X4003584Y-16133364D02*
X4003584Y-16000031D01*
X4003584Y-16019078D02*
X4013108Y-16009554D01*
X4032156Y-16000031D01*
X4060727Y-16000031D01*
X4079775Y-16009554D01*
X4089299Y-16028602D01*
X4089299Y-16133364D01*
X4089299Y-16028602D02*
X4098822Y-16009554D01*
X4117870Y-16000031D01*
X4146441Y-16000031D01*
X4165489Y-16009554D01*
X4175013Y-16028602D01*
X4175013Y-16133364D01*
X4270251Y-16133364D02*
X4270251Y-16000031D01*
X4270251Y-16019078D02*
X4279775Y-16009554D01*
X4298823Y-16000031D01*
X4327394Y-16000031D01*
X4346442Y-16009554D01*
X4355965Y-16028602D01*
X4355965Y-16133364D01*
X4355965Y-16028602D02*
X4365489Y-16009554D01*
X4384537Y-16000031D01*
X4413108Y-16000031D01*
X4432156Y-16009554D01*
X4441680Y-16028602D01*
X4441680Y-16133364D01*
X4832156Y-15923840D02*
X4660727Y-16180983D01*
X5089299Y-15933364D02*
X5108346Y-15933364D01*
X5127394Y-15942888D01*
X5136918Y-15952412D01*
X5146442Y-15971459D01*
X5155965Y-16009554D01*
X5155965Y-16057174D01*
X5146442Y-16095269D01*
X5136918Y-16114316D01*
X5127394Y-16123840D01*
X5108346Y-16133364D01*
X5089299Y-16133364D01*
X5070251Y-16123840D01*
X5060727Y-16114316D01*
X5051203Y-16095269D01*
X5041680Y-16057174D01*
X5041680Y-16009554D01*
X5051203Y-15971459D01*
X5060727Y-15952412D01*
X5070251Y-15942888D01*
X5089299Y-15933364D01*
X5241680Y-16114316D02*
X5251203Y-16123840D01*
X5241680Y-16133364D01*
X5232156Y-16123840D01*
X5241680Y-16114316D01*
X5241680Y-16133364D01*
X5375013Y-15933364D02*
X5394061Y-15933364D01*
X5413108Y-15942888D01*
X5422632Y-15952412D01*
X5432156Y-15971459D01*
X5441680Y-16009554D01*
X5441680Y-16057174D01*
X5432156Y-16095269D01*
X5422632Y-16114316D01*
X5413108Y-16123840D01*
X5394061Y-16133364D01*
X5375013Y-16133364D01*
X5355965Y-16123840D01*
X5346442Y-16114316D01*
X5336918Y-16095269D01*
X5327394Y-16057174D01*
X5327394Y-16009554D01*
X5336918Y-15971459D01*
X5346442Y-15952412D01*
X5355965Y-15942888D01*
X5375013Y-15933364D01*
X5555965Y-16019078D02*
X5536918Y-16009554D01*
X5527394Y-16000031D01*
X5517870Y-15980983D01*
X5517870Y-15971459D01*
X5527394Y-15952412D01*
X5536918Y-15942888D01*
X5555965Y-15933364D01*
X5594060Y-15933364D01*
X5613108Y-15942888D01*
X5622632Y-15952412D01*
X5632156Y-15971459D01*
X5632156Y-15980983D01*
X5622632Y-16000031D01*
X5613108Y-16009554D01*
X5594060Y-16019078D01*
X5555965Y-16019078D01*
X5536918Y-16028602D01*
X5527394Y-16038126D01*
X5517870Y-16057174D01*
X5517870Y-16095269D01*
X5527394Y-16114316D01*
X5536918Y-16123840D01*
X5555965Y-16133364D01*
X5594060Y-16133364D01*
X5613108Y-16123840D01*
X5622632Y-16114316D01*
X5632156Y-16095269D01*
X5632156Y-16057174D01*
X5622632Y-16038126D01*
X5613108Y-16028602D01*
X5594060Y-16019078D01*
X5803584Y-15933364D02*
X5765489Y-15933364D01*
X5746441Y-15942888D01*
X5736918Y-15952412D01*
X5717870Y-15980983D01*
X5708346Y-16019078D01*
X5708346Y-16095269D01*
X5717870Y-16114316D01*
X5727394Y-16123840D01*
X5746441Y-16133364D01*
X5784537Y-16133364D01*
X5803584Y-16123840D01*
X5813108Y-16114316D01*
X5822632Y-16095269D01*
X5822632Y-16047650D01*
X5813108Y-16028602D01*
X5803584Y-16019078D01*
X5784537Y-16009554D01*
X5746441Y-16009554D01*
X5727394Y-16019078D01*
X5717870Y-16028602D01*
X5708346Y-16047650D01*
X5994060Y-15933364D02*
X5955965Y-15933364D01*
X5936918Y-15942888D01*
X5927394Y-15952412D01*
X5908346Y-15980983D01*
X5898822Y-16019078D01*
X5898822Y-16095269D01*
X5908346Y-16114316D01*
X5917870Y-16123840D01*
X5936918Y-16133364D01*
X5975013Y-16133364D01*
X5994060Y-16123840D01*
X6003584Y-16114316D01*
X6013108Y-16095269D01*
X6013108Y-16047650D01*
X6003584Y-16028602D01*
X5994060Y-16019078D01*
X5975013Y-16009554D01*
X5936918Y-16009554D01*
X5917870Y-16019078D01*
X5908346Y-16028602D01*
X5898822Y-16047650D01*
X6089299Y-15933364D02*
X6089299Y-15971459D01*
X6165489Y-15933364D02*
X6165489Y-15971459D01*
X6460727Y-16209554D02*
X6451203Y-16200031D01*
X6432156Y-16171459D01*
X6422632Y-16152412D01*
X6413108Y-16123840D01*
X6403584Y-16076221D01*
X6403584Y-16038126D01*
X6413108Y-15990507D01*
X6422632Y-15961935D01*
X6432156Y-15942888D01*
X6451203Y-15914316D01*
X6460727Y-15904793D01*
X6641680Y-16133364D02*
X6527394Y-16133364D01*
X6584537Y-16133364D02*
X6584537Y-15933364D01*
X6565489Y-15961935D01*
X6546441Y-15980983D01*
X6527394Y-15990507D01*
X6822632Y-15933364D02*
X6727394Y-15933364D01*
X6717870Y-16028602D01*
X6727394Y-16019078D01*
X6746441Y-16009554D01*
X6794060Y-16009554D01*
X6813108Y-16019078D01*
X6822632Y-16028602D01*
X6832156Y-16047650D01*
X6832156Y-16095269D01*
X6822632Y-16114316D01*
X6813108Y-16123840D01*
X6794060Y-16133364D01*
X6746441Y-16133364D01*
X6727394Y-16123840D01*
X6717870Y-16114316D01*
X7070251Y-16133364D02*
X7070251Y-15933364D01*
X7155965Y-16133364D02*
X7155965Y-16028602D01*
X7146441Y-16009554D01*
X7127394Y-16000031D01*
X7098822Y-16000031D01*
X7079775Y-16009554D01*
X7070251Y-16019078D01*
X7279775Y-16133364D02*
X7260727Y-16123840D01*
X7251203Y-16114316D01*
X7241680Y-16095269D01*
X7241680Y-16038126D01*
X7251203Y-16019078D01*
X7260727Y-16009554D01*
X7279775Y-16000031D01*
X7308346Y-16000031D01*
X7327394Y-16009554D01*
X7336918Y-16019078D01*
X7346441Y-16038126D01*
X7346441Y-16095269D01*
X7336918Y-16114316D01*
X7327394Y-16123840D01*
X7308346Y-16133364D01*
X7279775Y-16133364D01*
X7460727Y-16133364D02*
X7441680Y-16123840D01*
X7432156Y-16104793D01*
X7432156Y-15933364D01*
X7613108Y-16123840D02*
X7594060Y-16133364D01*
X7555965Y-16133364D01*
X7536918Y-16123840D01*
X7527394Y-16104793D01*
X7527394Y-16028602D01*
X7536918Y-16009554D01*
X7555965Y-16000031D01*
X7594060Y-16000031D01*
X7613108Y-16009554D01*
X7622632Y-16028602D01*
X7622632Y-16047650D01*
X7527394Y-16066697D01*
X7698822Y-16123840D02*
X7717870Y-16133364D01*
X7755965Y-16133364D01*
X7775013Y-16123840D01*
X7784537Y-16104793D01*
X7784537Y-16095269D01*
X7775013Y-16076221D01*
X7755965Y-16066697D01*
X7727394Y-16066697D01*
X7708346Y-16057174D01*
X7698822Y-16038126D01*
X7698822Y-16028602D01*
X7708346Y-16009554D01*
X7727394Y-16000031D01*
X7755965Y-16000031D01*
X7775013Y-16009554D01*
X7851203Y-16209554D02*
X7860727Y-16200031D01*
X7879775Y-16171459D01*
X7889299Y-16152412D01*
X7898822Y-16123840D01*
X7908346Y-16076221D01*
X7908346Y-16038126D01*
X7898822Y-15990507D01*
X7889299Y-15961935D01*
X7879775Y-15942888D01*
X7860727Y-15914316D01*
X7851203Y-15904793D01*
X8213108Y-16209554D02*
X8203584Y-16200031D01*
X8184537Y-16171459D01*
X8175013Y-16152412D01*
X8165489Y-16123840D01*
X8155965Y-16076221D01*
X8155965Y-16038126D01*
X8165489Y-15990507D01*
X8175013Y-15961935D01*
X8184537Y-15942888D01*
X8203584Y-15914316D01*
X8213108Y-15904793D01*
X8289299Y-16000031D02*
X8289299Y-16133364D01*
X8289299Y-16019078D02*
X8298822Y-16009554D01*
X8317870Y-16000031D01*
X8346441Y-16000031D01*
X8365489Y-16009554D01*
X8375013Y-16028602D01*
X8375013Y-16133364D01*
X8498822Y-16133364D02*
X8479775Y-16123840D01*
X8470251Y-16114316D01*
X8460727Y-16095269D01*
X8460727Y-16038126D01*
X8470251Y-16019078D01*
X8479775Y-16009554D01*
X8498822Y-16000031D01*
X8527394Y-16000031D01*
X8546442Y-16009554D01*
X8555965Y-16019078D01*
X8565489Y-16038126D01*
X8565489Y-16095269D01*
X8555965Y-16114316D01*
X8546442Y-16123840D01*
X8527394Y-16133364D01*
X8498822Y-16133364D01*
X8622632Y-16000031D02*
X8698822Y-16000031D01*
X8651203Y-15933364D02*
X8651203Y-16104793D01*
X8660727Y-16123840D01*
X8679775Y-16133364D01*
X8698822Y-16133364D01*
X8917870Y-16000031D02*
X8917870Y-16200031D01*
X8917870Y-16009554D02*
X8936918Y-16000031D01*
X8975013Y-16000031D01*
X8994061Y-16009554D01*
X9003584Y-16019078D01*
X9013108Y-16038126D01*
X9013108Y-16095269D01*
X9003584Y-16114316D01*
X8994061Y-16123840D01*
X8975013Y-16133364D01*
X8936918Y-16133364D01*
X8917870Y-16123840D01*
X9127394Y-16133364D02*
X9108346Y-16123840D01*
X9098822Y-16104793D01*
X9098822Y-15933364D01*
X9289299Y-16133364D02*
X9289299Y-16028602D01*
X9279775Y-16009554D01*
X9260727Y-16000031D01*
X9222632Y-16000031D01*
X9203584Y-16009554D01*
X9289299Y-16123840D02*
X9270251Y-16133364D01*
X9222632Y-16133364D01*
X9203584Y-16123840D01*
X9194061Y-16104793D01*
X9194061Y-16085745D01*
X9203584Y-16066697D01*
X9222632Y-16057174D01*
X9270251Y-16057174D01*
X9289299Y-16047650D01*
X9355965Y-16000031D02*
X9432156Y-16000031D01*
X9384537Y-15933364D02*
X9384537Y-16104793D01*
X9394061Y-16123840D01*
X9413108Y-16133364D01*
X9432156Y-16133364D01*
X9575013Y-16123840D02*
X9555965Y-16133364D01*
X9517870Y-16133364D01*
X9498822Y-16123840D01*
X9489299Y-16104793D01*
X9489299Y-16028602D01*
X9498822Y-16009554D01*
X9517870Y-16000031D01*
X9555965Y-16000031D01*
X9575013Y-16009554D01*
X9584537Y-16028602D01*
X9584537Y-16047650D01*
X9489299Y-16066697D01*
X9755965Y-16133364D02*
X9755965Y-15933364D01*
X9755965Y-16123840D02*
X9736918Y-16133364D01*
X9698822Y-16133364D01*
X9679775Y-16123840D01*
X9670251Y-16114316D01*
X9660727Y-16095269D01*
X9660727Y-16038126D01*
X9670251Y-16019078D01*
X9679775Y-16009554D01*
X9698822Y-16000031D01*
X9736918Y-16000031D01*
X9755965Y-16009554D01*
X9832156Y-16209554D02*
X9841680Y-16200031D01*
X9860727Y-16171459D01*
X9870251Y-16152412D01*
X9879775Y-16123840D01*
X9889299Y-16076221D01*
X9889299Y-16038126D01*
X9879775Y-15990507D01*
X9870251Y-15961935D01*
X9860727Y-15942888D01*
X9841680Y-15914316D01*
X9832156Y-15904793D01*
X2788823Y-16462888D02*
X2888822Y-16362888D01*
X2788823Y-16262888D01*
X2688823Y-16362888D01*
X2788823Y-16462888D01*
X3127394Y-16253364D02*
X3251203Y-16253364D01*
X3184537Y-16329554D01*
X3213108Y-16329554D01*
X3232156Y-16339078D01*
X3241680Y-16348602D01*
X3251203Y-16367650D01*
X3251203Y-16415269D01*
X3241680Y-16434316D01*
X3232156Y-16443840D01*
X3213108Y-16453364D01*
X3155965Y-16453364D01*
X3136918Y-16443840D01*
X3127394Y-16434316D01*
X3336918Y-16434316D02*
X3346441Y-16443840D01*
X3336918Y-16453364D01*
X3327394Y-16443840D01*
X3336918Y-16434316D01*
X3336918Y-16453364D01*
X3470251Y-16253364D02*
X3489299Y-16253364D01*
X3508346Y-16262888D01*
X3517870Y-16272412D01*
X3527394Y-16291459D01*
X3536918Y-16329554D01*
X3536918Y-16377174D01*
X3527394Y-16415269D01*
X3517870Y-16434316D01*
X3508346Y-16443840D01*
X3489299Y-16453364D01*
X3470251Y-16453364D01*
X3451203Y-16443840D01*
X3441680Y-16434316D01*
X3432156Y-16415269D01*
X3422632Y-16377174D01*
X3422632Y-16329554D01*
X3432156Y-16291459D01*
X3441680Y-16272412D01*
X3451203Y-16262888D01*
X3470251Y-16253364D01*
X3660727Y-16253364D02*
X3679775Y-16253364D01*
X3698822Y-16262888D01*
X3708346Y-16272412D01*
X3717870Y-16291459D01*
X3727394Y-16329554D01*
X3727394Y-16377174D01*
X3717870Y-16415269D01*
X3708346Y-16434316D01*
X3698822Y-16443840D01*
X3679775Y-16453364D01*
X3660727Y-16453364D01*
X3641680Y-16443840D01*
X3632156Y-16434316D01*
X3622632Y-16415269D01*
X3613108Y-16377174D01*
X3613108Y-16329554D01*
X3622632Y-16291459D01*
X3632156Y-16272412D01*
X3641680Y-16262888D01*
X3660727Y-16253364D01*
X3851203Y-16253364D02*
X3870251Y-16253364D01*
X3889299Y-16262888D01*
X3898822Y-16272412D01*
X3908346Y-16291459D01*
X3917870Y-16329554D01*
X3917870Y-16377174D01*
X3908346Y-16415269D01*
X3898822Y-16434316D01*
X3889299Y-16443840D01*
X3870251Y-16453364D01*
X3851203Y-16453364D01*
X3832156Y-16443840D01*
X3822632Y-16434316D01*
X3813108Y-16415269D01*
X3803584Y-16377174D01*
X3803584Y-16329554D01*
X3813108Y-16291459D01*
X3822632Y-16272412D01*
X3832156Y-16262888D01*
X3851203Y-16253364D01*
X4003584Y-16453364D02*
X4003584Y-16320031D01*
X4003584Y-16339078D02*
X4013108Y-16329554D01*
X4032156Y-16320031D01*
X4060727Y-16320031D01*
X4079775Y-16329554D01*
X4089299Y-16348602D01*
X4089299Y-16453364D01*
X4089299Y-16348602D02*
X4098822Y-16329554D01*
X4117870Y-16320031D01*
X4146441Y-16320031D01*
X4165489Y-16329554D01*
X4175013Y-16348602D01*
X4175013Y-16453364D01*
X4270251Y-16453364D02*
X4270251Y-16320031D01*
X4270251Y-16339078D02*
X4279775Y-16329554D01*
X4298823Y-16320031D01*
X4327394Y-16320031D01*
X4346442Y-16329554D01*
X4355965Y-16348602D01*
X4355965Y-16453364D01*
X4355965Y-16348602D02*
X4365489Y-16329554D01*
X4384537Y-16320031D01*
X4413108Y-16320031D01*
X4432156Y-16329554D01*
X4441680Y-16348602D01*
X4441680Y-16453364D01*
X4832156Y-16243840D02*
X4660727Y-16500983D01*
X5089299Y-16253364D02*
X5108346Y-16253364D01*
X5127394Y-16262888D01*
X5136918Y-16272412D01*
X5146442Y-16291459D01*
X5155965Y-16329554D01*
X5155965Y-16377174D01*
X5146442Y-16415269D01*
X5136918Y-16434316D01*
X5127394Y-16443840D01*
X5108346Y-16453364D01*
X5089299Y-16453364D01*
X5070251Y-16443840D01*
X5060727Y-16434316D01*
X5051203Y-16415269D01*
X5041680Y-16377174D01*
X5041680Y-16329554D01*
X5051203Y-16291459D01*
X5060727Y-16272412D01*
X5070251Y-16262888D01*
X5089299Y-16253364D01*
X5241680Y-16434316D02*
X5251203Y-16443840D01*
X5241680Y-16453364D01*
X5232156Y-16443840D01*
X5241680Y-16434316D01*
X5241680Y-16453364D01*
X5441680Y-16453364D02*
X5327394Y-16453364D01*
X5384537Y-16453364D02*
X5384537Y-16253364D01*
X5365489Y-16281935D01*
X5346442Y-16300983D01*
X5327394Y-16310507D01*
X5632156Y-16453364D02*
X5517870Y-16453364D01*
X5575013Y-16453364D02*
X5575013Y-16253364D01*
X5555965Y-16281935D01*
X5536918Y-16300983D01*
X5517870Y-16310507D01*
X5746441Y-16339078D02*
X5727394Y-16329554D01*
X5717870Y-16320031D01*
X5708346Y-16300983D01*
X5708346Y-16291459D01*
X5717870Y-16272412D01*
X5727394Y-16262888D01*
X5746441Y-16253364D01*
X5784537Y-16253364D01*
X5803584Y-16262888D01*
X5813108Y-16272412D01*
X5822632Y-16291459D01*
X5822632Y-16300983D01*
X5813108Y-16320031D01*
X5803584Y-16329554D01*
X5784537Y-16339078D01*
X5746441Y-16339078D01*
X5727394Y-16348602D01*
X5717870Y-16358126D01*
X5708346Y-16377174D01*
X5708346Y-16415269D01*
X5717870Y-16434316D01*
X5727394Y-16443840D01*
X5746441Y-16453364D01*
X5784537Y-16453364D01*
X5803584Y-16443840D01*
X5813108Y-16434316D01*
X5822632Y-16415269D01*
X5822632Y-16377174D01*
X5813108Y-16358126D01*
X5803584Y-16348602D01*
X5784537Y-16339078D01*
X6013108Y-16453364D02*
X5898822Y-16453364D01*
X5955965Y-16453364D02*
X5955965Y-16253364D01*
X5936918Y-16281935D01*
X5917870Y-16300983D01*
X5898822Y-16310507D01*
X6089299Y-16253364D02*
X6089299Y-16291459D01*
X6165489Y-16253364D02*
X6165489Y-16291459D01*
X6460727Y-16529554D02*
X6451203Y-16520031D01*
X6432156Y-16491459D01*
X6422632Y-16472412D01*
X6413108Y-16443840D01*
X6403584Y-16396221D01*
X6403584Y-16358126D01*
X6413108Y-16310507D01*
X6422632Y-16281935D01*
X6432156Y-16262888D01*
X6451203Y-16234316D01*
X6460727Y-16224793D01*
X6641680Y-16453364D02*
X6527394Y-16453364D01*
X6584537Y-16453364D02*
X6584537Y-16253364D01*
X6565489Y-16281935D01*
X6546441Y-16300983D01*
X6527394Y-16310507D01*
X6822632Y-16253364D02*
X6727394Y-16253364D01*
X6717870Y-16348602D01*
X6727394Y-16339078D01*
X6746441Y-16329554D01*
X6794060Y-16329554D01*
X6813108Y-16339078D01*
X6822632Y-16348602D01*
X6832156Y-16367650D01*
X6832156Y-16415269D01*
X6822632Y-16434316D01*
X6813108Y-16443840D01*
X6794060Y-16453364D01*
X6746441Y-16453364D01*
X6727394Y-16443840D01*
X6717870Y-16434316D01*
X7003584Y-16320031D02*
X7003584Y-16453364D01*
X6955965Y-16243840D02*
X6908346Y-16386697D01*
X7032156Y-16386697D01*
X7260727Y-16453364D02*
X7260727Y-16253364D01*
X7346441Y-16453364D02*
X7346441Y-16348602D01*
X7336918Y-16329554D01*
X7317870Y-16320031D01*
X7289299Y-16320031D01*
X7270251Y-16329554D01*
X7260727Y-16339078D01*
X7470251Y-16453364D02*
X7451203Y-16443840D01*
X7441680Y-16434316D01*
X7432156Y-16415269D01*
X7432156Y-16358126D01*
X7441680Y-16339078D01*
X7451203Y-16329554D01*
X7470251Y-16320031D01*
X7498822Y-16320031D01*
X7517870Y-16329554D01*
X7527394Y-16339078D01*
X7536918Y-16358126D01*
X7536918Y-16415269D01*
X7527394Y-16434316D01*
X7517870Y-16443840D01*
X7498822Y-16453364D01*
X7470251Y-16453364D01*
X7651203Y-16453364D02*
X7632156Y-16443840D01*
X7622632Y-16424793D01*
X7622632Y-16253364D01*
X7803584Y-16443840D02*
X7784537Y-16453364D01*
X7746441Y-16453364D01*
X7727394Y-16443840D01*
X7717870Y-16424793D01*
X7717870Y-16348602D01*
X7727394Y-16329554D01*
X7746441Y-16320031D01*
X7784537Y-16320031D01*
X7803584Y-16329554D01*
X7813108Y-16348602D01*
X7813108Y-16367650D01*
X7717870Y-16386697D01*
X7889299Y-16443840D02*
X7908346Y-16453364D01*
X7946441Y-16453364D01*
X7965489Y-16443840D01*
X7975013Y-16424793D01*
X7975013Y-16415269D01*
X7965489Y-16396221D01*
X7946441Y-16386697D01*
X7917870Y-16386697D01*
X7898822Y-16377174D01*
X7889299Y-16358126D01*
X7889299Y-16348602D01*
X7898822Y-16329554D01*
X7917870Y-16320031D01*
X7946441Y-16320031D01*
X7965489Y-16329554D01*
X8041680Y-16529554D02*
X8051203Y-16520031D01*
X8070251Y-16491459D01*
X8079775Y-16472412D01*
X8089299Y-16443840D01*
X8098822Y-16396221D01*
X8098822Y-16358126D01*
X8089299Y-16310507D01*
X8079775Y-16281935D01*
X8070251Y-16262888D01*
X8051203Y-16234316D01*
X8041680Y-16224793D01*
X8403584Y-16529554D02*
X8394061Y-16520031D01*
X8375013Y-16491459D01*
X8365489Y-16472412D01*
X8355965Y-16443840D01*
X8346441Y-16396221D01*
X8346441Y-16358126D01*
X8355965Y-16310507D01*
X8365489Y-16281935D01*
X8375013Y-16262888D01*
X8394061Y-16234316D01*
X8403584Y-16224793D01*
X8479775Y-16320031D02*
X8479775Y-16453364D01*
X8479775Y-16339078D02*
X8489299Y-16329554D01*
X8508346Y-16320031D01*
X8536918Y-16320031D01*
X8555965Y-16329554D01*
X8565489Y-16348602D01*
X8565489Y-16453364D01*
X8689299Y-16453364D02*
X8670251Y-16443840D01*
X8660727Y-16434316D01*
X8651203Y-16415269D01*
X8651203Y-16358126D01*
X8660727Y-16339078D01*
X8670251Y-16329554D01*
X8689299Y-16320031D01*
X8717870Y-16320031D01*
X8736918Y-16329554D01*
X8746442Y-16339078D01*
X8755965Y-16358126D01*
X8755965Y-16415269D01*
X8746442Y-16434316D01*
X8736918Y-16443840D01*
X8717870Y-16453364D01*
X8689299Y-16453364D01*
X8813108Y-16320031D02*
X8889299Y-16320031D01*
X8841680Y-16253364D02*
X8841680Y-16424793D01*
X8851203Y-16443840D01*
X8870251Y-16453364D01*
X8889299Y-16453364D01*
X9108346Y-16320031D02*
X9108346Y-16520031D01*
X9108346Y-16329554D02*
X9127394Y-16320031D01*
X9165489Y-16320031D01*
X9184537Y-16329554D01*
X9194061Y-16339078D01*
X9203584Y-16358126D01*
X9203584Y-16415269D01*
X9194061Y-16434316D01*
X9184537Y-16443840D01*
X9165489Y-16453364D01*
X9127394Y-16453364D01*
X9108346Y-16443840D01*
X9317870Y-16453364D02*
X9298822Y-16443840D01*
X9289299Y-16424793D01*
X9289299Y-16253364D01*
X9479775Y-16453364D02*
X9479775Y-16348602D01*
X9470251Y-16329554D01*
X9451203Y-16320031D01*
X9413108Y-16320031D01*
X9394061Y-16329554D01*
X9479775Y-16443840D02*
X9460727Y-16453364D01*
X9413108Y-16453364D01*
X9394061Y-16443840D01*
X9384537Y-16424793D01*
X9384537Y-16405745D01*
X9394061Y-16386697D01*
X9413108Y-16377174D01*
X9460727Y-16377174D01*
X9479775Y-16367650D01*
X9546442Y-16320031D02*
X9622632Y-16320031D01*
X9575013Y-16253364D02*
X9575013Y-16424793D01*
X9584537Y-16443840D01*
X9603584Y-16453364D01*
X9622632Y-16453364D01*
X9765489Y-16443840D02*
X9746442Y-16453364D01*
X9708346Y-16453364D01*
X9689299Y-16443840D01*
X9679775Y-16424793D01*
X9679775Y-16348602D01*
X9689299Y-16329554D01*
X9708346Y-16320031D01*
X9746442Y-16320031D01*
X9765489Y-16329554D01*
X9775013Y-16348602D01*
X9775013Y-16367650D01*
X9679775Y-16386697D01*
X9946442Y-16453364D02*
X9946442Y-16253364D01*
X9946442Y-16443840D02*
X9927394Y-16453364D01*
X9889299Y-16453364D01*
X9870251Y-16443840D01*
X9860727Y-16434316D01*
X9851203Y-16415269D01*
X9851203Y-16358126D01*
X9860727Y-16339078D01*
X9870251Y-16329554D01*
X9889299Y-16320031D01*
X9927394Y-16320031D01*
X9946442Y-16329554D01*
X10022632Y-16529554D02*
X10032156Y-16520031D01*
X10051203Y-16491459D01*
X10060727Y-16472412D01*
X10070251Y-16443840D01*
X10079775Y-16396221D01*
X10079775Y-16358126D01*
X10070251Y-16310507D01*
X10060727Y-16281935D01*
X10051203Y-16262888D01*
X10032156Y-16234316D01*
X10022632Y-16224793D01*
X2688823Y-16582888D02*
X2888822Y-16782888D01*
X2888822Y-16582888D02*
X2688823Y-16782888D01*
X2888822Y-16682888D02*
G75*
G03*
X2888822Y-16682888I-100000J0D01*
G01*
X3127394Y-16573364D02*
X3251203Y-16573364D01*
X3184537Y-16649554D01*
X3213108Y-16649554D01*
X3232156Y-16659078D01*
X3241680Y-16668602D01*
X3251203Y-16687650D01*
X3251203Y-16735269D01*
X3241680Y-16754316D01*
X3232156Y-16763840D01*
X3213108Y-16773364D01*
X3155965Y-16773364D01*
X3136918Y-16763840D01*
X3127394Y-16754316D01*
X3336918Y-16754316D02*
X3346441Y-16763840D01*
X3336918Y-16773364D01*
X3327394Y-16763840D01*
X3336918Y-16754316D01*
X3336918Y-16773364D01*
X3470251Y-16573364D02*
X3489299Y-16573364D01*
X3508346Y-16582888D01*
X3517870Y-16592412D01*
X3527394Y-16611459D01*
X3536918Y-16649554D01*
X3536918Y-16697174D01*
X3527394Y-16735269D01*
X3517870Y-16754316D01*
X3508346Y-16763840D01*
X3489299Y-16773364D01*
X3470251Y-16773364D01*
X3451203Y-16763840D01*
X3441680Y-16754316D01*
X3432156Y-16735269D01*
X3422632Y-16697174D01*
X3422632Y-16649554D01*
X3432156Y-16611459D01*
X3441680Y-16592412D01*
X3451203Y-16582888D01*
X3470251Y-16573364D01*
X3708346Y-16640031D02*
X3708346Y-16773364D01*
X3660727Y-16563840D02*
X3613108Y-16706697D01*
X3736918Y-16706697D01*
X3841680Y-16659078D02*
X3822632Y-16649554D01*
X3813108Y-16640031D01*
X3803584Y-16620983D01*
X3803584Y-16611459D01*
X3813108Y-16592412D01*
X3822632Y-16582888D01*
X3841680Y-16573364D01*
X3879775Y-16573364D01*
X3898822Y-16582888D01*
X3908346Y-16592412D01*
X3917870Y-16611459D01*
X3917870Y-16620983D01*
X3908346Y-16640031D01*
X3898822Y-16649554D01*
X3879775Y-16659078D01*
X3841680Y-16659078D01*
X3822632Y-16668602D01*
X3813108Y-16678126D01*
X3803584Y-16697174D01*
X3803584Y-16735269D01*
X3813108Y-16754316D01*
X3822632Y-16763840D01*
X3841680Y-16773364D01*
X3879775Y-16773364D01*
X3898822Y-16763840D01*
X3908346Y-16754316D01*
X3917870Y-16735269D01*
X3917870Y-16697174D01*
X3908346Y-16678126D01*
X3898822Y-16668602D01*
X3879775Y-16659078D01*
X4003584Y-16773364D02*
X4003584Y-16640031D01*
X4003584Y-16659078D02*
X4013108Y-16649554D01*
X4032156Y-16640031D01*
X4060727Y-16640031D01*
X4079775Y-16649554D01*
X4089299Y-16668602D01*
X4089299Y-16773364D01*
X4089299Y-16668602D02*
X4098822Y-16649554D01*
X4117870Y-16640031D01*
X4146441Y-16640031D01*
X4165489Y-16649554D01*
X4175013Y-16668602D01*
X4175013Y-16773364D01*
X4270251Y-16773364D02*
X4270251Y-16640031D01*
X4270251Y-16659078D02*
X4279775Y-16649554D01*
X4298823Y-16640031D01*
X4327394Y-16640031D01*
X4346442Y-16649554D01*
X4355965Y-16668602D01*
X4355965Y-16773364D01*
X4355965Y-16668602D02*
X4365489Y-16649554D01*
X4384537Y-16640031D01*
X4413108Y-16640031D01*
X4432156Y-16649554D01*
X4441680Y-16668602D01*
X4441680Y-16773364D01*
X4832156Y-16563840D02*
X4660727Y-16820983D01*
X5089299Y-16573364D02*
X5108346Y-16573364D01*
X5127394Y-16582888D01*
X5136918Y-16592412D01*
X5146442Y-16611459D01*
X5155965Y-16649554D01*
X5155965Y-16697174D01*
X5146442Y-16735269D01*
X5136918Y-16754316D01*
X5127394Y-16763840D01*
X5108346Y-16773364D01*
X5089299Y-16773364D01*
X5070251Y-16763840D01*
X5060727Y-16754316D01*
X5051203Y-16735269D01*
X5041680Y-16697174D01*
X5041680Y-16649554D01*
X5051203Y-16611459D01*
X5060727Y-16592412D01*
X5070251Y-16582888D01*
X5089299Y-16573364D01*
X5241680Y-16754316D02*
X5251203Y-16763840D01*
X5241680Y-16773364D01*
X5232156Y-16763840D01*
X5241680Y-16754316D01*
X5241680Y-16773364D01*
X5441680Y-16773364D02*
X5327394Y-16773364D01*
X5384537Y-16773364D02*
X5384537Y-16573364D01*
X5365489Y-16601935D01*
X5346442Y-16620983D01*
X5327394Y-16630507D01*
X5517870Y-16592412D02*
X5527394Y-16582888D01*
X5546442Y-16573364D01*
X5594060Y-16573364D01*
X5613108Y-16582888D01*
X5622632Y-16592412D01*
X5632156Y-16611459D01*
X5632156Y-16630507D01*
X5622632Y-16659078D01*
X5508346Y-16773364D01*
X5632156Y-16773364D01*
X5755965Y-16573364D02*
X5775013Y-16573364D01*
X5794060Y-16582888D01*
X5803584Y-16592412D01*
X5813108Y-16611459D01*
X5822632Y-16649554D01*
X5822632Y-16697174D01*
X5813108Y-16735269D01*
X5803584Y-16754316D01*
X5794060Y-16763840D01*
X5775013Y-16773364D01*
X5755965Y-16773364D01*
X5736918Y-16763840D01*
X5727394Y-16754316D01*
X5717870Y-16735269D01*
X5708346Y-16697174D01*
X5708346Y-16649554D01*
X5717870Y-16611459D01*
X5727394Y-16592412D01*
X5736918Y-16582888D01*
X5755965Y-16573364D01*
X5946441Y-16573364D02*
X5965489Y-16573364D01*
X5984537Y-16582888D01*
X5994060Y-16592412D01*
X6003584Y-16611459D01*
X6013108Y-16649554D01*
X6013108Y-16697174D01*
X6003584Y-16735269D01*
X5994060Y-16754316D01*
X5984537Y-16763840D01*
X5965489Y-16773364D01*
X5946441Y-16773364D01*
X5927394Y-16763840D01*
X5917870Y-16754316D01*
X5908346Y-16735269D01*
X5898822Y-16697174D01*
X5898822Y-16649554D01*
X5908346Y-16611459D01*
X5917870Y-16592412D01*
X5927394Y-16582888D01*
X5946441Y-16573364D01*
X6089299Y-16573364D02*
X6089299Y-16611459D01*
X6165489Y-16573364D02*
X6165489Y-16611459D01*
X6460727Y-16849555D02*
X6451203Y-16840031D01*
X6432156Y-16811459D01*
X6422632Y-16792412D01*
X6413108Y-16763840D01*
X6403584Y-16716221D01*
X6403584Y-16678126D01*
X6413108Y-16630507D01*
X6422632Y-16601935D01*
X6432156Y-16582888D01*
X6451203Y-16554316D01*
X6460727Y-16544793D01*
X6622632Y-16640031D02*
X6622632Y-16773364D01*
X6575013Y-16563840D02*
X6527394Y-16706697D01*
X6651203Y-16706697D01*
X6879775Y-16773364D02*
X6879775Y-16573364D01*
X6965489Y-16773364D02*
X6965489Y-16668602D01*
X6955965Y-16649554D01*
X6936918Y-16640031D01*
X6908346Y-16640031D01*
X6889299Y-16649554D01*
X6879775Y-16659078D01*
X7089299Y-16773364D02*
X7070251Y-16763840D01*
X7060727Y-16754316D01*
X7051203Y-16735269D01*
X7051203Y-16678126D01*
X7060727Y-16659078D01*
X7070251Y-16649554D01*
X7089299Y-16640031D01*
X7117870Y-16640031D01*
X7136918Y-16649554D01*
X7146441Y-16659078D01*
X7155965Y-16678126D01*
X7155965Y-16735269D01*
X7146441Y-16754316D01*
X7136918Y-16763840D01*
X7117870Y-16773364D01*
X7089299Y-16773364D01*
X7270251Y-16773364D02*
X7251203Y-16763840D01*
X7241680Y-16744793D01*
X7241680Y-16573364D01*
X7422632Y-16763840D02*
X7403584Y-16773364D01*
X7365489Y-16773364D01*
X7346441Y-16763840D01*
X7336918Y-16744793D01*
X7336918Y-16668602D01*
X7346441Y-16649554D01*
X7365489Y-16640031D01*
X7403584Y-16640031D01*
X7422632Y-16649554D01*
X7432156Y-16668602D01*
X7432156Y-16687650D01*
X7336918Y-16706697D01*
X7508346Y-16763840D02*
X7527394Y-16773364D01*
X7565489Y-16773364D01*
X7584537Y-16763840D01*
X7594060Y-16744793D01*
X7594060Y-16735269D01*
X7584537Y-16716221D01*
X7565489Y-16706697D01*
X7536918Y-16706697D01*
X7517870Y-16697174D01*
X7508346Y-16678126D01*
X7508346Y-16668602D01*
X7517870Y-16649554D01*
X7536918Y-16640031D01*
X7565489Y-16640031D01*
X7584537Y-16649554D01*
X7660727Y-16849555D02*
X7670251Y-16840031D01*
X7689299Y-16811459D01*
X7698822Y-16792412D01*
X7708346Y-16763840D01*
X7717870Y-16716221D01*
X7717870Y-16678126D01*
X7708346Y-16630507D01*
X7698822Y-16601935D01*
X7689299Y-16582888D01*
X7670251Y-16554316D01*
X7660727Y-16544793D01*
X8022632Y-16849555D02*
X8013108Y-16840031D01*
X7994060Y-16811459D01*
X7984537Y-16792412D01*
X7975013Y-16763840D01*
X7965489Y-16716221D01*
X7965489Y-16678126D01*
X7975013Y-16630507D01*
X7984537Y-16601935D01*
X7994060Y-16582888D01*
X8013108Y-16554316D01*
X8022632Y-16544793D01*
X8098822Y-16640031D02*
X8098822Y-16773364D01*
X8098822Y-16659078D02*
X8108346Y-16649554D01*
X8127394Y-16640031D01*
X8155965Y-16640031D01*
X8175013Y-16649554D01*
X8184537Y-16668602D01*
X8184537Y-16773364D01*
X8308346Y-16773364D02*
X8289299Y-16763840D01*
X8279775Y-16754316D01*
X8270251Y-16735269D01*
X8270251Y-16678126D01*
X8279775Y-16659078D01*
X8289299Y-16649554D01*
X8308346Y-16640031D01*
X8336918Y-16640031D01*
X8355965Y-16649554D01*
X8365489Y-16659078D01*
X8375013Y-16678126D01*
X8375013Y-16735269D01*
X8365489Y-16754316D01*
X8355965Y-16763840D01*
X8336918Y-16773364D01*
X8308346Y-16773364D01*
X8432156Y-16640031D02*
X8508346Y-16640031D01*
X8460727Y-16573364D02*
X8460727Y-16744793D01*
X8470251Y-16763840D01*
X8489299Y-16773364D01*
X8508346Y-16773364D01*
X8727394Y-16640031D02*
X8727394Y-16840031D01*
X8727394Y-16649554D02*
X8746442Y-16640031D01*
X8784537Y-16640031D01*
X8803584Y-16649554D01*
X8813108Y-16659078D01*
X8822632Y-16678126D01*
X8822632Y-16735269D01*
X8813108Y-16754316D01*
X8803584Y-16763840D01*
X8784537Y-16773364D01*
X8746442Y-16773364D01*
X8727394Y-16763840D01*
X8936918Y-16773364D02*
X8917870Y-16763840D01*
X8908346Y-16744793D01*
X8908346Y-16573364D01*
X9098822Y-16773364D02*
X9098822Y-16668602D01*
X9089299Y-16649554D01*
X9070251Y-16640031D01*
X9032156Y-16640031D01*
X9013108Y-16649554D01*
X9098822Y-16763840D02*
X9079775Y-16773364D01*
X9032156Y-16773364D01*
X9013108Y-16763840D01*
X9003584Y-16744793D01*
X9003584Y-16725745D01*
X9013108Y-16706697D01*
X9032156Y-16697174D01*
X9079775Y-16697174D01*
X9098822Y-16687650D01*
X9165489Y-16640031D02*
X9241680Y-16640031D01*
X9194061Y-16573364D02*
X9194061Y-16744793D01*
X9203584Y-16763840D01*
X9222632Y-16773364D01*
X9241680Y-16773364D01*
X9384537Y-16763840D02*
X9365489Y-16773364D01*
X9327394Y-16773364D01*
X9308346Y-16763840D01*
X9298822Y-16744793D01*
X9298822Y-16668602D01*
X9308346Y-16649554D01*
X9327394Y-16640031D01*
X9365489Y-16640031D01*
X9384537Y-16649554D01*
X9394061Y-16668602D01*
X9394061Y-16687650D01*
X9298822Y-16706697D01*
X9565489Y-16773364D02*
X9565489Y-16573364D01*
X9565489Y-16763840D02*
X9546442Y-16773364D01*
X9508346Y-16773364D01*
X9489299Y-16763840D01*
X9479775Y-16754316D01*
X9470251Y-16735269D01*
X9470251Y-16678126D01*
X9479775Y-16659078D01*
X9489299Y-16649554D01*
X9508346Y-16640031D01*
X9546442Y-16640031D01*
X9565489Y-16649554D01*
X9641680Y-16849555D02*
X9651203Y-16840031D01*
X9670251Y-16811459D01*
X9679775Y-16792412D01*
X9689299Y-16763840D01*
X9698822Y-16716221D01*
X9698822Y-16678126D01*
X9689299Y-16630507D01*
X9679775Y-16601935D01*
X9670251Y-16582888D01*
X9651203Y-16554316D01*
X9641680Y-16544793D01*
X2688823Y-16902888D02*
X2888822Y-17102888D01*
X2888822Y-16902888D02*
X2688823Y-17102888D01*
X2788823Y-16902888D02*
X2788823Y-17102888D01*
X2688823Y-17002888D02*
X2888822Y-17002888D01*
X3127394Y-16893364D02*
X3251203Y-16893364D01*
X3184537Y-16969555D01*
X3213108Y-16969555D01*
X3232156Y-16979078D01*
X3241680Y-16988602D01*
X3251203Y-17007650D01*
X3251203Y-17055269D01*
X3241680Y-17074316D01*
X3232156Y-17083840D01*
X3213108Y-17093364D01*
X3155965Y-17093364D01*
X3136918Y-17083840D01*
X3127394Y-17074316D01*
X3336918Y-17074316D02*
X3346441Y-17083840D01*
X3336918Y-17093364D01*
X3327394Y-17083840D01*
X3336918Y-17074316D01*
X3336918Y-17093364D01*
X3441680Y-17093364D02*
X3479775Y-17093364D01*
X3498822Y-17083840D01*
X3508346Y-17074316D01*
X3527394Y-17045745D01*
X3536918Y-17007650D01*
X3536918Y-16931459D01*
X3527394Y-16912412D01*
X3517870Y-16902888D01*
X3498822Y-16893364D01*
X3460727Y-16893364D01*
X3441680Y-16902888D01*
X3432156Y-16912412D01*
X3422632Y-16931459D01*
X3422632Y-16979078D01*
X3432156Y-16998126D01*
X3441680Y-17007650D01*
X3460727Y-17017174D01*
X3498822Y-17017174D01*
X3517870Y-17007650D01*
X3527394Y-16998126D01*
X3536918Y-16979078D01*
X3651203Y-16979078D02*
X3632156Y-16969555D01*
X3622632Y-16960031D01*
X3613108Y-16940983D01*
X3613108Y-16931459D01*
X3622632Y-16912412D01*
X3632156Y-16902888D01*
X3651203Y-16893364D01*
X3689299Y-16893364D01*
X3708346Y-16902888D01*
X3717870Y-16912412D01*
X3727394Y-16931459D01*
X3727394Y-16940983D01*
X3717870Y-16960031D01*
X3708346Y-16969555D01*
X3689299Y-16979078D01*
X3651203Y-16979078D01*
X3632156Y-16988602D01*
X3622632Y-16998126D01*
X3613108Y-17017174D01*
X3613108Y-17055269D01*
X3622632Y-17074316D01*
X3632156Y-17083840D01*
X3651203Y-17093364D01*
X3689299Y-17093364D01*
X3708346Y-17083840D01*
X3717870Y-17074316D01*
X3727394Y-17055269D01*
X3727394Y-17017174D01*
X3717870Y-16998126D01*
X3708346Y-16988602D01*
X3689299Y-16979078D01*
X3841680Y-16979078D02*
X3822632Y-16969555D01*
X3813108Y-16960031D01*
X3803584Y-16940983D01*
X3803584Y-16931459D01*
X3813108Y-16912412D01*
X3822632Y-16902888D01*
X3841680Y-16893364D01*
X3879775Y-16893364D01*
X3898822Y-16902888D01*
X3908346Y-16912412D01*
X3917870Y-16931459D01*
X3917870Y-16940983D01*
X3908346Y-16960031D01*
X3898822Y-16969555D01*
X3879775Y-16979078D01*
X3841680Y-16979078D01*
X3822632Y-16988602D01*
X3813108Y-16998126D01*
X3803584Y-17017174D01*
X3803584Y-17055269D01*
X3813108Y-17074316D01*
X3822632Y-17083840D01*
X3841680Y-17093364D01*
X3879775Y-17093364D01*
X3898822Y-17083840D01*
X3908346Y-17074316D01*
X3917870Y-17055269D01*
X3917870Y-17017174D01*
X3908346Y-16998126D01*
X3898822Y-16988602D01*
X3879775Y-16979078D01*
X4003584Y-17093364D02*
X4003584Y-16960031D01*
X4003584Y-16979078D02*
X4013108Y-16969555D01*
X4032156Y-16960031D01*
X4060727Y-16960031D01*
X4079775Y-16969555D01*
X4089299Y-16988602D01*
X4089299Y-17093364D01*
X4089299Y-16988602D02*
X4098822Y-16969555D01*
X4117870Y-16960031D01*
X4146441Y-16960031D01*
X4165489Y-16969555D01*
X4175013Y-16988602D01*
X4175013Y-17093364D01*
X4270251Y-17093364D02*
X4270251Y-16960031D01*
X4270251Y-16979078D02*
X4279775Y-16969555D01*
X4298823Y-16960031D01*
X4327394Y-16960031D01*
X4346442Y-16969555D01*
X4355965Y-16988602D01*
X4355965Y-17093364D01*
X4355965Y-16988602D02*
X4365489Y-16969555D01*
X4384537Y-16960031D01*
X4413108Y-16960031D01*
X4432156Y-16969555D01*
X4441680Y-16988602D01*
X4441680Y-17093364D01*
X4832156Y-16883840D02*
X4660727Y-17140983D01*
X5089299Y-16893364D02*
X5108346Y-16893364D01*
X5127394Y-16902888D01*
X5136918Y-16912412D01*
X5146442Y-16931459D01*
X5155965Y-16969555D01*
X5155965Y-17017174D01*
X5146442Y-17055269D01*
X5136918Y-17074316D01*
X5127394Y-17083840D01*
X5108346Y-17093364D01*
X5089299Y-17093364D01*
X5070251Y-17083840D01*
X5060727Y-17074316D01*
X5051203Y-17055269D01*
X5041680Y-17017174D01*
X5041680Y-16969555D01*
X5051203Y-16931459D01*
X5060727Y-16912412D01*
X5070251Y-16902888D01*
X5089299Y-16893364D01*
X5241680Y-17074316D02*
X5251203Y-17083840D01*
X5241680Y-17093364D01*
X5232156Y-17083840D01*
X5241680Y-17074316D01*
X5241680Y-17093364D01*
X5441680Y-17093364D02*
X5327394Y-17093364D01*
X5384537Y-17093364D02*
X5384537Y-16893364D01*
X5365489Y-16921936D01*
X5346442Y-16940983D01*
X5327394Y-16950507D01*
X5622632Y-16893364D02*
X5527394Y-16893364D01*
X5517870Y-16988602D01*
X5527394Y-16979078D01*
X5546442Y-16969555D01*
X5594060Y-16969555D01*
X5613108Y-16979078D01*
X5622632Y-16988602D01*
X5632156Y-17007650D01*
X5632156Y-17055269D01*
X5622632Y-17074316D01*
X5613108Y-17083840D01*
X5594060Y-17093364D01*
X5546442Y-17093364D01*
X5527394Y-17083840D01*
X5517870Y-17074316D01*
X5698822Y-16893364D02*
X5832156Y-16893364D01*
X5746441Y-17093364D01*
X5946441Y-16893364D02*
X5965489Y-16893364D01*
X5984537Y-16902888D01*
X5994060Y-16912412D01*
X6003584Y-16931459D01*
X6013108Y-16969555D01*
X6013108Y-17017174D01*
X6003584Y-17055269D01*
X5994060Y-17074316D01*
X5984537Y-17083840D01*
X5965489Y-17093364D01*
X5946441Y-17093364D01*
X5927394Y-17083840D01*
X5917870Y-17074316D01*
X5908346Y-17055269D01*
X5898822Y-17017174D01*
X5898822Y-16969555D01*
X5908346Y-16931459D01*
X5917870Y-16912412D01*
X5927394Y-16902888D01*
X5946441Y-16893364D01*
X6089299Y-16893364D02*
X6089299Y-16931459D01*
X6165489Y-16893364D02*
X6165489Y-16931459D01*
X6460727Y-17169555D02*
X6451203Y-17160031D01*
X6432156Y-17131459D01*
X6422632Y-17112412D01*
X6413108Y-17083840D01*
X6403584Y-17036221D01*
X6403584Y-16998126D01*
X6413108Y-16950507D01*
X6422632Y-16921936D01*
X6432156Y-16902888D01*
X6451203Y-16874316D01*
X6460727Y-16864793D01*
X6565489Y-16979078D02*
X6546441Y-16969555D01*
X6536918Y-16960031D01*
X6527394Y-16940983D01*
X6527394Y-16931459D01*
X6536918Y-16912412D01*
X6546441Y-16902888D01*
X6565489Y-16893364D01*
X6603584Y-16893364D01*
X6622632Y-16902888D01*
X6632156Y-16912412D01*
X6641680Y-16931459D01*
X6641680Y-16940983D01*
X6632156Y-16960031D01*
X6622632Y-16969555D01*
X6603584Y-16979078D01*
X6565489Y-16979078D01*
X6546441Y-16988602D01*
X6536918Y-16998126D01*
X6527394Y-17017174D01*
X6527394Y-17055269D01*
X6536918Y-17074316D01*
X6546441Y-17083840D01*
X6565489Y-17093364D01*
X6603584Y-17093364D01*
X6622632Y-17083840D01*
X6632156Y-17074316D01*
X6641680Y-17055269D01*
X6641680Y-17017174D01*
X6632156Y-16998126D01*
X6622632Y-16988602D01*
X6603584Y-16979078D01*
X6832156Y-17093364D02*
X6717870Y-17093364D01*
X6775013Y-17093364D02*
X6775013Y-16893364D01*
X6755965Y-16921936D01*
X6736918Y-16940983D01*
X6717870Y-16950507D01*
X7070251Y-17093364D02*
X7070251Y-16893364D01*
X7155965Y-17093364D02*
X7155965Y-16988602D01*
X7146441Y-16969555D01*
X7127394Y-16960031D01*
X7098822Y-16960031D01*
X7079775Y-16969555D01*
X7070251Y-16979078D01*
X7279775Y-17093364D02*
X7260727Y-17083840D01*
X7251203Y-17074316D01*
X7241680Y-17055269D01*
X7241680Y-16998126D01*
X7251203Y-16979078D01*
X7260727Y-16969555D01*
X7279775Y-16960031D01*
X7308346Y-16960031D01*
X7327394Y-16969555D01*
X7336918Y-16979078D01*
X7346441Y-16998126D01*
X7346441Y-17055269D01*
X7336918Y-17074316D01*
X7327394Y-17083840D01*
X7308346Y-17093364D01*
X7279775Y-17093364D01*
X7460727Y-17093364D02*
X7441680Y-17083840D01*
X7432156Y-17064793D01*
X7432156Y-16893364D01*
X7613108Y-17083840D02*
X7594060Y-17093364D01*
X7555965Y-17093364D01*
X7536918Y-17083840D01*
X7527394Y-17064793D01*
X7527394Y-16988602D01*
X7536918Y-16969555D01*
X7555965Y-16960031D01*
X7594060Y-16960031D01*
X7613108Y-16969555D01*
X7622632Y-16988602D01*
X7622632Y-17007650D01*
X7527394Y-17026697D01*
X7698822Y-17083840D02*
X7717870Y-17093364D01*
X7755965Y-17093364D01*
X7775013Y-17083840D01*
X7784537Y-17064793D01*
X7784537Y-17055269D01*
X7775013Y-17036221D01*
X7755965Y-17026697D01*
X7727394Y-17026697D01*
X7708346Y-17017174D01*
X7698822Y-16998126D01*
X7698822Y-16988602D01*
X7708346Y-16969555D01*
X7727394Y-16960031D01*
X7755965Y-16960031D01*
X7775013Y-16969555D01*
X7851203Y-17169555D02*
X7860727Y-17160031D01*
X7879775Y-17131459D01*
X7889299Y-17112412D01*
X7898822Y-17083840D01*
X7908346Y-17036221D01*
X7908346Y-16998126D01*
X7898822Y-16950507D01*
X7889299Y-16921936D01*
X7879775Y-16902888D01*
X7860727Y-16874316D01*
X7851203Y-16864793D01*
X8213108Y-17169555D02*
X8203584Y-17160031D01*
X8184537Y-17131459D01*
X8175013Y-17112412D01*
X8165489Y-17083840D01*
X8155965Y-17036221D01*
X8155965Y-16998126D01*
X8165489Y-16950507D01*
X8175013Y-16921936D01*
X8184537Y-16902888D01*
X8203584Y-16874316D01*
X8213108Y-16864793D01*
X8289299Y-16960031D02*
X8289299Y-17093364D01*
X8289299Y-16979078D02*
X8298822Y-16969555D01*
X8317870Y-16960031D01*
X8346441Y-16960031D01*
X8365489Y-16969555D01*
X8375013Y-16988602D01*
X8375013Y-17093364D01*
X8498822Y-17093364D02*
X8479775Y-17083840D01*
X8470251Y-17074316D01*
X8460727Y-17055269D01*
X8460727Y-16998126D01*
X8470251Y-16979078D01*
X8479775Y-16969555D01*
X8498822Y-16960031D01*
X8527394Y-16960031D01*
X8546442Y-16969555D01*
X8555965Y-16979078D01*
X8565489Y-16998126D01*
X8565489Y-17055269D01*
X8555965Y-17074316D01*
X8546442Y-17083840D01*
X8527394Y-17093364D01*
X8498822Y-17093364D01*
X8622632Y-16960031D02*
X8698822Y-16960031D01*
X8651203Y-16893364D02*
X8651203Y-17064793D01*
X8660727Y-17083840D01*
X8679775Y-17093364D01*
X8698822Y-17093364D01*
X8917870Y-16960031D02*
X8917870Y-17160031D01*
X8917870Y-16969555D02*
X8936918Y-16960031D01*
X8975013Y-16960031D01*
X8994061Y-16969555D01*
X9003584Y-16979078D01*
X9013108Y-16998126D01*
X9013108Y-17055269D01*
X9003584Y-17074316D01*
X8994061Y-17083840D01*
X8975013Y-17093364D01*
X8936918Y-17093364D01*
X8917870Y-17083840D01*
X9127394Y-17093364D02*
X9108346Y-17083840D01*
X9098822Y-17064793D01*
X9098822Y-16893364D01*
X9289299Y-17093364D02*
X9289299Y-16988602D01*
X9279775Y-16969555D01*
X9260727Y-16960031D01*
X9222632Y-16960031D01*
X9203584Y-16969555D01*
X9289299Y-17083840D02*
X9270251Y-17093364D01*
X9222632Y-17093364D01*
X9203584Y-17083840D01*
X9194061Y-17064793D01*
X9194061Y-17045745D01*
X9203584Y-17026697D01*
X9222632Y-17017174D01*
X9270251Y-17017174D01*
X9289299Y-17007650D01*
X9355965Y-16960031D02*
X9432156Y-16960031D01*
X9384537Y-16893364D02*
X9384537Y-17064793D01*
X9394061Y-17083840D01*
X9413108Y-17093364D01*
X9432156Y-17093364D01*
X9575013Y-17083840D02*
X9555965Y-17093364D01*
X9517870Y-17093364D01*
X9498822Y-17083840D01*
X9489299Y-17064793D01*
X9489299Y-16988602D01*
X9498822Y-16969555D01*
X9517870Y-16960031D01*
X9555965Y-16960031D01*
X9575013Y-16969555D01*
X9584537Y-16988602D01*
X9584537Y-17007650D01*
X9489299Y-17026697D01*
X9755965Y-17093364D02*
X9755965Y-16893364D01*
X9755965Y-17083840D02*
X9736918Y-17093364D01*
X9698822Y-17093364D01*
X9679775Y-17083840D01*
X9670251Y-17074316D01*
X9660727Y-17055269D01*
X9660727Y-16998126D01*
X9670251Y-16979078D01*
X9679775Y-16969555D01*
X9698822Y-16960031D01*
X9736918Y-16960031D01*
X9755965Y-16969555D01*
X9832156Y-17169555D02*
X9841680Y-17160031D01*
X9860727Y-17131459D01*
X9870251Y-17112412D01*
X9879775Y-17083840D01*
X9889299Y-17036221D01*
X9889299Y-16998126D01*
X9879775Y-16950507D01*
X9870251Y-16921936D01*
X9860727Y-16902888D01*
X9841680Y-16874316D01*
X9832156Y-16864793D01*
M02*
