M48
; DRILL file {KiCad (6.0.4)} date Sat Oct 29 20:59:09 2022
; FORMAT={-:-/ absolute / metric / decimal}
; #@! TF.CreationDate,2022-10-29T20:59:09+01:00
; #@! TF.GenerationSoftware,Kicad,Pcbnew,(6.0.4)
; #@! TF.FileFunction,NonPlated,1,2,NPTH
FMAT,2
METRIC
; #@! TA.AperFunction,NonPlated,NPTH,ComponentDrill
T1C0.650
; #@! TA.AperFunction,NonPlated,NPTH,ComponentDrill
T2C1.152
; #@! TA.AperFunction,NonPlated,NPTH,ComponentDrill
T3C1.750
; #@! TA.AperFunction,NonPlated,NPTH,ComponentDrill
T4C2.200
; #@! TA.AperFunction,NonPlated,NPTH,ComponentDrill
T5C3.000
; #@! TA.AperFunction,NonPlated,NPTH,ComponentDrill
T6C3.048
; #@! TA.AperFunction,NonPlated,NPTH,ComponentDrill
T7C3.988
%
G90
G05
T1
X44.159Y-56.338
X49.939Y-56.338
T2
X35.96Y-54.425
X35.96Y-142.944
X295.929Y-54.425
X295.929Y-142.944
T3
X32.912Y-117.646
X32.912Y-136.696
X32.984Y-98.593
X37.992Y-55.416
X37.992Y-65.576
X37.992Y-74.466
X37.992Y-84.626
X43.072Y-117.646
X43.072Y-136.696
X43.144Y-98.593
X51.962Y-60.496
X51.962Y-79.546
X51.962Y-98.596
X51.962Y-117.646
X51.962Y-136.696
X62.122Y-60.496
X62.122Y-79.546
X62.122Y-98.596
X62.122Y-117.646
X62.122Y-136.696
X71.012Y-60.496
X71.012Y-79.546
X71.012Y-98.596
X71.012Y-117.646
X71.012Y-136.696
X81.172Y-60.496
X81.172Y-79.546
X81.172Y-98.596
X81.172Y-117.646
X81.172Y-136.696
X90.062Y-60.496
X90.062Y-79.546
X90.062Y-98.596
X90.062Y-117.646
X90.062Y-136.696
X100.222Y-60.496
X100.222Y-79.546
X100.222Y-98.596
X100.222Y-117.646
X100.222Y-136.696
X109.112Y-60.496
X109.112Y-79.546
X109.112Y-98.596
X109.112Y-117.646
X109.112Y-136.696
X119.272Y-60.496
X119.272Y-79.546
X119.272Y-98.596
X119.272Y-117.646
X119.272Y-136.696
X128.162Y-60.496
X128.162Y-79.546
X128.162Y-98.596
X128.162Y-117.646
X128.162Y-136.696
X137.687Y-136.696
X138.322Y-60.496
X138.322Y-79.546
X138.322Y-98.596
X138.322Y-117.646
X138.322Y-136.696
X147.212Y-60.496
X147.212Y-79.546
X147.212Y-98.596
X147.212Y-117.646
X147.212Y-136.696
X147.847Y-136.696
X157.372Y-60.496
X157.372Y-79.546
X157.372Y-98.596
X157.372Y-117.646
X157.372Y-136.696
X166.262Y-60.496
X166.262Y-79.546
X166.262Y-98.596
X166.262Y-117.646
X166.262Y-136.696
X176.422Y-60.496
X176.422Y-79.546
X176.422Y-98.596
X176.422Y-117.646
X176.422Y-136.696
X185.312Y-60.496
X185.312Y-79.546
X185.312Y-98.596
X185.312Y-117.646
X185.312Y-136.696
X194.837Y-136.696
X195.472Y-60.496
X195.472Y-79.546
X195.472Y-98.596
X195.472Y-117.646
X195.472Y-136.696
X204.362Y-60.496
X204.362Y-79.546
X204.362Y-98.596
X204.362Y-117.646
X204.362Y-136.696
X204.997Y-136.696
X214.522Y-60.496
X214.522Y-79.546
X214.522Y-98.596
X214.522Y-117.646
X214.522Y-136.696
X223.412Y-60.496
X223.412Y-79.546
X223.412Y-98.596
X223.412Y-117.646
X223.412Y-136.696
X233.572Y-60.496
X233.572Y-79.546
X233.572Y-98.596
X233.572Y-117.646
X233.572Y-136.696
X242.462Y-60.496
X242.462Y-79.546
X242.462Y-98.596
X242.462Y-117.646
X242.462Y-136.696
X252.622Y-60.496
X252.622Y-79.546
X252.622Y-98.596
X252.622Y-117.646
X252.622Y-136.696
X261.512Y-60.496
X261.512Y-79.546
X261.512Y-98.596
X261.512Y-117.646
X261.512Y-136.696
X271.672Y-60.496
X271.672Y-79.546
X271.672Y-98.596
X271.672Y-117.646
X271.672Y-136.696
X280.562Y-60.496
X280.562Y-79.546
X280.562Y-98.596
X280.562Y-117.646
X280.562Y-136.696
X290.722Y-60.496
X290.722Y-79.546
X290.722Y-98.596
X290.722Y-117.646
X290.722Y-136.696
X299.612Y-60.496
X299.612Y-79.546
X299.612Y-98.596
X299.612Y-117.646
X299.612Y-136.696
X309.772Y-60.496
X309.772Y-79.546
X309.772Y-98.596
X309.772Y-117.646
X309.772Y-136.696
T4
X66.185Y-127.163
X66.567Y-127.163
X66.943Y-127.163
X85.233Y-70.017
X85.615Y-70.017
X85.991Y-70.017
X180.488Y-89.074
X180.871Y-89.074
X181.247Y-89.074
X218.608Y-130.797
X218.991Y-130.797
X219.366Y-130.797
X256.684Y-69.985
X257.066Y-69.985
X257.442Y-69.985
T5
X32.912Y-57.956
X32.912Y-77.006
X34.182Y-115.106
X34.182Y-134.156
X34.254Y-96.053
X35.452Y-64.306
X35.452Y-83.356
X40.532Y-112.566
X40.532Y-131.616
X40.604Y-93.513
X53.232Y-77.006
X53.232Y-96.056
X53.232Y-115.106
X53.232Y-134.156
X54.502Y-65.576
X59.582Y-74.466
X59.582Y-93.516
X59.582Y-112.566
X59.582Y-131.616
X60.852Y-63.036
X72.282Y-57.956
X72.282Y-77.006
X72.282Y-96.056
X72.282Y-115.106
X72.282Y-134.156
X78.632Y-55.416
X78.632Y-74.466
X78.632Y-93.516
X78.632Y-112.566
X78.632Y-131.616
X91.332Y-57.956
X91.332Y-77.006
X91.332Y-96.056
X91.332Y-115.106
X91.332Y-134.156
X97.682Y-55.416
X97.682Y-74.466
X97.682Y-93.516
X97.682Y-112.566
X97.682Y-131.616
X110.382Y-57.956
X110.382Y-77.006
X110.382Y-96.056
X110.382Y-115.106
X110.382Y-134.156
X116.732Y-55.416
X116.732Y-74.466
X116.732Y-93.516
X116.732Y-112.566
X116.732Y-131.616
X129.432Y-57.956
X129.432Y-77.006
X129.432Y-96.056
X129.432Y-115.106
X130.702Y-141.776
X135.782Y-55.416
X135.782Y-74.466
X135.782Y-93.516
X135.782Y-112.566
X137.052Y-139.236
X138.957Y-134.156
X145.307Y-131.616
X148.482Y-57.956
X148.482Y-77.006
X148.482Y-96.056
X148.482Y-115.106
X149.752Y-141.776
X154.832Y-55.416
X154.832Y-74.466
X154.832Y-93.516
X154.832Y-112.566
X156.102Y-139.236
X167.532Y-57.956
X167.532Y-77.006
X167.532Y-96.056
X167.532Y-115.106
X167.532Y-134.156
X173.882Y-55.416
X173.882Y-74.466
X173.882Y-93.516
X173.882Y-112.566
X173.882Y-131.616
X186.582Y-57.956
X186.582Y-77.006
X186.582Y-96.056
X186.582Y-115.106
X187.852Y-141.776
X192.932Y-55.416
X192.932Y-74.466
X192.932Y-93.516
X192.932Y-112.566
X194.202Y-139.236
X196.107Y-134.156
X202.457Y-131.616
X205.632Y-57.956
X205.632Y-77.006
X205.632Y-96.056
X205.632Y-115.106
X206.902Y-141.776
X211.982Y-55.416
X211.982Y-74.466
X211.982Y-93.516
X211.982Y-112.566
X213.252Y-139.236
X224.682Y-57.956
X224.682Y-77.006
X224.682Y-96.056
X224.682Y-115.106
X224.682Y-134.156
X231.032Y-55.416
X231.032Y-74.466
X231.032Y-93.516
X231.032Y-112.566
X231.032Y-131.616
X243.732Y-57.956
X243.732Y-77.006
X243.732Y-96.056
X243.732Y-115.106
X243.732Y-134.156
X250.082Y-55.416
X250.082Y-74.466
X250.082Y-93.516
X250.082Y-112.566
X250.082Y-131.616
X262.782Y-57.956
X262.782Y-77.006
X262.782Y-96.056
X262.782Y-115.106
X262.782Y-134.156
X269.132Y-55.416
X269.132Y-74.466
X269.132Y-93.516
X269.132Y-112.566
X269.132Y-131.616
X281.832Y-57.956
X281.832Y-77.006
X281.832Y-96.056
X281.832Y-115.106
X281.832Y-134.156
X288.182Y-55.416
X288.182Y-74.466
X288.182Y-93.516
X288.182Y-112.566
X288.182Y-131.616
X300.882Y-57.956
X300.882Y-77.006
X300.882Y-96.056
X300.882Y-115.106
X300.882Y-134.156
X307.232Y-55.416
X307.232Y-74.466
X307.232Y-93.516
X307.232Y-112.566
X307.232Y-131.616
T6
X130.829Y-143.681
X154.705Y-143.681
X187.979Y-143.681
X211.855Y-143.681
T7
X37.992Y-60.496
X37.992Y-79.546
X37.992Y-117.646
X37.992Y-136.696
X38.064Y-98.593
X57.042Y-60.496
X57.042Y-79.546
X57.042Y-98.596
X57.042Y-117.646
X57.042Y-136.696
X76.092Y-60.496
X76.092Y-79.546
X76.092Y-98.596
X76.092Y-117.646
X76.092Y-136.696
X95.142Y-60.496
X95.142Y-79.546
X95.142Y-98.596
X95.142Y-117.646
X95.142Y-136.696
X114.192Y-60.496
X114.192Y-79.546
X114.192Y-98.596
X114.192Y-117.646
X114.192Y-136.696
X130.829Y-128.441
X133.242Y-60.496
X133.242Y-79.546
X133.242Y-98.596
X133.242Y-117.646
X133.242Y-136.696
X142.767Y-136.696
X152.292Y-60.496
X152.292Y-79.546
X152.292Y-98.596
X152.292Y-117.646
X152.292Y-136.696
X154.705Y-128.441
X171.342Y-60.496
X171.342Y-79.546
X171.342Y-98.596
X171.342Y-117.646
X171.342Y-136.696
X187.979Y-128.441
X190.392Y-60.496
X190.392Y-79.546
X190.392Y-98.596
X190.392Y-117.646
X190.392Y-136.696
X199.917Y-136.696
X209.442Y-60.496
X209.442Y-79.546
X209.442Y-98.596
X209.442Y-117.646
X209.442Y-136.696
X211.855Y-128.441
X228.492Y-60.496
X228.492Y-79.546
X228.492Y-98.596
X228.492Y-117.646
X228.492Y-136.696
X247.542Y-60.496
X247.542Y-79.546
X247.542Y-98.596
X247.542Y-117.646
X247.542Y-136.696
X266.592Y-60.496
X266.592Y-79.546
X266.592Y-98.596
X266.592Y-117.646
X266.592Y-136.696
X285.642Y-60.496
X285.642Y-79.546
X285.642Y-98.596
X285.642Y-117.646
X285.642Y-136.696
X304.692Y-60.496
X304.692Y-79.546
X304.692Y-98.596
X304.692Y-117.646
X304.692Y-136.696
T0
M30
