%TF.GenerationSoftware,KiCad,Pcbnew,(6.0.4)*%
%TF.CreationDate,2022-09-08T11:43:24+01:00*%
%TF.ProjectId,nova75,6e6f7661-3735-42e6-9b69-6361645f7063,rev?*%
%TF.SameCoordinates,Original*%
%TF.FileFunction,Soldermask,Bot*%
%TF.FilePolarity,Negative*%
%FSLAX46Y46*%
G04 Gerber Fmt 4.6, Leading zero omitted, Abs format (unit mm)*
G04 Created by KiCad (PCBNEW (6.0.4)) date 2022-09-08 11:43:24*
%MOMM*%
%LPD*%
G01*
G04 APERTURE LIST*
G04 Aperture macros list*
%AMRoundRect*
0 Rectangle with rounded corners*
0 $1 Rounding radius*
0 $2 $3 $4 $5 $6 $7 $8 $9 X,Y pos of 4 corners*
0 Add a 4 corners polygon primitive as box body*
4,1,4,$2,$3,$4,$5,$6,$7,$8,$9,$2,$3,0*
0 Add four circle primitives for the rounded corners*
1,1,$1+$1,$2,$3*
1,1,$1+$1,$4,$5*
1,1,$1+$1,$6,$7*
1,1,$1+$1,$8,$9*
0 Add four rect primitives between the rounded corners*
20,1,$1+$1,$2,$3,$4,$5,0*
20,1,$1+$1,$4,$5,$6,$7,0*
20,1,$1+$1,$6,$7,$8,$9,0*
20,1,$1+$1,$8,$9,$2,$3,0*%
G04 Aperture macros list end*
%ADD10C,1.250000*%
%ADD11R,0.900000X1.200000*%
%ADD12R,1.200000X0.900000*%
%ADD13C,3.000000*%
%ADD14C,1.750000*%
%ADD15C,3.987800*%
%ADD16R,2.550000X2.500000*%
%ADD17C,2.200000*%
%ADD18C,3.800000*%
%ADD19C,3.048000*%
%ADD20C,1.300000*%
%ADD21R,2.500000X2.550000*%
%ADD22C,1.500000*%
%ADD23R,1.500000X1.500000*%
%ADD24RoundRect,0.225000X-0.225000X-0.250000X0.225000X-0.250000X0.225000X0.250000X-0.225000X0.250000X0*%
%ADD25RoundRect,0.135000X0.226274X0.035355X0.035355X0.226274X-0.226274X-0.035355X-0.035355X-0.226274X0*%
%ADD26RoundRect,0.140000X-0.021213X0.219203X-0.219203X0.021213X0.021213X-0.219203X0.219203X-0.021213X0*%
%ADD27RoundRect,0.120000X-0.380000X-0.280000X0.380000X-0.280000X0.380000X0.280000X-0.380000X0.280000X0*%
%ADD28RoundRect,0.150000X0.350000X-0.425000X0.350000X0.425000X-0.350000X0.425000X-0.350000X-0.425000X0*%
%ADD29RoundRect,0.082500X-0.667500X0.192500X-0.667500X-0.192500X0.667500X-0.192500X0.667500X0.192500X0*%
%ADD30C,0.650000*%
%ADD31R,0.600000X1.450000*%
%ADD32R,0.300000X1.450000*%
%ADD33O,1.000000X1.600000*%
%ADD34O,1.000000X2.100000*%
%ADD35RoundRect,0.135000X0.185000X-0.135000X0.185000X0.135000X-0.185000X0.135000X-0.185000X-0.135000X0*%
%ADD36RoundRect,0.140000X-0.140000X-0.170000X0.140000X-0.170000X0.140000X0.170000X-0.140000X0.170000X0*%
%ADD37RoundRect,0.050000X0.309359X-0.238649X-0.238649X0.309359X-0.309359X0.238649X0.238649X-0.309359X0*%
%ADD38RoundRect,0.050000X0.309359X0.238649X0.238649X0.309359X-0.309359X-0.238649X-0.238649X-0.309359X0*%
%ADD39RoundRect,0.144000X2.059095X0.000000X0.000000X2.059095X-2.059095X0.000000X0.000000X-2.059095X0*%
%ADD40C,1.000000*%
%ADD41RoundRect,0.135000X-0.135000X-0.185000X0.135000X-0.185000X0.135000X0.185000X-0.135000X0.185000X0*%
%ADD42RoundRect,0.150000X0.618718X-0.406586X-0.406586X0.618718X-0.618718X0.406586X0.406586X-0.618718X0*%
%ADD43RoundRect,0.135000X-0.226274X-0.035355X-0.035355X-0.226274X0.226274X0.035355X0.035355X0.226274X0*%
%ADD44RoundRect,0.135000X-0.185000X0.135000X-0.185000X-0.135000X0.185000X-0.135000X0.185000X0.135000X0*%
%ADD45RoundRect,0.140000X0.140000X0.170000X-0.140000X0.170000X-0.140000X-0.170000X0.140000X-0.170000X0*%
%ADD46RoundRect,0.140000X-0.219203X-0.021213X-0.021213X-0.219203X0.219203X0.021213X0.021213X0.219203X0*%
%ADD47RoundRect,0.218750X0.256250X-0.218750X0.256250X0.218750X-0.256250X0.218750X-0.256250X-0.218750X0*%
%ADD48RoundRect,0.140000X0.219203X0.021213X0.021213X0.219203X-0.219203X-0.021213X-0.021213X-0.219203X0*%
%ADD49RoundRect,0.150000X0.475000X0.150000X-0.475000X0.150000X-0.475000X-0.150000X0.475000X-0.150000X0*%
%ADD50RoundRect,0.147500X0.172500X-0.147500X0.172500X0.147500X-0.172500X0.147500X-0.172500X-0.147500X0*%
%ADD51RoundRect,0.218750X0.218750X0.256250X-0.218750X0.256250X-0.218750X-0.256250X0.218750X-0.256250X0*%
%ADD52R,1.016000X1.200000*%
G04 APERTURE END LIST*
D10*
X28990518Y-109767675D02*
X32699418Y-109767675D01*
X32699418Y-106017675D02*
X28990518Y-106017675D01*
X32699418Y-109767675D02*
G75*
G03*
X32699418Y-106017675I0J1875000D01*
G01*
X309984710Y-109764059D02*
X313693610Y-109764059D01*
X313693610Y-106014059D02*
X309984710Y-106014059D01*
X309984710Y-106014059D02*
G75*
G03*
X309984710Y-109764059I0J-1875000D01*
G01*
D11*
X204360700Y-127069330D03*
X201060700Y-127069330D03*
X147464700Y-127196330D03*
X144164700Y-127196330D03*
D12*
X310191700Y-142317330D03*
X310191700Y-139017330D03*
X291891700Y-142317330D03*
X291891700Y-139017330D03*
X272841700Y-142317330D03*
X272841700Y-139017330D03*
X253791700Y-142317330D03*
X253791700Y-139017330D03*
X234741700Y-142317330D03*
X234741700Y-139017330D03*
D11*
X218203700Y-127196330D03*
X214903700Y-127196330D03*
X178198700Y-126942330D03*
X174898700Y-126942330D03*
X161053700Y-127069330D03*
X157753700Y-127069330D03*
D12*
X120441700Y-142317330D03*
X120441700Y-139017330D03*
X100491700Y-142317330D03*
X100491700Y-139017330D03*
X82341700Y-142317330D03*
X82341700Y-139017330D03*
X63291700Y-142317330D03*
X63291700Y-139017330D03*
X44241700Y-142317330D03*
X44241700Y-139017330D03*
X310191700Y-124492330D03*
X310191700Y-121192330D03*
X291891700Y-124492330D03*
X291891700Y-121192330D03*
X272924997Y-124476607D03*
X272924997Y-121176607D03*
X253791700Y-124492330D03*
X253791700Y-121192330D03*
X234741700Y-124492330D03*
X234741700Y-121192330D03*
X215691700Y-124492330D03*
X215691700Y-121192330D03*
X196641700Y-124492330D03*
X196641700Y-121192330D03*
X177591700Y-124492330D03*
X177591700Y-121192330D03*
X158541700Y-124492330D03*
X158541700Y-121192330D03*
X138941700Y-124492330D03*
X138941700Y-121192330D03*
X120441700Y-124492330D03*
X120441700Y-121192330D03*
X100491700Y-124492330D03*
X100491700Y-121192330D03*
X82341700Y-124492330D03*
X82341700Y-121192330D03*
X62741700Y-124492330D03*
X62741700Y-121192330D03*
X43691700Y-124492330D03*
X43691700Y-121192330D03*
X310025700Y-103650000D03*
X310025700Y-100350000D03*
X291891700Y-105317330D03*
X291891700Y-102017330D03*
X272841700Y-105317330D03*
X272841700Y-102017330D03*
X253791700Y-105317330D03*
X253791700Y-102017330D03*
X234741700Y-105317330D03*
X234741700Y-102017330D03*
X215691700Y-105317330D03*
X215691700Y-102017330D03*
X196641700Y-105317330D03*
X196641700Y-102017330D03*
X177591700Y-105317330D03*
X177591700Y-102017330D03*
X158541700Y-105317330D03*
X158541700Y-102017330D03*
X138941700Y-105317330D03*
X138941700Y-102017330D03*
X120441700Y-105317330D03*
X120441700Y-102017330D03*
X100491700Y-105317330D03*
X100491700Y-102017330D03*
X82341700Y-105317330D03*
X82341700Y-102017330D03*
X67836700Y-105224330D03*
X67836700Y-101924330D03*
X43071700Y-105317330D03*
X43071700Y-102017330D03*
X310191700Y-85892330D03*
X310191700Y-82592330D03*
X291891700Y-85892330D03*
X291891700Y-82592330D03*
X272841700Y-85892330D03*
X272841700Y-82592330D03*
X253791700Y-85892330D03*
X253791700Y-82592330D03*
X234741700Y-85892330D03*
X234741700Y-82592330D03*
X215691700Y-85892330D03*
X215691700Y-82592330D03*
X196641700Y-85892330D03*
X196641700Y-82592330D03*
X177591700Y-85892330D03*
X177591700Y-82592330D03*
X158541700Y-85892330D03*
X158541700Y-82592330D03*
X138941700Y-85892330D03*
X138941700Y-82592330D03*
X120441700Y-85892330D03*
X120441700Y-82592330D03*
X100491700Y-85892330D03*
X100491700Y-82592330D03*
X82341700Y-85892330D03*
X82341700Y-82592330D03*
X72662700Y-85920330D03*
X72662700Y-82620330D03*
D11*
X39133700Y-71951330D03*
X35833700Y-71951330D03*
D12*
X310191700Y-66692330D03*
X310191700Y-63392330D03*
X291891700Y-66692330D03*
X291891700Y-63392330D03*
X272841700Y-66692330D03*
X272841700Y-63392330D03*
X253791700Y-66692330D03*
X253791700Y-63392330D03*
X234741700Y-66692330D03*
X234741700Y-63392330D03*
X215691700Y-66692330D03*
X215691700Y-63392330D03*
X196641700Y-66692330D03*
X196641700Y-63392330D03*
X177591700Y-66692330D03*
X177591700Y-63392330D03*
X158541700Y-66692330D03*
X158541700Y-63392330D03*
X138941700Y-66692330D03*
X138941700Y-63392330D03*
X120441700Y-66692330D03*
X120441700Y-63392330D03*
X100491700Y-66692330D03*
X100491700Y-63392330D03*
X82341700Y-66692330D03*
X82341700Y-63392330D03*
X71519700Y-66743330D03*
X71519700Y-63443330D03*
X31229641Y-70880974D03*
X31229641Y-67580974D03*
D13*
X148481700Y-77006330D03*
X154831700Y-74466330D03*
D14*
X147211700Y-79546330D03*
D15*
X152291700Y-79546330D03*
D14*
X157371700Y-79546330D03*
D16*
X145206700Y-77006330D03*
X158133700Y-74466330D03*
D13*
X116731700Y-74466330D03*
D14*
X109111700Y-79546330D03*
X119271700Y-79546330D03*
D13*
X110381700Y-77006330D03*
D15*
X114191700Y-79546330D03*
D16*
X107106700Y-77006330D03*
X120033700Y-74466330D03*
D14*
X166261700Y-60496330D03*
D13*
X173881700Y-55416330D03*
D14*
X176421700Y-60496330D03*
D15*
X171341700Y-60496330D03*
D13*
X167531700Y-57956330D03*
D16*
X164256700Y-57956330D03*
X177183700Y-55416330D03*
D15*
X228491700Y-136696330D03*
D13*
X224681700Y-134156330D03*
D14*
X233571700Y-136696330D03*
D13*
X231031700Y-131616330D03*
D14*
X223411700Y-136696330D03*
D16*
X221406700Y-134156330D03*
X234333700Y-131616330D03*
D13*
X130701700Y-141776330D03*
D15*
X133241700Y-136696330D03*
D14*
X128161700Y-136696330D03*
X138321700Y-136696330D03*
D13*
X137051700Y-139236330D03*
D16*
X140326700Y-139236330D03*
X127399700Y-141776330D03*
D14*
X166261700Y-79546330D03*
D15*
X171341700Y-79546330D03*
D14*
X176421700Y-79546330D03*
D13*
X167531700Y-77006330D03*
X173881700Y-74466330D03*
D16*
X164256700Y-77006330D03*
X177183700Y-74466330D03*
D14*
X223411700Y-60496330D03*
X233571700Y-60496330D03*
D15*
X228491700Y-60496330D03*
D13*
X231031700Y-55416330D03*
X224681700Y-57956330D03*
D16*
X221406700Y-57956330D03*
X234333700Y-55416330D03*
D17*
X218990617Y-130796675D03*
X219366377Y-130796675D03*
X218608281Y-130796675D03*
D18*
X218990617Y-130796675D03*
D14*
X280561700Y-98596330D03*
D13*
X281831700Y-96056330D03*
D15*
X285641700Y-98596330D03*
D13*
X288181700Y-93516330D03*
D14*
X290721700Y-98596330D03*
D16*
X278556700Y-96056330D03*
X291483700Y-93516330D03*
D14*
X109111700Y-60496330D03*
D13*
X110381700Y-57956330D03*
D14*
X119271700Y-60496330D03*
D15*
X114191700Y-60496330D03*
D13*
X116731700Y-55416330D03*
D16*
X107106700Y-57956330D03*
X120033700Y-55416330D03*
D14*
X195471700Y-98596330D03*
X185311700Y-98596330D03*
D13*
X192931700Y-93516330D03*
X186581700Y-96056330D03*
D15*
X190391700Y-98596330D03*
D16*
X183306700Y-96056330D03*
X196233700Y-93516330D03*
D13*
X53231700Y-77006330D03*
D15*
X57041700Y-79546330D03*
D14*
X51961700Y-79546330D03*
D13*
X59581700Y-74466330D03*
D14*
X62121700Y-79546330D03*
D16*
X49956700Y-77006330D03*
X62883700Y-74466330D03*
D14*
X71011700Y-60496330D03*
D13*
X78631700Y-55416330D03*
X72281700Y-57956330D03*
D14*
X81171700Y-60496330D03*
D15*
X76091700Y-60496330D03*
D16*
X69006700Y-57956330D03*
X81933700Y-55416330D03*
D15*
X142766700Y-136696330D03*
D19*
X130828700Y-143681330D03*
D15*
X130828700Y-128441330D03*
X154704700Y-128441330D03*
D13*
X145306700Y-131616330D03*
D14*
X137686700Y-136696330D03*
D13*
X138956700Y-134156330D03*
D19*
X154704700Y-143681330D03*
D14*
X147846700Y-136696330D03*
D16*
X135681700Y-134156330D03*
X148608700Y-131616330D03*
D14*
X252621700Y-60496330D03*
D13*
X243731700Y-57956330D03*
D14*
X242461700Y-60496330D03*
D15*
X247541700Y-60496330D03*
D13*
X250081700Y-55416330D03*
D16*
X240456700Y-57956330D03*
X253383700Y-55416330D03*
D13*
X97681700Y-112566330D03*
X91331700Y-115106330D03*
D15*
X95141700Y-117646330D03*
D14*
X100221700Y-117646330D03*
X90061700Y-117646330D03*
D16*
X88056700Y-115106330D03*
X100983700Y-112566330D03*
D17*
X85990723Y-70017291D03*
X85232627Y-70017291D03*
X85614963Y-70017291D03*
D18*
X85614963Y-70017291D03*
D14*
X261511700Y-98596330D03*
X271671700Y-98596330D03*
D13*
X262781700Y-96056330D03*
X269131700Y-93516330D03*
D15*
X266591700Y-98596330D03*
D16*
X259506700Y-96056330D03*
X272433700Y-93516330D03*
D13*
X307231700Y-93516330D03*
D15*
X304691700Y-98596330D03*
D14*
X299611700Y-98596330D03*
X309771700Y-98596330D03*
D13*
X300881700Y-96056330D03*
D16*
X297606700Y-96056330D03*
X310533700Y-93516330D03*
D13*
X97681700Y-93516330D03*
D14*
X100221700Y-98596330D03*
D15*
X95141700Y-98596330D03*
D13*
X91331700Y-96056330D03*
D14*
X90061700Y-98596330D03*
D16*
X88056700Y-96056330D03*
X100983700Y-93516330D03*
D20*
X295928700Y-142944330D03*
D13*
X34181700Y-134156330D03*
D15*
X37991700Y-136696330D03*
D13*
X40531700Y-131616330D03*
D14*
X32911700Y-136696330D03*
X43071700Y-136696330D03*
D16*
X30906700Y-134156330D03*
X43833700Y-131616330D03*
D13*
X129431700Y-77006330D03*
D14*
X138321700Y-79546330D03*
X128161700Y-79546330D03*
D13*
X135781700Y-74466330D03*
D15*
X133241700Y-79546330D03*
D16*
X126156700Y-77006330D03*
X139083700Y-74466330D03*
D15*
X37991700Y-60496330D03*
D13*
X32911700Y-57956330D03*
X35451700Y-64306330D03*
D14*
X37991700Y-55416330D03*
X37991700Y-65576330D03*
D21*
X35451700Y-67581330D03*
X32911700Y-54654330D03*
D13*
X78631700Y-112566330D03*
X72281700Y-115106330D03*
D14*
X71011700Y-117646330D03*
D15*
X76091700Y-117646330D03*
D14*
X81171700Y-117646330D03*
D16*
X69006700Y-115106330D03*
X81933700Y-112566330D03*
D14*
X147211700Y-117646330D03*
D13*
X148481700Y-115106330D03*
D14*
X157371700Y-117646330D03*
D15*
X152291700Y-117646330D03*
D13*
X154831700Y-112566330D03*
D16*
X145206700Y-115106330D03*
X158133700Y-112566330D03*
D14*
X271671700Y-136696330D03*
D13*
X269131700Y-131616330D03*
D14*
X261511700Y-136696330D03*
D15*
X266591700Y-136696330D03*
D13*
X262781700Y-134156330D03*
D16*
X259506700Y-134156330D03*
X272433700Y-131616330D03*
D15*
X228491700Y-98596330D03*
D13*
X224681700Y-96056330D03*
D14*
X233571700Y-98596330D03*
X223411700Y-98596330D03*
D13*
X231031700Y-93516330D03*
D16*
X221406700Y-96056330D03*
X234333700Y-93516330D03*
D20*
X295928700Y-54425330D03*
D14*
X62121700Y-60496330D03*
X51961700Y-60496330D03*
D13*
X54501700Y-65576330D03*
X60851700Y-63036330D03*
D15*
X57041700Y-60496330D03*
D16*
X64126700Y-63036330D03*
X51199700Y-65576330D03*
D15*
X76091700Y-79546330D03*
D13*
X72281700Y-77006330D03*
D14*
X71011700Y-79546330D03*
X81171700Y-79546330D03*
D13*
X78631700Y-74466330D03*
D16*
X69006700Y-77006330D03*
X81933700Y-74466330D03*
D14*
X157371700Y-60496330D03*
D13*
X154831700Y-55416330D03*
D14*
X147211700Y-60496330D03*
D15*
X152291700Y-60496330D03*
D13*
X148481700Y-57956330D03*
D16*
X145206700Y-57956330D03*
X158133700Y-55416330D03*
D14*
X214521700Y-60496330D03*
X204361700Y-60496330D03*
D15*
X209441700Y-60496330D03*
D13*
X211981700Y-55416330D03*
X205631700Y-57956330D03*
D16*
X202356700Y-57956330D03*
X215283700Y-55416330D03*
D15*
X190391700Y-79546330D03*
D13*
X192931700Y-74466330D03*
D14*
X195471700Y-79546330D03*
D13*
X186581700Y-77006330D03*
D14*
X185311700Y-79546330D03*
D16*
X183306700Y-77006330D03*
X196233700Y-74466330D03*
D14*
X299611700Y-79546330D03*
D13*
X307231700Y-74466330D03*
X300881700Y-77006330D03*
D14*
X309771700Y-79546330D03*
D15*
X304691700Y-79546330D03*
D16*
X297606700Y-77006330D03*
X310533700Y-74466330D03*
D14*
X214521700Y-117646330D03*
D15*
X209441700Y-117646330D03*
D13*
X211981700Y-112566330D03*
D14*
X204361700Y-117646330D03*
D13*
X205631700Y-115106330D03*
D16*
X202356700Y-115106330D03*
X215283700Y-112566330D03*
D14*
X280561700Y-117646330D03*
D13*
X281831700Y-115106330D03*
X288181700Y-112566330D03*
D14*
X290721700Y-117646330D03*
D15*
X285641700Y-117646330D03*
D16*
X278556700Y-115106330D03*
X291483700Y-112566330D03*
D15*
X57041700Y-136696330D03*
D13*
X53231700Y-134156330D03*
D14*
X62121700Y-136696330D03*
X51961700Y-136696330D03*
D13*
X59581700Y-131616330D03*
D16*
X49956700Y-134156330D03*
X62883700Y-131616330D03*
D13*
X269131700Y-112566330D03*
X262781700Y-115106330D03*
D14*
X261511700Y-117646330D03*
D15*
X266591700Y-117646330D03*
D14*
X271671700Y-117646330D03*
D16*
X259506700Y-115106330D03*
X272433700Y-112566330D03*
D13*
X148481700Y-96056330D03*
D14*
X147211700Y-98596330D03*
D13*
X154831700Y-93516330D03*
D15*
X152291700Y-98596330D03*
D14*
X157371700Y-98596330D03*
D16*
X145206700Y-96056330D03*
X158133700Y-93516330D03*
D13*
X186581700Y-115106330D03*
X192931700Y-112566330D03*
D15*
X190391700Y-117646330D03*
D14*
X185311700Y-117646330D03*
X195471700Y-117646330D03*
D16*
X183306700Y-115106330D03*
X196233700Y-112566330D03*
D14*
X309771700Y-60496330D03*
D13*
X300881700Y-57956330D03*
D14*
X299611700Y-60496330D03*
D13*
X307231700Y-55416330D03*
D15*
X304691700Y-60496330D03*
D16*
X297606700Y-57956330D03*
X310533700Y-55416330D03*
D13*
X78631700Y-93516330D03*
D15*
X76091700Y-98596330D03*
D13*
X72281700Y-96056330D03*
D14*
X81171700Y-98596330D03*
X71011700Y-98596330D03*
D16*
X69006700Y-96056330D03*
X81933700Y-93516330D03*
D14*
X32984433Y-98592690D03*
X43144433Y-98592690D03*
D15*
X38064433Y-98592690D03*
D13*
X34254433Y-96052690D03*
X40604433Y-93512690D03*
D16*
X30979433Y-96052690D03*
X43906433Y-93512690D03*
D14*
X166261700Y-98596330D03*
D15*
X171341700Y-98596330D03*
D14*
X176421700Y-98596330D03*
D13*
X167531700Y-96056330D03*
X173881700Y-93516330D03*
D16*
X164256700Y-96056330D03*
X177183700Y-93516330D03*
D14*
X90061700Y-60496330D03*
D15*
X95141700Y-60496330D03*
D13*
X97681700Y-55416330D03*
X91331700Y-57956330D03*
D14*
X100221700Y-60496330D03*
D16*
X88056700Y-57956330D03*
X100983700Y-55416330D03*
D13*
X243731700Y-77006330D03*
D14*
X252621700Y-79546330D03*
D13*
X250081700Y-74466330D03*
D14*
X242461700Y-79546330D03*
D15*
X247541700Y-79546330D03*
D16*
X240456700Y-77006330D03*
X253383700Y-74466330D03*
D13*
X281831700Y-57956330D03*
D15*
X285641700Y-60496330D03*
D13*
X288181700Y-55416330D03*
D14*
X290721700Y-60496330D03*
X280561700Y-60496330D03*
D16*
X278556700Y-57956330D03*
X291483700Y-55416330D03*
D13*
X269131700Y-74466330D03*
D14*
X261511700Y-79546330D03*
D15*
X266591700Y-79546330D03*
D13*
X262781700Y-77006330D03*
D14*
X271671700Y-79546330D03*
D16*
X259506700Y-77006330D03*
X272433700Y-74466330D03*
D14*
X204361700Y-136696330D03*
D13*
X213251700Y-139236330D03*
X206901700Y-141776330D03*
D14*
X214521700Y-136696330D03*
D15*
X209441700Y-136696330D03*
D16*
X216526700Y-139236330D03*
X203599700Y-141776330D03*
D14*
X309771700Y-117646330D03*
D15*
X304691700Y-117646330D03*
D13*
X307231700Y-112566330D03*
D14*
X299611700Y-117646330D03*
D13*
X300881700Y-115106330D03*
D16*
X297606700Y-115106330D03*
X310533700Y-112566330D03*
D14*
X128161700Y-60496330D03*
D13*
X129431700Y-57956330D03*
D14*
X138321700Y-60496330D03*
D15*
X133241700Y-60496330D03*
D13*
X135781700Y-55416330D03*
D16*
X126156700Y-57956330D03*
X139083700Y-55416330D03*
D14*
X299611700Y-136696330D03*
D15*
X304691700Y-136696330D03*
D13*
X307231700Y-131616330D03*
D14*
X309771700Y-136696330D03*
D13*
X300881700Y-134156330D03*
D16*
X297606700Y-134156330D03*
X310533700Y-131616330D03*
D13*
X91331700Y-77006330D03*
D14*
X90061700Y-79546330D03*
D15*
X95141700Y-79546330D03*
D14*
X100221700Y-79546330D03*
D13*
X97681700Y-74466330D03*
D16*
X88056700Y-77006330D03*
X100983700Y-74466330D03*
D19*
X187978700Y-143681330D03*
D15*
X199916700Y-136696330D03*
X211854700Y-128441330D03*
X187978700Y-128441330D03*
D13*
X196106700Y-134156330D03*
D14*
X194836700Y-136696330D03*
D19*
X211854700Y-143681330D03*
D14*
X204996700Y-136696330D03*
D13*
X202456700Y-131616330D03*
D16*
X192831700Y-134156330D03*
X205758700Y-131616330D03*
D13*
X205631700Y-77006330D03*
D14*
X214521700Y-79546330D03*
D15*
X209441700Y-79546330D03*
D14*
X204361700Y-79546330D03*
D13*
X211981700Y-74466330D03*
D16*
X202356700Y-77006330D03*
X215283700Y-74466330D03*
D14*
X176421700Y-136696330D03*
D13*
X173881700Y-131616330D03*
D15*
X171341700Y-136696330D03*
D14*
X166261700Y-136696330D03*
D13*
X167531700Y-134156330D03*
D16*
X164256700Y-134156330D03*
X177183700Y-131616330D03*
D13*
X262781700Y-57956330D03*
D14*
X271671700Y-60496330D03*
X261511700Y-60496330D03*
D15*
X266591700Y-60496330D03*
D13*
X269131700Y-55416330D03*
D16*
X259506700Y-57956330D03*
X272433700Y-55416330D03*
D14*
X166261700Y-117646330D03*
X176421700Y-117646330D03*
D13*
X167531700Y-115106330D03*
D15*
X171341700Y-117646330D03*
D13*
X173881700Y-112566330D03*
D16*
X164256700Y-115106330D03*
X177183700Y-112566330D03*
D14*
X280561700Y-136696330D03*
D15*
X285641700Y-136696330D03*
D14*
X290721700Y-136696330D03*
D13*
X281831700Y-134156330D03*
X288181700Y-131616330D03*
D16*
X278556700Y-134156330D03*
X291483700Y-131616330D03*
D13*
X135781700Y-112566330D03*
D14*
X128161700Y-117646330D03*
X138321700Y-117646330D03*
D13*
X129431700Y-115106330D03*
D15*
X133241700Y-117646330D03*
D16*
X126156700Y-115106330D03*
X139083700Y-112566330D03*
D20*
X35959700Y-54425330D03*
D17*
X257066377Y-69984605D03*
X256684041Y-69984605D03*
X257442137Y-69984605D03*
D18*
X257066377Y-69984605D03*
D13*
X91331700Y-134156330D03*
X97681700Y-131616330D03*
D14*
X100221700Y-136696330D03*
X90061700Y-136696330D03*
D15*
X95141700Y-136696330D03*
D16*
X88056700Y-134156330D03*
X100983700Y-131616330D03*
D13*
X231031700Y-112566330D03*
D15*
X228491700Y-117646330D03*
D14*
X233571700Y-117646330D03*
D13*
X224681700Y-115106330D03*
D14*
X223411700Y-117646330D03*
D16*
X221406700Y-115106330D03*
X234333700Y-112566330D03*
D13*
X250081700Y-131616330D03*
D14*
X252621700Y-136696330D03*
D15*
X247541700Y-136696330D03*
D14*
X242461700Y-136696330D03*
D13*
X243731700Y-134156330D03*
D16*
X240456700Y-134156330D03*
X253383700Y-131616330D03*
D17*
X180870757Y-89073713D03*
X181246517Y-89073713D03*
X180488421Y-89073713D03*
D18*
X180870757Y-89073713D03*
D13*
X59581700Y-112566330D03*
D14*
X51961700Y-117646330D03*
X62121700Y-117646330D03*
D13*
X53231700Y-115106330D03*
D15*
X57041700Y-117646330D03*
D16*
X49956700Y-115106330D03*
X62883700Y-112566330D03*
D13*
X149751700Y-141776330D03*
D14*
X157371700Y-136696330D03*
D13*
X156101700Y-139236330D03*
D14*
X147211700Y-136696330D03*
D15*
X152291700Y-136696330D03*
D16*
X159376700Y-139236330D03*
X146449700Y-141776330D03*
D15*
X190391700Y-136696330D03*
D14*
X195471700Y-136696330D03*
X185311700Y-136696330D03*
D13*
X194201700Y-139236330D03*
X187851700Y-141776330D03*
D16*
X197476700Y-139236330D03*
X184549700Y-141776330D03*
D13*
X288181700Y-74466330D03*
D15*
X285641700Y-79546330D03*
D13*
X281831700Y-77006330D03*
D14*
X290721700Y-79546330D03*
X280561700Y-79546330D03*
D16*
X278556700Y-77006330D03*
X291483700Y-74466330D03*
D15*
X114191700Y-98596330D03*
D13*
X116731700Y-93516330D03*
X110381700Y-96056330D03*
D14*
X119271700Y-98596330D03*
X109111700Y-98596330D03*
D16*
X107106700Y-96056330D03*
X120033700Y-93516330D03*
D17*
X66942782Y-127163469D03*
X66184686Y-127163469D03*
X66567022Y-127163469D03*
D18*
X66567022Y-127163469D03*
D13*
X40531700Y-112566330D03*
X34181700Y-115106330D03*
D14*
X43071700Y-117646330D03*
D15*
X37991700Y-117646330D03*
D14*
X32911700Y-117646330D03*
D16*
X30906700Y-115106330D03*
X43833700Y-112566330D03*
D13*
X186581700Y-57956330D03*
D14*
X185311700Y-60496330D03*
X195471700Y-60496330D03*
D13*
X192931700Y-55416330D03*
D15*
X190391700Y-60496330D03*
D16*
X183306700Y-57956330D03*
X196233700Y-55416330D03*
D14*
X37991700Y-74466330D03*
D13*
X35451700Y-83356330D03*
D15*
X37991700Y-79546330D03*
D13*
X32911700Y-77006330D03*
D14*
X37991700Y-84626330D03*
D21*
X35451700Y-86631330D03*
X32911700Y-73704330D03*
D13*
X78631700Y-131616330D03*
D15*
X76091700Y-136696330D03*
D13*
X72281700Y-134156330D03*
D14*
X71011700Y-136696330D03*
X81171700Y-136696330D03*
D16*
X69006700Y-134156330D03*
X81933700Y-131616330D03*
D13*
X224681700Y-77006330D03*
D14*
X223411700Y-79546330D03*
D15*
X228491700Y-79546330D03*
D13*
X231031700Y-74466330D03*
D14*
X233571700Y-79546330D03*
D16*
X221406700Y-77006330D03*
X234333700Y-74466330D03*
D20*
X35959700Y-142944330D03*
D13*
X243731700Y-96056330D03*
D14*
X252621700Y-98596330D03*
D15*
X247541700Y-98596330D03*
D14*
X242461700Y-98596330D03*
D13*
X250081700Y-93516330D03*
D16*
X240456700Y-96056330D03*
X253383700Y-93516330D03*
D15*
X209441700Y-98596330D03*
D14*
X204361700Y-98596330D03*
D13*
X205631700Y-96056330D03*
X211981700Y-93516330D03*
D14*
X214521700Y-98596330D03*
D16*
X202356700Y-96056330D03*
X215283700Y-93516330D03*
D15*
X114191700Y-136696330D03*
D13*
X116731700Y-131616330D03*
D14*
X119271700Y-136696330D03*
X109111700Y-136696330D03*
D13*
X110381700Y-134156330D03*
D16*
X107106700Y-134156330D03*
X120033700Y-131616330D03*
D13*
X53231700Y-96056330D03*
D14*
X62121700Y-98596330D03*
X51961700Y-98596330D03*
D13*
X59581700Y-93516330D03*
D15*
X57041700Y-98596330D03*
D16*
X49956700Y-96056330D03*
X62883700Y-93516330D03*
D13*
X110381700Y-115106330D03*
X116731700Y-112566330D03*
D14*
X109111700Y-117646330D03*
D15*
X114191700Y-117646330D03*
D14*
X119271700Y-117646330D03*
D16*
X107106700Y-115106330D03*
X120033700Y-112566330D03*
D14*
X242461700Y-117646330D03*
D13*
X250081700Y-112566330D03*
D14*
X252621700Y-117646330D03*
D13*
X243731700Y-115106330D03*
D15*
X247541700Y-117646330D03*
D16*
X240456700Y-115106330D03*
X253383700Y-112566330D03*
D15*
X133241700Y-98596330D03*
D13*
X135781700Y-93516330D03*
D14*
X138321700Y-98596330D03*
D13*
X129431700Y-96056330D03*
D14*
X128161700Y-98596330D03*
D16*
X126156700Y-96056330D03*
X139083700Y-93516330D03*
D22*
X216553700Y-142944330D03*
X68979700Y-139388330D03*
D23*
X30888613Y-86756059D03*
D24*
X40899700Y-64458330D03*
X42449700Y-64458330D03*
D25*
X43178324Y-77518954D03*
X42457076Y-76797706D03*
D26*
X45697288Y-90046098D03*
X45018466Y-90724920D03*
D27*
X40665920Y-62548108D03*
X42765920Y-62548108D03*
D23*
X30888613Y-89315988D03*
D28*
X39852946Y-88966455D03*
X39852946Y-87216455D03*
X41252946Y-87216455D03*
X41252946Y-88966455D03*
D29*
X47643700Y-68675330D03*
X47643700Y-71925330D03*
D26*
X47422963Y-82112492D03*
X46744141Y-82791314D03*
D30*
X49939181Y-56338330D03*
X44159181Y-56338330D03*
D31*
X43799181Y-57783330D03*
X44599181Y-57783330D03*
D32*
X45799181Y-57783330D03*
X46799181Y-57783330D03*
X47299181Y-57783330D03*
X48299181Y-57783330D03*
D31*
X49499181Y-57783330D03*
X50299181Y-57783330D03*
X50299181Y-57783330D03*
X49499181Y-57783330D03*
D32*
X48799181Y-57783330D03*
X47799181Y-57783330D03*
X46299181Y-57783330D03*
X45299181Y-57783330D03*
D31*
X44599181Y-57783330D03*
X43799181Y-57783330D03*
D33*
X51369181Y-52688330D03*
X42729181Y-52688330D03*
D34*
X42729181Y-56868330D03*
X51369181Y-56868330D03*
D35*
X42944700Y-72207330D03*
X42944700Y-71187330D03*
D36*
X53344214Y-82673752D03*
X54304214Y-82673752D03*
D22*
X140353700Y-142944330D03*
D37*
X53458103Y-87540657D03*
X53175260Y-87823500D03*
X52892418Y-88106342D03*
X52609575Y-88389185D03*
X52326732Y-88672028D03*
X52043890Y-88954870D03*
X51761047Y-89237713D03*
X51478204Y-89520556D03*
X51195361Y-89803399D03*
X50912519Y-90086241D03*
X50629676Y-90369084D03*
X50346833Y-90651927D03*
X50063991Y-90934769D03*
X49781148Y-91217612D03*
D38*
X48596744Y-91217612D03*
X48313901Y-90934769D03*
X48031059Y-90651927D03*
X47748216Y-90369084D03*
X47465373Y-90086241D03*
X47182531Y-89803399D03*
X46899688Y-89520556D03*
X46616845Y-89237713D03*
X46334002Y-88954870D03*
X46051160Y-88672028D03*
X45768317Y-88389185D03*
X45485474Y-88106342D03*
X45202632Y-87823500D03*
X44919789Y-87540657D03*
D37*
X44919789Y-86356253D03*
X45202632Y-86073410D03*
X45485474Y-85790568D03*
X45768317Y-85507725D03*
X46051160Y-85224882D03*
X46334002Y-84942040D03*
X46616845Y-84659197D03*
X46899688Y-84376354D03*
X47182531Y-84093511D03*
X47465373Y-83810669D03*
X47748216Y-83527826D03*
X48031059Y-83244983D03*
X48313901Y-82962141D03*
X48596744Y-82679298D03*
D38*
X49781148Y-82679298D03*
X50063991Y-82962141D03*
X50346833Y-83244983D03*
X50629676Y-83527826D03*
X50912519Y-83810669D03*
X51195361Y-84093511D03*
X51478204Y-84376354D03*
X51761047Y-84659197D03*
X52043890Y-84942040D03*
X52326732Y-85224882D03*
X52609575Y-85507725D03*
X52892418Y-85790568D03*
X53175260Y-86073410D03*
X53458103Y-86356253D03*
D39*
X49188946Y-86948455D03*
D22*
X221379700Y-139388330D03*
X310279700Y-88080330D03*
D40*
X38753700Y-67506330D03*
D22*
X107079700Y-139388330D03*
D41*
X45101700Y-59886330D03*
X46121700Y-59886330D03*
D22*
X30879700Y-139388330D03*
D36*
X52116877Y-90937455D03*
X53076877Y-90937455D03*
D25*
X61411812Y-82695799D03*
X60690564Y-81974551D03*
D22*
X297579700Y-139388330D03*
X164229700Y-139388330D03*
X259479700Y-139388330D03*
X49929700Y-139388330D03*
D42*
X63029115Y-86316532D03*
X62131090Y-87214557D03*
X61233064Y-88112583D03*
X60335039Y-89010608D03*
X56693439Y-85369008D03*
X57591464Y-84470983D03*
X58489490Y-83572957D03*
X59387515Y-82674932D03*
D22*
X197503700Y-142944330D03*
D29*
X44722700Y-68675330D03*
X44722700Y-71925330D03*
D43*
X50077076Y-81115706D03*
X50798324Y-81836954D03*
D22*
X88029700Y-139388330D03*
D44*
X40531700Y-83503970D03*
X40531700Y-84523970D03*
D45*
X42332946Y-85841455D03*
X41372946Y-85841455D03*
D46*
X55051466Y-87611559D03*
X55730288Y-88290381D03*
D22*
X159403700Y-142944330D03*
D23*
X30888613Y-91875917D03*
D36*
X53344214Y-83658978D03*
X54304214Y-83658978D03*
D24*
X40772700Y-69665330D03*
X42322700Y-69665330D03*
D40*
X46627700Y-76650330D03*
D47*
X53231700Y-58387830D03*
X53231700Y-56812830D03*
D22*
X310279700Y-68776330D03*
X278529700Y-138863330D03*
D25*
X44575324Y-78915954D03*
X43854076Y-78194706D03*
D48*
X48127611Y-81451963D03*
X47448789Y-80773141D03*
D43*
X62091453Y-83399346D03*
X62812701Y-84120594D03*
D22*
X306977700Y-103828330D03*
D49*
X48183700Y-61222330D03*
X48183700Y-62172330D03*
X48183700Y-63122330D03*
X45833700Y-63122330D03*
X45833700Y-62172330D03*
X45833700Y-61222330D03*
D22*
X310279700Y-126688330D03*
D40*
X44239268Y-64669721D03*
D44*
X42602946Y-87181455D03*
X42602946Y-88201455D03*
D43*
X51674736Y-81295552D03*
X52395984Y-82016800D03*
D50*
X41547700Y-84498970D03*
X41547700Y-83528970D03*
D51*
X42716200Y-60775330D03*
X41141200Y-60775330D03*
D26*
X46727168Y-81413306D03*
X46048346Y-82092128D03*
D22*
X240429700Y-139388330D03*
D36*
X39372946Y-85841455D03*
X40332946Y-85841455D03*
D52*
X42565920Y-68185330D03*
X40665920Y-68185330D03*
X41615920Y-66065330D03*
D48*
X44992201Y-89377715D03*
X44313379Y-88698893D03*
X45020085Y-84568169D03*
X44341263Y-83889347D03*
D41*
X48403700Y-59886330D03*
X49423700Y-59886330D03*
D22*
X307248700Y-142944330D03*
M02*
