M48
; DRILL file {KiCad (6.0.4)} date Sat Oct 29 20:59:09 2022
; FORMAT={-:-/ absolute / metric / decimal}
; #@! TF.CreationDate,2022-10-29T20:59:09+01:00
; #@! TF.GenerationSoftware,Kicad,Pcbnew,(6.0.4)
; #@! TF.FileFunction,Plated,1,2,PTH
FMAT,2
METRIC
; #@! TA.AperFunction,Plated,PTH,ViaDrill
T1C0.300
; #@! TA.AperFunction,Plated,PTH,ViaDrill
T2C0.400
; #@! TA.AperFunction,Plated,PTH,ComponentDrill
T3C0.500
; #@! TA.AperFunction,Plated,PTH,ComponentDrill
T4C0.600
; #@! TA.AperFunction,Plated,PTH,ComponentDrill
T5C0.700
; #@! TA.AperFunction,Plated,PTH,ComponentDrill
T6C2.200
%
G90
G05
T1
X33.0Y-71.0
X33.0Y-80.0
X33.0Y-82.5
X33.906Y-90.975
X37.0Y-90.975
X38.5Y-107.0
X39.008Y-76.015
X40.182Y-76.015
X40.5Y-81.222
X40.532Y-82.765
X40.85Y-85.256
X41.025Y-76.015
X42.053Y-88.932
X42.5Y-109.5
X43.107Y-73.751
X43.107Y-75.142
X43.707Y-95.827
X43.707Y-88.967
X43.729Y-80.311
X43.834Y-62.045
X43.942Y-83.439
X43.962Y-87.537
X44.323Y-77.724
X44.342Y-85.284
X44.469Y-90.364
X44.482Y-89.615
X44.977Y-97.732
X45.085Y-79.375
X45.5Y-74.0
X45.593Y-81.661
X45.962Y-59.268
X46.209Y-68.643
X46.395Y-87.848
X46.863Y-80.264
X46.87Y-88.307
X47.39Y-121.1
X47.538Y-86.948
X47.644Y-73.856
X47.644Y-74.613
X48.0Y-93.5
X48.383Y-87.683
X48.427Y-86.059
X49.154Y-84.297
X49.168Y-62.172
X49.182Y-86.885
X49.189Y-85.297
X49.189Y-88.472
X49.189Y-90.377
X49.954Y-86.139
X50.038Y-59.886
X50.074Y-87.736
X50.092Y-123.142
X50.092Y-125.5
X50.692Y-72.84
X50.819Y-86.925
X52.76Y-83.743
X53.105Y-102.558
X53.105Y-107.257
X53.613Y-93.247
X53.702Y-91.127
X53.74Y-79.67
X54.0Y-70.5
X54.0Y-100.0
X54.293Y-83.121
X54.756Y-75.38
X55.243Y-93.437
X55.518Y-74.343
X55.738Y-90.989
X56.012Y-92.991
X56.261Y-87.757
X56.751Y-92.468
X57.042Y-88.589
X57.042Y-89.339
X57.042Y-90.088
X57.5Y-64.5
X57.55Y-92.048
X58.058Y-70.554
X59.201Y-87.824
X60.0Y-100.0
X61.233Y-85.792
X62.192Y-67.242
X63.646Y-65.347
X64.77Y-70.612
X65.043Y-105.733
X65.5Y-87.0
X65.805Y-94.43
X65.932Y-96.97
X66.059Y-102.812
X66.567Y-94.43
X66.821Y-89.985
X66.821Y-90.747
X66.821Y-91.817
X67.075Y-107.257
X67.092Y-95.542
X68.472Y-64.712
X68.472Y-67.252
X68.472Y-81.222
X68.472Y-83.762
X70.123Y-104.082
X70.123Y-106.0
X70.25Y-123.132
X70.25Y-125.418
X70.377Y-86.0
X83.585Y-107.257
X85.592Y-97.842
X87.522Y-64.712
X87.522Y-67.252
X87.522Y-83.762
X87.522Y-85.913
X87.522Y-104.082
X87.522Y-106.0
X87.522Y-123.132
X87.522Y-125.5
X92.475Y-90.747
X102.508Y-107.257
X103.651Y-90.747
X105.792Y-94.242
X106.572Y-64.712
X106.572Y-67.252
X106.572Y-83.762
X106.572Y-85.913
X106.572Y-104.082
X106.572Y-106.0
X106.572Y-123.132
X106.572Y-125.5
X111.779Y-90.747
X121.558Y-107.257
X122.701Y-90.747
X124.792Y-94.242
X125.622Y-64.712
X125.622Y-67.252
X125.622Y-83.762
X125.622Y-85.913
X125.622Y-104.082
X125.622Y-106.0
X125.622Y-123.132
X129.559Y-90.747
X133.242Y-134.181
X141.497Y-107.257
X142.64Y-90.747
X143.992Y-94.242
X144.672Y-64.712
X144.672Y-67.252
X144.672Y-83.762
X144.672Y-85.913
X144.672Y-104.082
X144.672Y-106.0
X149.371Y-90.747
X154.832Y-123.132
X157.753Y-134.689
X160.547Y-107.257
X161.69Y-90.747
X162.992Y-94.242
X163.595Y-126.815
X163.722Y-64.712
X163.722Y-67.252
X163.722Y-83.762
X163.722Y-85.913
X163.722Y-104.082
X163.722Y-106.0
X163.722Y-123.132
X167.5Y-129.5
X168.802Y-90.747
X180.359Y-107.257
X181.892Y-94.242
X182.772Y-64.712
X182.772Y-67.252
X182.772Y-81.476
X182.772Y-83.0
X182.772Y-104.082
X182.772Y-106.0
X183.407Y-123.132
X186.836Y-90.747
X187.217Y-136.975
X197.25Y-107.257
X198.901Y-90.747
X199.917Y-129.101
X200.992Y-94.242
X201.822Y-64.712
X201.822Y-67.252
X201.822Y-83.762
X201.822Y-85.913
X201.822Y-104.082
X201.822Y-106.0
X201.822Y-123.132
X206.775Y-90.747
X206.775Y-134.689
X208.172Y-132.149
X218.967Y-107.257
X220.092Y-94.142
X220.11Y-90.747
X220.872Y-64.712
X220.872Y-67.252
X220.872Y-83.762
X220.872Y-85.913
X220.872Y-104.082
X220.872Y-106.0
X220.872Y-123.132
X220.872Y-125.5
X226.206Y-90.747
X236.493Y-107.257
X237.636Y-90.747
X239.092Y-94.242
X239.922Y-64.712
X239.922Y-67.252
X239.922Y-83.762
X239.922Y-85.913
X239.922Y-104.082
X239.922Y-106.0
X239.922Y-123.132
X240.0Y-125.5
X244.748Y-90.747
X255.543Y-107.257
X256.686Y-90.747
X258.192Y-94.142
X258.972Y-64.712
X258.972Y-67.252
X258.972Y-83.762
X258.972Y-85.913
X258.972Y-104.082
X258.972Y-106.0
X258.972Y-123.132
X259.0Y-125.5
X263.671Y-90.747
X275.736Y-107.257
X276.879Y-90.747
X277.492Y-93.942
X278.022Y-64.712
X278.022Y-67.252
X278.022Y-83.762
X278.022Y-85.913
X278.022Y-104.082
X278.022Y-106.0
X278.022Y-123.132
X278.022Y-125.5
X294.151Y-107.257
X295.792Y-79.342
X297.072Y-64.712
X297.072Y-67.252
X297.072Y-83.762
X297.072Y-86.302
X297.072Y-104.082
X297.072Y-106.0
X297.072Y-123.132
X297.072Y-125.5
T2
X41.548Y-59.251
X41.929Y-71.697
X43.834Y-60.013
X46.456Y-64.808
X47.644Y-65.22
X49.168Y-80.206
X49.429Y-58.87
X50.692Y-80.46
T3
X38.754Y-67.506
X44.239Y-64.67
X46.628Y-76.65
T4
X47.644Y-69.665
X47.644Y-70.935
T5
X30.889Y-86.756
X30.889Y-89.316
X30.889Y-91.876
T4
X42.729Y-52.388G85X42.729Y-52.988
G05
X42.729Y-56.318G85X42.729Y-57.418
G05
X51.369Y-52.388G85X51.369Y-52.988
G05
X51.369Y-56.318G85X51.369Y-57.418
G05
T6
X66.167Y-127.163G85X66.967Y-127.163
G05
X85.215Y-70.017G85X86.015Y-70.017
G05
X180.471Y-89.074G85X181.271Y-89.074
G05
X218.591Y-130.797G85X219.391Y-130.797
G05
X256.666Y-69.985G85X257.466Y-69.985
G05
T0
M30
